<svg width="240" height="240" viewBox="0 0 240 240" fill="none" xmlns="http://www.w3.org/2000/svg">
<g clip-path="url(#clip0_40009427_144298)">
<circle opacity="0.25" cx="120" cy="120" r="45.9038" stroke="#00AF43" stroke-width="0.5"/>
<circle opacity="0.2" cx="120" cy="120" r="64.3654" stroke="#00AF43" stroke-width="0.5"/>
<circle opacity="0.15" cx="120" cy="120" r="82.8269" stroke="#00AF43" stroke-width="0.5"/>
<path opacity="0.1" d="M120 18.7114C175.94 18.7114 221.289 64.0596 221.289 120C221.289 175.94 175.94 221.289 120 221.289C64.0597 221.288 18.7115 175.939 18.7115 120C18.7117 64.0597 64.0599 18.7116 120 18.7114Z" stroke="#00AF43" stroke-width="0.5"/>
<path opacity="0.05" d="M120 0.25C186.136 0.25 239.75 53.8639 239.75 120C239.75 186.136 186.136 239.75 120 239.75C53.8639 239.75 0.250004 186.136 0.25 120C0.25 53.8639 53.8639 0.25 120 0.25Z" stroke="#00AF43" stroke-width="0.5"/>
<path opacity="0.5" d="M96.6667 113H143.333V103.667C143.333 102.378 142.289 101.333 141 101.333H99C97.7113 101.333 96.6667 102.378 96.6667 103.667V113Z" fill="#00AF43"/>
<path fill-rule="evenodd" clip-rule="evenodd" d="M143.333 115.333V124.666C141.205 121.832 137.816 120 134 120C127.557 120 122.333 125.223 122.333 131.667C122.333 135.483 124.166 138.871 126.998 140.999H99C97.7113 140.999 96.6667 139.955 96.6667 138.666V115.333H143.333ZM101.333 122.333L101.322 120H110.655L110.667 122.333H101.333Z" fill="#00AF43"/>
<path opacity="0.5" fill-rule="evenodd" clip-rule="evenodd" d="M134.117 140.942C139.239 140.942 143.392 136.789 143.392 131.667C143.392 126.544 139.239 122.392 134.117 122.392C128.994 122.392 124.842 126.544 124.842 131.667C124.842 136.789 128.994 140.942 134.117 140.942ZM132.792 136.19L139.029 129.954L137.155 128.08L132.792 132.443L131.079 130.73L129.205 132.604L132.792 136.19Z" fill="#00AF43"/>
</g>
<defs>
<clipPath id="clip0_40009427_144298">
<rect width="240" height="240" fill="white"/>
</clipPath>
</defs>
</svg>
