<svg width="240" height="240" viewBox="0 0 240 240" fill="none" xmlns="http://www.w3.org/2000/svg">
<g clip-path="url(#clip0_40009440_146522)">
<circle opacity="0.25" cx="120" cy="120" r="45.9038" stroke="#5B6A83" stroke-width="0.5"/>
<circle opacity="0.2" cx="120" cy="120" r="64.3654" stroke="#5B6A83" stroke-width="0.5"/>
<circle opacity="0.15" cx="120" cy="120" r="82.8269" stroke="#5B6A83" stroke-width="0.5"/>
<path opacity="0.1" d="M120 18.7115C175.94 18.7115 221.289 64.0597 221.289 120C221.289 175.94 175.94 221.289 120 221.289C64.0597 221.288 18.7115 175.94 18.7115 120C18.7117 64.0599 64.0599 18.7117 120 18.7115Z" stroke="#5B6A83" stroke-width="0.5"/>
<path opacity="0.05" d="M120 0.25C186.136 0.25 239.75 53.8639 239.75 120C239.75 186.136 186.136 239.75 120 239.75C53.8639 239.75 0.250004 186.136 0.25 120C0.25 53.8639 53.8639 0.25 120 0.25Z" stroke="#5B6A83" stroke-width="0.5"/>
<ellipse cx="120" cy="120" rx="120" ry="120" fill="url(#paint0_linear_40009440_146522)" fill-opacity="0.05"/>
<path d="M120 143.333C107.113 143.333 96.6667 132.887 96.6667 120C96.6667 107.113 107.113 96.6666 120 96.6666C132.887 96.6666 143.333 107.113 143.333 120C143.333 132.887 132.887 143.333 120 143.333ZM117.667 117.667V131.667H122.333V117.667H117.667ZM117.667 108.333V113H122.333V108.333H117.667Z" fill="#5B6A83"/>
</g>
<defs>
<linearGradient id="paint0_linear_40009440_146522" x1="120" y1="0" x2="120" y2="240" gradientUnits="userSpaceOnUse">
<stop stop-color="#9DA6B5"/>
<stop offset="1" stop-color="#F7F8F9"/>
</linearGradient>
<clipPath id="clip0_40009440_146522">
<rect width="240" height="240" fill="white"/>
</clipPath>
</defs>
</svg>
