<svg width="240" height="240" viewBox="0 0 240 240" fill="none" xmlns="http://www.w3.org/2000/svg">
<g clip-path="url(#clip0_40009460_24160)">
<circle opacity="0.25" cx="120" cy="120" r="45.9038" stroke="#65B2E8" stroke-width="0.5"/>
<circle opacity="0.2" cx="120" cy="120" r="64.3654" stroke="#65B2E8" stroke-width="0.5"/>
<circle opacity="0.15" cx="120" cy="120" r="82.8269" stroke="#65B2E8" stroke-width="0.5"/>
<path opacity="0.1" d="M120 18.7114C175.94 18.7114 221.289 64.0596 221.289 120C221.289 175.94 175.94 221.289 120 221.289C64.0597 221.288 18.7115 175.939 18.7115 120C18.7117 64.0597 64.0599 18.7116 120 18.7114Z" stroke="#65B2E8" stroke-width="0.5"/>
<path opacity="0.05" d="M120 0.25C186.136 0.25 239.75 53.8639 239.75 120C239.75 186.136 186.136 239.75 120 239.75C53.8639 239.75 0.250004 186.136 0.25 120C0.25 53.8639 53.8639 0.25 120 0.25Z" stroke="#65B2E8" stroke-width="0.5"/>
<path d="M134.849 105.151L131.55 108.45C128.878 105.778 125.362 104.115 121.602 103.744C117.841 103.374 114.069 104.318 110.926 106.418C107.784 108.517 105.467 111.641 104.37 115.257C103.273 118.873 103.464 122.757 104.91 126.248C106.355 129.74 108.967 132.621 112.3 134.403C115.632 136.185 119.479 136.755 123.185 136.019C126.892 135.282 130.228 133.282 132.625 130.361C135.023 127.441 136.333 123.779 136.333 120H141C141 124.858 139.315 129.567 136.233 133.322C133.151 137.078 128.862 139.649 124.097 140.596C119.332 141.544 114.385 140.81 110.101 138.52C105.816 136.23 102.458 132.525 100.598 128.036C98.7393 123.547 98.4939 118.553 99.9043 113.904C101.315 109.254 104.293 105.238 108.333 102.539C112.373 99.8397 117.223 98.6247 122.058 99.1009C126.894 99.5772 131.414 101.715 134.849 105.151Z" fill="#65B2E8"/>
</g>
<defs>
<clipPath id="clip0_40009460_24160">
<rect width="240" height="240" fill="white"/>
</clipPath>
</defs>
</svg>
