<svg width="240" height="240" viewBox="0 0 240 240" fill="none" xmlns="http://www.w3.org/2000/svg">
<g clip-path="url(#clip0_40009440_146582)">
<circle opacity="0.25" cx="120" cy="120" r="45.9038" stroke="#65B2E8" stroke-width="0.5"/>
<circle opacity="0.2" cx="120" cy="120" r="64.3654" stroke="#65B2E8" stroke-width="0.5"/>
<circle opacity="0.15" cx="120" cy="120" r="82.8269" stroke="#65B2E8" stroke-width="0.5"/>
<path opacity="0.1" d="M120 18.7114C175.94 18.7114 221.289 64.0596 221.289 120C221.289 175.94 175.94 221.289 120 221.289C64.0597 221.288 18.7115 175.939 18.7115 120C18.7117 64.0597 64.0599 18.7116 120 18.7114Z" stroke="#65B2E8" stroke-width="0.5"/>
<path opacity="0.05" d="M120 0.25C186.136 0.25 239.75 53.8639 239.75 120C239.75 186.136 186.136 239.75 120 239.75C53.8639 239.75 0.250004 186.136 0.25 120C0.25 53.8639 53.8639 0.25 120 0.25Z" stroke="#65B2E8" stroke-width="0.5"/>
<ellipse cx="120" cy="120" rx="120" ry="120" fill="url(#paint0_linear_40009440_146582)" fill-opacity="0.05"/>
<path d="M120 143.333C107.113 143.333 96.6667 132.887 96.6667 120C96.6667 107.113 107.113 96.6667 120 96.6667C132.887 96.6667 143.333 107.113 143.333 120C143.333 132.887 132.887 143.333 120 143.333ZM117.667 117.667V131.667H122.333V117.667H117.667ZM117.667 108.333V113H122.333V108.333H117.667Z" fill="#65B2E8"/>
</g>
<defs>
<linearGradient id="paint0_linear_40009440_146582" x1="120" y1="0" x2="120" y2="240" gradientUnits="userSpaceOnUse">
<stop stop-color="#A2D0F1"/>
<stop offset="1" stop-color="#EFF7FC"/>
</linearGradient>
<clipPath id="clip0_40009440_146582">
<rect width="240" height="240" fill="white"/>
</clipPath>
</defs>
</svg>
