<svg width="218" height="32" viewBox="0 0 218 32" fill="none" xmlns="http://www.w3.org/2000/svg">
<path d="M214.333 10.2534H196.641C196.315 10.2412 195.989 10.2847 195.677 10.3819C195.466 10.4547 195.274 10.5721 195.112 10.726C194.945 10.8921 194.814 11.0907 194.727 11.3094C194.639 11.5281 194.598 11.7624 194.605 11.9977C194.599 12.2484 194.652 12.497 194.759 12.7238C194.866 12.9507 195.025 13.1495 195.223 13.3045C195.378 13.4302 195.557 13.5222 195.75 13.5746C196.041 13.6464 196.341 13.6775 196.641 13.6671H207.454C208.653 13.6338 209.847 13.8371 210.968 14.2655C211.878 14.6299 212.701 15.1796 213.386 15.8794C214.039 16.5549 214.564 17.3427 214.935 18.2046C215.661 19.9043 215.686 21.8203 215.006 23.5384C214.69 24.345 214.242 25.0936 213.68 25.7536C212.977 26.5425 212.114 27.1731 211.148 27.6033C209.98 28.0935 208.72 28.3278 207.453 28.2905H188.377V22.0114H206.288C206.689 22.0277 207.09 21.972 207.471 21.8468C207.729 21.7515 207.961 21.5965 208.147 21.3946C208.412 21.0798 208.554 20.6793 208.545 20.2681C208.553 20.0275 208.513 19.7876 208.426 19.563C208.339 19.3384 208.208 19.1337 208.039 18.9612C207.867 18.7675 207.646 18.6235 207.399 18.5441C207.036 18.4468 206.661 18.405 206.286 18.4201H196.276C194.92 18.4668 193.568 18.263 192.287 17.819C191.349 17.4656 190.498 16.9152 189.792 16.205C189.143 15.5379 188.625 14.7555 188.264 13.8983C187.894 13.0069 187.708 12.0498 187.718 11.0848C187.711 10.1234 187.904 9.17103 188.286 8.28797C188.653 7.42637 189.176 6.63965 189.829 5.9674C190.53 5.25905 191.375 4.7079 192.306 4.3507C193.58 3.9056 194.925 3.70203 196.274 3.75046H214.328L214.333 10.2534Z" fill="#414B4F"/>
<path d="M184.959 23.5356C184.977 24.3455 184.846 25.1517 184.572 25.9145C184.353 26.5255 184.006 27.0825 183.552 27.5478C183.137 27.9666 182.634 28.2887 182.079 28.4912C181.52 28.6978 180.928 28.8018 180.331 28.7983C179.395 28.818 178.463 28.6644 177.583 28.3451C176.783 28.0361 176.075 27.5302 175.524 26.8745L162.016 11.303C161.948 11.2103 161.862 11.1331 161.762 11.0769C161.662 11.0207 161.551 10.9868 161.437 10.9775C161.355 10.9769 161.274 10.9931 161.199 11.0249C161.123 11.0567 161.055 11.1035 160.999 11.1625C160.935 11.2306 160.886 11.3107 160.854 11.398C160.823 11.4854 160.809 11.5783 160.813 11.6711V28.2951H154.337V8.94457C154.314 8.04356 154.454 7.14576 154.752 6.29477C154.992 5.62498 155.391 5.02288 155.914 4.53977C156.438 4.05666 157.07 3.70686 157.759 3.5201C158.504 3.30897 159.276 3.20525 160.051 3.2121C161.069 3.14821 162.088 3.337 163.015 3.76165C163.943 4.1863 164.75 4.83355 165.365 5.64547L177.377 19.9813C177.452 20.084 177.553 20.1656 177.67 20.218C177.775 20.2546 177.886 20.2725 177.998 20.2707C178.337 20.2707 178.507 20.0543 178.507 19.6178V3.75132H184.955L184.959 23.5356Z" fill="#414B4F"/>
<path d="M133.006 28.2885C131.035 28.3337 129.076 27.9686 127.255 27.2166C125.683 26.5406 124.27 25.5462 123.105 24.2967C121.512 22.5176 120.466 20.3192 120.091 17.9636C119.717 15.6081 120.029 13.1948 120.992 11.0115C121.679 9.48523 122.67 8.11378 123.904 6.97999C125.03 5.94528 126.346 5.13806 127.781 4.60301C129.456 4.00325 131.228 3.71363 133.008 3.7484H138.179C139.957 3.71365 141.726 4.00328 143.4 4.60301C144.835 5.13687 146.153 5.94421 147.279 6.97999C148.512 8.11475 149.503 9.48594 150.192 11.0115C150.901 12.5851 151.261 14.2929 151.247 16.018C151.28 18.3978 150.602 20.7335 149.299 22.7277C147.996 24.7219 146.127 26.2842 143.93 27.2156C142.108 27.9673 140.15 28.3324 138.179 28.2876L133.006 28.2885ZM133.006 10.2476C132.065 10.2187 131.127 10.3658 130.241 10.6814C129.544 10.9527 128.902 11.3472 128.346 11.8458C127.782 12.3818 127.33 13.0236 127.016 13.7344C126.687 14.4648 126.519 15.2571 126.524 16.0578C126.52 16.7846 126.657 17.5052 126.927 18.1804C127.186 18.833 127.569 19.4297 128.054 19.9376C128.614 20.5348 129.296 21.0046 130.054 21.3148C130.994 21.6791 131.998 21.8521 133.006 21.8235H138.177C139.184 21.8516 140.187 21.6787 141.126 21.3148C141.884 21.0043 142.566 20.5346 143.125 19.9376C143.609 19.4281 143.993 18.8319 144.256 18.1804C144.523 17.5045 144.658 16.7842 144.655 16.0578C144.661 15.257 144.493 14.4644 144.163 13.7344C143.848 13.024 143.396 12.3823 142.833 11.8458C142.277 11.3481 141.636 10.9537 140.94 10.6814C140.054 10.3663 139.117 10.2192 138.177 10.2476H133.006Z" fill="#414B4F"/>
<path d="M99.7657 3.75137V13.8087L110.979 4.76969C111.356 4.46866 111.698 4.12747 112 3.75228H121.208C121.131 3.88297 121.032 4.00012 120.916 4.09911C120.799 4.20917 120.676 4.31184 120.555 4.40711L107.012 14.8584C106.948 14.9044 106.895 14.9642 106.857 15.0334C106.82 15.1026 106.798 15.1793 106.795 15.2579C106.798 15.3365 106.819 15.4134 106.856 15.4825C106.894 15.5517 106.947 15.6112 107.012 15.6566L121.54 27.3823C121.708 27.5284 121.871 27.6727 122.031 27.817C122.192 27.9656 122.343 28.1231 122.486 28.2887H112.653C112.322 27.9154 111.955 27.5747 111.559 27.2713L99.7639 17.4351V28.2887H93.1042V3.75137H99.7657Z" fill="#414B4F"/>
<path d="M44.8068 28.2885C43.5214 28.318 42.239 28.1527 41.0034 27.7983C40.0618 27.5272 39.2081 27.0144 38.5276 26.3111C37.8831 25.5985 37.4259 24.7376 37.1973 23.8055C36.9149 22.6591 36.7802 21.4815 36.7965 20.3011V3.74561H43.4209V19.687C43.3523 20.3312 43.5137 20.9789 43.8764 21.5164C44.1184 21.7081 44.3959 21.8502 44.6931 21.9344C44.9903 22.0187 45.3014 22.0436 45.6083 22.0076H62.6771V28.2885H44.8068Z" fill="#414B4F"/>
<path d="M72.6217 28.2885C71.3363 28.3176 70.0539 28.1523 68.8182 27.7983C67.8779 27.5252 67.0253 27.0127 66.3442 26.3111C65.7 25.5987 65.2439 24.7376 65.0168 23.8055C64.7308 22.6597 64.5958 21.4817 64.6151 20.3011V3.74561H71.2376V19.687C71.1681 20.3318 71.3308 20.9803 71.6967 21.5164C71.9376 21.7084 72.2144 21.8507 72.5109 21.935C72.8075 22.0193 73.1179 22.044 73.4241 22.0076H90.4975V28.2885H72.6217Z" fill="#414B4F"/>
<path d="M35.5231 27.2068C35.6133 27.3838 35.6929 27.566 35.7616 27.7524C35.8191 27.9198 35.8738 28.1011 35.9258 28.2954H28.498C28.4479 28.1252 28.3997 27.9735 28.3515 27.8431C28.3032 27.7127 28.2587 27.5813 28.2077 27.4602L26.8969 24.4857H12.3327L11.06 27.425C11.0099 27.5711 10.9599 27.7154 10.9144 27.8606C10.865 28.0022 10.829 28.148 10.8068 28.2963H3.20001C3.24587 28.1126 3.30096 27.9315 3.36511 27.7534C3.42993 27.5659 3.50872 27.3835 3.60076 27.2077L12.4135 7.75167C12.9924 6.37635 13.9514 5.1934 15.1787 4.34068C16.5059 3.6018 18.0006 3.21387 19.5207 3.21387C21.0407 3.21387 22.5354 3.6018 23.8626 4.34068C25.097 5.19036 26.0625 6.37371 26.6455 7.75167L35.5231 27.2068ZM24.4906 19.076L20.7067 10.2896C20.6093 10.0535 20.4436 9.85165 20.2308 9.70966C20.0345 9.58641 19.8068 9.52217 19.5749 9.52467C19.3579 9.52384 19.1447 9.5807 18.9571 9.68934C18.7348 9.82863 18.567 10.0394 18.4812 10.2868L14.7354 19.0733L24.4906 19.076Z" fill="#414B4F"/>
</svg>
