<svg width="20" height="20" viewBox="0 0 20 20" fill="none" xmlns="http://www.w3.org/2000/svg">
<path d="M11.8307 19.8366C11.9076 19.6999 11.9477 19.5456 11.9471 19.3888C11.9464 19.232 11.9051 19.078 11.8272 18.9419C11.7624 18.8292 11.674 18.732 11.568 18.6569C11.4619 18.5818 11.3408 18.5306 11.2131 18.5069C11.1464 18.4912 11.0668 18.4763 10.9778 18.4618C10.8362 18.4387 10.7033 18.4175 10.5739 18.3975C10.046 18.3139 9.62916 18.248 9.27073 18.1531C9.02831 18.0814 8.79137 17.9925 8.56172 17.8868C8.54525 17.8794 8.52958 17.8715 8.5139 17.8625C8.39947 17.7964 8.31244 17.6916 8.26856 17.567C8.22468 17.4423 8.22684 17.3061 8.27464 17.1829C8.32244 17.0597 8.41271 16.9577 8.52917 16.8953C8.64562 16.8329 8.78053 16.8142 8.90955 16.8426C9.32156 16.954 9.74092 17.0361 10.1645 17.0886C10.6685 17.1214 11.1741 17.1214 11.6782 17.0886H11.6864C11.9407 17.4311 12.2934 17.6878 12.6974 17.8244C13.1015 17.961 13.5376 17.971 13.9474 17.853C14.3573 17.735 14.7214 17.4946 14.991 17.1641C15.2606 16.8335 15.4229 16.4286 15.4562 16.0033L15.4625 16.0005C15.9982 15.7181 16.4942 15.3661 16.9377 14.9536C17.2762 14.6131 17.6068 14.1856 18.0809 13.6031C18.1468 13.5227 18.1942 13.469 18.2283 13.4325C18.3137 13.3314 18.4323 13.2641 18.5629 13.2428C18.6935 13.2215 18.8274 13.2476 18.9404 13.3165C19.0534 13.3853 19.1381 13.4922 19.1792 13.618C19.2203 13.7438 19.215 13.8802 19.1644 14.0024V14.0056L19.1613 14.0134V14.0177C18.5013 15.5081 17.4899 16.8163 16.2138 17.8302C14.9377 18.8441 13.435 19.5335 11.8342 19.8394L11.8307 19.8366Z" fill="#414B4F"/>
<path d="M11.8538 16.7141C12.0673 17.0825 12.4078 17.3605 12.8115 17.4958C13.2152 17.6311 13.6544 17.6145 14.0467 17.449C14.439 17.2836 14.7575 16.9807 14.9425 16.5971C15.1275 16.2135 15.1662 15.7756 15.0515 15.3655C15.012 15.2242 14.9551 15.0884 14.8821 14.9611C14.669 14.5919 14.3284 14.3131 13.9244 14.1773C13.5203 14.0415 13.0806 14.0579 12.6878 14.2235C12.295 14.3891 11.9762 14.6925 11.7913 15.0766C11.6064 15.4608 11.5681 15.8993 11.6836 16.3097C11.7228 16.4511 11.7799 16.587 11.8534 16.7141" fill="#414B4F"/>
<path d="M2.40061 16.5049C2.54388 16.5034 2.68475 16.4678 2.81153 16.4011C2.9383 16.3343 3.04733 16.2383 3.12963 16.121C3.21192 16.0037 3.26509 15.8684 3.28473 15.7265C3.30436 15.5845 3.2899 15.4399 3.24255 15.3047C3.22255 15.2388 3.1963 15.1627 3.16414 15.0771C3.11316 14.943 3.06412 14.8159 3.01785 14.6951C2.82608 14.1962 2.67473 13.802 2.57787 13.4443C2.51855 13.1982 2.477 12.9483 2.45355 12.6963C2.45158 12.6783 2.45063 12.6602 2.45078 12.6421C2.45038 12.5098 2.49746 12.3818 2.58342 12.2813C2.66939 12.1807 2.78857 12.1144 2.91928 12.0942C3.05 12.0741 3.18357 12.1015 3.29578 12.1716C3.408 12.2416 3.49137 12.3495 3.53078 12.4758C3.64063 12.8886 3.77926 13.2932 3.94567 13.6867C4.16991 14.1393 4.42329 14.5769 4.70413 14.9968L4.70921 15.0042C4.53978 15.3956 4.49382 15.8294 4.57747 16.2477C4.66111 16.6659 4.87036 17.0487 5.17728 17.3448C5.4842 17.6409 5.87416 17.8363 6.29506 17.9048C6.71595 17.9734 7.14777 17.9118 7.53275 17.7283L7.53782 17.7326C8.05026 18.0557 8.60315 18.3096 9.18212 18.4877C9.64565 18.6105 10.1809 18.6838 10.9221 18.8015C11.0245 18.8184 11.0946 18.8325 11.1433 18.8442C11.2748 18.8663 11.394 18.9351 11.479 19.0379C11.564 19.1407 11.6091 19.2707 11.6061 19.4041C11.6031 19.5375 11.5521 19.6653 11.4626 19.7642C11.3731 19.863 11.251 19.9264 11.1186 19.9425H11.1146H11.1064H11.1017C9.48136 20.1164 7.843 19.8943 6.32732 19.2954C4.81164 18.6966 3.46393 17.7387 2.39984 16.5041L2.40061 16.5049Z" fill="#414B4F"/>
<path d="M5.11553 14.9635C4.89245 15.3495 4.82484 15.8059 4.92639 16.24C5.02794 16.6741 5.29105 17.0531 5.66216 17.3C6.03328 17.5469 6.4845 17.643 6.92398 17.5688C7.36346 17.4946 7.75814 17.2557 8.02772 16.9007C8.2973 16.5457 8.4215 16.1013 8.37502 15.6579C8.32855 15.2146 8.11489 14.8056 7.77755 14.5143C7.44022 14.2229 7.0046 14.0711 6.5593 14.0897C6.114 14.1083 5.69249 14.2959 5.38063 14.6144C5.278 14.7192 5.18893 14.8365 5.11553 14.9635Z" fill="#414B4F"/>
<path d="M0.569241 6.66714C0.64213 6.79055 0.74335 6.8948 0.864554 6.97128C0.985758 7.04776 1.12344 7.09425 1.26619 7.1069C1.40893 7.11956 1.55263 7.09801 1.68539 7.04404C1.81815 6.99007 1.93617 6.90523 2.02962 6.79656C2.0759 6.74675 2.12885 6.68556 2.18649 6.61457C2.27747 6.50278 2.36295 6.39765 2.44452 6.29723C2.7802 5.88146 3.04567 5.55199 3.30724 5.29037C3.49037 5.11587 3.68594 4.95488 3.89236 4.80868C3.90699 4.79809 3.92216 4.78826 3.93783 4.77926C4.05224 4.71343 4.1864 4.69068 4.3161 4.7151C4.44581 4.73952 4.56252 4.80951 4.64517 4.91244C4.72781 5.01537 4.77095 5.14446 4.7668 5.27641C4.76266 5.40836 4.71147 5.53447 4.62252 5.632C4.31997 5.93339 4.03916 6.25584 3.78216 6.59692C3.50226 7.01759 3.24995 7.45599 3.02686 7.90937L3.02332 7.9172C2.59949 7.96626 2.20075 8.14355 1.88036 8.42536C1.55997 8.70717 1.33321 9.08009 1.23038 9.49426C1.12755 9.90842 1.15355 10.3441 1.30491 10.7431C1.45628 11.1421 1.72581 11.4854 2.07745 11.727V11.7337C2.0538 12.3392 2.1104 12.9451 2.24571 13.5357C2.37159 13.9989 2.57589 14.499 2.84256 15.2011C2.88177 15.2984 2.90215 15.3667 2.91666 15.4145C2.96189 15.5391 2.96104 15.6757 2.91427 15.7997C2.8675 15.9236 2.77791 16.0268 2.6617 16.0904C2.54549 16.154 2.41036 16.1739 2.28075 16.1465C2.15114 16.1191 2.0356 16.0461 1.95509 15.9409L1.95313 15.9378L1.94844 15.9311L1.94532 15.9272C1.7282 15.6294 1.52748 15.32 1.34412 15.0003C0.620647 13.7498 0.176727 12.3573 0.0429543 10.9187C-0.0908185 9.48013 0.088753 8.02966 0.569241 6.66714Z" fill="#414B4F"/>
<path d="M3.26134 8.24893C2.81594 8.2488 2.38722 8.41845 2.06247 8.72334C1.73772 9.02822 1.54134 9.44542 1.5133 9.89003C1.48526 10.3346 1.62771 10.7732 1.91158 11.1165C2.19546 11.4598 2.59944 11.682 3.04132 11.7378C3.48321 11.7937 3.92975 11.679 4.29007 11.4171C4.65039 11.1553 4.89738 10.7659 4.98079 10.3283C5.0642 9.89065 4.97777 9.43769 4.73905 9.06159C4.50033 8.68549 4.12729 8.41453 3.69586 8.30385C3.55389 8.26741 3.4079 8.24896 3.26134 8.24893Z" fill="#414B4F"/>
<path d="M8.1688 0.160769C8.0925 0.296988 8.05263 0.450615 8.0531 0.606758C8.05302 0.816564 8.12637 1.01978 8.26038 1.18119C8.39439 1.34259 8.5806 1.45201 8.78681 1.49048C8.85386 1.50617 8.93307 1.52107 9.02209 1.53558C9.16405 1.55872 9.29662 1.5799 9.42564 1.59991C9.95348 1.68345 10.3703 1.74935 10.7288 1.84427C10.9711 1.91612 11.208 2.00512 11.4378 2.11061C11.4542 2.11787 11.4702 2.12612 11.4856 2.13531C11.6007 2.20101 11.6883 2.30583 11.7326 2.43069C11.7768 2.55556 11.7749 2.69219 11.727 2.8157C11.679 2.93922 11.5884 3.04141 11.4715 3.10371C11.3546 3.16601 11.2192 3.18428 11.0899 3.15516C10.6779 3.0439 10.2586 2.96171 9.83502 2.90922C9.33095 2.87701 8.82531 2.87767 8.32131 2.91118H8.3127C8.05857 2.56846 7.70588 2.31154 7.30177 2.17482C6.89767 2.03809 6.46145 2.02806 6.05149 2.14609C5.64154 2.26411 5.27737 2.50455 5.00777 2.83524C4.73818 3.16593 4.57599 3.57109 4.5429 3.9965L4.53663 3.99925C4.00086 4.28161 3.50481 4.63363 3.06136 5.04615C2.72293 5.38662 2.39273 5.81417 1.91822 6.39625C1.85234 6.47666 1.8049 6.5304 1.77078 6.56688C1.68544 6.66801 1.5668 6.73528 1.43621 6.75656C1.30563 6.77784 1.17172 6.75173 1.05871 6.68292C0.94569 6.61411 0.861005 6.50713 0.819928 6.38134C0.778851 6.25554 0.784097 6.11921 0.83472 5.99695V5.99381L0.837831 5.98596L0.840225 5.98165C0.989411 5.64461 1.15682 5.31594 1.34176 4.99712C2.06234 3.74511 3.04588 2.66434 4.22452 1.82938C5.40316 0.994413 6.74887 0.42512 8.1688 0.160769Z" fill="#414B4F"/>
<path d="M8.14681 3.28404C7.92434 2.89728 7.56286 2.60985 7.13598 2.48028C6.7091 2.35071 6.24892 2.38873 5.84908 2.5866C5.44923 2.78447 5.13979 3.12732 4.98377 3.54535C4.82776 3.96337 4.83689 4.42516 5.00929 4.8367C5.18169 5.24824 5.5044 5.57857 5.91174 5.76049C6.31909 5.94241 6.78041 5.96223 7.20185 5.81589C7.62328 5.66956 7.97315 5.3681 8.18017 4.97285C8.3872 4.5776 8.43585 4.1183 8.31622 3.68844C8.27662 3.54717 8.21972 3.41134 8.14681 3.28404Z" fill="#414B4F"/>
<path d="M17.5989 3.4927C17.4556 3.49406 17.3147 3.52955 17.1878 3.59627C17.0609 3.66298 16.9517 3.75899 16.8694 3.87632C16.787 3.99365 16.7337 4.12894 16.7141 4.27096C16.6944 4.41298 16.7088 4.55764 16.7562 4.69296C16.7762 4.75886 16.8029 4.83496 16.8346 4.92047C16.8856 5.05461 16.9346 5.1817 16.9809 5.30251C17.1727 5.80144 17.3241 6.19604 17.4209 6.55376C17.4803 6.79964 17.5219 7.0495 17.5452 7.30138C17.5473 7.31934 17.5484 7.33742 17.5483 7.35551C17.5484 7.48767 17.5012 7.61548 17.4152 7.71581C17.3292 7.81614 17.2101 7.88235 17.0795 7.90245C16.9489 7.92256 16.8155 7.89521 16.7033 7.82539C16.5911 7.75557 16.5076 7.64786 16.468 7.5218C16.3583 7.10924 16.2198 6.7049 16.0534 6.31175C15.8295 5.85871 15.5762 5.4208 15.295 5.00086L15.2899 4.99341C15.4593 4.60199 15.5053 4.16819 15.4217 3.74994C15.338 3.3317 15.1288 2.94894 14.8218 2.65282C14.5149 2.3567 14.125 2.16131 13.7041 2.09278C13.2832 2.02425 12.8514 2.08583 12.4664 2.26929L12.4613 2.26498C11.9491 1.94198 11.3965 1.6881 10.8178 1.50992C10.3535 1.38715 9.8186 1.3138 9.07782 1.19613C8.97508 1.17926 8.90446 1.16514 8.85623 1.15337C8.72591 1.13018 8.60819 1.0611 8.52434 0.958665C8.44049 0.856226 8.39608 0.727175 8.39907 0.594816C8.40205 0.462458 8.45224 0.335531 8.54062 0.236977C8.629 0.138423 8.7497 0.0747466 8.88093 0.057447H8.88486H8.89309H8.89783C10.5182 -0.116384 12.1566 0.105672 13.6724 0.70456C15.1881 1.30345 16.5359 2.26128 17.6001 3.49584L17.5989 3.4927Z" fill="#414B4F"/>
<path d="M14.8825 5.03437C15.1052 4.64844 15.1724 4.19214 15.0706 3.75833C14.9688 3.32453 14.7056 2.94584 14.3344 2.69935C13.9633 2.45285 13.5122 2.35707 13.073 2.43152C12.6338 2.50598 12.2394 2.74505 11.9702 3.10009C11.701 3.45512 11.5772 3.89942 11.624 4.34256C11.6707 4.78569 11.8846 5.19435 12.222 5.48533C12.5594 5.77632 12.9949 5.92774 13.44 5.90882C13.8851 5.88989 14.3063 5.70204 14.6177 5.38347C14.7202 5.27865 14.8092 5.16136 14.8825 5.03437Z" fill="#414B4F"/>
<path d="M19.4299 13.3305C19.3501 13.1955 19.2365 13.0836 19.1003 13.0058C18.964 12.928 18.8099 12.8871 18.6531 12.8869C18.5233 12.8866 18.395 12.9145 18.277 12.9687C18.1591 13.0228 18.0543 13.102 17.9699 13.2007C17.9233 13.2505 17.87 13.3117 17.8131 13.3827C17.7221 13.4941 17.637 13.5996 17.5559 13.7C17.2198 14.1158 16.9543 14.4453 16.6931 14.7073C16.51 14.8818 16.3145 15.0428 16.108 15.1889C16.0935 15.1996 16.0785 15.2094 16.0629 15.2184C15.9485 15.2846 15.8142 15.3077 15.6842 15.2834C15.5543 15.2591 15.4374 15.1891 15.3546 15.0859C15.2719 14.9828 15.2288 14.8535 15.2332 14.7213C15.2376 14.5892 15.2892 14.463 15.3786 14.3656C15.6813 14.0644 15.9621 13.7419 16.219 13.4007C16.4989 12.9801 16.7512 12.5417 16.9743 12.0883L16.9778 12.0804C17.4016 12.0314 17.8004 11.8541 18.1208 11.5723C18.4412 11.2904 18.6679 10.9175 18.7708 10.5034C18.8736 10.0892 18.8476 9.65351 18.6962 9.25453C18.5449 8.85554 18.2753 8.51225 17.9237 8.27057V8.26391C17.9473 7.65847 17.8907 7.05256 17.7554 6.46196C17.6295 5.99872 17.4252 5.4986 17.1586 4.79648C17.1217 4.6996 17.099 4.63136 17.0845 4.58351C17.0393 4.45896 17.0401 4.32233 17.0869 4.19835C17.1336 4.07438 17.2232 3.97126 17.3394 3.90764C17.4556 3.84403 17.5908 3.82413 17.7204 3.85155C17.85 3.87897 17.9655 3.95187 18.0461 4.0571L18.0484 4.06024L18.0531 4.06692L18.0562 4.07044C18.2729 4.36843 18.4735 4.67784 18.657 4.99732C19.3802 6.24795 19.8238 7.64052 19.9573 9.07911C20.0907 10.5177 19.9108 11.9681 19.4299 13.3305Z" fill="#414B4F"/>
<path d="M16.7382 11.7494C17.184 11.7498 17.6132 11.5804 17.9385 11.2755C18.2637 10.9705 18.4606 10.5531 18.489 10.1081C18.5174 9.66313 18.3752 9.22404 18.0914 8.88023C17.8075 8.53642 17.4033 8.31375 16.9611 8.25751C16.5188 8.20127 16.0718 8.3157 15.711 8.57752C15.3501 8.83935 15.1026 9.22888 15.0188 9.66682C14.9349 10.1048 15.0211 10.5582 15.2597 10.9348C15.4984 11.3114 15.8715 11.5829 16.3033 11.6941C16.4453 11.7307 16.5915 11.7492 16.7382 11.7494Z" fill="#414B4F"/>
</svg>
