<svg width="24" height="24" viewBox="0 0 24 24" fill="none" xmlns="http://www.w3.org/2000/svg">
<path d="M14.1969 23.8039C14.2891 23.6399 14.3372 23.4548 14.3365 23.2666C14.3357 23.0784 14.2862 22.8936 14.1926 22.7303C14.1149 22.5951 14.0088 22.4784 13.8816 22.3883C13.7543 22.2981 13.609 22.2368 13.4557 22.2083C13.3757 22.1895 13.2802 22.1716 13.1733 22.1542C13.0035 22.1264 12.8439 22.101 12.6886 22.077C12.0552 21.9767 11.555 21.8977 11.1249 21.7837C10.834 21.6977 10.5496 21.591 10.2741 21.4642C10.2543 21.4552 10.2355 21.4458 10.2167 21.435C10.0794 21.3557 9.97493 21.2299 9.92227 21.0804C9.86962 20.9308 9.87221 20.7673 9.92957 20.6195C9.98693 20.4717 10.0953 20.3492 10.235 20.2743C10.3747 20.1995 10.5366 20.177 10.6915 20.2112C11.1859 20.3448 11.6891 20.4434 12.1974 20.5063C12.8022 20.5456 13.409 20.5456 14.0138 20.5063H14.0237C14.3288 20.9173 14.7521 21.2254 15.2369 21.3893C15.7218 21.5532 16.2451 21.5652 16.7369 21.4236C17.2287 21.282 17.6657 20.9936 17.9892 20.5969C18.3127 20.2003 18.5075 19.7143 18.5474 19.2039L18.555 19.2006C19.1978 18.8617 19.7931 18.4393 20.3253 17.9443C20.7314 17.5358 21.1281 17.0227 21.6971 16.3238C21.7761 16.2273 21.8331 16.1628 21.874 16.119C21.9764 15.9976 22.1188 15.9169 22.2755 15.8914C22.4322 15.8658 22.5929 15.8972 22.7285 15.9798C22.8641 16.0623 22.9657 16.1907 23.015 16.3416C23.0643 16.4926 23.058 16.6562 22.9973 16.8029V16.8067L22.9935 16.8161V16.8213C22.2015 18.6097 20.9878 20.1795 19.4566 21.3962C17.9253 22.6129 16.122 23.4402 14.2011 23.8073L14.1969 23.8039Z" fill="#414B4F"/>
<path d="M14.2246 20.0569C14.4807 20.4991 14.8893 20.8326 15.3738 20.995C15.8582 21.1573 16.3852 21.1374 16.856 20.9388C17.3268 20.7403 17.709 20.3768 17.931 19.9165C18.1529 19.4562 18.1995 18.9308 18.0618 18.4387C18.0144 18.2691 17.9461 18.1061 17.8585 17.9534C17.6028 17.5102 17.1941 17.1757 16.7092 17.0127C16.2244 16.8497 15.6967 16.8695 15.2254 17.0682C14.754 17.2669 14.3715 17.631 14.1496 18.092C13.9277 18.5529 13.8817 19.0791 14.0204 19.5716C14.0674 19.7414 14.1358 19.9045 14.2241 20.0569" fill="#414B4F"/>
<path d="M2.88074 19.8059C3.05266 19.8041 3.22171 19.7614 3.37384 19.6813C3.52598 19.6011 3.65681 19.4859 3.75556 19.3452C3.85431 19.2044 3.91812 19.0421 3.94168 18.8718C3.96525 18.7014 3.9479 18.5279 3.89107 18.3656C3.86707 18.2865 3.83557 18.1952 3.79698 18.0926C3.7358 17.9316 3.67696 17.7791 3.62143 17.6341C3.39131 17.0354 3.20969 16.5624 3.09346 16.1331C3.02228 15.8379 2.97241 15.5379 2.94427 15.2355C2.9419 15.2139 2.94077 15.1922 2.94094 15.1706C2.94047 15.0118 2.99697 14.8582 3.10012 14.7375C3.20327 14.6169 3.34629 14.5373 3.50315 14.5131C3.66001 14.4889 3.8203 14.5218 3.95495 14.6059C4.08961 14.6899 4.18966 14.8194 4.23695 14.971C4.36877 15.4664 4.53513 15.9519 4.73482 16.424C5.00391 16.9671 5.30795 17.4923 5.64497 17.9961L5.65106 18.005C5.44775 18.4747 5.3926 18.9953 5.49297 19.4972C5.59334 19.9991 5.84444 20.4584 6.21275 20.8138C6.58106 21.1691 7.049 21.4036 7.55408 21.4858C8.05915 21.568 8.57734 21.4941 9.03931 21.274L9.04539 21.2792C9.66032 21.6668 10.3238 21.9715 11.0186 22.1852C11.5748 22.3326 12.2171 22.4206 13.1065 22.5618C13.2294 22.582 13.3136 22.599 13.3719 22.6131C13.5298 22.6396 13.6728 22.7221 13.7748 22.8455C13.8768 22.9689 13.9309 23.1249 13.9273 23.2849C13.9237 23.4449 13.8626 23.5983 13.7552 23.717C13.6477 23.8356 13.5012 23.9116 13.3423 23.931H13.3376H13.3277H13.3221C11.3776 24.1397 9.41161 23.8732 7.5928 23.1545C5.77398 22.4359 4.15673 21.2864 2.87982 19.8049L2.88074 19.8059Z" fill="#414B4F"/>
<path d="M6.13863 17.9562C5.87095 18.4194 5.78981 18.9671 5.91167 19.488C6.03353 20.0089 6.34925 20.4637 6.79459 20.76C7.23993 21.0562 7.78139 21.1716 8.30877 21.0826C8.83615 20.9936 9.30977 20.7069 9.63327 20.2809C9.95677 19.8549 10.1058 19.3216 10.05 18.7895C9.99426 18.2575 9.73786 17.7667 9.33306 17.4171C8.92827 17.0675 8.40552 16.8853 7.87116 16.9076C7.33679 16.93 6.83099 17.1551 6.45676 17.5373C6.3336 17.6631 6.22671 17.8038 6.13863 17.9562Z" fill="#414B4F"/>
<path d="M0.68309 8.00056C0.770556 8.14866 0.89202 8.27376 1.03746 8.36553C1.18291 8.45731 1.34813 8.5131 1.51942 8.52828C1.69072 8.54346 1.86315 8.5176 2.02246 8.45284C2.18178 8.38807 2.32341 8.28627 2.43555 8.15587C2.49108 8.09609 2.55462 8.02267 2.62379 7.93747C2.73297 7.80333 2.83554 7.67717 2.93342 7.55667C3.33624 7.05774 3.6548 6.66238 3.96868 6.34843C4.18844 6.13903 4.42312 5.94585 4.67083 5.77041C4.68839 5.7577 4.7066 5.74591 4.7254 5.73511C4.86269 5.65611 5.02368 5.62881 5.17933 5.65811C5.33497 5.68742 5.47502 5.77141 5.5742 5.89492C5.67337 6.01844 5.72514 6.17335 5.72017 6.33169C5.71519 6.49002 5.65377 6.64136 5.54703 6.75839C5.18396 7.12006 4.84699 7.507 4.53859 7.9163C4.20271 8.4211 3.89994 8.94719 3.63223 9.49123L3.62798 9.50063C3.11939 9.55951 2.64091 9.77225 2.25644 10.1104C1.87197 10.4486 1.59985 10.8961 1.47646 11.3931C1.35306 11.8901 1.38426 12.4129 1.5659 12.8917C1.74754 13.3705 2.07097 13.7824 2.49294 14.0725V14.0805C2.46456 14.807 2.53248 15.5341 2.69485 16.2428C2.84591 16.7987 3.09107 17.3988 3.41107 18.2414C3.45813 18.3581 3.48258 18.44 3.49999 18.4974C3.55426 18.6469 3.55325 18.8108 3.49712 18.9596C3.441 19.1084 3.3335 19.2321 3.19405 19.3084C3.05459 19.3848 2.89243 19.4087 2.7369 19.3758C2.58137 19.3429 2.44272 19.2553 2.34611 19.1291L2.34375 19.1253L2.33812 19.1173L2.33439 19.1126C2.07384 18.7553 1.83298 18.384 1.61294 18.0004C0.744777 16.4998 0.212073 14.8288 0.0515452 13.1025C-0.108982 11.3762 0.106504 9.63558 0.68309 8.00056Z" fill="#414B4F"/>
<path d="M3.91359 9.8987C3.37912 9.89855 2.86465 10.1021 2.47496 10.468C2.08526 10.8339 1.8496 11.3345 1.81595 11.868C1.78231 12.4016 1.95324 12.9279 2.29389 13.3398C2.63454 13.7518 3.11932 14.0184 3.64958 14.0854C4.17984 14.1524 4.71569 14.0148 5.14808 13.7005C5.58046 13.3863 5.87685 12.919 5.97694 12.3939C6.07703 11.8688 5.97332 11.3252 5.68685 10.8739C5.40038 10.4226 4.95273 10.0974 4.43502 9.96461C4.26466 9.92088 4.08947 9.89874 3.91359 9.8987Z" fill="#414B4F"/>
<path d="M9.80255 0.192928C9.71098 0.356391 9.66314 0.540743 9.6637 0.728114C9.66361 0.979882 9.75163 1.22374 9.91244 1.41743C10.0733 1.61112 10.2967 1.74242 10.5442 1.78857C10.6246 1.8074 10.7197 1.82528 10.8265 1.8427C10.9968 1.87047 11.1559 1.89589 11.3108 1.91989C11.9442 2.02015 12.4444 2.09922 12.8745 2.21313C13.1653 2.29934 13.4496 2.40615 13.7253 2.53273C13.745 2.54145 13.7642 2.55135 13.7828 2.56238C13.9208 2.64121 14.0259 2.76699 14.0791 2.91684C14.1322 3.06668 14.1298 3.23063 14.0723 3.37885C14.0148 3.52707 13.906 3.6497 13.7658 3.72446C13.6255 3.79921 13.463 3.82114 13.3079 3.78619C12.8135 3.65268 12.3103 3.55406 11.802 3.49106C11.1971 3.45241 10.5904 3.4532 9.98557 3.49342H9.97523C9.67027 3.08215 9.24704 2.77386 8.76211 2.60978C8.27719 2.44571 7.75372 2.43368 7.26178 2.57531C6.76983 2.71694 6.33283 3.00547 6.00932 3.40229C5.6858 3.79912 5.49117 4.28531 5.45147 4.7958L5.44395 4.79911C4.80103 5.13794 4.20576 5.56037 3.67362 6.05538C3.26751 6.46394 2.87126 6.977 2.30185 7.67551C2.22279 7.772 2.16586 7.83648 2.12492 7.88026C2.02252 8.00162 1.88014 8.08234 1.72344 8.10787C1.56674 8.13341 1.40605 8.10208 1.27043 8.0195C1.13482 7.93693 1.03319 7.80857 0.983901 7.65761C0.934609 7.50665 0.940905 7.34306 1.00165 7.19634V7.19258L1.00539 7.18316L1.00826 7.17799C1.18728 6.77353 1.38817 6.37913 1.6101 5.99655C2.47479 4.49414 3.65504 3.19722 5.06941 2.19526C6.48378 1.1933 8.09863 0.510149 9.80255 0.192928Z" fill="#414B4F"/>
<path d="M9.77616 3.94085C9.50919 3.47674 9.07542 3.13183 8.56316 2.97634C8.0509 2.82086 7.49869 2.86648 7.01888 3.10393C6.53907 3.34137 6.16774 3.75279 5.98052 4.25442C5.7933 4.75605 5.80425 5.3102 6.01113 5.80405C6.21801 6.29789 6.60526 6.6943 7.09408 6.9126C7.58289 7.1309 8.13648 7.15468 8.6422 6.97908C9.14793 6.80348 9.56776 6.44172 9.8162 5.96743C10.0646 5.49313 10.123 4.94197 9.97945 4.42613C9.93194 4.25661 9.86365 4.09362 9.77616 3.94085Z" fill="#414B4F"/>
<path d="M21.1187 4.19124C20.9467 4.19287 20.7776 4.23546 20.6254 4.31552C20.4731 4.39558 20.3421 4.51079 20.2432 4.65159C20.1444 4.79239 20.0805 4.95473 20.0569 5.12515C20.0333 5.29557 20.0506 5.46917 20.1074 5.63155C20.1314 5.71063 20.1635 5.80195 20.2016 5.90456C20.2628 6.06554 20.3215 6.21804 20.3771 6.36301C20.6072 6.96173 20.7889 7.43525 20.9051 7.86452C20.9764 8.15957 21.0263 8.4594 21.0543 8.76166C21.0568 8.78321 21.058 8.8049 21.058 8.82661C21.0581 8.9852 21.0014 9.13858 20.8982 9.25898C20.795 9.37937 20.6521 9.45882 20.4954 9.48295C20.3387 9.50707 20.1786 9.47426 20.044 9.39047C19.9093 9.30668 19.8091 9.17744 19.7616 9.02616C19.6299 8.53109 19.4637 8.04589 19.2641 7.5741C18.9954 7.03045 18.6914 6.50496 18.3541 6.00103L18.3479 5.9921C18.5512 5.52239 18.6064 5.00183 18.506 4.49993C18.4056 3.99804 18.1545 3.53872 17.7862 3.18338C17.4179 2.82804 16.95 2.59357 16.4449 2.51133C15.9398 2.4291 15.4217 2.503 14.9597 2.72315L14.9536 2.71798C14.3389 2.33038 13.6758 2.02572 12.9814 1.81191C12.4242 1.66458 11.7823 1.57657 10.8934 1.43536C10.7701 1.41512 10.6854 1.39817 10.6275 1.38405C10.4711 1.35621 10.3298 1.27332 10.2292 1.1504C10.1286 1.02747 10.0753 0.872612 10.0789 0.713781C10.0825 0.554951 10.1427 0.402638 10.2488 0.284374C10.3548 0.166109 10.4997 0.0896969 10.6571 0.0689383H10.6618H10.6717H10.6774C12.6219 -0.139659 14.588 0.126807 16.4069 0.845473C18.2257 1.56414 19.8431 2.71354 21.1201 4.19501L21.1187 4.19124Z" fill="#414B4F"/>
<path d="M17.859 6.04124C18.1262 5.57814 18.207 5.03057 18.0848 4.51C17.9626 3.98944 17.6467 3.53501 17.2013 3.23922C16.756 2.94343 16.2147 2.82849 15.6876 2.91783C15.1605 3.00718 14.6873 3.29407 14.3643 3.72011C14.0412 4.14615 13.8927 4.67931 13.9488 5.21107C14.0049 5.74283 14.2615 6.23322 14.6664 6.5824C15.0713 6.93158 15.5939 7.1133 16.1281 7.09058C16.6622 7.06787 17.1675 6.84245 17.5413 6.46016C17.6643 6.33438 17.771 6.19363 17.859 6.04124Z" fill="#414B4F"/>
<path d="M23.3159 15.9966C23.2201 15.8346 23.0838 15.7003 22.9203 15.607C22.7569 15.5136 22.5719 15.4645 22.3837 15.4643C22.228 15.4639 22.074 15.4974 21.9324 15.5624C21.7909 15.6274 21.6652 15.7224 21.5639 15.8408C21.5079 15.9006 21.444 15.974 21.3757 16.0592C21.2666 16.1929 21.1644 16.3195 21.067 16.44C20.6637 16.9389 20.3451 17.3343 20.0317 17.6487C19.812 17.8582 19.5774 18.0514 19.3296 18.2267C19.3123 18.2395 19.2942 18.2513 19.2755 18.262C19.1382 18.3415 18.977 18.3692 18.8211 18.3401C18.6651 18.3109 18.5249 18.2269 18.4256 18.1031C18.3263 17.9794 18.2746 17.8242 18.2798 17.6656C18.2851 17.507 18.347 17.3556 18.4543 17.2387C18.8176 16.8772 19.1546 16.4903 19.4628 16.0809C19.7987 15.5761 20.1015 15.05 20.3691 14.5059L20.3734 14.4965C20.882 14.4376 21.3605 14.2249 21.7449 13.8867C22.1294 13.5485 22.4015 13.101 22.5249 12.604C22.6483 12.107 22.6171 11.5842 22.4355 11.1054C22.2538 10.6266 21.9304 10.2147 21.5084 9.92468V9.9167C21.5368 9.19016 21.4689 8.46307 21.3065 7.75435C21.1555 7.19846 20.9103 6.59832 20.5903 5.75578C20.5461 5.63952 20.5188 5.55764 20.5014 5.50021C20.4471 5.35076 20.4481 5.18679 20.5043 5.03802C20.5604 4.88926 20.6679 4.76551 20.8073 4.68917C20.9468 4.61283 21.1089 4.58896 21.2645 4.62186C21.42 4.65476 21.5587 4.74225 21.6553 4.86853L21.6581 4.87229L21.6637 4.8803L21.6675 4.88453C21.9275 5.24211 22.1682 5.61341 22.3884 5.99679C23.2563 7.49754 23.7886 9.16862 23.9487 10.8949C24.1089 12.6212 23.893 14.3618 23.3159 15.9966Z" fill="#414B4F"/>
<path d="M20.0858 14.0992C20.6207 14.0998 21.1358 13.8964 21.5262 13.5306C21.9165 13.1647 22.1527 12.6637 22.1868 12.1297C22.2209 11.5958 22.0503 11.0689 21.7096 10.6563C21.369 10.2437 20.8839 9.9765 20.3533 9.90902C19.8226 9.84153 19.2862 9.97884 18.8532 10.293C18.4201 10.6072 18.1231 11.0747 18.0225 11.6002C17.9219 12.1257 18.0253 12.6698 18.3117 13.1218C18.5981 13.5737 19.0458 13.8995 19.5639 14.0329C19.7344 14.0768 19.9097 14.0991 20.0858 14.0992Z" fill="#414B4F"/>
</svg>
