<svg width="164" height="24" viewBox="0 0 164 24" fill="none" xmlns="http://www.w3.org/2000/svg">
<path d="M160.75 7.69002H147.481C147.236 7.68094 146.992 7.71353 146.758 7.78643C146.6 7.84104 146.455 7.92907 146.334 8.04448C146.209 8.16909 146.11 8.31799 146.045 8.48204C145.979 8.64609 145.948 8.8218 145.954 8.99827C145.949 9.1863 145.989 9.37274 146.069 9.54287C146.15 9.71299 146.269 9.86211 146.417 9.9784C146.533 10.0726 146.668 10.1416 146.812 10.181C147.031 10.2348 147.256 10.2581 147.481 10.2503H155.59C156.49 10.2253 157.386 10.3778 158.226 10.6991C158.908 10.9724 159.526 11.3847 160.04 11.9096C160.529 12.4162 160.923 13.007 161.202 13.6535C161.746 14.9282 161.765 16.3652 161.254 17.6538C161.018 18.2587 160.682 18.8202 160.26 19.3152C159.733 19.9069 159.086 20.3798 158.361 20.7025C157.485 21.0701 156.54 21.2459 155.59 21.2179H141.283V16.5086H154.716C155.017 16.5208 155.317 16.479 155.604 16.3851C155.797 16.3136 155.971 16.1974 156.11 16.0459C156.309 15.8098 156.415 15.5095 156.409 15.2011C156.415 15.0206 156.385 14.8407 156.32 14.6723C156.255 14.5038 156.156 14.3502 156.029 14.2209C155.9 14.0757 155.735 13.9676 155.549 13.9081C155.277 13.8351 154.996 13.8038 154.714 13.8151H147.207C146.19 13.8501 145.176 13.6973 144.215 13.3642C143.512 13.0992 142.874 12.6864 142.344 12.1538C141.857 11.6534 141.469 11.0666 141.198 10.4238C140.92 9.75517 140.781 9.03737 140.789 8.31362C140.783 7.59256 140.928 6.87828 141.214 6.21598C141.49 5.56978 141.882 4.97974 142.372 4.47555C142.898 3.94429 143.531 3.53092 144.23 3.26303C145.185 2.9292 146.194 2.77652 147.205 2.81284H160.746L160.75 7.69002Z" fill="#414B4F"/>
<path d="M160.75 7.69002H147.481C147.236 7.68094 146.992 7.71353 146.758 7.78643C146.6 7.84104 146.455 7.92907 146.334 8.04448C146.209 8.16909 146.11 8.31799 146.045 8.48204C145.979 8.64609 145.948 8.8218 145.954 8.99827C145.949 9.1863 145.989 9.37274 146.069 9.54287C146.15 9.71299 146.269 9.86211 146.417 9.9784C146.533 10.0726 146.668 10.1416 146.812 10.181C147.031 10.2348 147.256 10.2581 147.481 10.2503H155.59C156.49 10.2253 157.386 10.3778 158.226 10.6991C158.908 10.9724 159.526 11.3847 160.04 11.9096C160.529 12.4162 160.923 13.007 161.202 13.6535C161.746 14.9282 161.765 16.3652 161.254 17.6538C161.018 18.2587 160.682 18.8202 160.26 19.3152C159.733 19.9069 159.086 20.3798 158.361 20.7025C157.485 21.0701 156.54 21.2459 155.59 21.2179H141.283V16.5086H154.716C155.017 16.5208 155.317 16.479 155.604 16.3851C155.797 16.3136 155.971 16.1974 156.11 16.0459C156.309 15.8098 156.415 15.5095 156.409 15.2011C156.415 15.0206 156.385 14.8407 156.32 14.6723C156.255 14.5038 156.156 14.3502 156.029 14.2209C155.9 14.0757 155.735 13.9676 155.549 13.9081C155.277 13.8351 154.996 13.8038 154.714 13.8151H147.207C146.19 13.8501 145.176 13.6973 144.215 13.3642C143.512 13.0992 142.874 12.6864 142.344 12.1538C141.857 11.6534 141.469 11.0666 141.198 10.4238C140.92 9.75517 140.781 9.03737 140.789 8.31362C140.783 7.59256 140.928 6.87828 141.214 6.21598C141.49 5.56978 141.882 4.97974 142.372 4.47555C142.898 3.94429 143.531 3.53092 144.23 3.26303C145.185 2.9292 146.194 2.77652 147.205 2.81284H160.746L160.75 7.69002Z" fill="url(#paint0_linear_40001524_18751)"/>
<path d="M138.719 17.6517C138.733 18.2591 138.634 18.8638 138.429 19.4359C138.265 19.8941 138.004 20.3119 137.664 20.6609C137.353 20.975 136.975 21.2166 136.559 21.3684C136.14 21.5233 135.696 21.6014 135.248 21.5987C134.546 21.6135 133.847 21.4983 133.187 21.2588C132.587 21.0271 132.056 20.6476 131.643 20.1559L121.512 8.47727C121.461 8.40772 121.397 8.34986 121.322 8.30771C121.247 8.26555 121.163 8.24012 121.078 8.23311C121.016 8.23271 120.956 8.24481 120.899 8.26867C120.843 8.29253 120.792 8.32764 120.749 8.37185C120.702 8.42292 120.665 8.48299 120.641 8.54853C120.617 8.61406 120.606 8.68372 120.61 8.75336V21.2213H115.753V6.70843C115.735 6.03267 115.841 5.35932 116.064 4.72108C116.244 4.21874 116.543 3.76716 116.936 3.40483C117.328 3.0425 117.803 2.78015 118.319 2.64007C118.878 2.48172 119.457 2.40393 120.038 2.40908C120.802 2.36116 121.566 2.50275 122.262 2.82124C122.957 3.13973 123.563 3.62516 124.024 4.2341L133.033 14.9859C133.089 15.063 133.165 15.1242 133.252 15.1635C133.331 15.191 133.415 15.2044 133.499 15.2031C133.753 15.2031 133.881 15.0407 133.881 14.7133V2.81349H138.716L138.719 17.6517Z" fill="#414B4F"/>
<path d="M138.719 17.6517C138.733 18.2591 138.634 18.8638 138.429 19.4359C138.265 19.8941 138.004 20.3119 137.664 20.6609C137.353 20.975 136.975 21.2166 136.559 21.3684C136.14 21.5233 135.696 21.6014 135.248 21.5987C134.546 21.6135 133.847 21.4983 133.187 21.2588C132.587 21.0271 132.056 20.6476 131.643 20.1559L121.512 8.47727C121.461 8.40772 121.397 8.34986 121.322 8.30771C121.247 8.26555 121.163 8.24012 121.078 8.23311C121.016 8.23271 120.956 8.24481 120.899 8.26867C120.843 8.29253 120.792 8.32764 120.749 8.37185C120.702 8.42292 120.665 8.48299 120.641 8.54853C120.617 8.61406 120.606 8.68372 120.61 8.75336V21.2213H115.753V6.70843C115.735 6.03267 115.841 5.35932 116.064 4.72108C116.244 4.21874 116.543 3.76716 116.936 3.40483C117.328 3.0425 117.803 2.78015 118.319 2.64007C118.878 2.48172 119.457 2.40393 120.038 2.40908C120.802 2.36116 121.566 2.50275 122.262 2.82124C122.957 3.13973 123.563 3.62516 124.024 4.2341L133.033 14.9859C133.089 15.063 133.165 15.1242 133.252 15.1635C133.331 15.191 133.415 15.2044 133.499 15.2031C133.753 15.2031 133.881 15.0407 133.881 14.7133V2.81349H138.716L138.719 17.6517Z" fill="url(#paint1_linear_40001524_18751)"/>
<path d="M99.7545 21.2164C98.2763 21.2502 96.8072 20.9764 95.441 20.4124C94.2626 19.9054 93.2028 19.1597 92.3289 18.2225C91.1341 16.8882 90.3494 15.2394 90.0684 13.4727C89.7874 11.7061 90.0219 9.89608 90.7441 8.25865C91.2596 7.11392 92.0025 6.08533 92.9279 5.23499C93.7724 4.45896 94.7599 3.85354 95.8355 3.45226C97.0923 3.00244 98.4209 2.78522 99.756 2.8113H103.634C104.967 2.78524 106.295 3.00246 107.55 3.45226C108.626 3.85265 109.615 4.45815 110.459 5.23499C111.384 6.08606 112.127 7.11446 112.644 8.25865C113.176 9.43885 113.446 10.7197 113.435 12.0135C113.46 13.7983 112.951 15.5502 111.974 17.0458C110.997 18.5414 109.595 19.7132 107.948 20.4117C106.581 20.9755 105.112 21.2493 103.634 21.2157L99.7545 21.2164ZM99.7545 7.68569C99.0489 7.66404 98.3455 7.77438 97.6806 8.01101C97.158 8.21455 96.6765 8.51041 96.2592 8.88437C95.8364 9.28632 95.4976 9.76772 95.2622 10.3008C95.0154 10.8486 94.8894 11.4428 94.8928 12.0433C94.8902 12.5884 94.9929 13.1289 95.1954 13.6353C95.3894 14.1248 95.6764 14.5723 96.0407 14.9532C96.4603 15.4011 96.972 15.7534 97.5407 15.9861C98.2457 16.2593 98.9985 16.3891 99.7545 16.3676H103.633C104.388 16.3887 105.14 16.259 105.844 15.9861C106.413 15.7532 106.924 15.4009 107.344 14.9532C107.707 14.571 107.995 14.1239 108.192 13.6353C108.392 13.1284 108.494 12.5881 108.492 12.0433C108.496 11.4427 108.37 10.8483 108.122 10.3008C107.886 9.76803 107.547 9.28675 107.125 8.88437C106.708 8.51111 106.227 8.21531 105.705 8.01101C105.041 7.77471 104.338 7.66438 103.633 7.68569H99.7545Z" fill="#414B4F"/>
<path d="M99.7545 21.2164C98.2763 21.2502 96.8072 20.9764 95.441 20.4124C94.2626 19.9054 93.2028 19.1597 92.3289 18.2225C91.1341 16.8882 90.3494 15.2394 90.0684 13.4727C89.7874 11.7061 90.0219 9.89608 90.7441 8.25865C91.2596 7.11392 92.0025 6.08533 92.9279 5.23499C93.7724 4.45896 94.7599 3.85354 95.8355 3.45226C97.0923 3.00244 98.4209 2.78522 99.756 2.8113H103.634C104.967 2.78524 106.295 3.00246 107.55 3.45226C108.626 3.85265 109.615 4.45815 110.459 5.23499C111.384 6.08606 112.127 7.11446 112.644 8.25865C113.176 9.43885 113.446 10.7197 113.435 12.0135C113.46 13.7983 112.951 15.5502 111.974 17.0458C110.997 18.5414 109.595 19.7132 107.948 20.4117C106.581 20.9755 105.112 21.2493 103.634 21.2157L99.7545 21.2164ZM99.7545 7.68569C99.0489 7.66404 98.3455 7.77438 97.6806 8.01101C97.158 8.21455 96.6765 8.51041 96.2592 8.88437C95.8364 9.28632 95.4976 9.76772 95.2622 10.3008C95.0154 10.8486 94.8894 11.4428 94.8928 12.0433C94.8902 12.5884 94.9929 13.1289 95.1954 13.6353C95.3894 14.1248 95.6764 14.5723 96.0407 14.9532C96.4603 15.4011 96.972 15.7534 97.5407 15.9861C98.2457 16.2593 98.9985 16.3891 99.7545 16.3676H103.633C104.388 16.3887 105.14 16.259 105.844 15.9861C106.413 15.7532 106.924 15.4009 107.344 14.9532C107.707 14.571 107.995 14.1239 108.192 13.6353C108.392 13.1284 108.494 12.5881 108.492 12.0433C108.496 11.4427 108.37 10.8483 108.122 10.3008C107.886 9.76803 107.547 9.28675 107.125 8.88437C106.708 8.51111 106.227 8.21531 105.705 8.01101C105.041 7.77471 104.338 7.66438 103.633 7.68569H99.7545Z" fill="url(#paint2_linear_40001524_18751)"/>
<path d="M74.8243 2.81352V10.3565L83.2344 3.57726C83.5166 3.35149 83.7733 3.09559 83.9997 2.8142H90.9063C90.8479 2.91222 90.7739 3.00008 90.6872 3.07433C90.5995 3.15687 90.507 3.23387 90.4165 3.30532L80.2587 11.1438C80.2107 11.1783 80.1712 11.2232 80.143 11.275C80.1148 11.3269 80.0987 11.3845 80.0959 11.4434C80.0982 11.5024 80.1141 11.56 80.1423 11.6119C80.1705 11.6637 80.2104 11.7084 80.2587 11.7424L91.1547 20.5367C91.2806 20.6463 91.4031 20.7546 91.5235 20.8628C91.6437 20.9742 91.7575 21.0923 91.8644 21.2165H84.4895C84.2413 20.9365 83.9666 20.681 83.6692 20.4535L74.8229 13.0763V21.2165H69.8282V2.81352H74.8243Z" fill="#414B4F"/>
<path d="M74.8243 2.81352V10.3565L83.2344 3.57726C83.5166 3.35149 83.7733 3.09559 83.9997 2.8142H90.9063C90.8479 2.91222 90.7739 3.00008 90.6872 3.07433C90.5995 3.15687 90.507 3.23387 90.4165 3.30532L80.2587 11.1438C80.2107 11.1783 80.1712 11.2232 80.143 11.275C80.1148 11.3269 80.0987 11.3845 80.0959 11.4434C80.0982 11.5024 80.1141 11.56 80.1423 11.6119C80.1705 11.6637 80.2104 11.7084 80.2587 11.7424L91.1547 20.5367C91.2806 20.6463 91.4031 20.7546 91.5235 20.8628C91.6437 20.9742 91.7575 21.0923 91.8644 21.2165H84.4895C84.2413 20.9365 83.9666 20.681 83.6692 20.4535L74.8229 13.0763V21.2165H69.8282V2.81352H74.8243Z" fill="url(#paint3_linear_40001524_18751)"/>
<path d="M33.6051 21.2164C32.6411 21.2385 31.6793 21.1145 30.7526 20.8487C30.0464 20.6454 29.4061 20.2608 28.8957 19.7333C28.4123 19.1989 28.0695 18.5532 27.898 17.8541C27.6862 16.9943 27.5852 16.1111 27.5974 15.2258V2.8092H32.5657V14.7652C32.5143 15.2484 32.6353 15.7342 32.9074 16.1373C33.0888 16.2811 33.2969 16.3876 33.5199 16.4508C33.7428 16.5141 33.9761 16.5327 34.2063 16.5057H47.0079V21.2164H33.6051Z" fill="#414B4F"/>
<path d="M33.6051 21.2164C32.6411 21.2385 31.6793 21.1145 30.7526 20.8487C30.0464 20.6454 29.4061 20.2608 28.8957 19.7333C28.4123 19.1989 28.0695 18.5532 27.898 17.8541C27.6862 16.9943 27.5852 16.1111 27.5974 15.2258V2.8092H32.5657V14.7652C32.5143 15.2484 32.6353 15.7342 32.9074 16.1373C33.0888 16.2811 33.2969 16.3876 33.5199 16.4508C33.7428 16.5141 33.9761 16.5327 34.2063 16.5057H47.0079V21.2164H33.6051Z" fill="url(#paint4_linear_40001524_18751)"/>
<path d="M54.4662 21.2164C53.5022 21.2382 52.5404 21.1143 51.6136 20.8487C50.9084 20.6439 50.2689 20.2595 49.7581 19.7333C49.275 19.199 48.9329 18.5532 48.7626 17.8541C48.5481 16.9948 48.4468 16.1113 48.4613 15.2258V2.8092H53.4281V14.7652C53.376 15.2488 53.4981 15.7352 53.7725 16.1373C53.9532 16.2813 54.1608 16.388 54.3832 16.4513C54.6056 16.5145 54.8384 16.533 55.068 16.5057H67.8731V21.2164H54.4662Z" fill="#414B4F"/>
<path d="M54.4662 21.2164C53.5022 21.2382 52.5404 21.1143 51.6136 20.8487C50.9084 20.6439 50.2689 20.2595 49.7581 19.7333C49.275 19.199 48.9329 18.5532 48.7626 17.8541C48.5481 16.9948 48.4468 16.1113 48.4613 15.2258V2.8092H53.4281V14.7652C53.376 15.2488 53.4981 15.7352 53.7725 16.1373C53.9532 16.2813 54.1608 16.388 54.3832 16.4513C54.6056 16.5145 54.8384 16.533 55.068 16.5057H67.8731V21.2164H54.4662Z" fill="url(#paint5_linear_40001524_18751)"/>
<path d="M26.6423 20.4051C26.71 20.5379 26.7697 20.6745 26.8212 20.8143C26.8643 20.9399 26.9054 21.0759 26.9443 21.2215H21.3735C21.3359 21.0939 21.2998 20.9801 21.2636 20.8823C21.2274 20.7845 21.194 20.686 21.1558 20.5951L20.1727 18.3643H9.24955L8.29503 20.5688C8.25746 20.6784 8.21991 20.7866 8.18582 20.8955C8.14873 21.0016 8.12174 21.111 8.10513 21.2222H2.40002C2.43442 21.0845 2.47573 20.9486 2.52385 20.815C2.57246 20.6744 2.63155 20.5376 2.70059 20.4058L9.31011 5.81376C9.74429 4.78228 10.4635 3.89507 11.3841 3.25553C12.3794 2.70136 13.5005 2.41042 14.6405 2.41042C15.7805 2.41042 16.9016 2.70136 17.8969 3.25553C18.8228 3.89278 19.5469 4.7803 19.9842 5.81376L26.6423 20.4051ZM18.368 14.307L15.5301 7.7172C15.457 7.54015 15.3327 7.38875 15.1731 7.28226C15.0259 7.18982 14.8551 7.14164 14.6812 7.14352C14.5185 7.1429 14.3585 7.18554 14.2178 7.26702C14.0511 7.37149 13.9252 7.52958 13.8609 7.71513L11.0516 14.305L18.368 14.307Z" fill="#414B4F"/>
<path d="M26.6423 20.4051C26.71 20.5379 26.7697 20.6745 26.8212 20.8143C26.8643 20.9399 26.9054 21.0759 26.9443 21.2215H21.3735C21.3359 21.0939 21.2998 20.9801 21.2636 20.8823C21.2274 20.7845 21.194 20.686 21.1558 20.5951L20.1727 18.3643H9.24955L8.29503 20.5688C8.25746 20.6784 8.21991 20.7866 8.18582 20.8955C8.14873 21.0016 8.12174 21.111 8.10513 21.2222H2.40002C2.43442 21.0845 2.47573 20.9486 2.52385 20.815C2.57246 20.6744 2.63155 20.5376 2.70059 20.4058L9.31011 5.81376C9.74429 4.78228 10.4635 3.89507 11.3841 3.25553C12.3794 2.70136 13.5005 2.41042 14.6405 2.41042C15.7805 2.41042 16.9016 2.70136 17.8969 3.25553C18.8228 3.89278 19.5469 4.7803 19.9842 5.81376L26.6423 20.4051ZM18.368 14.307L15.5301 7.7172C15.457 7.54015 15.3327 7.38875 15.1731 7.28226C15.0259 7.18982 14.8551 7.14164 14.6812 7.14352C14.5185 7.1429 14.3585 7.18554 14.2178 7.26702C14.0511 7.37149 13.9252 7.52958 13.8609 7.71513L11.0516 14.305L18.368 14.307Z" fill="url(#paint6_linear_40001524_18751)"/>
<defs>
<linearGradient id="paint0_linear_40001524_18751" x1="140.788" y1="12.0142" x2="161.624" y2="12.0142" gradientUnits="userSpaceOnUse">
<stop stop-color="#56AB2F"/>
<stop offset="1" stop-color="#A8E063"/>
</linearGradient>
<linearGradient id="paint1_linear_40001524_18751" x1="115.751" y1="12" x2="138.721" y2="12" gradientUnits="userSpaceOnUse">
<stop stop-color="#56AB2F"/>
<stop offset="1" stop-color="#A8E063"/>
</linearGradient>
<linearGradient id="paint2_linear_40001524_18751" x1="89.9529" y1="12.0142" x2="113.436" y2="12.0142" gradientUnits="userSpaceOnUse">
<stop stop-color="#56AB2F"/>
<stop offset="1" stop-color="#A8E063"/>
</linearGradient>
<linearGradient id="paint3_linear_40001524_18751" x1="69.8282" y1="12.015" x2="91.8644" y2="12.015" gradientUnits="userSpaceOnUse">
<stop stop-color="#56AB2F"/>
<stop offset="1" stop-color="#A8E063"/>
</linearGradient>
<linearGradient id="paint4_linear_40001524_18751" x1="27.5964" y1="12.014" x2="47.0079" y2="12.014" gradientUnits="userSpaceOnUse">
<stop stop-color="#56AB2F"/>
<stop offset="1" stop-color="#A8E063"/>
</linearGradient>
<linearGradient id="paint5_linear_40001524_18751" x1="48.46" y1="12.014" x2="67.8731" y2="12.014" gradientUnits="userSpaceOnUse">
<stop stop-color="#56AB2F"/>
<stop offset="1" stop-color="#A8E063"/>
</linearGradient>
<linearGradient id="paint6_linear_40001524_18751" x1="2.40002" y1="11.8163" x2="26.9443" y2="11.8163" gradientUnits="userSpaceOnUse">
<stop stop-color="#56AB2F"/>
<stop offset="1" stop-color="#A8E063"/>
</linearGradient>
</defs>
</svg>
