<svg width="40" height="40" viewBox="0 0 40 40" fill="none" xmlns="http://www.w3.org/2000/svg">
<path d="M23.6615 39.6732C23.8152 39.3999 23.8954 39.0913 23.8941 38.7776C23.8929 38.464 23.8103 38.156 23.6544 37.8838C23.5249 37.6585 23.348 37.464 23.136 37.3138C22.9239 37.1635 22.6816 37.0612 22.4261 37.0139C22.2928 36.9825 22.1336 36.9526 21.9556 36.9236C21.6724 36.8773 21.4065 36.835 21.1477 36.795C20.092 36.6279 19.2583 36.4961 18.5415 36.3062C18.0566 36.1629 17.5827 35.9849 17.1234 35.7736C17.0905 35.7587 17.0592 35.743 17.0278 35.725C16.7989 35.5929 16.6249 35.3832 16.5371 35.1339C16.4494 34.8846 16.4537 34.6122 16.5493 34.3658C16.6449 34.1194 16.8254 33.9154 17.0583 33.7906C17.2912 33.6658 17.5611 33.6284 17.8191 33.6853C18.6431 33.9079 19.4818 34.0723 20.3289 34.1772C21.337 34.2427 22.3483 34.2427 23.3564 34.1772H23.3728C23.8813 34.8622 24.5868 35.3756 25.3949 35.6488C26.203 35.922 27.0751 35.942 27.8949 35.706C28.7146 35.47 29.4428 34.9893 29.982 34.3282C30.5212 33.6671 30.8458 32.8571 30.9124 32.0065L30.925 32.001C31.9964 31.4362 32.9885 30.7321 33.8755 29.9072C34.5523 29.2263 35.2136 28.3712 36.1618 27.2062C36.2935 27.0454 36.3884 26.938 36.4567 26.865C36.6273 26.6627 36.8646 26.5281 37.1258 26.4856C37.387 26.443 37.6548 26.4953 37.8808 26.6329C38.1068 26.7705 38.2762 26.9844 38.3584 27.236C38.4405 27.4876 38.43 27.7603 38.3288 28.0049V28.0111L38.3226 28.0268V28.0354C37.0025 31.0162 34.9797 33.6325 32.4276 35.6603C29.8755 37.6881 26.8699 39.067 23.6685 39.6787L23.6615 39.6732Z" fill="white"/>
<path d="M23.7076 33.4281C24.1345 34.1651 24.8155 34.721 25.6229 34.9916C26.4303 35.2622 27.3087 35.2289 28.0933 34.898C28.878 34.5671 29.515 33.9613 29.8849 33.1942C30.2549 32.4271 30.3324 31.5513 30.1029 30.7311C30.0239 30.4485 29.9101 30.1768 29.7641 29.9223C29.338 29.1837 28.6568 28.6262 27.8487 28.3546C27.0406 28.0829 26.1612 28.1158 25.3756 28.447C24.5901 28.7782 23.9524 29.385 23.5826 30.1533C23.2128 30.9216 23.1362 31.7985 23.3673 32.6193C23.4456 32.9023 23.5597 33.1741 23.7069 33.4281" fill="white"/>
<path d="M4.80122 33.0098C5.08776 33.0069 5.36951 32.9356 5.62306 32.8021C5.87662 32.6686 6.09467 32.4766 6.25926 32.242C6.42384 32.0073 6.53018 31.7368 6.56946 31.4529C6.60874 31.169 6.57981 30.8798 6.48511 30.6093C6.44511 30.4775 6.3926 30.3253 6.32829 30.1543C6.22633 29.886 6.12825 29.6318 6.0357 29.3902C5.65218 28.3923 5.34947 27.604 5.15575 26.8885C5.03711 26.3964 4.95401 25.8965 4.90711 25.3925C4.90316 25.3566 4.90127 25.3204 4.90156 25.2843C4.90077 25.0197 4.99493 24.7636 5.16686 24.5625C5.33878 24.3615 5.57714 24.2288 5.83857 24.1885C6.10001 24.1482 6.36715 24.2031 6.59158 24.3431C6.816 24.4831 6.98276 24.6991 7.06157 24.9516C7.28127 25.7773 7.55853 26.5865 7.89135 27.3733C8.33983 28.2786 8.84658 29.1538 9.40827 29.9935L9.41842 30.0084C9.07957 30.7912 8.98765 31.6589 9.15494 32.4954C9.32222 33.3319 9.74073 34.0973 10.3546 34.6896C10.9684 35.2818 11.7483 35.6726 12.5901 35.8097C13.4319 35.9467 14.2956 35.8236 15.0655 35.4566L15.0756 35.4653C16.1005 36.1114 17.2063 36.6192 18.3642 36.9754C19.2913 37.2209 20.3619 37.3677 21.8442 37.603C22.0489 37.6367 22.1893 37.6649 22.2866 37.6885C22.5496 37.7327 22.788 37.8702 22.958 38.0758C23.128 38.2814 23.2182 38.5414 23.2122 38.8082C23.2062 39.0749 23.1043 39.3305 22.9252 39.5283C22.7462 39.7261 22.5019 39.8527 22.2372 39.8851H22.2293H22.2128H22.2035C18.9627 40.2328 15.686 39.7887 12.6546 38.5909C9.62329 37.3931 6.92788 35.4774 4.79969 33.0082L4.80122 33.0098Z" fill="white"/>
<path d="M10.2311 29.9271C9.78491 30.6989 9.64969 31.6118 9.85278 32.48C10.0559 33.3481 10.5821 34.1062 11.3243 34.6C12.0666 35.0937 12.969 35.286 13.848 35.1376C14.7269 34.9893 15.5163 34.5115 16.0554 33.8015C16.5946 33.0915 16.843 32.2026 16.75 31.3159C16.6571 30.4292 16.2298 29.6112 15.5551 29.0285C14.8804 28.4458 14.0092 28.1422 13.1186 28.1794C12.228 28.2166 11.385 28.5919 10.7613 29.2289C10.556 29.4385 10.3779 29.673 10.2311 29.9271Z" fill="white"/>
<path d="M1.13848 13.3343C1.28426 13.5811 1.4867 13.7896 1.72911 13.9426C1.97152 14.0955 2.24688 14.1885 2.53237 14.2138C2.81787 14.2391 3.10525 14.196 3.37077 14.0881C3.6363 13.9801 3.87235 13.8105 4.05925 13.5931C4.1518 13.4935 4.2577 13.3711 4.37299 13.2291C4.55495 13.0056 4.7259 12.7953 4.88903 12.5945C5.5604 11.7629 6.09134 11.104 6.61447 10.5807C6.98073 10.2317 7.37187 9.90975 7.78471 9.61737C7.81399 9.59617 7.84433 9.57652 7.87567 9.55852C8.10448 9.42687 8.3728 9.38136 8.63221 9.4302C8.89162 9.47904 9.12504 9.61903 9.29033 9.82488C9.45562 10.0307 9.54191 10.2889 9.53361 10.5528C9.52531 10.8167 9.42294 11.0689 9.24505 11.264C8.63994 11.8668 8.07832 12.5117 7.56432 13.1938C7.00452 14.0352 6.49991 14.912 6.05372 15.8187L6.04663 15.8344C5.19899 15.9325 4.40151 16.2871 3.76073 16.8507C3.11995 17.4143 2.66641 18.1602 2.46076 18.9885C2.25511 19.8168 2.30709 20.6883 2.60983 21.4862C2.91256 22.2842 3.45161 22.9707 4.15489 23.4541V23.4675C4.10761 24.6783 4.2208 25.8902 4.49142 27.0714C4.74318 27.9978 5.15179 28.998 5.68512 30.4023C5.76355 30.5968 5.8043 30.7333 5.83332 30.829C5.92377 31.0781 5.92208 31.3514 5.82854 31.5993C5.735 31.8473 5.55583 32.0535 5.32341 32.1808C5.09099 32.308 4.82072 32.3478 4.5615 32.2929C4.30229 32.2381 4.07119 32.0923 3.91018 31.8818L3.90625 31.8755L3.89687 31.8622L3.89065 31.8544C3.4564 31.2588 3.05496 30.64 2.68824 30.0006C1.24129 27.4996 0.353454 24.7146 0.0859087 21.8374C-0.181637 18.9603 0.177506 16.0593 1.13848 13.3343Z" fill="white"/>
<path d="M6.52266 16.4979C5.63187 16.4976 4.77442 16.8369 4.12493 17.4467C3.47543 18.0564 3.08266 18.8908 3.02659 19.7801C2.97051 20.6693 3.2554 21.5465 3.82315 22.2331C4.3909 22.9196 5.19887 23.364 6.08263 23.4757C6.9664 23.5874 7.85949 23.358 8.58013 22.8343C9.30077 22.3105 9.79475 21.5318 9.96157 20.6565C10.1284 19.7813 9.95553 18.8754 9.47808 18.1232C9.00064 17.371 8.25456 16.8291 7.3917 16.6077C7.10777 16.5348 6.81579 16.4979 6.52266 16.4979Z" fill="white"/>
<path d="M16.3376 0.321539C16.185 0.593977 16.1053 0.901231 16.1062 1.21352C16.106 1.63313 16.2527 2.03956 16.5207 2.36237C16.7888 2.68519 17.1612 2.90402 17.5736 2.98095C17.7077 3.01233 17.8661 3.04213 18.0442 3.07116C18.3281 3.11744 18.5932 3.15981 18.8513 3.19981C19.9069 3.36691 20.7407 3.49869 21.4575 3.68854C21.9422 3.83223 22.4161 4.01025 22.8755 4.22121C22.9084 4.23574 22.9404 4.25224 22.9713 4.27063C23.2013 4.40201 23.3765 4.61165 23.4651 4.86138C23.5537 5.11112 23.5498 5.38437 23.4539 5.63141C23.3581 5.87844 23.1768 6.08282 22.9429 6.20742C22.7091 6.33201 22.4383 6.36855 22.1799 6.31031C21.3558 6.0878 20.5171 5.92343 19.67 5.81843C18.6619 5.75402 17.6506 5.75533 16.6426 5.82236H16.6254C16.1171 5.13692 15.4117 4.62309 14.6035 4.34963C13.7953 4.07617 12.9229 4.05612 12.103 4.29217C11.2831 4.52823 10.5547 5.0091 10.0155 5.67048C9.47635 6.33186 9.15196 7.14218 9.0858 7.993L9.07326 7.99851C8.00172 8.56323 7.00962 9.26727 6.12272 10.0923C5.44586 10.7732 4.78544 11.6283 3.83643 12.7925C3.70467 12.9533 3.60978 13.0608 3.54155 13.1338C3.37088 13.336 3.13358 13.4706 2.87242 13.5131C2.61125 13.5557 2.34343 13.5035 2.1174 13.3658C1.89137 13.2282 1.722 13.0143 1.63985 12.7627C1.55769 12.5111 1.56819 12.2384 1.66943 11.9939V11.9876L1.67566 11.9719L1.68044 11.9633C1.97881 11.2892 2.31363 10.6319 2.68352 9.99424C4.12466 7.49022 6.09175 5.32868 8.44903 3.65876C10.8063 1.98883 13.4977 0.85024 16.3376 0.321539Z" fill="white"/>
<path d="M16.2936 6.56807C15.8487 5.79455 15.1257 5.2197 14.2719 4.96056C13.4182 4.70142 12.4978 4.77746 11.6981 5.1732C10.8985 5.56894 10.2796 6.25464 9.96754 7.09069C9.65551 7.92675 9.67377 8.85032 10.0186 9.6734C10.3634 10.4965 11.0088 11.1571 11.8235 11.521C12.6382 11.8848 13.5608 11.9245 14.4037 11.6318C15.2466 11.3391 15.9463 10.7362 16.3603 9.9457C16.7744 9.15521 16.8717 8.23661 16.6324 7.37688C16.5532 7.09435 16.4394 6.82268 16.2936 6.56807Z" fill="white"/>
<path d="M35.1979 6.9854C34.9112 6.98812 34.6293 7.0591 34.3756 7.19253C34.1218 7.32597 33.9035 7.51799 33.7387 7.75265C33.574 7.98731 33.4675 8.25788 33.4281 8.54192C33.3888 8.82595 33.4176 9.11528 33.5124 9.38592C33.5524 9.51771 33.6058 9.66992 33.6693 9.84093C33.7713 10.1092 33.8692 10.3634 33.9618 10.605C34.3453 11.6029 34.6481 12.3921 34.8418 13.1075C34.9607 13.5993 35.0438 14.099 35.0905 14.6028C35.0947 14.6387 35.0967 14.6748 35.0967 14.711C35.0969 14.9753 35.0024 15.231 34.8304 15.4316C34.6584 15.6323 34.4202 15.7647 34.159 15.8049C33.8978 15.8451 33.631 15.7904 33.4066 15.6508C33.1822 15.5111 33.0152 15.2957 32.9359 15.0436C32.7166 14.2185 32.4395 13.4098 32.1069 12.6235C31.659 11.7174 31.1524 10.8416 30.5901 10.0017L30.5798 9.98683C30.9187 9.20398 31.0106 8.33637 30.8433 7.49988C30.676 6.66339 30.2575 5.89787 29.6437 5.30564C29.0298 4.7134 28.2499 4.32262 27.4081 4.18555C26.5664 4.04849 25.7028 4.17166 24.9329 4.53858L24.9226 4.52996C23.8982 3.88396 22.793 3.37619 21.6356 3.01984C20.707 2.7743 19.6372 2.62761 18.1557 2.39226C17.9502 2.35853 17.8089 2.33028 17.7125 2.30675C17.4518 2.26035 17.2164 2.12221 17.0487 1.91733C16.881 1.71245 16.7922 1.45435 16.7981 1.18963C16.8041 0.924915 16.9045 0.671062 17.0813 0.473954C17.258 0.276846 17.4994 0.149493 17.7619 0.114894H17.7697H17.7862H17.7957C21.0365 -0.232767 24.3133 0.211344 27.3448 1.40912C30.3762 2.6069 33.0718 4.52256 35.2002 6.99167L35.1979 6.9854Z" fill="white"/>
<path d="M29.765 10.0687C30.2104 9.29689 30.3449 8.38427 30.1413 7.51667C29.9377 6.64906 29.4112 5.89169 28.6689 5.3987C27.9267 4.9057 27.0245 4.71415 26.146 4.86305C25.2676 5.01195 24.4789 5.49011 23.9405 6.20018C23.4021 6.91025 23.1544 7.79885 23.248 8.68511C23.3415 9.57138 23.7692 10.3887 24.444 10.9707C25.1188 11.5526 25.9899 11.8555 26.8801 11.8176C27.7703 11.7798 28.6125 11.4041 29.2355 10.7669C29.4405 10.5573 29.6184 10.3227 29.765 10.0687Z" fill="white"/>
<path d="M38.8599 26.661C38.7001 26.391 38.4729 26.1672 38.2005 26.0116C37.9281 25.8561 37.6199 25.7741 37.3062 25.7738C37.0466 25.7732 36.79 25.829 36.5541 25.9373C36.3182 26.0457 36.1086 26.204 35.9399 26.4013C35.8466 26.501 35.74 26.6233 35.6262 26.7653C35.4443 26.9881 35.2741 27.1992 35.1117 27.4C34.4396 28.2315 33.9085 28.8905 33.3862 29.4145C33.0201 29.7637 32.629 30.0856 32.2161 30.3779C32.1871 30.3992 32.157 30.4188 32.1259 30.4367C31.8971 30.5692 31.6283 30.6154 31.3685 30.5668C31.1086 30.5182 30.8748 30.3781 30.7093 30.1719C30.5438 29.9657 30.4576 29.707 30.4664 29.4427C30.4752 29.1784 30.5784 28.926 30.7572 28.7312C31.3627 28.1287 31.9243 27.4839 32.438 26.8014C32.9978 25.9601 33.5024 25.0833 33.9486 24.1765L33.9557 24.1608C34.8033 24.0627 35.6008 23.7081 36.2416 23.1445C36.8823 22.5809 37.3359 21.8351 37.5415 21.0067C37.7472 20.1784 37.6952 19.307 37.3925 18.5091C37.0897 17.7111 36.5507 17.0245 35.8474 16.5411V16.5278C35.8947 15.3169 35.7815 14.1051 35.5109 12.9239C35.2591 11.9974 34.8505 10.9972 34.3172 9.59297C34.2435 9.3992 34.198 9.26273 34.169 9.16702C34.0785 8.91793 34.0802 8.64465 34.1738 8.39671C34.2673 8.14876 34.4465 7.94252 34.6789 7.81529C34.9113 7.68805 35.1816 7.64827 35.4408 7.7031C35.7 7.75794 35.9311 7.90375 36.0921 8.11421L36.0968 8.12048L36.1062 8.13384L36.1125 8.14088C36.5459 8.73685 36.947 9.35568 37.3141 9.99464C38.7605 12.4959 39.6477 15.281 39.9146 18.1582C40.1814 21.0354 39.8216 23.9363 38.8599 26.661Z" fill="white"/>
<path d="M33.4763 23.4987C34.3679 23.4997 35.2264 23.1607 35.8769 22.5509C36.5275 21.9411 36.9211 21.1062 36.978 20.2162C37.0348 19.3263 36.7505 18.4481 36.1827 17.7605C35.615 17.0728 34.8066 16.6275 33.9221 16.515C33.0376 16.4025 32.1436 16.6314 31.4219 17.155C30.7002 17.6787 30.2052 18.4578 30.0375 19.3336C29.8699 20.2095 30.0422 21.1164 30.5195 21.8696C30.9968 22.6229 31.7431 23.1659 32.6065 23.3881C32.8907 23.4613 33.1829 23.4985 33.4763 23.4987Z" fill="white"/>
</svg>
