<svg width="272" height="40" viewBox="0 0 272 40" fill="none" xmlns="http://www.w3.org/2000/svg">
<path d="M267.917 12.8167H245.801C245.394 12.8016 244.986 12.8559 244.597 12.9774C244.333 13.0684 244.092 13.2151 243.89 13.4075C243.681 13.6151 243.517 13.8633 243.408 14.1367C243.299 14.4102 243.247 14.703 243.256 14.9971C243.249 15.3105 243.315 15.6212 243.449 15.9048C243.583 16.1883 243.781 16.4369 244.028 16.6307C244.222 16.7877 244.446 16.9027 244.687 16.9683C245.051 17.058 245.426 17.0969 245.801 17.0839H259.317C260.817 17.0422 262.309 17.2964 263.71 17.8319C264.847 18.2874 265.877 18.9745 266.733 19.8493C267.549 20.6936 268.205 21.6783 268.669 22.7558C269.576 24.8803 269.608 27.2754 268.757 29.423C268.363 30.4312 267.803 31.367 267.1 32.192C266.222 33.1782 265.143 33.9664 263.935 34.5042C262.475 35.1169 260.899 35.4098 259.316 35.3632H235.471V27.5143H257.86C258.361 27.5347 258.862 27.465 259.339 27.3085C259.662 27.1894 259.951 26.9956 260.183 26.7432C260.515 26.3497 260.692 25.8492 260.681 25.3351C260.692 25.0344 260.641 24.7345 260.533 24.4538C260.424 24.173 260.26 23.9171 260.049 23.7015C259.834 23.4594 259.558 23.2794 259.249 23.1801C258.796 23.0585 258.326 23.0063 257.857 23.0251H245.345C243.65 23.0835 241.96 22.8288 240.358 22.2737C239.186 21.832 238.122 21.144 237.24 20.2563C236.429 19.4224 235.781 18.4444 235.331 17.3729C234.867 16.2586 234.635 15.0623 234.648 13.856C234.639 12.6543 234.88 11.4638 235.357 10.36C235.816 9.28296 236.47 8.29956 237.287 7.45924C238.163 6.57381 239.218 5.88487 240.383 5.43838C241.974 4.882 243.657 4.62753 245.342 4.68807H267.91L267.917 12.8167Z" fill="#414B4F"/>
<path d="M267.917 12.8167H245.801C245.394 12.8016 244.986 12.8559 244.597 12.9774C244.333 13.0684 244.092 13.2151 243.89 13.4075C243.681 13.6151 243.517 13.8633 243.408 14.1367C243.299 14.4102 243.247 14.703 243.256 14.9971C243.249 15.3105 243.315 15.6212 243.449 15.9048C243.583 16.1883 243.781 16.4369 244.028 16.6307C244.222 16.7877 244.446 16.9027 244.687 16.9683C245.051 17.058 245.426 17.0969 245.801 17.0839H259.317C260.817 17.0422 262.309 17.2964 263.71 17.8319C264.847 18.2874 265.877 18.9745 266.733 19.8493C267.549 20.6936 268.205 21.6783 268.669 22.7558C269.576 24.8803 269.608 27.2754 268.757 29.423C268.363 30.4312 267.803 31.367 267.1 32.192C266.222 33.1782 265.143 33.9664 263.935 34.5042C262.475 35.1169 260.899 35.4098 259.316 35.3632H235.471V27.5143H257.86C258.361 27.5347 258.862 27.465 259.339 27.3085C259.662 27.1894 259.951 26.9956 260.183 26.7432C260.515 26.3497 260.692 25.8492 260.681 25.3351C260.692 25.0344 260.641 24.7345 260.533 24.4538C260.424 24.173 260.26 23.9171 260.049 23.7015C259.834 23.4594 259.558 23.2794 259.249 23.1801C258.796 23.0585 258.326 23.0063 257.857 23.0251H245.345C243.65 23.0835 241.96 22.8288 240.358 22.2737C239.186 21.832 238.122 21.144 237.24 20.2563C236.429 19.4224 235.781 18.4444 235.331 17.3729C234.867 16.2586 234.635 15.0623 234.648 13.856C234.639 12.6543 234.88 11.4638 235.357 10.36C235.816 9.28296 236.47 8.29956 237.287 7.45924C238.163 6.57381 239.218 5.88487 240.383 5.43838C241.974 4.882 243.657 4.62753 245.342 4.68807H267.91L267.917 12.8167Z" fill="url(#paint0_linear_40001524_18769)"/>
<path d="M231.199 29.4195C231.221 30.4318 231.057 31.4396 230.716 32.3931C230.442 33.1568 230.007 33.8531 229.44 34.4348C228.921 34.9583 228.292 35.3609 227.599 35.614C226.9 35.8722 226.159 36.0023 225.414 35.9978C224.243 36.0225 223.078 35.8305 221.978 35.4313C220.978 35.0452 220.093 34.4127 219.405 33.5931L202.52 14.1288C202.436 14.0129 202.327 13.9164 202.203 13.8462C202.078 13.7759 201.939 13.7335 201.796 13.7218C201.694 13.7212 201.592 13.7414 201.498 13.7811C201.404 13.8209 201.319 13.8794 201.249 13.9531C201.169 14.0382 201.108 14.1383 201.068 14.2475C201.028 14.3568 201.011 14.4729 201.017 14.5889V35.3689H192.922V11.1807C192.892 10.0545 193.068 8.9322 193.44 7.86846C193.74 7.03123 194.238 6.2786 194.893 5.67471C195.547 5.07083 196.338 4.63358 197.198 4.40012C198.13 4.13621 199.095 4.00656 200.064 4.01513C201.337 3.93526 202.61 4.17125 203.769 4.70206C204.929 5.23288 205.938 6.04194 206.707 7.05684L221.721 24.9766C221.815 25.1051 221.941 25.207 222.087 25.2725C222.219 25.3183 222.358 25.3406 222.498 25.3384C222.921 25.3384 223.134 25.0679 223.134 24.5222V4.68915H231.193L231.199 29.4195Z" fill="#414B4F"/>
<path d="M231.199 29.4195C231.221 30.4318 231.057 31.4396 230.716 32.3931C230.442 33.1568 230.007 33.8531 229.44 34.4348C228.921 34.9583 228.292 35.3609 227.599 35.614C226.9 35.8722 226.159 36.0023 225.414 35.9978C224.243 36.0225 223.078 35.8305 221.978 35.4313C220.978 35.0452 220.093 34.4127 219.405 33.5931L202.52 14.1288C202.436 14.0129 202.327 13.9164 202.203 13.8462C202.078 13.7759 201.939 13.7335 201.796 13.7218C201.694 13.7212 201.592 13.7414 201.498 13.7811C201.404 13.8209 201.319 13.8794 201.249 13.9531C201.169 14.0382 201.108 14.1383 201.068 14.2475C201.028 14.3568 201.011 14.4729 201.017 14.5889V35.3689H192.922V11.1807C192.892 10.0545 193.068 8.9322 193.44 7.86846C193.74 7.03123 194.238 6.2786 194.893 5.67471C195.547 5.07083 196.338 4.63358 197.198 4.40012C198.13 4.13621 199.095 4.00656 200.064 4.01513C201.337 3.93526 202.61 4.17125 203.769 4.70206C204.929 5.23288 205.938 6.04194 206.707 7.05684L221.721 24.9766C221.815 25.1051 221.941 25.207 222.087 25.2725C222.219 25.3183 222.358 25.3406 222.498 25.3384C222.921 25.3384 223.134 25.0679 223.134 24.5222V4.68915H231.193L231.199 29.4195Z" fill="url(#paint1_linear_40001524_18769)"/>
<path d="M166.258 35.3607C163.794 35.4171 161.345 34.9607 159.068 34.0207C157.104 33.1757 155.338 31.9328 153.882 30.3708C151.89 28.147 150.582 25.399 150.114 22.4545C149.646 19.5101 150.037 16.4935 151.24 13.7644C152.099 11.8566 153.337 10.1422 154.88 8.725C156.287 7.43162 157.933 6.42259 159.726 5.75378C161.82 5.00408 164.035 4.64205 166.26 4.68552H172.723C174.946 4.64207 177.158 5.00412 179.249 5.75378C181.044 6.4211 182.691 7.43027 184.099 8.725C185.64 10.1434 186.878 11.8574 187.74 13.7644C188.626 15.7314 189.076 17.8662 189.058 20.0225C189.1 22.9972 188.252 25.9169 186.623 28.4097C184.995 30.9024 182.658 32.8553 179.913 34.0195C177.635 34.9592 175.187 35.4155 172.723 35.3595L166.258 35.3607ZM166.258 12.8095C165.081 12.7734 163.909 12.9573 162.801 13.3517C161.93 13.6909 161.127 14.184 160.432 14.8073C159.727 15.4772 159.163 16.2795 158.77 17.1681C158.359 18.081 158.149 19.0714 158.155 20.0722C158.15 20.9808 158.321 21.8816 158.659 22.7255C158.982 23.5413 159.461 24.2871 160.068 24.9221C160.767 25.6686 161.62 26.2558 162.568 26.6435C163.743 27.0989 164.997 27.3151 166.258 27.2794H172.721C173.98 27.3146 175.233 27.0984 176.407 26.6435C177.355 26.2554 178.207 25.6683 178.906 24.9221C179.512 24.2851 179.991 23.5399 180.32 22.7255C180.653 21.8806 180.823 20.9802 180.819 20.0722C180.827 19.0712 180.617 18.0805 180.204 17.1681C179.81 16.2801 179.245 15.4779 178.541 14.8073C177.846 14.1852 177.045 13.6922 176.175 13.3517C175.068 12.9579 173.896 12.774 172.721 12.8095H166.258Z" fill="#414B4F"/>
<path d="M166.258 35.3607C163.794 35.4171 161.345 34.9607 159.068 34.0207C157.104 33.1757 155.338 31.9328 153.882 30.3708C151.89 28.147 150.582 25.399 150.114 22.4545C149.646 19.5101 150.037 16.4935 151.24 13.7644C152.099 11.8566 153.337 10.1422 154.88 8.725C156.287 7.43162 157.933 6.42259 159.726 5.75378C161.82 5.00408 164.035 4.64205 166.26 4.68552H172.723C174.946 4.64207 177.158 5.00412 179.249 5.75378C181.044 6.4211 182.691 7.43027 184.099 8.725C185.64 10.1434 186.878 11.8574 187.74 13.7644C188.626 15.7314 189.076 17.8662 189.058 20.0225C189.1 22.9972 188.252 25.9169 186.623 28.4097C184.995 30.9024 182.658 32.8553 179.913 34.0195C177.635 34.9592 175.187 35.4155 172.723 35.3595L166.258 35.3607ZM166.258 12.8095C165.081 12.7734 163.909 12.9573 162.801 13.3517C161.93 13.6909 161.127 14.184 160.432 14.8073C159.727 15.4772 159.163 16.2795 158.77 17.1681C158.359 18.081 158.149 19.0714 158.155 20.0722C158.15 20.9808 158.321 21.8816 158.659 22.7255C158.982 23.5413 159.461 24.2871 160.068 24.9221C160.767 25.6686 161.62 26.2558 162.568 26.6435C163.743 27.0989 164.997 27.3151 166.258 27.2794H172.721C173.98 27.3146 175.233 27.0984 176.407 26.6435C177.355 26.2554 178.207 25.6683 178.906 24.9221C179.512 24.2851 179.991 23.5399 180.32 22.7255C180.653 21.8806 180.823 20.9802 180.819 20.0722C180.827 19.0712 180.617 18.0805 180.204 17.1681C179.81 16.2801 179.245 15.4779 178.541 14.8073C177.846 14.1852 177.045 13.6922 176.175 13.3517C175.068 12.9579 173.896 12.774 172.721 12.8095H166.258Z" fill="url(#paint2_linear_40001524_18769)"/>
<path d="M124.707 4.68919V17.2608L138.724 5.96209C139.194 5.5858 139.622 5.15931 139.999 4.69032H151.51C151.413 4.85369 151.29 5.00013 151.145 5.12386C150.999 5.26144 150.845 5.38978 150.694 5.50886L133.765 18.573C133.685 18.6305 133.619 18.7053 133.572 18.7917C133.525 18.8782 133.498 18.9741 133.493 19.0724C133.497 19.1706 133.523 19.2667 133.57 19.3531C133.618 19.4395 133.684 19.514 133.765 19.5707L151.925 34.2279C152.134 34.4105 152.339 34.5909 152.539 34.7713C152.74 34.9569 152.929 35.1538 153.107 35.3609H140.816C140.402 34.8942 139.944 34.4683 139.449 34.0891L124.705 21.7939V35.3609H116.38V4.68919H124.707Z" fill="#414B4F"/>
<path d="M124.707 4.68919V17.2608L138.724 5.96209C139.194 5.5858 139.622 5.15931 139.999 4.69032H151.51C151.413 4.85369 151.29 5.00013 151.145 5.12386C150.999 5.26144 150.845 5.38978 150.694 5.50886L133.765 18.573C133.685 18.6305 133.619 18.7053 133.572 18.7917C133.525 18.8782 133.498 18.9741 133.493 19.0724C133.497 19.1706 133.523 19.2667 133.57 19.3531C133.618 19.4395 133.684 19.514 133.765 19.5707L151.925 34.2279C152.134 34.4105 152.339 34.5909 152.539 34.7713C152.74 34.9569 152.929 35.1538 153.107 35.3609H140.816C140.402 34.8942 139.944 34.4683 139.449 34.0891L124.705 21.7939V35.3609H116.38V4.68919H124.707Z" fill="url(#paint3_linear_40001524_18769)"/>
<path d="M56.0085 35.3606C54.4018 35.3975 52.7988 35.1908 51.2543 34.7479C50.0772 34.409 49.0101 33.768 48.1595 32.8889C47.3538 31.9982 46.7824 30.922 46.4965 29.7569C46.1436 28.3239 45.9753 26.8519 45.9956 25.3764V4.68202H54.2761V24.6087C54.1904 25.414 54.3921 26.2237 54.8455 26.8956C55.1479 27.1352 55.4948 27.3127 55.8663 27.4181C56.2379 27.5234 56.6267 27.5545 57.0103 27.5095H78.3464V35.3606H56.0085Z" fill="#414B4F"/>
<path d="M56.0085 35.3606C54.4018 35.3975 52.7988 35.1908 51.2543 34.7479C50.0772 34.409 49.0101 33.768 48.1595 32.8889C47.3538 31.9982 46.7824 30.922 46.4965 29.7569C46.1436 28.3239 45.9753 26.8519 45.9956 25.3764V4.68202H54.2761V24.6087C54.1904 25.414 54.3921 26.2237 54.8455 26.8956C55.1479 27.1352 55.4948 27.3127 55.8663 27.4181C56.2379 27.5234 56.6267 27.5545 57.0103 27.5095H78.3464V35.3606H56.0085Z" fill="url(#paint4_linear_40001524_18769)"/>
<path d="M90.7771 35.3606C89.1704 35.3971 87.5673 35.1904 86.0227 34.7479C84.8474 34.4066 83.7816 33.7659 82.9302 32.8889C82.125 31.9983 81.5549 30.922 81.271 29.7569C80.9135 28.3247 80.7447 26.8521 80.7689 25.3764V4.68202H89.0469V24.6087C88.9601 25.4148 89.1635 26.2253 89.6209 26.8956C89.922 27.1355 90.268 27.3134 90.6386 27.4188C91.0093 27.5242 91.3974 27.555 91.7801 27.5095H113.122V35.3606H90.7771Z" fill="#414B4F"/>
<path d="M90.7771 35.3606C89.1704 35.3971 87.5673 35.1904 86.0227 34.7479C84.8474 34.4066 83.7816 33.7659 82.9302 32.8889C82.125 31.9983 81.5549 30.922 81.271 29.7569C80.9135 28.3247 80.7447 26.8521 80.7689 25.3764V4.68202H89.0469V24.6087C88.9601 25.4148 89.1635 26.2253 89.6209 26.8956C89.922 27.1355 90.268 27.3134 90.6386 27.4188C91.0093 27.5242 91.3974 27.555 91.7801 27.5095H113.122V35.3606H90.7771Z" fill="url(#paint5_linear_40001524_18769)"/>
<path d="M44.4039 34.0085C44.5166 34.2298 44.6162 34.4575 44.702 34.6905C44.7739 34.8998 44.8423 35.1264 44.9072 35.3692H35.6225C35.5599 35.1565 35.4996 34.9669 35.4393 34.8039C35.379 34.6408 35.3233 34.4767 35.2596 34.3252L33.6211 30.6072H15.4159L13.825 34.2813C13.7624 34.4639 13.6998 34.6443 13.643 34.8258C13.5812 35.0027 13.5362 35.185 13.5085 35.3703H4C4.05732 35.1408 4.12618 34.9143 4.20638 34.6917C4.2874 34.4574 4.38588 34.2293 4.50094 34.0096L15.5168 9.6896C16.2404 7.97045 17.4392 6.49177 18.9734 5.42587C20.6323 4.50226 22.5008 4.01735 24.4008 4.01735C26.3008 4.01735 28.1693 4.50226 29.8282 5.42587C31.3712 6.48796 32.5781 7.96716 33.3069 9.6896L44.4039 34.0085ZM30.6132 23.8451L25.8834 12.862C25.7616 12.5669 25.5544 12.3146 25.2885 12.1371C25.0432 11.983 24.7585 11.9027 24.4686 11.9059C24.1974 11.9048 23.9308 11.9759 23.6963 12.1117C23.4185 12.2858 23.2087 12.5493 23.1015 12.8585L18.4193 23.8416L30.6132 23.8451Z" fill="#414B4F"/>
<path d="M44.4039 34.0085C44.5166 34.2298 44.6162 34.4575 44.702 34.6905C44.7739 34.8998 44.8423 35.1264 44.9072 35.3692H35.6225C35.5599 35.1565 35.4996 34.9669 35.4393 34.8039C35.379 34.6408 35.3233 34.4767 35.2596 34.3252L33.6211 30.6072H15.4159L13.825 34.2813C13.7624 34.4639 13.6998 34.6443 13.643 34.8258C13.5812 35.0027 13.5362 35.185 13.5085 35.3703H4C4.05732 35.1408 4.12618 34.9143 4.20638 34.6917C4.2874 34.4574 4.38588 34.2293 4.50094 34.0096L15.5168 9.6896C16.2404 7.97045 17.4392 6.49177 18.9734 5.42587C20.6323 4.50226 22.5008 4.01735 24.4008 4.01735C26.3008 4.01735 28.1693 4.50226 29.8282 5.42587C31.3712 6.48796 32.5781 7.96716 33.3069 9.6896L44.4039 34.0085ZM30.6132 23.8451L25.8834 12.862C25.7616 12.5669 25.5544 12.3146 25.2885 12.1371C25.0432 11.983 24.7585 11.9027 24.4686 11.9059C24.1974 11.9048 23.9308 11.9759 23.6963 12.1117C23.4185 12.2858 23.2087 12.5493 23.1015 12.8585L18.4193 23.8416L30.6132 23.8451Z" fill="url(#paint6_linear_40001524_18769)"/>
<defs>
<linearGradient id="paint0_linear_40001524_18769" x1="234.647" y1="20.0237" x2="269.373" y2="20.0237" gradientUnits="userSpaceOnUse">
<stop stop-color="#56AB2F"/>
<stop offset="1" stop-color="#A8E063"/>
</linearGradient>
<linearGradient id="paint1_linear_40001524_18769" x1="192.919" y1="19.9999" x2="231.201" y2="19.9999" gradientUnits="userSpaceOnUse">
<stop stop-color="#56AB2F"/>
<stop offset="1" stop-color="#A8E063"/>
</linearGradient>
<linearGradient id="paint2_linear_40001524_18769" x1="149.922" y1="20.0237" x2="189.06" y2="20.0237" gradientUnits="userSpaceOnUse">
<stop stop-color="#56AB2F"/>
<stop offset="1" stop-color="#A8E063"/>
</linearGradient>
<linearGradient id="paint3_linear_40001524_18769" x1="116.38" y1="20.025" x2="153.107" y2="20.025" gradientUnits="userSpaceOnUse">
<stop stop-color="#56AB2F"/>
<stop offset="1" stop-color="#A8E063"/>
</linearGradient>
<linearGradient id="paint4_linear_40001524_18769" x1="45.994" y1="20.0234" x2="78.3464" y2="20.0234" gradientUnits="userSpaceOnUse">
<stop stop-color="#56AB2F"/>
<stop offset="1" stop-color="#A8E063"/>
</linearGradient>
<linearGradient id="paint5_linear_40001524_18769" x1="80.7666" y1="20.0234" x2="113.122" y2="20.0234" gradientUnits="userSpaceOnUse">
<stop stop-color="#56AB2F"/>
<stop offset="1" stop-color="#A8E063"/>
</linearGradient>
<linearGradient id="paint6_linear_40001524_18769" x1="4" y1="19.6938" x2="44.9072" y2="19.6938" gradientUnits="userSpaceOnUse">
<stop stop-color="#56AB2F"/>
<stop offset="1" stop-color="#A8E063"/>
</linearGradient>
</defs>
</svg>
