<svg width="16" height="16" viewBox="0 0 16 16" fill="none" xmlns="http://www.w3.org/2000/svg">
<path d="M9.46459 15.8693C9.52609 15.7599 9.55815 15.6365 9.55765 15.511C9.55716 15.3856 9.52412 15.2624 9.46176 15.1535C9.40996 15.0634 9.33921 14.9856 9.25438 14.9255C9.16956 14.8654 9.07266 14.8245 8.97046 14.8055C8.91712 14.793 8.85344 14.7811 8.78223 14.7694C8.66897 14.7509 8.56261 14.734 8.45908 14.718C8.03681 14.6511 7.70333 14.5984 7.41658 14.5225C7.22265 14.4652 7.0331 14.394 6.84938 14.3094C6.8362 14.3035 6.82367 14.2972 6.81112 14.29C6.71958 14.2371 6.64995 14.1533 6.61485 14.0536C6.57974 13.9539 6.58147 13.8449 6.61971 13.7463C6.65795 13.6478 6.73017 13.5662 6.82333 13.5162C6.9165 13.4663 7.02442 13.4514 7.12764 13.4741C7.45725 13.5632 7.79274 13.6289 8.13157 13.6709C8.53481 13.6971 8.93931 13.6971 9.34254 13.6709H9.34913C9.55252 13.9449 9.83471 14.1503 10.1579 14.2595C10.4812 14.3688 10.8301 14.3768 11.1579 14.2824C11.4858 14.188 11.7771 13.9957 11.9928 13.7313C12.2085 13.4668 12.3383 13.1428 12.365 12.8026L12.37 12.8004C12.7986 12.5745 13.1954 12.2929 13.5502 11.9629C13.8209 11.6905 14.0854 11.3485 14.4647 10.8825C14.5174 10.8182 14.5554 10.7752 14.5827 10.746C14.6509 10.6651 14.7459 10.6113 14.8503 10.5942C14.9548 10.5772 15.0619 10.5981 15.1523 10.6532C15.2427 10.7082 15.3105 10.7938 15.3433 10.8944C15.3762 10.995 15.372 11.1041 15.3315 11.2019V11.2045L15.329 11.2107V11.2142C14.801 12.4065 13.9919 13.453 12.971 14.2641C11.9502 15.0752 10.748 15.6268 9.46739 15.8715L9.46459 15.8693Z" fill="#414B4F"/>
<path d="M9.48307 13.3713C9.65383 13.666 9.92623 13.8884 10.2492 13.9966C10.5722 14.1049 10.9235 14.0916 11.2374 13.9592C11.5512 13.8269 11.806 13.5845 11.954 13.2777C12.102 12.9708 12.133 12.6205 12.0412 12.2924C12.0096 12.1794 11.9641 12.0707 11.9057 11.9689C11.7352 11.6735 11.4627 11.4505 11.1395 11.3418C10.8163 11.2332 10.4645 11.2463 10.1503 11.3788C9.83604 11.5113 9.58099 11.754 9.43306 12.0613C9.28513 12.3686 9.25451 12.7194 9.34693 13.0477C9.37827 13.1609 9.42391 13.2696 9.48277 13.3713" fill="#414B4F"/>
<path d="M1.92047 13.2039C2.03509 13.2027 2.14779 13.1743 2.24921 13.1208C2.35063 13.0674 2.43785 12.9906 2.50369 12.8968C2.56952 12.8029 2.61206 12.6947 2.62777 12.5812C2.64348 12.4676 2.63191 12.3519 2.59403 12.2437C2.57803 12.191 2.55703 12.1301 2.5313 12.0617C2.49052 11.9544 2.45129 11.8527 2.41427 11.7561C2.26086 11.3569 2.13977 11.0416 2.06228 10.7554C2.01483 10.5586 1.98159 10.3586 1.96283 10.157C1.96125 10.1426 1.96049 10.1282 1.96061 10.1137C1.96029 10.0079 1.99796 9.90544 2.06673 9.82502C2.1355 9.74459 2.23084 9.6915 2.33541 9.6754C2.43999 9.65929 2.54684 9.68123 2.63661 9.73724C2.72638 9.79325 2.79309 9.87963 2.82461 9.98065C2.91249 10.3109 3.0234 10.6346 3.15653 10.9493C3.33592 11.3114 3.53862 11.6615 3.76329 11.9974L3.76735 12.0034C3.63181 12.3165 3.59505 12.6636 3.66196 12.9982C3.72887 13.3328 3.89628 13.6389 4.14181 13.8758C4.38735 14.1127 4.69932 14.269 5.03603 14.3239C5.37275 14.3787 5.7182 14.3294 6.02618 14.1827L6.03024 14.1861C6.44019 14.4446 6.8825 14.6477 7.34568 14.7902C7.7165 14.8884 8.14474 14.9471 8.73768 15.0412C8.81956 15.0547 8.87571 15.066 8.91461 15.0754C9.01983 15.0931 9.11519 15.1481 9.18318 15.2303C9.25117 15.3126 9.28726 15.4166 9.28486 15.5233C9.28246 15.63 9.2417 15.7322 9.17008 15.8113C9.09846 15.8904 9.00076 15.9411 8.89485 15.954H8.89171H8.88512H8.88137C7.58507 16.0931 6.27439 15.9155 5.06184 15.4364C3.8493 14.9572 2.77114 14.191 1.91986 13.2033L1.92047 13.2039Z" fill="#414B4F"/>
<path d="M4.09242 11.9708C3.91396 12.2796 3.85988 12.6447 3.94111 12.992C4.02235 13.3393 4.23284 13.6425 4.52973 13.84C4.82662 14.0375 5.1876 14.1144 5.53918 14.0551C5.89077 13.9957 6.20652 13.8046 6.42218 13.5206C6.63784 13.2366 6.7372 12.8811 6.70002 12.5264C6.66284 12.1717 6.49191 11.8445 6.22204 11.6114C5.95218 11.3783 5.60368 11.2569 5.24744 11.2718C4.8912 11.2867 4.55399 11.4368 4.30451 11.6915C4.2224 11.7754 4.15114 11.8692 4.09242 11.9708Z" fill="#414B4F"/>
<path d="M0.455393 5.33371C0.513704 5.43244 0.59468 5.51584 0.691643 5.57702C0.788606 5.63821 0.898751 5.6754 1.01295 5.68552C1.12715 5.69564 1.2421 5.6784 1.34831 5.63523C1.45452 5.59205 1.54894 5.52419 1.6237 5.43725C1.66072 5.3974 1.70308 5.34845 1.7492 5.29165C1.82198 5.20222 1.89036 5.11812 1.95561 5.03779C2.22416 4.70516 2.43654 4.44159 2.64579 4.23229C2.79229 4.09269 2.94875 3.9639 3.11389 3.84694C3.12559 3.83847 3.13773 3.83061 3.15027 3.82341C3.24179 3.77075 3.34912 3.75254 3.45288 3.77208C3.55665 3.79162 3.65002 3.84761 3.71613 3.92995C3.78225 4.01229 3.81676 4.11557 3.81344 4.22113C3.81012 4.32668 3.76918 4.42757 3.69802 4.5056C3.45598 4.74671 3.23133 5.00467 3.02573 5.27754C2.80181 5.61407 2.59996 5.96479 2.42149 6.32749L2.41865 6.33376C2.07959 6.37301 1.7606 6.51484 1.50429 6.74028C1.24798 6.96573 1.06656 7.26407 0.984304 7.5954C0.902042 7.92674 0.922837 8.2753 1.04393 8.59449C1.16503 8.91368 1.38064 9.18829 1.66196 9.38164V9.38698C1.64304 9.87134 1.68832 10.3561 1.79657 10.8285C1.89727 11.1991 2.06071 11.5992 2.27405 12.1609C2.30542 12.2387 2.32172 12.2933 2.33333 12.3316C2.36951 12.4312 2.36883 12.5406 2.33141 12.6397C2.294 12.7389 2.22233 12.8214 2.12936 12.8723C2.0364 12.9232 1.92829 12.9391 1.8246 12.9172C1.72091 12.8952 1.62848 12.8369 1.56407 12.7527L1.5625 12.7502L1.55875 12.7449L1.55626 12.7417C1.38256 12.5035 1.22198 12.256 1.0753 12.0003C0.496518 10.9998 0.141382 9.88584 0.0343635 8.73497C-0.0726548 7.58411 0.0710024 6.42372 0.455393 5.33371Z" fill="#414B4F"/>
<path d="M2.60906 6.59914C2.25275 6.59904 1.90977 6.73476 1.64997 6.97867C1.39017 7.22258 1.23307 7.55633 1.21063 7.91202C1.1882 8.26771 1.30216 8.61859 1.52926 8.89322C1.75636 9.16785 2.07955 9.34559 2.43305 9.39026C2.78656 9.43494 3.14379 9.3432 3.43205 9.1337C3.72031 8.9242 3.9179 8.6127 3.98463 8.26261C4.05136 7.91252 3.98221 7.55015 3.79123 7.24927C3.60025 6.94839 3.30182 6.73162 2.95668 6.64308C2.84311 6.61393 2.72631 6.59916 2.60906 6.59914Z" fill="#414B4F"/>
<path d="M6.53505 0.128619C6.47401 0.237594 6.44212 0.360495 6.44249 0.485409C6.44243 0.653255 6.5011 0.815827 6.60831 0.944952C6.71552 1.07408 6.86449 1.16161 7.02946 1.19238C7.0831 1.20493 7.14647 1.21686 7.21768 1.22847C7.33125 1.24698 7.43731 1.26393 7.54052 1.27993C7.96279 1.34677 8.29628 1.39948 8.58302 1.47542C8.77691 1.5329 8.96645 1.6041 9.15023 1.68849C9.16338 1.6943 9.17618 1.7009 9.18853 1.70825C9.28055 1.76081 9.35063 1.84466 9.38606 1.94456C9.42149 2.04445 9.41992 2.15375 9.38158 2.25257C9.34324 2.35138 9.27072 2.43313 9.17719 2.48297C9.08367 2.53281 8.97535 2.54742 8.87197 2.52413C8.54235 2.43512 8.20686 2.36937 7.86803 2.32738C7.46477 2.30161 7.06026 2.30214 6.65706 2.32895H6.65017C6.44687 2.05477 6.16471 1.84924 5.84143 1.73986C5.51815 1.63047 5.16917 1.62245 4.84121 1.71687C4.51324 1.81129 4.22191 2.00364 4.00623 2.26819C3.79056 2.53275 3.6608 2.85687 3.63434 3.1972L3.62932 3.19941C3.2007 3.42529 2.80386 3.70691 2.4491 4.03692C2.17836 4.3093 1.91419 4.65134 1.53459 5.11701C1.48188 5.18133 1.44393 5.22432 1.41663 5.2535C1.34837 5.33441 1.25345 5.38823 1.14898 5.40525C1.04451 5.42227 0.937389 5.40138 0.846977 5.34634C0.756564 5.29129 0.688816 5.20571 0.655954 5.10507C0.623093 5.00444 0.62729 4.89537 0.667788 4.79756V4.79505L0.670277 4.78877L0.672192 4.78532C0.791541 4.51569 0.925469 4.25275 1.07342 3.9977C1.64988 2.99609 2.43671 2.13148 3.37963 1.46351C4.32254 0.795533 5.39911 0.340099 6.53505 0.128619Z" fill="#414B4F"/>
<path d="M6.51746 2.62723C6.33948 2.31782 6.0503 2.08788 5.70879 1.98423C5.36729 1.88057 4.99915 1.91099 4.67927 2.06928C4.3594 2.22758 4.11184 2.50186 3.98703 2.83628C3.86222 3.1707 3.86952 3.54013 4.00744 3.86936C4.14536 4.19859 4.40353 4.46286 4.7294 4.6084C5.05528 4.75393 5.42434 4.76978 5.76149 4.65272C6.09864 4.53565 6.37853 4.29448 6.54415 3.97828C6.70977 3.66209 6.74869 3.29464 6.65299 2.95075C6.62131 2.83774 6.57579 2.72907 6.51746 2.62723Z" fill="#414B4F"/>
<path d="M14.0792 2.79417C13.9645 2.79525 13.8517 2.82365 13.7502 2.87702C13.6487 2.93039 13.5614 3.0072 13.4955 3.10107C13.4296 3.19493 13.387 3.30316 13.3713 3.41677C13.3555 3.53039 13.3671 3.64612 13.405 3.75437C13.421 3.80709 13.4423 3.86797 13.4677 3.93638C13.5085 4.0437 13.5477 4.14537 13.5847 4.24201C13.7381 4.64116 13.8592 4.95684 13.9367 5.24302C13.9843 5.43972 14.0175 5.6396 14.0362 5.84111C14.0379 5.85548 14.0387 5.86994 14.0387 5.88441C14.0387 5.99014 14.0009 6.09239 13.9321 6.17266C13.8633 6.25292 13.7681 6.30589 13.6636 6.32197C13.5591 6.33805 13.4524 6.31618 13.3626 6.26032C13.2729 6.20446 13.2061 6.1183 13.1744 6.01745C13.0866 5.6874 12.9758 5.36393 12.8428 5.0494C12.6636 4.68697 12.4609 4.33664 12.236 4.00069L12.2319 3.99474C12.3675 3.6816 12.4042 3.33456 12.3373 2.99996C12.2704 2.66536 12.103 2.35915 11.8575 2.12226C11.6119 1.88537 11.3 1.72905 10.9633 1.67423C10.6265 1.6194 10.2811 1.66867 9.97314 1.81544L9.96905 1.81199C9.55929 1.55359 9.11722 1.35048 8.65426 1.20794C8.28281 1.10972 7.85489 1.05105 7.26226 0.956911C7.18007 0.943418 7.12358 0.932118 7.08499 0.922705C6.98074 0.904146 6.88656 0.848888 6.81948 0.766938C6.7524 0.684987 6.71687 0.581746 6.71926 0.475859C6.72165 0.369972 6.7618 0.268431 6.8325 0.189588C6.90321 0.110744 6.99977 0.059803 7.10475 0.0459633H7.10789H7.11448H7.11827C8.41461 -0.093101 9.72532 0.0845432 10.9379 0.563654C12.1505 1.04276 13.2287 1.80903 14.0801 2.79668L14.0792 2.79417Z" fill="#414B4F"/>
<path d="M11.906 4.0275C12.0841 3.71877 12.138 3.35372 12.0565 3.00668C11.9751 2.65964 11.7645 2.35669 11.4676 2.15949C11.1707 1.96229 10.8098 1.88567 10.4584 1.94523C10.107 2.00479 9.79155 2.19606 9.57619 2.48008C9.36082 2.76411 9.26177 3.11955 9.29919 3.47406C9.33661 3.82856 9.50767 4.15549 9.77759 4.38828C10.0475 4.62107 10.396 4.74221 10.752 4.72707C11.1081 4.71193 11.445 4.56164 11.6942 4.30679C11.7762 4.22293 11.8474 4.1291 11.906 4.0275Z" fill="#414B4F"/>
<path d="M15.544 10.6644C15.48 10.5564 15.3892 10.4669 15.2802 10.4047C15.1712 10.3424 15.048 10.3096 14.9225 10.3095C14.8186 10.3093 14.716 10.3316 14.6216 10.3749C14.5273 10.4183 14.4434 10.4816 14.376 10.5605C14.3386 10.6004 14.296 10.6493 14.2505 10.7061C14.1777 10.7953 14.1096 10.8797 14.0447 10.96C13.7758 11.2926 13.5634 11.5562 13.3545 11.7658C13.208 11.9055 13.0516 12.0343 12.8864 12.1511C12.8748 12.1597 12.8628 12.1675 12.8503 12.1747C12.7588 12.2277 12.6513 12.2462 12.5474 12.2267C12.4434 12.2073 12.3499 12.1512 12.2837 12.0688C12.2175 11.9863 12.183 11.8828 12.1866 11.7771C12.1901 11.6714 12.2314 11.5704 12.3029 11.4925C12.5451 11.2515 12.7697 10.9935 12.9752 10.7206C13.1991 10.3841 13.401 10.0333 13.5794 9.67062L13.5823 9.66434C13.9213 9.62508 14.2403 9.48326 14.4966 9.25781C14.7529 9.03236 14.9344 8.73402 15.0166 8.40269C15.0989 8.07135 15.0781 7.72281 14.957 7.40362C14.8359 7.08443 14.6203 6.8098 14.339 6.61646V6.61113C14.3579 6.12677 14.3126 5.64204 14.2043 5.16957C14.1036 4.79897 13.9402 4.39888 13.7269 3.83719C13.6974 3.75968 13.6792 3.70509 13.6676 3.66681C13.6314 3.56717 13.6321 3.45786 13.6695 3.35868C13.7069 3.2595 13.7786 3.17701 13.8716 3.12611C13.9645 3.07522 14.0726 3.05931 14.1763 3.08124C14.28 3.10317 14.3724 3.1615 14.4368 3.24568L14.4387 3.24819L14.4425 3.25354L14.445 3.25635C14.6184 3.49474 14.7788 3.74227 14.9256 3.99786C15.5042 4.99836 15.8591 6.11242 15.9658 7.26329C16.0726 8.41417 15.9286 9.57451 15.544 10.6644Z" fill="#414B4F"/>
<path d="M13.3905 9.39949C13.7472 9.39987 14.0906 9.2643 14.3508 9.02037C14.611 8.77644 14.7685 8.44248 14.7912 8.08649C14.8139 7.73051 14.7002 7.37923 14.4731 7.10418C14.246 6.82914 13.9226 6.651 13.5688 6.60601C13.2151 6.56102 12.8574 6.65256 12.5688 6.86202C12.2801 7.07148 12.0821 7.38311 12.015 7.73346C11.9479 8.08381 12.0169 8.44655 12.2078 8.74785C12.3987 9.04915 12.6972 9.26635 13.0426 9.35525C13.1563 9.38453 13.2732 9.39939 13.3905 9.39949Z" fill="#414B4F"/>
</svg>
