<svg width="109" height="16" viewBox="0 0 109 16" fill="none" xmlns="http://www.w3.org/2000/svg">
<path d="M107.167 5.12668H98.3205C98.1574 5.12063 97.9944 5.14235 97.8386 5.19095C97.7331 5.22736 97.6367 5.28604 97.5561 5.36299C97.4725 5.44606 97.4068 5.54533 97.3632 5.6547C97.3196 5.76406 97.2988 5.8812 97.3024 5.99885C97.2995 6.1242 97.3258 6.24849 97.3794 6.36191C97.4331 6.47533 97.5125 6.57474 97.6113 6.65227C97.6887 6.71508 97.7785 6.7611 97.8748 6.78732C98.0205 6.82321 98.1705 6.83876 98.3205 6.83356H103.727C104.327 6.81689 104.924 6.91856 105.484 7.13275C105.939 7.31497 106.351 7.58981 106.693 7.93971C107.019 8.27744 107.282 8.67134 107.468 9.10232C107.83 9.95214 107.843 10.9102 107.503 11.7692C107.345 12.1725 107.121 12.5468 106.84 12.8768C106.489 13.2713 106.057 13.5866 105.574 13.8017C104.99 14.0468 104.36 14.1639 103.726 14.1453H94.1883V11.0057H103.144C103.344 11.0139 103.545 10.986 103.736 10.9234C103.865 10.8758 103.98 10.7982 104.073 10.6973C104.206 10.5399 104.277 10.3397 104.272 10.134C104.277 10.0137 104.257 9.89381 104.213 9.7815C104.17 9.66919 104.104 9.56683 104.02 9.48059C103.933 9.38377 103.823 9.31175 103.699 9.27204C103.518 9.22342 103.331 9.20251 103.143 9.21005H98.1377C97.46 9.23341 96.7838 9.13152 96.1433 8.90948C95.6743 8.73281 95.2489 8.45759 94.8961 8.10252C94.5715 7.76894 94.3124 7.37776 94.1322 6.94917C93.9468 6.50345 93.8538 6.02492 93.859 5.54242C93.8555 5.06171 93.9521 4.58552 94.1428 4.14399C94.3263 3.71318 94.588 3.31982 94.9146 2.9837C95.2651 2.62952 95.6873 2.35395 96.153 2.17535C96.7897 1.9528 97.4626 1.85101 98.1368 1.87523H107.164L107.167 5.12668Z" fill="#414B4F"/>
<path d="M92.4796 11.7678C92.4884 12.1727 92.4229 12.5758 92.2862 12.9572C92.1767 13.2627 92.0027 13.5412 91.776 13.7739C91.5683 13.9833 91.3168 14.1444 91.0394 14.2456C90.7598 14.3489 90.4637 14.4009 90.1656 14.3991C89.6973 14.409 89.2313 14.3322 88.7912 14.1725C88.3914 14.0181 88.0373 13.7651 87.762 13.4372L81.0078 5.65151C80.9742 5.60514 80.931 5.56657 80.881 5.53847C80.831 5.51037 80.7755 5.49341 80.7183 5.48874C80.6775 5.48847 80.637 5.49654 80.5993 5.51245C80.5617 5.52835 80.5277 5.55176 80.4994 5.58123C80.4677 5.61528 80.4431 5.65533 80.4272 5.69902C80.4113 5.74271 80.4042 5.78914 80.4066 5.83557V14.1476H77.1687V4.47228C77.1569 4.02178 77.2271 3.57288 77.376 3.14738C77.496 2.81249 77.6953 2.51144 77.957 2.26988C78.2187 2.02833 78.5351 1.85343 78.8793 1.76005C79.252 1.65448 79.638 1.60262 80.0254 1.60605C80.5347 1.5741 81.0439 1.6685 81.5077 1.88083C81.9714 2.09315 82.3751 2.41678 82.6827 2.82274L88.6883 9.99063C88.7261 10.042 88.7766 10.0828 88.8348 10.109C88.8876 10.1273 88.9432 10.1362 88.999 10.1354C89.1683 10.1354 89.2537 10.0272 89.2537 9.80889V1.87566H92.4773L92.4796 11.7678Z" fill="#414B4F"/>
<path d="M66.503 14.1443C65.5175 14.1668 64.5381 13.9843 63.6273 13.6083C62.8417 13.2703 62.1352 12.7731 61.5526 12.1483C60.7561 11.2588 60.2329 10.1596 60.0456 8.98181C59.8583 7.80404 60.0146 6.59739 60.4961 5.50577C60.8397 4.74262 61.335 4.05689 61.952 3.48999C62.515 2.97264 63.1732 2.56903 63.8903 2.30151C64.7282 2.00163 65.6139 1.85681 66.504 1.8742H69.0893C69.9783 1.85682 70.863 2.00164 71.6998 2.30151C72.4176 2.56843 73.0763 2.9721 73.6394 3.48999C74.256 4.05737 74.7514 4.74297 75.0959 5.50577C75.4504 6.29256 75.6304 7.14646 75.6233 8.00899C75.6399 9.19888 75.3009 10.3668 74.6494 11.3639C73.9979 12.361 73.0634 13.1421 71.965 13.6078C71.0542 13.9837 70.0749 14.1662 69.0893 14.1438L66.503 14.1443ZM66.503 5.12379C66.0326 5.10936 65.5636 5.18292 65.1204 5.34068C64.772 5.47636 64.451 5.67361 64.1728 5.92291C63.8909 6.19088 63.6651 6.51181 63.5081 6.86722C63.3436 7.2324 63.2596 7.62856 63.2619 8.02889C63.2601 8.3923 63.3286 8.75262 63.4636 9.0902C63.593 9.41651 63.7843 9.71484 64.0271 9.96882C64.3069 10.2674 64.648 10.5023 65.0271 10.6574C65.4971 10.8396 65.999 10.926 66.503 10.9117H69.0884C69.592 10.9258 70.0933 10.8393 70.5629 10.6574C70.9419 10.5022 71.2828 10.2673 71.5625 9.96882C71.8047 9.71403 71.9966 9.41595 72.1279 9.0902C72.2613 8.75224 72.3291 8.39209 72.3277 8.02889C72.3307 7.62849 72.2467 7.23219 72.0815 6.86722C71.924 6.51202 71.698 6.19116 71.4163 5.92291C71.1383 5.67407 70.8179 5.47687 70.4702 5.34068C70.0272 5.18314 69.5586 5.10959 69.0884 5.12379H66.503Z" fill="#414B4F"/>
<path d="M49.8829 1.87567V6.90431L55.4896 2.38483C55.6778 2.23431 55.8488 2.06372 55.9998 1.87612H60.6042C60.5653 1.94147 60.516 2.00005 60.4581 2.04954C60.3997 2.10457 60.338 2.15591 60.2777 2.20354L53.5058 7.42919C53.4738 7.45219 53.4475 7.4821 53.4287 7.51669C53.4099 7.55128 53.3991 7.58964 53.3973 7.62894C53.3988 7.66824 53.4094 7.70669 53.4282 7.74125C53.447 7.77581 53.4736 7.80558 53.5058 7.82827L60.7698 13.6911C60.8538 13.7642 60.9354 13.8364 61.0157 13.9085C61.0958 13.9828 61.1717 14.0615 61.2429 14.1444H56.3263C56.1608 13.9577 55.9777 13.7873 55.7795 13.6356L49.882 8.71754V14.1444H46.5521V1.87567H49.8829Z" fill="#414B4F"/>
<path d="M22.4034 14.1442C21.7607 14.159 21.1195 14.0763 20.5017 13.8991C20.0309 13.7636 19.604 13.5072 19.2638 13.1555C18.9415 12.7993 18.7129 12.3688 18.5986 11.9028C18.4574 11.3295 18.3901 10.7407 18.3982 10.1506V1.8728H21.7104V9.84349C21.6761 10.1656 21.7568 10.4895 21.9382 10.7582C22.0592 10.8541 22.1979 10.9251 22.3465 10.9672C22.4952 11.0094 22.6507 11.0218 22.8041 11.0038H31.3385V14.1442H22.4034Z" fill="#414B4F"/>
<path d="M36.3108 14.1442C35.6681 14.1588 35.0269 14.0762 34.4091 13.8991C33.939 13.7626 33.5126 13.5063 33.1721 13.1555C32.85 12.7993 32.6219 12.3688 32.5084 11.9028C32.3654 11.3299 32.2979 10.7408 32.3076 10.1506V1.8728H35.6188V9.84349C35.584 10.1659 35.6654 10.4901 35.8484 10.7582C35.9688 10.8542 36.1072 10.9254 36.2555 10.9675C36.4037 11.0097 36.5589 11.022 36.712 11.0038H45.2488V14.1442H36.3108Z" fill="#414B4F"/>
<path d="M17.7615 13.6034C17.8066 13.6919 17.8464 13.783 17.8808 13.8762C17.9095 13.9599 17.9369 14.0506 17.9629 14.1477H14.249C14.2239 14.0626 14.1998 13.9867 14.1757 13.9215C14.1516 13.8563 14.1293 13.7907 14.1038 13.7301L13.4484 12.2429H6.16633L5.52998 13.7125C5.50494 13.7856 5.4799 13.8577 5.45717 13.9303C5.43245 14.0011 5.41445 14.074 5.40338 14.1481H1.59998C1.6229 14.0563 1.65045 13.9657 1.68253 13.8767C1.71494 13.7829 1.75433 13.6917 1.80035 13.6038L6.2067 3.87583C6.49615 3.18817 6.97565 2.5967 7.58934 2.17034C8.2529 1.8009 9.00029 1.60693 9.7603 1.60693C10.5203 1.60693 11.2677 1.8009 11.9313 2.17034C12.5485 2.59518 13.0312 3.18686 13.3227 3.87583L17.7615 13.6034ZM12.2453 9.53802L10.3533 5.14479C10.3046 5.02676 10.2218 4.92582 10.1154 4.85483C10.0172 4.7932 9.90337 4.76109 9.78742 4.76234C9.67894 4.76192 9.57231 4.79035 9.4785 4.84467C9.36737 4.91431 9.28345 5.01971 9.24059 5.14341L7.36768 9.53664L12.2453 9.53802Z" fill="#414B4F"/>
</svg>
