<svg width="32" height="32" viewBox="0 0 32 32" fill="none" xmlns="http://www.w3.org/2000/svg">
<path d="M18.9292 31.7386C19.0522 31.5199 19.1163 31.273 19.1153 31.0221C19.1143 30.7712 19.0482 30.5248 18.9235 30.3071C18.8199 30.1268 18.6784 29.9712 18.5088 29.851C18.3391 29.7308 18.1453 29.649 17.9409 29.6111C17.8342 29.586 17.7069 29.5621 17.5645 29.5389C17.3379 29.5019 17.1252 29.468 16.9182 29.436C16.0736 29.3023 15.4067 29.1969 14.8332 29.045C14.4453 28.9303 14.0662 28.7879 13.6988 28.6189C13.6724 28.607 13.6473 28.5944 13.6222 28.58C13.4392 28.4743 13.2999 28.3066 13.2297 28.1071C13.1595 27.9077 13.1629 27.6898 13.2394 27.4926C13.3159 27.2955 13.4603 27.1323 13.6467 27.0325C13.833 26.9326 14.0488 26.9027 14.2553 26.9482C14.9145 27.1263 15.5855 27.2578 16.2631 27.3417C17.0696 27.3942 17.8786 27.3942 18.6851 27.3417H18.6983C19.105 27.8898 19.6694 28.3005 20.3159 28.5191C20.9624 28.7376 21.6601 28.7536 22.3159 28.5648C22.9717 28.376 23.5542 27.9914 23.9856 27.4625C24.417 26.9337 24.6767 26.2857 24.7299 25.6052L24.74 25.6008C25.5971 25.1489 26.3908 24.5857 27.1004 23.9258C27.6419 23.381 28.1708 22.697 28.9294 21.765C29.0348 21.6363 29.1107 21.5504 29.1653 21.492C29.3019 21.3302 29.4917 21.2225 29.7006 21.1885C29.9096 21.1544 30.1238 21.1962 30.3046 21.3063C30.4855 21.4164 30.621 21.5875 30.6867 21.7888C30.7524 21.9901 30.744 22.2083 30.663 22.4039V22.4089L30.658 22.4215V22.4284C29.602 24.813 27.9838 26.906 25.9421 28.5283C23.9004 30.1505 21.496 31.2536 18.9348 31.743L18.9292 31.7386Z" fill="white"/>
<path d="M18.9661 26.7425C19.3076 27.3321 19.8524 27.7768 20.4984 27.9933C21.1443 28.2098 21.847 28.1832 22.4747 27.9184C23.1024 27.6537 23.612 27.1691 23.908 26.5554C24.2039 25.9417 24.266 25.241 24.0824 24.5849C24.0192 24.3588 23.9281 24.1414 23.8113 23.9378C23.4704 23.347 22.9255 22.901 22.279 22.6837C21.6325 22.4663 20.929 22.4926 20.3005 22.7576C19.672 23.0226 19.1619 23.508 18.8661 24.1226C18.5702 24.7373 18.509 25.4388 18.6938 26.0955C18.7565 26.3218 18.8478 26.5393 18.9655 26.7425" fill="white"/>
<path d="M3.84098 26.4079C4.07021 26.4055 4.29561 26.3485 4.49845 26.2417C4.70129 26.1349 4.87574 25.9813 5.00741 25.7936C5.13908 25.6059 5.22415 25.3895 5.25557 25.1623C5.28699 24.9352 5.26385 24.7039 5.18809 24.4874C5.15609 24.382 5.11408 24.2602 5.06263 24.1234C4.98106 23.9088 4.9026 23.7055 4.82856 23.5122C4.52174 22.7139 4.27958 22.0832 4.1246 21.5108C4.02969 21.1172 3.96321 20.7172 3.92569 20.314C3.92253 20.2853 3.92101 20.2563 3.92125 20.2274C3.92062 20.0157 3.99595 19.8109 4.13348 19.65C4.27102 19.4892 4.46171 19.383 4.67086 19.3508C4.88 19.3186 5.09372 19.3625 5.27326 19.4745C5.4528 19.5865 5.5862 19.7593 5.64925 19.9613C5.82501 20.6218 6.04683 21.2692 6.31308 21.8986C6.67187 22.6229 7.07726 23.323 7.52662 23.9948L7.53473 24.0067C7.26365 24.633 7.19012 25.3271 7.32395 25.9963C7.45778 26.6655 7.79258 27.2779 8.28366 27.7517C8.77473 28.2255 9.39866 28.5381 10.0721 28.6477C10.7455 28.7574 11.4364 28.6588 12.0524 28.3653L12.0605 28.3722C12.8804 28.8891 13.765 29.2953 14.6914 29.5803C15.433 29.7767 16.2895 29.8941 17.4754 30.0824C17.6391 30.1094 17.7514 30.132 17.8292 30.1508C18.0397 30.1862 18.2304 30.2962 18.3664 30.4607C18.5024 30.6252 18.5745 30.8331 18.5697 31.0465C18.5649 31.2599 18.4834 31.4644 18.3402 31.6226C18.197 31.7809 18.0015 31.8822 17.7897 31.9081H17.7834H17.7703H17.7628C15.1702 32.1862 12.5488 31.8309 10.1237 30.8727C7.69863 29.9145 5.5423 28.3819 3.83975 26.4066L3.84098 26.4079Z" fill="white"/>
<path d="M8.18485 23.9417C7.82793 24.5592 7.71975 25.2895 7.88223 25.984C8.0447 26.6785 8.46567 27.285 9.05946 27.68C9.65324 28.075 10.3752 28.2288 11.0784 28.1101C11.7815 27.9914 12.413 27.6092 12.8444 27.0412C13.2757 26.4732 13.4744 25.7621 13.4 25.0527C13.3257 24.3433 12.9838 23.689 12.4441 23.2228C11.9044 22.7567 11.2074 22.5137 10.4949 22.5435C9.78239 22.5733 9.10798 22.8735 8.60902 23.3831C8.4448 23.5508 8.30228 23.7384 8.18485 23.9417Z" fill="white"/>
<path d="M0.910786 10.6674C1.02741 10.8649 1.18936 11.0317 1.38329 11.154C1.57721 11.2764 1.7975 11.3508 2.0259 11.371C2.25429 11.3913 2.4842 11.3568 2.69662 11.2705C2.90904 11.1841 3.09788 11.0484 3.2474 10.8745C3.32144 10.7948 3.40616 10.6969 3.49839 10.5833C3.64396 10.4044 3.78072 10.2362 3.91123 10.0756C4.44832 9.41033 4.87307 8.88318 5.29158 8.46458C5.58458 8.18538 5.8975 7.9278 6.22777 7.69389C6.25119 7.67694 6.27546 7.66121 6.30053 7.64681C6.48358 7.54149 6.69824 7.50508 6.90577 7.54416C7.1133 7.58323 7.30003 7.69522 7.43227 7.8599C7.5645 8.02459 7.63353 8.23114 7.62689 8.44225C7.62025 8.65337 7.53835 8.85515 7.39604 9.01119C6.91195 9.49342 6.46265 10.0093 6.05145 10.5551C5.60361 11.2281 5.19993 11.9296 4.84298 12.655L4.83731 12.6675C4.15919 12.746 3.52121 13.0297 3.00858 13.4806C2.49596 13.9315 2.13313 14.5281 1.96861 15.1908C1.80408 15.8535 1.84567 16.5506 2.08786 17.189C2.33005 17.8274 2.76129 18.3766 3.32391 18.7633V18.774C3.28608 19.7427 3.37664 20.7121 3.59314 21.6571C3.79455 22.3983 4.12143 23.1984 4.54809 24.3218C4.61084 24.4774 4.64344 24.5867 4.66666 24.6632C4.73902 24.8625 4.73766 25.0811 4.66283 25.2795C4.588 25.4778 4.44466 25.6428 4.25873 25.7446C4.07279 25.8464 3.85658 25.8782 3.6492 25.8344C3.44183 25.7905 3.25695 25.6738 3.12814 25.5054L3.125 25.5004L3.1175 25.4898L3.11252 25.4835C2.76512 25.007 2.44397 24.512 2.15059 24.0005C0.993036 21.9997 0.282764 19.7717 0.068727 17.4699C-0.14531 15.1682 0.142005 12.8474 0.910786 10.6674Z" fill="white"/>
<path d="M5.21813 13.1983C4.5055 13.1981 3.81954 13.4695 3.29994 13.9573C2.78034 14.4452 2.46613 15.1127 2.42127 15.824C2.37641 16.5354 2.60432 17.2372 3.05852 17.7864C3.51272 18.3357 4.1591 18.6912 4.86611 18.7805C5.57312 18.8699 6.28759 18.6864 6.8641 18.2674C7.44062 17.8484 7.8358 17.2254 7.96926 16.5252C8.10271 15.825 7.96442 15.1003 7.58246 14.4985C7.20051 13.8968 6.60365 13.4632 5.91336 13.2862C5.68622 13.2279 5.45263 13.1983 5.21813 13.1983Z" fill="white"/>
<path d="M13.0701 0.257237C12.948 0.475188 12.8842 0.72099 12.8849 0.970819C12.8848 1.30651 13.0022 1.63165 13.2166 1.8899C13.431 2.14816 13.729 2.32323 14.0589 2.38477C14.1662 2.40987 14.2929 2.43371 14.4353 2.45693C14.6625 2.49396 14.8746 2.52785 15.081 2.55986C15.9256 2.69353 16.5925 2.79896 17.166 2.95084C17.5538 3.06579 17.9329 3.2082 18.3004 3.37698C18.3267 3.3886 18.3523 3.40179 18.377 3.41651C18.5611 3.52162 18.7012 3.68933 18.7721 3.88911C18.843 4.0889 18.8398 4.30751 18.7631 4.50513C18.6865 4.70276 18.5414 4.86626 18.3544 4.96594C18.1673 5.06562 17.9507 5.09485 17.7439 5.04826C17.0847 4.87025 16.4137 4.73875 15.736 4.65475C14.9295 4.60322 14.1205 4.60427 13.3141 4.65789H13.3003C12.8937 4.10954 12.3294 3.69848 11.6828 3.47971C11.0363 3.26094 10.3383 3.2449 9.68238 3.43375C9.02645 3.62259 8.44378 4.00729 8.01243 4.53639C7.58108 5.06549 7.32157 5.71375 7.26864 6.39441L7.25861 6.39881C6.40138 6.85059 5.6077 7.41382 4.89818 8.07385C4.35669 8.61859 3.82835 9.30267 3.06914 10.234C2.96373 10.3627 2.88783 10.4486 2.83324 10.507C2.6967 10.6688 2.50687 10.7765 2.29793 10.8105C2.089 10.8445 1.87475 10.8028 1.69392 10.6927C1.5131 10.5826 1.3776 10.4114 1.31188 10.2101C1.24616 10.0089 1.25455 9.79075 1.33555 9.59512V9.59011L1.34052 9.57754L1.34435 9.57065C1.58305 9.03138 1.85091 8.50551 2.14681 7.9954C3.29973 5.99218 4.8734 4.26295 6.75922 2.92701C8.64505 1.59107 10.7982 0.680198 13.0701 0.257237Z" fill="white"/>
<path d="M13.0349 5.25446C12.6789 4.63565 12.1006 4.17576 11.4176 3.96845C10.7345 3.76114 9.99827 3.82197 9.35852 4.13856C8.71877 4.45515 8.22366 5.00371 7.97403 5.67256C7.7244 6.3414 7.73901 7.08026 8.01485 7.73872C8.2907 8.39718 8.80703 8.92572 9.45878 9.21679C10.1105 9.50787 10.8487 9.53956 11.523 9.30543C12.1972 9.0713 12.757 8.58896 13.0883 7.95656C13.4195 7.32417 13.4973 6.58929 13.3059 5.90151C13.2426 5.67548 13.1515 5.45815 13.0349 5.25446Z" fill="white"/>
<path d="M28.1583 5.58833C27.929 5.5905 27.7035 5.64729 27.5005 5.75404C27.2975 5.86079 27.1228 6.0144 26.991 6.20213C26.8592 6.38986 26.774 6.60632 26.7425 6.83355C26.711 7.06078 26.7341 7.29224 26.8099 7.50875C26.8419 7.61418 26.8846 7.73594 26.9354 7.87276C27.017 8.08739 27.0954 8.29073 27.1694 8.48403C27.4763 9.28232 27.7185 9.91367 27.8735 10.486C27.9686 10.8794 28.035 11.2792 28.0724 11.6822C28.0758 11.711 28.0774 11.7399 28.0774 11.7688C28.0775 11.9803 28.0019 12.1848 27.8643 12.3453C27.7267 12.5058 27.5362 12.6118 27.3272 12.6439C27.1183 12.6761 26.9048 12.6324 26.7253 12.5206C26.5458 12.4089 26.4122 12.2366 26.3487 12.0349C26.1732 11.3748 25.9516 10.7279 25.6855 10.0988C25.3272 9.37394 24.9219 8.67329 24.4721 8.00139L24.4639 7.98947C24.735 7.3632 24.8085 6.66911 24.6747 5.99992C24.5408 5.33073 24.206 4.71831 23.715 4.24452C23.2239 3.77073 22.5999 3.45811 21.9265 3.34846C21.2531 3.2388 20.5622 3.33734 19.9463 3.63088L19.9381 3.62398C19.1186 3.10718 18.2344 2.70097 17.3085 2.41588C16.5656 2.21945 15.7098 2.1021 14.5245 1.91382C14.3601 1.88684 14.2472 1.86424 14.17 1.84541C13.9615 1.80829 13.7731 1.69778 13.639 1.53388C13.5048 1.36997 13.4337 1.16349 13.4385 0.951718C13.4433 0.739944 13.5236 0.536861 13.665 0.379175C13.8064 0.221489 13.9995 0.119606 14.2095 0.0919266H14.2158H14.229H14.2365C16.8292 -0.186202 19.4506 0.169086 21.8758 1.12731C24.301 2.08553 26.4574 3.61806 28.1602 5.59335L28.1583 5.58833Z" fill="white"/>
<path d="M23.812 8.05501C24.1683 7.43753 24.2759 6.70744 24.113 6.01336C23.9502 5.31927 23.5289 4.71337 22.9351 4.31898C22.3413 3.92459 21.6196 3.77134 20.9168 3.89046C20.2141 4.00959 19.5831 4.39211 19.1524 4.96017C18.7216 5.52822 18.5235 6.2391 18.5984 6.94811C18.6732 7.65713 19.0153 8.31099 19.5552 8.77656C20.095 9.24213 20.7919 9.48441 21.5041 9.45413C22.2162 9.42385 22.89 9.12329 23.3884 8.61357C23.5524 8.44586 23.6947 8.2582 23.812 8.05501Z" fill="white"/>
<path d="M31.0879 21.3288C30.9601 21.1128 30.7783 20.9338 30.5604 20.8093C30.3425 20.6849 30.0959 20.6193 29.845 20.619C29.6373 20.6185 29.432 20.6632 29.2433 20.7499C29.0545 20.8365 28.8869 20.9632 28.7519 21.1211C28.6772 21.2008 28.592 21.2987 28.501 21.4123C28.3554 21.5905 28.2193 21.7593 28.0894 21.92C27.5517 22.5852 27.1268 23.1124 26.709 23.5316C26.4161 23.8109 26.1032 24.0685 25.7728 24.3023C25.7497 24.3193 25.7256 24.335 25.7007 24.3494C25.5177 24.4554 25.3027 24.4923 25.0948 24.4534C24.8869 24.4146 24.6998 24.3025 24.5674 24.1375C24.435 23.9725 24.3661 23.7656 24.3731 23.5542C24.3801 23.3427 24.4627 23.1408 24.6058 22.985C25.0901 22.503 25.5394 21.9871 25.9504 21.4411C26.3983 20.7681 26.802 20.0667 27.1589 19.3412L27.1645 19.3287C27.8426 19.2502 28.4806 18.9665 28.9933 18.5156C29.5059 18.0647 29.8687 17.468 30.0332 16.8054C30.1978 16.1427 30.1562 15.4456 29.914 14.8072C29.6718 14.1689 29.2405 13.6196 28.6779 13.2329V13.2223C28.7158 12.2535 28.6252 11.2841 28.4087 10.3391C28.2073 9.59795 27.8804 8.79776 27.4537 7.67437C27.3948 7.51936 27.3584 7.41018 27.3352 7.33361C27.2628 7.13434 27.2642 6.91572 27.339 6.71737C27.4138 6.51901 27.5572 6.35402 27.7431 6.25223C27.929 6.15044 28.1453 6.11861 28.3526 6.16248C28.56 6.20635 28.7449 6.323 28.8737 6.49137L28.8774 6.49638L28.885 6.50707L28.89 6.5127C29.2367 6.98948 29.5576 7.48455 29.8512 7.99571C31.0084 9.99672 31.7182 12.2248 31.9317 14.5266C32.1452 16.8283 31.8573 19.149 31.0879 21.3288Z" fill="white"/>
<path d="M26.7811 18.799C27.4943 18.7997 28.1811 18.5286 28.7016 18.0407C29.222 17.5529 29.5369 16.885 29.5824 16.173C29.6278 15.461 29.4004 14.7585 28.9462 14.2084C28.492 13.6583 27.8453 13.302 27.1377 13.212C26.4301 13.122 25.7149 13.3051 25.1375 13.724C24.5602 14.143 24.1641 14.7662 24.03 15.4669C23.8959 16.1676 24.0338 16.8931 24.4156 17.4957C24.7974 18.0983 25.3945 18.5327 26.0852 18.7105C26.3125 18.7691 26.5463 18.7988 26.7811 18.799Z" fill="white"/>
</svg>
