<svg width="136" height="20" viewBox="0 0 136 20" fill="none" xmlns="http://www.w3.org/2000/svg">
<path d="M133.958 6.40835H122.901C122.697 6.40077 122.493 6.42793 122.298 6.48868C122.166 6.53419 122.046 6.60755 121.945 6.70373C121.841 6.80756 121.759 6.93165 121.704 7.06836C121.65 7.20507 121.624 7.35149 121.628 7.49855C121.624 7.65524 121.657 7.81061 121.724 7.95238C121.791 8.09415 121.891 8.21842 122.014 8.31532C122.111 8.39384 122.223 8.45137 122.344 8.48415C122.526 8.52901 122.713 8.54845 122.901 8.54194H129.659C130.408 8.52111 131.155 8.64819 131.855 8.91593C132.424 9.1437 132.938 9.48725 133.366 9.92463C133.774 10.3468 134.102 10.8392 134.335 11.3779C134.788 12.4402 134.804 13.6377 134.379 14.7115C134.181 15.2156 133.901 15.6835 133.55 16.096C133.111 16.5891 132.571 16.9832 131.967 17.2521C131.237 17.5584 130.45 17.7049 129.658 17.6816H117.735V13.7571H128.93C129.181 13.7673 129.431 13.7325 129.67 13.6543C129.831 13.5947 129.975 13.4978 130.092 13.3716C130.258 13.1749 130.346 12.9246 130.34 12.6675C130.346 12.5172 130.321 12.3673 130.266 12.2269C130.212 12.0865 130.13 11.9585 130.025 11.8507C129.917 11.7297 129.779 11.6397 129.624 11.59C129.398 11.5293 129.163 11.5031 128.929 11.5126H122.672C121.825 11.5418 120.98 11.4144 120.179 11.1368C119.593 10.916 119.061 10.572 118.62 10.1281C118.214 9.71117 117.891 9.22219 117.665 8.68645C117.434 8.1293 117.317 7.53114 117.324 6.92801C117.319 6.32712 117.44 5.73189 117.679 5.17998C117.908 4.64147 118.235 4.14977 118.643 3.72961C119.081 3.2869 119.609 2.94243 120.191 2.71918C120.987 2.44099 121.828 2.31376 122.671 2.34403H133.955L133.958 6.40835Z" fill="white"/>
<path d="M115.6 14.7098C115.611 15.2159 115.529 15.7198 115.358 16.1965C115.221 16.5784 115.003 16.9265 114.72 17.2174C114.46 17.4792 114.146 17.6805 113.799 17.807C113.45 17.9361 113.08 18.0011 112.707 17.9989C112.122 18.0113 111.539 17.9152 110.989 17.7157C110.489 17.5226 110.047 17.2064 109.703 16.7965L101.26 7.06439C101.218 7.00643 101.164 6.95821 101.101 6.92309C101.039 6.88796 100.969 6.86677 100.898 6.86092C100.847 6.86059 100.796 6.87068 100.749 6.89056C100.702 6.91044 100.66 6.9397 100.624 6.97654C100.585 7.0191 100.554 7.06916 100.534 7.12377C100.514 7.17838 100.505 7.23643 100.508 7.29446V17.6844H96.4609V5.59036C96.4461 5.02723 96.5339 4.4661 96.7201 3.93423C96.87 3.51562 97.1191 3.1393 97.4463 2.83736C97.7735 2.53541 98.1689 2.31679 98.5991 2.20006C99.065 2.0681 99.5475 2.00328 100.032 2.00756C100.668 1.96763 101.305 2.08562 101.885 2.35103C102.464 2.61644 102.969 3.02097 103.353 3.52842L110.86 12.4883C110.908 12.5525 110.971 12.6035 111.044 12.6363C111.11 12.6591 111.179 12.6703 111.249 12.6692C111.46 12.6692 111.567 12.534 111.567 12.2611V2.34458H115.597L115.6 14.7098Z" fill="white"/>
<path d="M83.1288 17.6803C81.8969 17.7085 80.6726 17.4804 79.5341 17.0104C78.5521 16.5879 77.669 15.9664 76.9408 15.1854C75.9451 14.0735 75.2911 12.6995 75.057 11.2273C74.8228 9.75505 75.0183 8.24674 75.62 6.88221C76.0496 5.92827 76.6687 5.07111 77.4399 4.36249C78.1437 3.7158 78.9665 3.21128 79.8629 2.87688C80.9102 2.50203 82.0174 2.32102 83.13 2.34275H86.3617C87.4729 2.32103 88.5788 2.50205 89.6247 2.87688C90.5219 3.21054 91.3454 3.71513 92.0493 4.36249C92.82 5.07172 93.4392 5.92871 93.8698 6.88221C94.313 7.86571 94.5379 8.93307 94.5291 10.0112C94.5499 11.4986 94.126 12.9585 93.3117 14.2048C92.4973 15.4512 91.3292 16.4276 89.9563 17.0098C88.8177 17.4796 87.5935 17.7077 86.3617 17.6797L83.1288 17.6803ZM83.1288 6.40474C82.5407 6.3867 81.9545 6.47865 81.4005 6.67585C80.9649 6.84545 80.5637 7.09201 80.216 7.40364C79.8636 7.7386 79.5813 8.13977 79.3852 8.58402C79.1795 9.0405 79.0745 9.5357 79.0773 10.0361C79.0751 10.4904 79.1607 10.9408 79.3295 11.3627C79.4912 11.7706 79.7303 12.1435 80.0339 12.461C80.3836 12.8343 80.81 13.1279 81.2839 13.3218C81.8714 13.5495 82.4987 13.6575 83.1288 13.6397H86.3605C86.99 13.6573 87.6166 13.5492 88.2036 13.3218C88.6773 13.1277 89.1035 12.8341 89.4531 12.461C89.7559 12.1425 89.9957 11.7699 90.1598 11.3627C90.3266 10.9403 90.4114 10.4901 90.4097 10.0361C90.4133 9.53561 90.3084 9.04023 90.1019 8.58402C89.905 8.14002 89.6225 7.73895 89.2704 7.40364C88.9229 7.09259 88.5224 6.84609 88.0877 6.67585C87.534 6.47893 86.9482 6.38698 86.3605 6.40474H83.1288Z" fill="white"/>
<path d="M62.3536 2.3446V8.6304L69.362 2.98105C69.5972 2.79291 69.811 2.57966 69.9997 2.34517H75.7552C75.7066 2.42685 75.6449 2.50007 75.5726 2.56194C75.4996 2.63073 75.4224 2.6949 75.3471 2.75444L66.8823 9.2865C66.8422 9.31526 66.8093 9.35264 66.7858 9.39587C66.7623 9.43911 66.7489 9.48707 66.7466 9.53619C66.7485 9.58531 66.7617 9.63337 66.7852 9.67658C66.8088 9.71978 66.842 9.75699 66.8823 9.78535L75.9622 17.1139C76.0672 17.2053 76.1692 17.2955 76.2695 17.3856C76.3697 17.4785 76.4646 17.5769 76.5536 17.6805H70.4079C70.201 17.4471 69.9721 17.2342 69.7243 17.0446L62.3524 10.8969V17.6805H58.1901V2.3446H62.3536Z" fill="white"/>
<path d="M28.0043 17.6803C27.2009 17.6987 26.3994 17.5954 25.6272 17.3739C25.0386 17.2045 24.5051 16.884 24.0798 16.4444C23.6769 15.9991 23.3912 15.461 23.2483 14.8784C23.0718 14.1619 22.9877 13.4259 22.9978 12.6882V2.341H27.1381V12.3044C27.0952 12.707 27.1961 13.1118 27.4228 13.4478C27.574 13.5676 27.7474 13.6564 27.9332 13.709C28.119 13.7617 28.3134 13.7772 28.5052 13.7547H39.1732V17.6803H28.0043Z" fill="white"/>
<path d="M45.3885 17.6803C44.5852 17.6985 43.7837 17.5952 43.0114 17.3739C42.4237 17.2033 41.8908 16.8829 41.4651 16.4444C41.0625 15.9992 40.7774 15.461 40.6355 14.8784C40.4567 14.1623 40.3723 13.426 40.3844 12.6882V2.341H44.5235V12.3044C44.48 12.7074 44.5817 13.1127 44.8104 13.4478C44.961 13.5678 45.134 13.6567 45.3193 13.7094C45.5047 13.7621 45.6987 13.7775 45.89 13.7547H56.5609V17.6803H45.3885Z" fill="white"/>
<path d="M22.2019 17.0042C22.2583 17.1149 22.3081 17.2288 22.351 17.3453C22.3869 17.4499 22.4211 17.5632 22.4536 17.6846H17.8112C17.7799 17.5782 17.7498 17.4834 17.7197 17.4019C17.6895 17.3204 17.6617 17.2383 17.6298 17.1626L16.8106 15.3036H7.70794L6.91251 17.1406C6.8812 17.232 6.8499 17.3221 6.82149 17.4129C6.79059 17.5014 6.76809 17.5925 6.75426 17.6852H2C2.02866 17.5704 2.06309 17.4572 2.10319 17.3459C2.1437 17.2287 2.19294 17.1147 2.25047 17.0048L7.7584 4.84479C8.12022 3.98522 8.71959 3.24588 9.48671 2.71293C10.3162 2.25112 11.2504 2.00867 12.2004 2.00867C13.1504 2.00867 14.0846 2.25112 14.9141 2.71293C15.6856 3.24397 16.289 3.98357 16.6534 4.84479L22.2019 17.0042ZM15.3066 11.9225L12.9417 6.43099C12.8808 6.28345 12.7772 6.15728 12.6442 6.06854C12.5216 5.9915 12.3792 5.95136 12.2343 5.95292C12.0987 5.9524 11.9654 5.98794 11.8482 6.05584C11.7092 6.14289 11.6043 6.27463 11.5508 6.42926L9.20963 11.9208L15.3066 11.9225Z" fill="white"/>
</svg>
