<svg width="108" height="24" viewBox="0 0 108 24" fill="none" xmlns="http://www.w3.org/2000/svg">
<path d="M14.1968 23.8039C14.2891 23.6399 14.3372 23.4548 14.3364 23.2666C14.3357 23.0784 14.2861 22.8936 14.1926 22.7303C14.1149 22.5951 14.0088 22.4784 13.8815 22.3883C13.7543 22.2981 13.6089 22.2368 13.4556 22.2083C13.3756 22.1895 13.2801 22.1716 13.1733 22.1542C13.0034 22.1264 12.8439 22.101 12.6886 22.077C12.0552 21.9767 11.5549 21.8977 11.1248 21.7837C10.8339 21.6977 10.5496 21.591 10.274 21.4642C10.2542 21.4552 10.2354 21.4458 10.2166 21.435C10.0793 21.3557 9.97487 21.2299 9.92221 21.0804C9.86955 20.9308 9.87215 20.7673 9.92951 20.6195C9.98686 20.4717 10.0952 20.3492 10.2349 20.2743C10.3747 20.1995 10.5366 20.177 10.6914 20.2112C11.1858 20.3448 11.689 20.4434 12.1973 20.5063C12.8021 20.5456 13.4089 20.5456 14.0138 20.5063H14.0236C14.3287 20.9173 14.752 21.2254 15.2369 21.3893C15.7217 21.5532 16.245 21.5652 16.7368 21.4236C17.2287 21.282 17.6656 20.9936 17.9891 20.5969C18.3127 20.2003 18.5074 19.7143 18.5474 19.2039L18.5549 19.2006C19.1978 18.8617 19.793 18.4393 20.3252 17.9443C20.7313 17.5358 21.1281 17.0227 21.697 16.3238C21.7761 16.2273 21.833 16.1628 21.8739 16.119C21.9763 15.9976 22.1187 15.9169 22.2754 15.8914C22.4321 15.8658 22.5928 15.8972 22.7284 15.9798C22.864 16.0623 22.9657 16.1907 23.015 16.3416C23.0642 16.4926 23.058 16.6562 22.9972 16.8029V16.8067L22.9935 16.8161V16.8213C22.2015 18.6097 20.9878 20.1795 19.4565 21.3962C17.9252 22.6129 16.1219 23.4402 14.201 23.8073L14.1968 23.8039Z" fill="#E44218"/>
<path d="M14.2244 20.0569C14.4806 20.4991 14.8892 20.8326 15.3736 20.995C15.858 21.1573 16.3851 21.1374 16.8558 20.9388C17.3266 20.7403 17.7088 20.3768 17.9308 19.9165C18.1528 19.4562 18.1993 18.9308 18.0616 18.4386C18.0142 18.2691 17.9459 18.1061 17.8583 17.9534C17.6026 17.5102 17.1939 17.1757 16.7091 17.0127C16.2242 16.8497 15.6966 16.8694 15.2252 17.0682C14.7539 17.2669 14.3713 17.631 14.1494 18.092C13.9275 18.5529 13.8816 19.0791 14.0202 19.5716C14.0672 19.7414 14.1357 19.9044 14.224 20.0569" fill="#E44218"/>
<path d="M2.8808 19.8059C3.05273 19.8041 3.22177 19.7614 3.37391 19.6813C3.52604 19.6011 3.65687 19.4859 3.75562 19.3452C3.85438 19.2044 3.91818 19.0421 3.94174 18.8718C3.96531 18.7014 3.94796 18.5279 3.89114 18.3656C3.86714 18.2865 3.83563 18.1952 3.79704 18.0926C3.73587 17.9316 3.67702 17.7791 3.62149 17.6341C3.39137 17.0354 3.20975 16.5624 3.09352 16.1331C3.02234 15.8379 2.97248 15.5379 2.94434 15.2355C2.94197 15.2139 2.94083 15.1922 2.941 15.1706C2.94053 15.0118 2.99703 14.8582 3.10018 14.7375C3.20334 14.6169 3.34635 14.5373 3.50321 14.5131C3.66007 14.4889 3.82036 14.5218 3.95501 14.6059C4.08967 14.6899 4.18972 14.8194 4.23701 14.971C4.36883 15.4664 4.53519 15.9519 4.73488 16.424C5.00397 16.9671 5.30802 17.4923 5.64503 17.9961L5.65112 18.005C5.44781 18.4747 5.39266 18.9953 5.49303 19.4972C5.5934 19.9991 5.84451 20.4584 6.21281 20.8138C6.58112 21.1691 7.04907 21.4036 7.55414 21.4858C8.05921 21.568 8.5774 21.4941 9.03937 21.274L9.04546 21.2792C9.66038 21.6668 10.3238 21.9715 11.0186 22.1852C11.5748 22.3326 12.2172 22.4206 13.1066 22.5618C13.2294 22.582 13.3137 22.599 13.372 22.6131C13.5298 22.6396 13.6729 22.7221 13.7749 22.8455C13.8768 22.9689 13.931 23.1249 13.9274 23.2849C13.9238 23.4449 13.8626 23.5983 13.7552 23.717C13.6478 23.8356 13.5012 23.9116 13.3424 23.931H13.3377H13.3278H13.3221C11.3777 24.1397 9.41167 23.8732 7.59286 23.1545C5.77404 22.4359 4.1568 21.2864 2.87988 19.8049L2.8808 19.8059Z" fill="#FFAB08"/>
<path d="M6.13873 17.9562C5.87104 18.4194 5.78991 18.9671 5.91176 19.488C6.03362 20.0089 6.34935 20.4638 6.79468 20.76C7.24002 21.0562 7.78149 21.1716 8.30886 21.0826C8.83624 20.9936 9.30986 20.7069 9.63336 20.2809C9.95686 19.8549 10.1059 19.3216 10.0501 18.7896C9.99435 18.2575 9.73795 17.7668 9.33316 17.4171C8.92836 17.0675 8.40562 16.8853 7.87125 16.9077C7.33689 16.93 6.83108 17.1551 6.45685 17.5373C6.33369 17.6631 6.2268 17.8038 6.13873 17.9562Z" fill="#FFAB08"/>
<path d="M0.68309 8.00056C0.770556 8.14866 0.89202 8.27376 1.03746 8.36553C1.18291 8.45731 1.34813 8.5131 1.51942 8.52828C1.69072 8.54346 1.86315 8.5176 2.02246 8.45284C2.18178 8.38807 2.32341 8.28627 2.43555 8.15587C2.49108 8.09609 2.55462 8.02267 2.62379 7.93747C2.73297 7.80333 2.83554 7.67717 2.93342 7.55667C3.33624 7.05774 3.6548 6.66238 3.96868 6.34843C4.18844 6.13903 4.42312 5.94585 4.67083 5.77041C4.68839 5.7577 4.7066 5.74591 4.7254 5.73511C4.86269 5.65611 5.02368 5.62881 5.17933 5.65811C5.33497 5.68742 5.47502 5.77141 5.5742 5.89492C5.67337 6.01844 5.72514 6.17335 5.72017 6.33169C5.71519 6.49002 5.65377 6.64136 5.54703 6.75839C5.18396 7.12006 4.84699 7.507 4.53859 7.9163C4.20271 8.4211 3.89994 8.94719 3.63223 9.49123L3.62798 9.50063C3.11939 9.55951 2.64091 9.77225 2.25644 10.1104C1.87197 10.4486 1.59985 10.8961 1.47646 11.3931C1.35306 11.8901 1.38426 12.4129 1.5659 12.8917C1.74754 13.3705 2.07097 13.7824 2.49294 14.0725V14.0805C2.46456 14.807 2.53248 15.5341 2.69485 16.2428C2.84591 16.7987 3.09107 17.3988 3.41107 18.2414C3.45813 18.3581 3.48258 18.44 3.49999 18.4974C3.55426 18.6469 3.55325 18.8108 3.49712 18.9596C3.441 19.1084 3.3335 19.2321 3.19405 19.3084C3.05459 19.3848 2.89243 19.4087 2.7369 19.3758C2.58137 19.3429 2.44272 19.2553 2.34611 19.1291L2.34375 19.1253L2.33812 19.1173L2.33439 19.1126C2.07384 18.7553 1.83298 18.384 1.61294 18.0004C0.744777 16.4998 0.212073 14.8288 0.0515452 13.1025C-0.108982 11.3762 0.106504 9.63558 0.68309 8.00056Z" fill="#ACC022"/>
<path d="M3.91358 9.89872C3.37911 9.89856 2.86464 10.1021 2.47494 10.468C2.08524 10.8339 1.84958 11.3345 1.81594 11.868C1.78229 12.4016 1.95323 12.9279 2.29388 13.3398C2.63452 13.7518 3.11931 14.0184 3.64956 14.0854C4.17982 14.1524 4.71568 14.0148 5.14806 13.7006C5.58045 13.3863 5.87684 12.9191 5.97693 12.3939C6.07702 11.8688 5.9733 11.3252 5.68683 10.8739C5.40037 10.4226 4.95272 10.0974 4.435 9.96462C4.26465 9.9209 4.08946 9.89875 3.91358 9.89872Z" fill="#ACC022"/>
<path d="M9.80246 0.192935C9.71089 0.356398 9.66305 0.540751 9.66361 0.728121C9.66352 0.979889 9.75154 1.22375 9.91235 1.41744C10.0732 1.61112 10.2966 1.74243 10.5441 1.78858C10.6245 1.80741 10.7196 1.82529 10.8264 1.84271C10.9968 1.87048 11.1558 1.8959 11.3107 1.9199C11.9441 2.02016 12.4443 2.09923 12.8744 2.21313C13.1652 2.29935 13.4496 2.40616 13.7252 2.53274C13.7449 2.54146 13.7641 2.55135 13.7827 2.56239C13.9207 2.64122 14.0258 2.767 14.079 2.91684C14.1321 3.06668 14.1298 3.23064 14.0722 3.37886C14.0147 3.52708 13.906 3.64971 13.7657 3.72446C13.6254 3.79922 13.4629 3.82114 13.3078 3.7862C12.8134 3.65269 12.3102 3.55407 11.8019 3.49107C11.197 3.45242 10.5903 3.45321 9.98547 3.49343H9.97513C9.67018 3.08216 9.24695 2.77387 8.76202 2.60979C8.2771 2.44572 7.75363 2.43368 7.26169 2.57532C6.76974 2.71695 6.33274 3.00547 6.00922 3.4023C5.68571 3.79913 5.49108 4.28532 5.45138 4.79581L5.44386 4.79912C4.80093 5.13795 4.20567 5.56037 3.67353 6.05539C3.26742 6.46395 2.87117 6.97701 2.30176 7.67552C2.2227 7.77201 2.16577 7.83649 2.12483 7.88026C2.02243 8.00162 1.88005 8.08235 1.72335 8.10788C1.56665 8.13342 1.40596 8.10208 1.27034 8.01951C1.13472 7.93694 1.0331 7.80857 0.98381 7.65762C0.934517 7.50666 0.940813 7.34307 1.00156 7.19635V7.19259L1.00529 7.18316L1.00817 7.17799C1.18719 6.77354 1.38808 6.37914 1.61001 5.99656C2.4747 4.49414 3.65495 3.19722 5.06932 2.19526C6.48369 1.19331 8.09854 0.510156 9.80246 0.192935Z" fill="#0077C0"/>
<path d="M9.77619 3.94085C9.50922 3.47674 9.07545 3.13183 8.56319 2.97634C8.05093 2.82086 7.49873 2.86648 7.01891 3.10393C6.5391 3.34137 6.16777 3.75279 5.98055 4.25442C5.79333 4.75605 5.80428 5.3102 6.01116 5.80405C6.21804 6.29789 6.60529 6.6943 7.09411 6.9126C7.58292 7.1309 8.13652 7.15468 8.64224 6.97908C9.14796 6.80348 9.56779 6.44172 9.81623 5.96743C10.0647 5.49313 10.123 4.94197 9.97949 4.42613C9.93197 4.25661 9.86368 4.09362 9.77619 3.94085Z" fill="#0077C0"/>
<path d="M21.1186 4.19123C20.9466 4.19286 20.7775 4.23546 20.6252 4.31551C20.473 4.39557 20.342 4.51079 20.2431 4.65158C20.1443 4.79238 20.0804 4.95472 20.0568 5.12515C20.0332 5.29557 20.0505 5.46916 20.1073 5.63155C20.1313 5.71062 20.1634 5.80194 20.2015 5.90455C20.2627 6.06553 20.3214 6.21803 20.377 6.36301C20.6071 6.96172 20.7888 7.43524 20.905 7.86451C20.9763 8.15956 21.0262 8.45939 21.0542 8.76165C21.0567 8.78321 21.0579 8.8049 21.0579 8.8266C21.058 8.98519 21.0013 9.13857 20.8981 9.25897C20.7949 9.37937 20.652 9.45882 20.4953 9.48294C20.3386 9.50706 20.1785 9.47425 20.0438 9.39046C19.9092 9.30667 19.809 9.17743 19.7615 9.02615C19.6298 8.53108 19.4636 8.04588 19.264 7.57409C18.9953 7.03044 18.6913 6.50495 18.3539 6.00102L18.3478 5.99209C18.5511 5.52238 18.6063 5.00182 18.5059 4.49992C18.4055 3.99803 18.1544 3.53872 17.7861 3.18338C17.4178 2.82803 16.9499 2.59356 16.4448 2.51133C15.9397 2.42909 15.4216 2.50299 14.9596 2.72314L14.9535 2.71797C14.3388 2.33037 13.6757 2.02571 12.9813 1.8119C12.4241 1.66457 11.7822 1.57656 10.8933 1.43535C10.77 1.41511 10.6853 1.39816 10.6274 1.38404C10.471 1.3562 10.3297 1.27332 10.2291 1.15039C10.1285 1.02747 10.0752 0.872604 10.0788 0.713774C10.0824 0.554943 10.1426 0.402631 10.2486 0.284367C10.3547 0.166101 10.4995 0.0896893 10.657 0.0689306H10.6617H10.6716H10.6773C12.6218 -0.139667 14.5879 0.1268 16.4068 0.845466C18.2256 1.56413 19.843 2.71353 21.12 4.195L21.1186 4.19123Z" fill="#25287A"/>
<path d="M17.8588 6.04123C18.1261 5.57812 18.2068 5.03055 18.0846 4.50999C17.9625 3.98942 17.6465 3.535 17.2012 3.2392C16.7558 2.94341 16.2146 2.82847 15.6875 2.91782C15.1604 3.00716 14.6872 3.29405 14.3641 3.72009C14.0411 4.14614 13.8925 4.6793 13.9486 5.21105C14.0048 5.74281 14.2614 6.23321 14.6662 6.58239C15.0711 6.93157 15.5938 7.11328 16.1279 7.09057C16.662 7.06786 17.1674 6.84244 17.5412 6.46015C17.6642 6.33436 17.7709 6.19362 17.8588 6.04123Z" fill="#25287A"/>
<path d="M23.3158 15.9966C23.2199 15.8346 23.0836 15.7003 22.9201 15.607C22.7567 15.5136 22.5718 15.4645 22.3836 15.4643C22.2278 15.4639 22.0738 15.4974 21.9323 15.5624C21.7907 15.6274 21.665 15.7224 21.5638 15.8408C21.5078 15.9006 21.4438 15.974 21.3756 16.0592C21.2664 16.1929 21.1643 16.3195 21.0669 16.44C20.6636 16.9389 20.345 17.3343 20.0315 17.6487C19.8119 17.8582 19.5772 18.0514 19.3295 18.2267C19.3121 18.2395 19.294 18.2513 19.2753 18.262C19.1381 18.3415 18.9768 18.3692 18.8209 18.3401C18.665 18.3109 18.5247 18.2269 18.4254 18.1031C18.3261 17.9794 18.2744 17.8242 18.2797 17.6656C18.2849 17.507 18.3469 17.3556 18.4542 17.2387C18.8174 16.8772 19.1544 16.4903 19.4626 16.0809C19.7985 15.5761 20.1013 15.05 20.369 14.5059L20.3732 14.4965C20.8818 14.4376 21.3603 14.2249 21.7448 13.8867C22.1292 13.5485 22.4014 13.101 22.5248 12.604C22.6481 12.107 22.617 11.5842 22.4353 11.1054C22.2537 10.6266 21.9302 10.2147 21.5083 9.92468V9.9167C21.5367 9.19016 21.4687 8.46307 21.3064 7.75435C21.1553 7.19846 20.9101 6.59832 20.5901 5.75578C20.5459 5.63952 20.5186 5.55763 20.5012 5.50021C20.4469 5.35076 20.448 5.18679 20.5041 5.03802C20.5602 4.88926 20.6677 4.76551 20.8072 4.68917C20.9466 4.61283 21.1088 4.58896 21.2643 4.62186C21.4198 4.65476 21.5585 4.74225 21.6551 4.86852L21.6579 4.87229L21.6635 4.8803L21.6673 4.88453C21.9274 5.24211 22.168 5.61341 22.3883 5.99679C23.2561 7.49754 23.7885 9.16862 23.9486 10.8949C24.1087 12.6212 23.8928 14.3618 23.3158 15.9966Z" fill="#9E0039"/>
<path d="M20.0857 14.0992C20.6206 14.0998 21.1357 13.8965 21.526 13.5306C21.9164 13.1647 22.1526 12.6637 22.1867 12.1297C22.2207 11.5958 22.0502 11.0689 21.7095 10.6563C21.3689 10.2437 20.8838 9.97651 20.3531 9.90902C19.8225 9.84154 19.286 9.97885 18.853 10.293C18.42 10.6072 18.123 11.0747 18.0224 11.6002C17.9218 12.1257 18.0252 12.6698 18.3116 13.1218C18.5979 13.5737 19.0457 13.8995 19.5638 14.0329C19.7343 14.0768 19.9096 14.0991 20.0857 14.0992Z" fill="#9E0039"/>
<path d="M57.3881 18.4513V19.5204H56.5818V16.6962C56.5818 16.5715 56.6486 16.5091 56.7822 16.5091H58.9204C59.2902 16.5091 59.5262 16.6205 59.6911 16.7942C59.8381 16.9501 59.9316 17.1595 59.9316 17.3866C59.9316 17.6272 59.8603 17.8544 59.6465 18.0103C59.847 18.1305 59.9361 18.2909 59.9361 18.6339V19.2353C59.9361 19.3645 59.9405 19.4357 59.9494 19.5204H59.1342C59.1253 19.4535 59.1209 19.3867 59.1209 19.3199V18.7185C59.1209 18.527 59.0273 18.4513 58.7912 18.4513H57.3881ZM57.3881 17.7653H58.8135C58.9249 17.7653 58.9917 17.7252 59.0407 17.6673C59.0763 17.6227 59.0986 17.5693 59.0986 17.5114C59.0986 17.449 59.0763 17.3866 59.0318 17.3421C58.9872 17.2931 58.916 17.2619 58.8135 17.2619H57.4549C57.4103 17.2619 57.3881 17.2886 57.3881 17.3287V17.7653Z" fill="url(#paint0_linear_40011653_8334)"/>
<path d="M53.464 16.5091H56.2036V17.3065H53.9139C53.8649 17.3065 53.8427 17.3332 53.8427 17.3822V17.7252H56.1902V18.3043H53.8427V18.6695C53.8427 18.723 53.8649 18.7497 53.9139 18.7497H56.2036V19.5204H53.4596C53.1789 19.5204 53.0364 19.3823 53.0364 19.1016V16.9145C53.0364 16.6427 53.1789 16.5091 53.464 16.5091Z" fill="url(#paint1_linear_40011653_8334)"/>
<path d="M52.7275 19.5204H50.5403C49.8008 19.5204 49.5603 19.1952 49.5603 18.5404V16.5091H50.371V18.4646C50.371 18.6829 50.4289 18.7497 50.6383 18.7497H52.7275V19.5204Z" fill="url(#paint2_linear_40011653_8334)"/>
<path d="M49.3212 19.5204H47.1341C46.3946 19.5204 46.1541 19.1952 46.1541 18.5404V16.5091H46.9648V18.4646C46.9648 18.6829 47.0227 18.7497 47.2321 18.7497H49.3212V19.5204Z" fill="url(#paint3_linear_40011653_8334)"/>
<path d="M43.0541 16.5091H45.7936V17.3065H43.504C43.455 17.3065 43.4327 17.3332 43.4327 17.3822V17.7252H45.7803V18.3043H43.4327V18.6695C43.4327 18.723 43.455 18.7497 43.504 18.7497H45.7936V19.5204H43.0496C42.769 19.5204 42.6265 19.3823 42.6265 19.1016V16.9145C42.6265 16.6427 42.769 16.5091 43.0541 16.5091Z" fill="url(#paint4_linear_40011653_8334)"/>
<path d="M42.1652 16.5091V17.3064H40.0003C39.9023 17.3064 39.8488 17.3287 39.8132 17.3643C39.7731 17.4044 39.7508 17.4579 39.7508 17.5202C39.7508 17.5871 39.782 17.645 39.8266 17.6806C39.8622 17.7118 39.9068 17.7252 40.0003 17.7252H41.3233C41.6618 17.7252 41.889 17.8321 42.0494 17.9969C42.2098 18.1617 42.3078 18.3844 42.3078 18.6205C42.3078 18.8388 42.2231 19.0482 42.085 19.2085C41.9202 19.4001 41.6797 19.5203 41.3233 19.5203H38.9891V18.7497H41.1808C41.3055 18.7497 41.3678 18.723 41.4079 18.674C41.4391 18.6383 41.4569 18.5893 41.4569 18.5359C41.4569 18.4735 41.4347 18.4156 41.3946 18.3755C41.3545 18.331 41.2966 18.3087 41.1808 18.3087H39.9558C39.5548 18.3087 39.3232 18.2018 39.1628 18.037C39.0025 17.8722 38.9089 17.6539 38.9089 17.4089C38.9089 17.1683 39.0069 16.9456 39.1673 16.7808C39.3277 16.616 39.5548 16.5091 39.9558 16.5091H42.1652Z" fill="url(#paint5_linear_40011653_8334)"/>
<path d="M30 16.1909C30 15.3123 30.7123 14.6 31.5909 14.6H36.0455C36.9241 14.6 37.6364 15.3122 37.6364 16.1909V20.0091C37.6364 20.8877 36.9241 21.6 36.0455 21.6H31.5909C30.7123 21.6 30 20.8877 30 20.0091V16.1909Z" fill="#9E0039"/>
<path d="M30 16.1909C30 15.3123 30.7123 14.6 31.5909 14.6H36.0455C36.9241 14.6 37.6364 15.3122 37.6364 16.1909V20.0091C37.6364 20.8877 36.9241 21.6 36.0455 21.6H31.5909C30.7123 21.6 30 20.8877 30 20.0091V16.1909Z" fill="url(#paint6_linear_40011653_8334)"/>
<path d="M33.8182 19.6909C33.5841 19.6909 33.3647 19.6051 33.2623 19.4111L32.2626 17.4929C32.2529 17.4704 32.2236 17.4568 32.1992 17.4568C32.1602 17.4568 32.1212 17.4839 32.1212 17.5381V19.6277H31.2727V17.3937C31.2727 17.0506 31.3849 16.8385 31.5799 16.6941C31.7262 16.5858 31.9213 16.5091 32.1553 16.5091C32.5747 16.5091 32.8185 16.7392 32.9892 17.0777L33.7353 18.5761C33.7548 18.6212 33.7792 18.6348 33.8182 18.6348C33.8572 18.6348 33.8816 18.6212 33.9011 18.5761L34.6471 17.0777C34.8178 16.7392 35.0616 16.5091 35.481 16.5091C35.7151 16.5091 35.9101 16.5858 36.0564 16.6941C36.2515 16.8385 36.3636 17.0506 36.3636 17.3937V19.6277H35.5151V17.5381C35.5151 17.4839 35.4761 17.4568 35.4371 17.4568C35.4127 17.4568 35.3835 17.4704 35.3737 17.4929L34.3741 19.4111C34.2717 19.6051 34.0522 19.6909 33.8182 19.6909Z" fill="#FFFBFC"/>
<path d="M107.317 3.20001V5.58637H100.838C100.544 5.58637 100.385 5.65303 100.278 5.75968C100.158 5.87966 100.091 6.03964 100.091 6.22628C100.091 6.42626 100.185 6.59957 100.318 6.70622C100.424 6.79954 100.558 6.83954 100.838 6.83954H104.797C105.81 6.83954 106.49 7.1595 106.97 7.65276C107.45 8.14603 107.744 8.81261 107.744 9.51919C107.744 10.1724 107.49 10.799 107.077 11.279C106.584 11.8522 105.864 12.2122 104.797 12.2122H97.8115V9.9058H104.371C104.744 9.9058 104.931 9.82581 105.051 9.67917C105.144 9.57251 105.197 9.42587 105.197 9.26589C105.197 9.07924 105.131 8.90593 105.011 8.78595C104.891 8.65263 104.717 8.58598 104.371 8.58598H100.704C99.5046 8.58598 98.8114 8.26602 98.3314 7.77275C97.8515 7.27948 97.5715 6.62623 97.5715 5.89299C97.5715 5.17309 97.8648 4.50651 98.3448 4.01324C98.8247 3.51997 99.5046 3.20001 100.704 3.20001H107.317Z" fill="#414B4F"/>
<path d="M96.5522 3.19994V10.4657C96.5522 11.8255 95.739 12.3987 94.8591 12.3987C94.0992 12.3987 93.5259 12.1854 93.0993 11.6922L88.1533 5.97291C88.0866 5.89292 88.02 5.85293 87.94 5.85293C87.82 5.85293 87.7134 5.94625 87.7134 6.10623V12.2121H85.3403V5.10636C85.3403 3.57323 86.2202 2.99997 87.4334 2.99997C88.2866 2.99997 88.8199 3.22661 89.3798 3.89319L93.7792 9.15916C93.8459 9.25249 93.9259 9.26582 94.0059 9.26582C94.1125 9.26582 94.1925 9.18583 94.1925 9.02585V3.19994H96.5522Z" fill="#414B4F"/>
<path d="M79.426 12.2122H77.5329C75.9197 12.2122 74.7332 11.6522 73.9067 10.7457C73.1868 9.95913 72.7468 8.8926 72.7468 7.70609C72.7468 6.39959 73.3068 5.21308 74.2 4.38652C74.9999 3.65329 76.0797 3.20001 77.5329 3.20001H79.426C80.8791 3.20001 81.959 3.65329 82.7589 4.38652C83.6521 5.21308 84.212 6.39959 84.212 7.70609C84.212 8.8926 83.7721 9.95913 83.0521 10.7457C82.2256 11.6522 81.0391 12.2122 79.426 12.2122ZM79.426 5.58637H77.5329C76.7196 5.58637 76.213 5.813 75.8264 6.17296C75.4131 6.55957 75.1598 7.1195 75.1598 7.71942C75.1598 8.26602 75.3732 8.77262 75.7198 9.1459C76.1064 9.57251 76.6796 9.83915 77.5329 9.83915H79.426C80.2792 9.83915 80.8524 9.57251 81.2391 9.1459C81.5857 8.77262 81.799 8.26602 81.799 7.71942C81.799 7.1195 81.5457 6.55957 81.1324 6.17296C80.7458 5.813 80.2392 5.58637 79.426 5.58637Z" fill="#414B4F"/>
<path d="M62.9221 3.20001H65.3618V6.89286L69.4679 3.5733C69.6012 3.46664 69.7479 3.32 69.8412 3.20001H73.2141C73.1608 3.28 73.0541 3.37332 72.9741 3.43998L68.0148 7.27948C67.9615 7.31947 67.9348 7.35947 67.9348 7.42613C67.9348 7.49278 67.9481 7.51945 68.0148 7.57277L73.3341 11.8789C73.4541 11.9855 73.5741 12.0922 73.6807 12.2122H70.0812C69.9745 12.0922 69.8412 11.9722 69.6812 11.8389L65.3618 8.22602V12.2122H62.9221V3.20001Z" fill="#414B4F"/>
<path d="M61.9844 12.2122H55.4386C53.2255 12.2122 52.5056 11.239 52.5056 9.27922V3.20001H54.932V9.05258C54.932 9.70583 55.1053 9.9058 55.7319 9.9058H61.9844V12.2122Z" fill="#414B4F"/>
<path d="M51.7903 12.2122H45.2445C43.0314 12.2122 42.3115 11.239 42.3115 9.27922V3.20001H44.7379V9.05258C44.7379 9.70583 44.9112 9.9058 45.5378 9.9058H51.7903V12.2122Z" fill="#414B4F"/>
<path d="M38.5855 4.66642L41.8385 11.8122C41.9051 11.9588 41.9451 12.0788 41.9851 12.2121H39.2655C39.2388 12.0921 39.1988 11.9988 39.1588 11.9055L38.6789 10.8123H33.3462L32.8796 11.8921C32.8396 11.9988 32.7996 12.1054 32.7863 12.2121H30C30.04 12.0788 30.08 11.9588 30.1466 11.8122L33.3729 4.66642C33.8795 3.54656 34.6927 2.99997 35.9859 2.99997C37.2391 2.99997 38.0789 3.54656 38.5855 4.66642ZM34.2261 8.82588H37.799L36.4125 5.59963C36.3325 5.39966 36.1725 5.31967 35.9992 5.31967C35.8392 5.31967 35.6926 5.38632 35.5993 5.59963L34.2261 8.82588Z" fill="#414B4F"/>
<defs>
<linearGradient id="paint0_linear_40011653_8334" x1="49.4523" y1="15.384" x2="49.4523" y2="20.7931" gradientUnits="userSpaceOnUse">
<stop stop-color="#9E0039"/>
<stop offset="1" stop-color="#BB4D74"/>
</linearGradient>
<linearGradient id="paint1_linear_40011653_8334" x1="49.4523" y1="15.384" x2="49.4523" y2="20.7931" gradientUnits="userSpaceOnUse">
<stop stop-color="#9E0039"/>
<stop offset="1" stop-color="#BB4D74"/>
</linearGradient>
<linearGradient id="paint2_linear_40011653_8334" x1="49.4523" y1="15.384" x2="49.4523" y2="20.7931" gradientUnits="userSpaceOnUse">
<stop stop-color="#9E0039"/>
<stop offset="1" stop-color="#BB4D74"/>
</linearGradient>
<linearGradient id="paint3_linear_40011653_8334" x1="49.4522" y1="15.384" x2="49.4522" y2="20.7931" gradientUnits="userSpaceOnUse">
<stop stop-color="#9E0039"/>
<stop offset="1" stop-color="#BB4D74"/>
</linearGradient>
<linearGradient id="paint4_linear_40011653_8334" x1="49.4523" y1="15.384" x2="49.4523" y2="20.7931" gradientUnits="userSpaceOnUse">
<stop stop-color="#9E0039"/>
<stop offset="1" stop-color="#BB4D74"/>
</linearGradient>
<linearGradient id="paint5_linear_40011653_8334" x1="49.4522" y1="15.384" x2="49.4522" y2="20.7931" gradientUnits="userSpaceOnUse">
<stop stop-color="#9E0039"/>
<stop offset="1" stop-color="#BB4D74"/>
</linearGradient>
<linearGradient id="paint6_linear_40011653_8334" x1="33.8182" y1="14.6" x2="33.8182" y2="21.6" gradientUnits="userSpaceOnUse">
<stop stop-color="#9E0039"/>
<stop offset="1" stop-color="#BB4D74"/>
</linearGradient>
</defs>
</svg>
