<svg width="216" height="48" viewBox="0 0 216 48" fill="none" xmlns="http://www.w3.org/2000/svg">
<path d="M114.776 36.9026V39.0407H113.164V33.3924C113.164 33.1429 113.297 33.0182 113.565 33.0182H117.841C118.581 33.0182 119.053 33.2409 119.382 33.5884C119.676 33.9002 119.863 34.3189 119.863 34.7733C119.863 35.2544 119.721 35.7087 119.293 36.0206C119.694 36.2611 119.872 36.5818 119.872 37.2678V38.4706C119.872 38.7289 119.881 38.8715 119.899 39.0407H118.269C118.251 38.9071 118.242 38.7735 118.242 38.6398V37.4371C118.242 37.054 118.055 36.9026 117.583 36.9026H114.776ZM114.776 35.5306H117.627C117.85 35.5306 117.984 35.4504 118.082 35.3346C118.153 35.2455 118.197 35.1386 118.197 35.0227C118.197 34.898 118.153 34.7733 118.064 34.6842C117.975 34.5862 117.832 34.5238 117.627 34.5238H114.91C114.821 34.5238 114.776 34.5773 114.776 34.6575V35.5306Z" fill="#414B4F"/>
<path d="M106.928 33.0182H112.407V34.6129H107.828C107.73 34.6129 107.685 34.6664 107.685 34.7644V35.4504H112.38V36.6086H107.685V37.3391C107.685 37.446 107.73 37.4995 107.828 37.4995H112.407V39.0407H106.919C106.358 39.0407 106.073 38.7646 106.073 38.2033V33.8289C106.073 33.2855 106.358 33.0182 106.928 33.0182Z" fill="#414B4F"/>
<path d="M105.455 39.0407H101.081C99.6017 39.0407 99.1206 38.3904 99.1206 37.0807V33.0182H100.742V36.9293C100.742 37.3658 100.858 37.4995 101.277 37.4995H105.455V39.0407Z" fill="#414B4F"/>
<path d="M98.6427 39.0407H94.2684C92.7894 39.0407 92.3083 38.3904 92.3083 37.0807V33.0182H93.9298V36.9293C93.9298 37.3658 94.0456 37.4995 94.4644 37.4995H98.6427V39.0407Z" fill="#414B4F"/>
<path d="M86.1083 33.0182H91.5874V34.6129H87.0081C86.9101 34.6129 86.8656 34.6664 86.8656 34.7644V35.4504H91.5607V36.6086H86.8656V37.3391C86.8656 37.446 86.9101 37.4995 87.0081 37.4995H91.5874V39.0407H86.0994C85.5381 39.0407 85.2531 38.7646 85.2531 38.2033V33.8289C85.2531 33.2855 85.5381 33.0182 86.1083 33.0182Z" fill="#414B4F"/>
<path d="M84.3307 33.0181V34.6129H80.0008C79.8048 34.6129 79.6979 34.6574 79.6267 34.7287C79.5465 34.8089 79.5019 34.9158 79.5019 35.0405C79.5019 35.1741 79.5643 35.2899 79.6534 35.3612C79.7247 35.4236 79.8138 35.4503 80.0008 35.4503H82.6468C83.3239 35.4503 83.7783 35.6641 84.099 35.9938C84.4198 36.3234 84.6158 36.7689 84.6158 37.241C84.6158 37.6776 84.4465 38.0963 84.1703 38.417C83.8407 38.8001 83.3596 39.0407 82.6468 39.0407H77.9785V37.4994H82.3618C82.6112 37.4994 82.7359 37.4459 82.8161 37.3479C82.8785 37.2767 82.9141 37.1787 82.9141 37.0718C82.9141 36.947 82.8696 36.8312 82.7894 36.751C82.7092 36.6619 82.5934 36.6174 82.3618 36.6174H79.9118C79.1099 36.6174 78.6467 36.4036 78.3259 36.0739C78.0052 35.7443 77.8181 35.3078 77.8181 34.8178C77.8181 34.3367 78.0141 33.8912 78.3348 33.5616C78.6556 33.2319 79.1099 33.0181 79.9118 33.0181H84.3307Z" fill="#414B4F"/>
<path d="M72.0908 29.2C73.848 29.2 75.2724 30.6244 75.2725 32.3816V40.0183C75.2724 41.7755 73.848 43.2 72.0908 43.2H63.1816C61.4245 43.1999 60.0001 41.7754 60 40.0183V32.3816C60.0001 30.6245 61.4245 29.2 63.1816 29.2H72.0908ZM70.9619 33.0183C70.1233 33.0183 69.6353 33.4782 69.2939 34.155L67.8018 37.1521C67.7628 37.2422 67.7145 37.2692 67.6367 37.2693C67.5587 37.2693 67.5097 37.2424 67.4707 37.1521L65.9785 34.155C65.6372 33.4782 65.1492 33.0183 64.3105 33.0183C63.8425 33.0183 63.4527 33.1719 63.1602 33.3884C62.7701 33.6772 62.546 34.1011 62.5459 34.7869V39.2556H64.2422V35.0759C64.2423 34.9678 64.3205 34.9138 64.3984 34.9138C64.4472 34.9138 64.5059 34.941 64.5254 34.9861L66.5244 38.822C66.7292 39.2102 67.1686 39.3816 67.6367 39.3816C68.1047 39.3815 68.5433 39.21 68.748 38.822L70.7471 34.9861C70.7665 34.941 70.8253 34.9139 70.874 34.9138C70.952 34.9138 71.0302 34.9678 71.0303 35.0759V39.2556H72.7275V34.7869C72.7274 34.1014 72.5031 33.6772 72.1133 33.3884C71.8207 33.1718 71.43 33.0183 70.9619 33.0183Z" fill="#414B4F"/>
<path d="M214.634 6.39999V11.1727H201.676C201.089 11.1727 200.769 11.306 200.556 11.5193C200.316 11.7593 200.182 12.0793 200.182 12.4525C200.182 12.8525 200.369 13.1991 200.636 13.4124C200.849 13.5991 201.116 13.679 201.676 13.679H209.595C211.621 13.679 212.981 14.319 213.941 15.3055C214.9 16.292 215.487 17.6252 215.487 19.0383C215.487 20.3448 214.98 21.598 214.154 22.5579C213.167 23.7044 211.728 24.4243 209.595 24.4243H195.623V19.8116H208.741C209.488 19.8116 209.861 19.6516 210.101 19.3583C210.288 19.145 210.394 18.8517 210.394 18.5317C210.394 18.1585 210.261 17.8118 210.021 17.5719C209.781 17.3052 209.435 17.1719 208.741 17.1719H201.409C199.009 17.1719 197.623 16.532 196.663 15.5455C195.703 14.5589 195.143 13.2524 195.143 11.786C195.143 10.3461 195.73 9.01299 196.69 8.02645C197.649 7.03991 199.009 6.39999 201.409 6.39999H214.634Z" fill="#414B4F"/>
<path d="M193.105 6.39989V20.9313C193.105 23.651 191.478 24.7975 189.718 24.7975C188.199 24.7975 187.052 24.3709 186.199 23.3843L176.307 11.9458C176.173 11.7858 176.04 11.7059 175.88 11.7059C175.64 11.7059 175.427 11.8925 175.427 12.2125V24.4242H170.681V10.2127C170.681 7.14646 172.441 5.99994 174.867 5.99994C176.573 5.99994 177.64 6.45321 178.76 7.78637L187.559 18.3183C187.692 18.505 187.852 18.5316 188.012 18.5316C188.225 18.5316 188.385 18.3717 188.385 18.0517V6.39989H193.105Z" fill="#414B4F"/>
<path d="M158.852 24.4243H155.065C151.839 24.4243 149.466 23.3045 147.813 21.4914C146.373 19.9182 145.493 17.7852 145.493 15.4122C145.493 12.7992 146.613 10.4261 148.4 8.77302C149.999 7.30654 152.159 6.39999 155.065 6.39999H158.852C161.758 6.39999 163.918 7.30654 165.517 8.77302C167.304 10.4261 168.424 12.7992 168.424 15.4122C168.424 17.7852 167.544 19.9182 166.104 21.4914C164.451 23.3045 162.078 24.4243 158.852 24.4243ZM158.852 11.1727H155.065C153.439 11.1727 152.426 11.626 151.653 12.3459C150.826 13.1191 150.319 14.239 150.319 15.4388C150.319 16.532 150.746 17.5452 151.439 18.2918C152.213 19.145 153.359 19.6783 155.065 19.6783H158.852C160.558 19.6783 161.705 19.145 162.478 18.2918C163.171 17.5452 163.598 16.532 163.598 15.4388C163.598 14.239 163.091 13.1191 162.265 12.3459C161.491 11.626 160.478 11.1727 158.852 11.1727Z" fill="#414B4F"/>
<path d="M125.844 6.39999H130.723V13.7857L138.936 7.14656C139.202 6.93326 139.496 6.63996 139.682 6.39999H146.428C146.321 6.55997 146.108 6.74662 145.948 6.87993L136.029 14.5589C135.923 14.6389 135.869 14.7189 135.869 14.8522C135.869 14.9855 135.896 15.0389 136.029 15.1455L146.668 23.7577C146.908 23.971 147.148 24.1843 147.361 24.4243H140.162C139.949 24.1843 139.682 23.9444 139.362 23.6777L130.723 16.452V24.4243H125.844V6.39999Z" fill="#414B4F"/>
<path d="M123.969 24.4243H110.877C106.451 24.4243 105.011 22.4779 105.011 18.5584V6.39999H109.864V18.1051C109.864 19.4116 110.21 19.8116 111.463 19.8116H123.969V24.4243Z" fill="#414B4F"/>
<path d="M103.581 24.4243H90.4889C86.0629 24.4243 84.623 22.4779 84.623 18.5584V6.39999H89.4757V18.1051C89.4757 19.4116 89.8224 19.8116 91.0755 19.8116H103.581V24.4243Z" fill="#414B4F"/>
<path d="M77.1711 9.33284L83.6769 23.6243C83.8102 23.9176 83.8902 24.1576 83.9702 24.4242H78.5309C78.4776 24.1842 78.3976 23.9976 78.3176 23.8109L77.3577 21.6246H66.6925L65.7592 23.7843C65.6793 23.9976 65.5993 24.2109 65.5726 24.4242H60C60.08 24.1576 60.16 23.9176 60.2933 23.6243L66.7458 9.33284C67.759 7.09313 69.3854 5.99994 71.9718 5.99994C74.4781 5.99994 76.1579 7.09313 77.1711 9.33284ZM68.4522 17.6518H75.598L72.825 11.1993C72.665 10.7993 72.3451 10.6393 71.9984 10.6393C71.6785 10.6393 71.3852 10.7726 71.1985 11.1993L68.4522 17.6518Z" fill="#414B4F"/>
<path d="M28.3938 47.6079C28.5783 47.2798 28.6744 46.9095 28.673 46.5332C28.6715 46.1568 28.5724 45.7872 28.3853 45.4606C28.2299 45.1902 28.0176 44.9568 27.7632 44.7765C27.5087 44.5963 27.218 44.4735 26.9114 44.4167C26.7514 44.379 26.5603 44.3432 26.3467 44.3084C26.0069 44.2528 25.6878 44.202 25.3773 44.154C24.1104 43.9534 23.11 43.7953 22.2497 43.5675C21.668 43.3955 21.0993 43.1819 20.5481 42.9283C20.5086 42.9105 20.471 42.8916 20.4334 42.87C20.1587 42.7114 19.9499 42.4598 19.8445 42.1607C19.7392 41.8616 19.7444 41.5346 19.8591 41.239C19.9738 40.9433 20.1905 40.6985 20.47 40.5487C20.7495 40.3989 21.0733 40.3541 21.3829 40.4223C22.3717 40.6895 23.3782 40.8867 24.3947 41.0126C25.6044 41.0913 26.8179 41.0913 28.0276 41.0126H28.0474C28.6576 41.8346 29.5041 42.4508 30.4738 42.7786C31.4436 43.1064 32.4902 43.1304 33.4738 42.8472C34.4575 42.564 35.3313 41.9871 35.9784 41.1938C36.6255 40.4005 37.015 39.4285 37.0949 38.4078L37.1099 38.4012C38.3957 37.7234 39.5862 36.8786 40.6506 35.8887C41.4628 35.0716 42.2563 34.0455 43.3941 32.6475C43.5523 32.4545 43.6661 32.3256 43.748 32.238C43.9528 31.9953 44.2375 31.8338 44.551 31.7827C44.8644 31.7316 45.1857 31.7944 45.457 31.9595C45.7282 32.1247 45.9314 32.3813 46.03 32.6832C46.1286 32.9852 46.116 33.3124 45.9945 33.6058V33.6134L45.9871 33.6322V33.6425C44.403 37.2195 41.9757 40.359 38.9131 42.7924C35.8506 45.2258 32.2439 46.8804 28.4022 47.6145L28.3938 47.6079Z" fill="#414B4F"/>
<path d="M28.4492 40.1138C28.9615 40.9981 29.7787 41.6652 30.7476 41.9899C31.7165 42.3147 32.7705 42.2747 33.7121 41.8777C34.6536 41.4806 35.418 40.7536 35.862 39.833C36.3059 38.9125 36.399 37.8616 36.1236 36.8773C36.0288 36.5382 35.8922 36.2122 35.717 35.9068C35.2057 35.0205 34.3882 34.3515 33.4185 34.0255C32.4488 33.6995 31.3935 33.7389 30.4508 34.1364C29.5081 34.5338 28.743 35.262 28.2992 36.1839C27.8554 37.1059 27.7635 38.1583 28.0408 39.1432C28.1348 39.4828 28.2717 39.8089 28.4483 40.1138" fill="#414B4F"/>
<path d="M5.76148 39.6118C6.10533 39.6082 6.44342 39.5228 6.74769 39.3625C7.05195 39.2023 7.31362 38.9719 7.51113 38.6903C7.70863 38.4088 7.83623 38.0842 7.88337 37.7435C7.9305 37.4028 7.89579 37.0558 7.78215 36.7312C7.73415 36.573 7.67114 36.3904 7.59396 36.1851C7.47161 35.8632 7.35392 35.5582 7.24286 35.2682C6.78263 34.0708 6.41938 33.1248 6.18692 32.2662C6.04455 31.6757 5.94483 31.0758 5.88855 30.471C5.88381 30.4279 5.88153 30.3845 5.88189 30.3411C5.88094 30.0236 5.99394 29.7163 6.20024 29.475C6.40655 29.2338 6.69259 29.0745 7.0063 29.0262C7.32002 28.9779 7.64059 29.0437 7.90991 29.2117C8.17922 29.3798 8.37932 29.6389 8.4739 29.9419C8.73754 30.9327 9.07026 31.9037 9.46964 32.848C10.0078 33.9343 10.6159 34.9846 11.2899 35.9922L11.3021 36.0101C10.8955 36.9495 10.7852 37.9907 10.9859 38.9945C11.1867 39.9983 11.6889 40.9168 12.4255 41.6275C13.1621 42.3382 14.098 42.8071 15.1082 42.9716C16.1183 43.1361 17.1547 42.9883 18.0786 42.548L18.0908 42.5583C19.3206 43.3337 20.6476 43.943 22.0371 44.3705C23.1496 44.6651 24.4343 44.8412 26.2131 45.1236C26.4587 45.1641 26.6272 45.1979 26.7439 45.2262C27.0595 45.2792 27.3456 45.4443 27.5496 45.691C27.7536 45.9377 27.8618 46.2497 27.8546 46.5698C27.8474 46.8899 27.7252 47.1967 27.5103 47.434C27.2954 47.6713 27.0023 47.8233 26.6846 47.8621H26.6752H26.6554H26.6442C22.7553 48.2794 18.8232 47.7464 15.1856 46.3091C11.548 44.8717 8.31347 42.5729 5.75964 39.6099L5.76148 39.6118Z" fill="#414B4F"/>
<path d="M12.2773 35.9125C11.742 36.8387 11.5797 37.9342 11.8234 38.976C12.0671 40.0178 12.6986 40.9275 13.5892 41.52C14.4799 42.1125 15.5629 42.3432 16.6176 42.1652C17.6724 41.9872 18.6196 41.4138 19.2666 40.5618C19.9136 39.7098 20.2117 38.6432 20.1001 37.5791C19.9886 36.515 19.4758 35.5335 18.6662 34.8343C17.8566 34.135 16.8111 33.7706 15.7424 33.8153C14.6736 33.86 13.662 34.3103 12.9136 35.0747C12.6673 35.3262 12.4535 35.6077 12.2773 35.9125Z" fill="#414B4F"/>
<path d="M1.36618 16.0011C1.54111 16.2973 1.78404 16.5475 2.07493 16.7311C2.36582 16.9146 2.69625 17.0262 3.03885 17.0566C3.38144 17.0869 3.7263 17.0352 4.04493 16.9057C4.36356 16.7761 4.64682 16.5725 4.8711 16.3117C4.98215 16.1922 5.10924 16.0453 5.24759 15.8749C5.46594 15.6067 5.67108 15.3543 5.86684 15.1133C6.67248 14.1155 7.30961 13.3248 7.93737 12.6969C8.37688 12.2781 8.84625 11.8917 9.34165 11.5408C9.37678 11.5154 9.41319 11.4918 9.4508 11.4702C9.72537 11.3122 10.0474 11.2576 10.3587 11.3162C10.6699 11.3748 10.95 11.5428 11.1484 11.7898C11.3467 12.0369 11.4503 12.3467 11.4403 12.6634C11.4304 12.98 11.3075 13.2827 11.0941 13.5168C10.3679 14.2401 9.69398 15.014 9.07718 15.8326C8.40542 16.8422 7.79989 17.8944 7.26446 18.9825L7.25596 19.0013C6.23878 19.119 5.28181 19.5445 4.51287 20.2208C3.74393 20.8972 3.19969 21.7922 2.95291 22.7862C2.70613 23.7802 2.76851 24.8259 3.13179 25.7835C3.49508 26.741 4.14193 27.5649 4.98587 28.1449V28.1609C4.92913 29.614 5.06497 31.0682 5.38971 32.4856C5.69182 33.5974 6.18214 34.7976 6.82214 36.4827C6.91626 36.7162 6.96517 36.88 6.99999 36.9948C7.10852 37.2937 7.10649 37.6217 6.99424 37.9192C6.882 38.2167 6.66699 38.4642 6.38809 38.6169C6.10919 38.7696 5.78487 38.8173 5.4738 38.7515C5.16274 38.6857 4.88543 38.5107 4.69221 38.2581L4.6875 38.2506L4.67624 38.2346L4.66878 38.2252C4.14769 37.5106 3.66595 36.768 3.22589 36.0008C1.48955 32.9995 0.424145 29.6575 0.10309 26.2049C-0.217964 22.7523 0.213007 19.2712 1.36618 16.0011Z" fill="#414B4F"/>
<path d="M7.82716 19.7974C6.75821 19.7971 5.72928 20.2043 4.94988 20.936C4.17048 21.6677 3.69917 22.669 3.63187 23.7361C3.56458 24.8031 3.90645 25.8558 4.58775 26.6796C5.26905 27.5035 6.23861 28.0367 7.29913 28.1708C8.35965 28.3048 9.43135 28.0296 10.2961 27.4011C11.1609 26.7726 11.7537 25.8381 11.9539 24.7878C12.154 23.7375 11.9466 22.6504 11.3737 21.7478C10.8007 20.8452 9.90544 20.1949 8.87001 19.9292C8.52929 19.8418 8.17891 19.7975 7.82716 19.7974Z" fill="#414B4F"/>
<path d="M19.6052 0.385871C19.422 0.712796 19.3263 1.0815 19.3275 1.45624C19.3273 1.95978 19.5033 2.4475 19.8249 2.83487C20.1466 3.22225 20.5935 3.48485 21.0884 3.57716C21.2493 3.61482 21.4394 3.65058 21.6531 3.68541C21.9938 3.74096 22.3119 3.79179 22.6216 3.8398C23.8884 4.04032 24.8888 4.19845 25.7491 4.42627C26.3307 4.5987 26.8994 4.81232 27.4507 5.06548C27.4901 5.08291 27.5285 5.10271 27.5656 5.12478C27.8417 5.28244 28.0519 5.534 28.1582 5.83369C28.2645 6.13337 28.2598 6.46127 28.1447 6.75771C28.0297 7.05416 27.8122 7.29941 27.5316 7.44893C27.251 7.59844 26.926 7.64229 26.6159 7.5724C25.627 7.30538 24.6206 7.10814 23.6041 6.98214C22.3943 6.90484 21.1808 6.90642 19.9712 6.98685H19.9505C19.3406 6.16432 18.4941 5.54773 17.5243 5.21958C16.5544 4.89143 15.5075 4.86737 14.5236 5.15063C13.5397 5.4339 12.6657 6.01094 12.0187 6.8046C11.3717 7.59825 10.9824 8.57064 10.903 9.59162L10.888 9.59823C9.60211 10.2759 8.41159 11.1207 7.34731 12.1108C6.53508 12.9279 5.74258 13.954 4.60376 15.351C4.44564 15.544 4.33178 15.673 4.2499 15.7605C4.0451 16.0032 3.76035 16.1647 3.44694 16.2158C3.13354 16.2668 2.81217 16.2042 2.54093 16.039C2.26969 15.8739 2.06645 15.6171 1.96786 15.3152C1.86928 15.0133 1.88187 14.6861 2.00336 14.3927V14.3852L2.01083 14.3663L2.01658 14.356C2.37462 13.5471 2.77641 12.7583 3.22027 11.9931C4.94964 8.98829 7.31014 6.39444 10.1389 4.39053C12.9676 2.38661 16.1973 1.02031 19.6052 0.385871Z" fill="#414B4F"/>
<path d="M19.5524 7.8817C19.0184 6.95347 18.1509 6.26365 17.1264 5.95268C16.1019 5.64171 14.9975 5.73297 14.0378 6.20785C13.0782 6.68274 12.3355 7.50558 11.9611 8.50884C11.5867 9.51211 11.6086 10.6204 12.0223 11.6081C12.4361 12.5958 13.2106 13.3886 14.1882 13.8252C15.1658 14.2618 16.273 14.3094 17.2845 13.9582C18.2959 13.607 19.1356 12.8834 19.6325 11.9349C20.1293 10.9863 20.2461 9.88394 19.959 8.85227C19.8639 8.51323 19.7274 8.18723 19.5524 7.8817Z" fill="#414B4F"/>
<path d="M42.2375 8.3825C41.8935 8.38576 41.5552 8.47094 41.2507 8.63106C40.9462 8.79118 40.6842 9.0216 40.4865 9.3032C40.2888 9.58479 40.161 9.90948 40.1138 10.2503C40.0666 10.5912 40.1012 10.9384 40.2149 11.2631C40.2629 11.4213 40.327 11.6039 40.4032 11.8091C40.5256 12.1311 40.6431 12.4361 40.7542 12.726C41.2144 13.9235 41.5778 14.8705 41.8102 15.729C41.9529 16.3191 42.0526 16.9188 42.1086 17.5233C42.1137 17.5664 42.1161 17.6098 42.1161 17.6532C42.1163 17.9704 42.0029 18.2772 41.7965 18.518C41.5901 18.7588 41.3043 18.9177 40.9909 18.9659C40.6774 19.0142 40.3572 18.9485 40.0879 18.781C39.8187 18.6134 39.6183 18.3549 39.5231 18.0523C39.2599 17.0622 38.9275 16.0918 38.5283 15.1482C37.9909 14.0609 37.3829 13.0099 36.7081 12.0021L36.6958 11.9842C37.1025 11.0448 37.2128 10.0037 37.012 8.99988C36.8113 7.99609 36.3091 7.07746 35.5725 6.36678C34.8359 5.6561 33.9 5.18716 32.8898 5.02268C31.8797 4.85821 30.8434 5.00601 29.9195 5.44632L29.9072 5.43597C28.6779 4.66077 27.3517 4.05145 25.9628 3.62383C24.8485 3.32917 23.5647 3.15315 21.7868 2.87073C21.5402 2.83025 21.3708 2.79636 21.255 2.76811C20.9422 2.71244 20.6597 2.54667 20.4585 2.30081C20.2572 2.05496 20.1506 1.74524 20.1578 1.42758C20.165 1.10992 20.2854 0.805292 20.4975 0.568764C20.7097 0.332233 20.9993 0.179409 21.3143 0.137892H21.3237H21.3435H21.3548C25.2438 -0.279303 29.176 0.25363 32.8137 1.69096C36.4515 3.12829 39.6862 5.42709 42.2403 8.39003L42.2375 8.3825Z" fill="#414B4F"/>
<path d="M35.718 12.0825C36.2525 11.1563 36.414 10.0612 36.1696 9.02004C35.9253 7.97891 35.2935 7.07006 34.4028 6.47847C33.5121 5.88688 32.4295 5.65701 31.3753 5.8357C30.3212 6.01438 29.3747 6.58817 28.7286 7.44025C28.0825 8.29233 27.7854 9.35865 27.8976 10.4222C28.0099 11.4857 28.5231 12.4665 29.3328 13.1648C30.1426 13.8632 31.1879 14.2266 32.2562 14.1812C33.3244 14.1358 34.3351 13.6849 35.0827 12.9204C35.3287 12.6688 35.5422 12.3873 35.718 12.0825Z" fill="#414B4F"/>
<path d="M46.6319 31.9932C46.4402 31.6692 46.1675 31.4006 45.8407 31.214C45.5138 31.0273 45.1439 30.9289 44.7675 30.9285C44.456 30.9278 44.148 30.9948 43.8649 31.1248C43.5818 31.2548 43.3303 31.4448 43.1279 31.6816C43.0159 31.8012 42.888 31.948 42.7515 32.1184C42.5332 32.3858 42.3289 32.639 42.1341 32.88C41.3275 33.8779 40.6903 34.6686 40.0635 35.2975C39.6241 35.7164 39.1548 36.1028 38.6593 36.4534C38.6246 36.479 38.5884 36.5026 38.5511 36.5241C38.2765 36.6831 37.954 36.7385 37.6422 36.6802C37.3303 36.6219 37.0498 36.4537 36.8512 36.2063C36.6526 35.9588 36.5491 35.6484 36.5597 35.3312C36.5703 35.0141 36.6941 34.7112 36.9087 34.4775C37.6352 33.7545 38.3092 32.9806 38.9256 32.1617C39.5974 31.1522 40.203 30.1 40.7383 29.0119L40.7468 28.993C41.764 28.8753 42.721 28.4498 43.4899 27.7734C44.2589 27.0971 44.8031 26.2021 45.0499 25.2081C45.2967 24.2141 45.2343 23.1684 44.871 22.2109C44.5077 21.2533 43.8609 20.4294 43.0169 19.8494V19.8334C43.0737 18.3803 42.9378 16.9261 42.6131 15.5087C42.311 14.3969 41.8206 13.1966 41.1806 11.5116C41.0922 11.279 41.0376 11.1153 41.0028 11.0004C40.8943 10.7015 40.8963 10.3736 41.0085 10.076C41.1208 9.77851 41.3358 9.53102 41.6147 9.37834C41.8936 9.22566 42.2179 9.17792 42.529 9.24372C42.84 9.30952 43.1174 9.4845 43.3106 9.73705L43.3162 9.74458L43.3275 9.76061L43.335 9.76905C43.8551 10.4842 44.3364 11.2268 44.7769 11.9936C46.5126 14.9951 47.5773 18.3372 47.8975 21.7899C48.2178 25.2425 47.786 28.7235 46.6319 31.9932Z" fill="#414B4F"/>
<path d="M40.1716 28.1985C41.2415 28.1996 42.2717 27.7929 43.0523 27.0611C43.833 26.3293 44.3054 25.3275 44.3735 24.2595C44.4417 23.1915 44.1005 22.1377 43.4193 21.3126C42.738 20.4874 41.7679 19.953 40.7065 19.818C39.6452 19.6831 38.5723 19.9577 37.7063 20.5861C36.8403 21.2145 36.2462 22.1493 36.045 23.2004C35.8438 24.2514 36.0506 25.3397 36.6234 26.2436C37.1961 27.1475 38.0917 27.7991 39.1278 28.0658C39.4688 28.1536 39.8195 28.1982 40.1716 28.1985Z" fill="#414B4F"/>
</svg>
