<svg width="230" height="48" viewBox="0 0 230 48" fill="none" xmlns="http://www.w3.org/2000/svg">
<path d="M227.448 19.69H213.626C213.371 19.6809 213.116 19.7135 212.873 19.7864C212.708 19.841 212.558 19.9291 212.432 20.0445C212.301 20.1691 212.198 20.318 212.13 20.482C212.062 20.6461 212.03 20.8218 212.035 20.9983C212.03 21.1863 212.072 21.3727 212.155 21.5429C212.239 21.713 212.363 21.8621 212.518 21.9784C212.639 22.0726 212.779 22.1416 212.929 22.181C213.157 22.2348 213.392 22.2581 213.626 22.2503H222.073C223.01 22.2253 223.943 22.3778 224.819 22.6991C225.529 22.9724 226.173 23.3847 226.708 23.9096C227.218 24.4162 227.628 25.007 227.918 25.6535C228.485 26.9282 228.505 28.3652 227.973 29.6538C227.727 30.2587 227.377 30.8202 226.938 31.3152C226.389 31.9069 225.714 32.3798 224.959 32.7025C224.047 33.0701 223.062 33.2459 222.073 33.2179H207.169V28.5086H221.162C221.476 28.5208 221.789 28.479 222.087 28.3851C222.288 28.3136 222.469 28.1974 222.615 28.0459C222.822 27.8098 222.933 27.5095 222.926 27.2011C222.932 27.0206 222.901 26.8407 222.833 26.6723C222.765 26.5038 222.662 26.3502 222.531 26.2209C222.396 26.0757 222.223 25.9676 222.031 25.9081C221.747 25.8351 221.454 25.8038 221.161 25.8151H213.34C212.281 25.8501 211.225 25.6973 210.224 25.3642C209.491 25.0992 208.827 24.6864 208.275 24.1538C207.768 23.6534 207.363 23.0666 207.082 22.4238C206.792 21.7552 206.647 21.0374 206.655 20.3136C206.649 19.5926 206.8 18.8783 207.098 18.216C207.385 17.5698 207.794 16.9797 208.304 16.4755C208.852 15.9443 209.511 15.5309 210.239 15.263C211.234 14.9292 212.285 14.7765 213.339 14.8128H227.444L227.448 19.69Z" fill="white"/>
<path d="M204.499 29.6517C204.513 30.2591 204.411 30.8638 204.197 31.4359C204.026 31.8941 203.754 32.3119 203.4 32.6609C203.076 32.975 202.683 33.2166 202.249 33.3684C201.812 33.5233 201.35 33.6014 200.884 33.5987C200.152 33.6135 199.424 33.4983 198.736 33.2588C198.112 33.0271 197.558 32.6476 197.128 32.1559L186.575 20.4773C186.522 20.4077 186.455 20.3499 186.377 20.3077C186.299 20.2656 186.212 20.2401 186.122 20.2331C186.059 20.2327 185.995 20.2448 185.936 20.2687C185.878 20.2925 185.825 20.3276 185.78 20.3718C185.731 20.4229 185.692 20.483 185.668 20.5485C185.643 20.6141 185.632 20.6837 185.635 20.7534V33.2213H180.576V18.7084C180.558 18.0327 180.667 17.3593 180.9 16.7211C181.087 16.2187 181.399 15.7672 181.808 15.4048C182.217 15.0425 182.711 14.7801 183.249 14.6401C183.831 14.4817 184.434 14.4039 185.04 14.4091C185.835 14.3612 186.631 14.5027 187.356 14.8212C188.08 15.1397 188.711 15.6252 189.192 16.2341L198.575 26.9859C198.635 27.063 198.713 27.1242 198.804 27.1635C198.887 27.191 198.974 27.2044 199.061 27.2031C199.326 27.2031 199.459 27.0407 199.459 26.7133V14.8135H204.496L204.499 29.6517Z" fill="white"/>
<path d="M163.911 33.2164C162.371 33.2503 160.841 32.9764 159.418 32.4125C158.19 31.9055 157.086 31.1597 156.176 30.2225C154.931 28.8882 154.114 27.2394 153.821 25.4727C153.528 23.7061 153.773 21.8961 154.525 20.2587C155.062 19.1139 155.836 18.0854 156.8 17.235C157.68 16.459 158.708 15.8536 159.829 15.4523C161.138 15.0025 162.522 14.7852 163.912 14.8113H167.952C169.341 14.7853 170.723 15.0025 172.031 15.4523C173.152 15.8527 174.182 16.4582 175.062 17.235C176.025 18.0861 176.799 19.1145 177.337 20.2587C177.891 21.4389 178.172 22.7197 178.161 24.0135C178.187 25.7983 177.658 27.5502 176.64 29.0458C175.622 30.5415 174.162 31.7132 172.445 32.4117C171.022 32.9755 169.492 33.2493 167.952 33.2157L163.911 33.2164ZM163.911 19.6857C163.176 19.6641 162.443 19.7744 161.751 20.011C161.206 20.2146 160.705 20.5104 160.27 20.8844C159.83 21.2863 159.477 21.7677 159.231 22.3008C158.974 22.8486 158.843 23.4429 158.847 24.0434C158.844 24.5885 158.951 25.129 159.162 25.6353C159.364 26.1248 159.663 26.5723 160.042 26.9533C160.479 27.4011 161.012 27.7535 161.605 27.9861C162.339 28.2594 163.123 28.3891 163.911 28.3676H167.951C168.737 28.3887 169.521 28.259 170.255 27.9861C170.847 27.7533 171.379 27.401 171.816 26.9533C172.195 26.5711 172.495 26.1239 172.7 25.6353C172.908 25.1284 173.014 24.5882 173.012 24.0434C173.017 23.4427 172.885 22.8483 172.627 22.3008C172.381 21.768 172.028 21.2868 171.588 20.8844C171.154 20.5111 170.653 20.2153 170.11 20.011C169.417 19.7747 168.685 19.6644 167.951 19.6857H163.911Z" fill="white"/>
<path d="M137.942 14.8135V22.3565L146.702 15.5773C146.996 15.3515 147.264 15.0956 147.5 14.8142H154.694C154.633 14.9122 154.556 15.0001 154.466 15.0743C154.374 15.1569 154.278 15.2339 154.184 15.3053L143.603 23.1438C143.553 23.1783 143.512 23.2232 143.482 23.275C143.453 23.3269 143.436 23.3845 143.433 23.4434C143.436 23.5024 143.452 23.56 143.482 23.6119C143.511 23.6637 143.552 23.7084 143.603 23.7424L154.953 32.5367C155.084 32.6463 155.212 32.7546 155.337 32.8628C155.462 32.9742 155.581 33.0923 155.692 33.2165H148.01C147.751 32.9365 147.465 32.681 147.155 32.4535L137.941 25.0763V33.2165H132.738V14.8135H137.942Z" fill="white"/>
<path d="M95.0053 33.2164C94.0011 33.2385 92.9992 33.1145 92.0339 32.8487C91.2982 32.6454 90.6313 32.2608 90.0997 31.7333C89.5961 31.1989 89.239 30.5532 89.0603 29.8541C88.8397 28.9943 88.7345 28.1111 88.7472 27.2258V14.8092H93.9225V26.7652C93.869 27.2484 93.995 27.7342 94.2784 28.1373C94.4674 28.2811 94.6842 28.3876 94.9165 28.4509C95.1487 28.5141 95.3917 28.5327 95.6315 28.5057H108.966V33.2164H95.0053Z" fill="white"/>
<path d="M116.736 33.2164C115.731 33.2382 114.73 33.1143 113.764 32.8487C113.03 32.6439 112.363 32.2595 111.831 31.7333C111.328 31.199 110.972 30.5532 110.794 29.8541C110.571 28.9948 110.465 28.1113 110.481 27.2258V14.8092H115.654V26.7652C115.6 27.2489 115.727 27.7352 116.013 28.1373C116.201 28.2813 116.417 28.388 116.649 28.4513C116.881 28.5145 117.123 28.533 117.363 28.5057H130.701V33.2164H116.736Z" fill="white"/>
<path d="M87.7524 32.4051C87.8228 32.5379 87.8851 32.6745 87.9387 32.8143C87.9837 32.9399 88.0264 33.0759 88.067 33.2215H82.2641C82.2249 33.0939 82.1873 32.9801 82.1496 32.8823C82.1119 32.7845 82.0771 32.686 82.0372 32.5951L81.0132 30.3643H69.6349L68.6406 32.5688C68.6015 32.6784 68.5624 32.7866 68.5269 32.8955C68.4882 33.0016 68.4601 33.111 68.4428 33.2222H62.5C62.5358 33.0845 62.5789 32.9486 62.629 32.815C62.6796 32.6744 62.7412 32.5376 62.8131 32.4058L69.698 17.8138C70.1503 16.7823 70.8995 15.8951 71.8584 15.2555C72.8952 14.7014 74.063 14.4104 75.2505 14.4104C76.438 14.4104 77.6058 14.7014 78.6426 15.2555C79.607 15.8928 80.3613 16.7803 80.8168 17.8138L87.7524 32.4051ZM79.1333 26.307L76.1771 19.7172C76.101 19.5402 75.9715 19.3888 75.8053 19.2823C75.652 19.1898 75.4741 19.1416 75.2929 19.1435C75.1234 19.1429 74.9568 19.1855 74.8102 19.267C74.6366 19.3715 74.5054 19.5296 74.4385 19.7151L71.512 26.305L79.1333 26.307Z" fill="white"/>
<path d="M28.3938 47.6079C28.5783 47.2798 28.6744 46.9095 28.673 46.5332C28.6715 46.1568 28.5724 45.7872 28.3853 45.4606C28.2299 45.1902 28.0176 44.9568 27.7632 44.7765C27.5087 44.5963 27.218 44.4735 26.9114 44.4167C26.7514 44.379 26.5603 44.3432 26.3467 44.3084C26.0069 44.2528 25.6878 44.202 25.3773 44.154C24.1104 43.9534 23.11 43.7953 22.2497 43.5675C21.668 43.3955 21.0993 43.1819 20.5481 42.9283C20.5086 42.9105 20.471 42.8916 20.4334 42.87C20.1587 42.7114 19.9499 42.4598 19.8445 42.1607C19.7392 41.8616 19.7444 41.5346 19.8591 41.239C19.9738 40.9433 20.1905 40.6985 20.47 40.5487C20.7495 40.3989 21.0733 40.3541 21.3829 40.4223C22.3717 40.6895 23.3782 40.8867 24.3947 41.0126C25.6044 41.0913 26.8179 41.0913 28.0276 41.0126H28.0474C28.6576 41.8346 29.5041 42.4508 30.4738 42.7786C31.4436 43.1064 32.4902 43.1304 33.4738 42.8472C34.4575 42.564 35.3313 41.9871 35.9784 41.1938C36.6255 40.4005 37.015 39.4285 37.0949 38.4078L37.1099 38.4012C38.3957 37.7234 39.5862 36.8786 40.6506 35.8887C41.4628 35.0716 42.2563 34.0455 43.3941 32.6475C43.5523 32.4545 43.6661 32.3256 43.748 32.238C43.9528 31.9953 44.2375 31.8338 44.551 31.7827C44.8644 31.7316 45.1857 31.7944 45.457 31.9595C45.7282 32.1247 45.9314 32.3813 46.03 32.6832C46.1286 32.9852 46.116 33.3124 45.9945 33.6058V33.6134L45.9871 33.6322V33.6425C44.403 37.2195 41.9757 40.359 38.9131 42.7924C35.8506 45.2258 32.2439 46.8804 28.4022 47.6145L28.3938 47.6079Z" fill="white"/>
<path d="M28.4492 40.1138C28.9615 40.9981 29.7787 41.6652 30.7476 41.9899C31.7165 42.3147 32.7705 42.2747 33.7121 41.8777C34.6536 41.4806 35.418 40.7536 35.862 39.833C36.3059 38.9125 36.399 37.8616 36.1236 36.8773C36.0288 36.5382 35.8922 36.2122 35.717 35.9068C35.2057 35.0205 34.3882 34.3515 33.4185 34.0255C32.4488 33.6995 31.3935 33.7389 30.4508 34.1364C29.5081 34.5338 28.743 35.262 28.2992 36.1839C27.8554 37.1059 27.7635 38.1583 28.0408 39.1432C28.1348 39.4828 28.2717 39.8089 28.4483 40.1138" fill="white"/>
<path d="M5.76148 39.6118C6.10533 39.6082 6.44342 39.5228 6.74769 39.3625C7.05195 39.2023 7.31362 38.9719 7.51113 38.6903C7.70863 38.4088 7.83623 38.0842 7.88337 37.7435C7.9305 37.4028 7.89579 37.0558 7.78215 36.7312C7.73415 36.573 7.67114 36.3904 7.59396 36.1851C7.47161 35.8632 7.35392 35.5582 7.24286 35.2682C6.78263 34.0708 6.41938 33.1248 6.18692 32.2662C6.04455 31.6757 5.94483 31.0758 5.88855 30.471C5.88381 30.4279 5.88153 30.3845 5.88189 30.3411C5.88094 30.0236 5.99394 29.7163 6.20024 29.475C6.40655 29.2338 6.69259 29.0745 7.0063 29.0262C7.32002 28.9779 7.64059 29.0437 7.90991 29.2117C8.17922 29.3798 8.37932 29.6389 8.4739 29.9419C8.73754 30.9327 9.07026 31.9037 9.46964 32.848C10.0078 33.9343 10.6159 34.9846 11.2899 35.9922L11.3021 36.0101C10.8955 36.9495 10.7852 37.9907 10.9859 38.9945C11.1867 39.9983 11.6889 40.9168 12.4255 41.6275C13.1621 42.3382 14.098 42.8071 15.1082 42.9716C16.1183 43.1361 17.1547 42.9883 18.0786 42.548L18.0908 42.5583C19.3206 43.3337 20.6476 43.943 22.0371 44.3705C23.1496 44.6651 24.4343 44.8412 26.2131 45.1236C26.4587 45.1641 26.6272 45.1979 26.7439 45.2262C27.0595 45.2792 27.3456 45.4443 27.5496 45.691C27.7536 45.9377 27.8618 46.2497 27.8546 46.5698C27.8474 46.8899 27.7252 47.1967 27.5103 47.434C27.2954 47.6713 27.0023 47.8233 26.6846 47.8621H26.6752H26.6554H26.6442C22.7553 48.2794 18.8232 47.7464 15.1856 46.3091C11.548 44.8717 8.31347 42.5729 5.75964 39.6099L5.76148 39.6118Z" fill="white"/>
<path d="M12.2773 35.9125C11.742 36.8387 11.5797 37.9342 11.8234 38.976C12.0671 40.0178 12.6986 40.9275 13.5892 41.52C14.4799 42.1125 15.5629 42.3432 16.6176 42.1652C17.6724 41.9872 18.6196 41.4138 19.2666 40.5618C19.9136 39.7098 20.2117 38.6432 20.1001 37.5791C19.9886 36.515 19.4758 35.5335 18.6662 34.8343C17.8566 34.135 16.8111 33.7706 15.7424 33.8153C14.6736 33.86 13.662 34.3103 12.9136 35.0747C12.6673 35.3262 12.4535 35.6077 12.2773 35.9125Z" fill="white"/>
<path d="M1.36618 16.0011C1.54111 16.2973 1.78404 16.5475 2.07493 16.7311C2.36582 16.9146 2.69625 17.0262 3.03885 17.0566C3.38144 17.0869 3.7263 17.0352 4.04493 16.9057C4.36356 16.7761 4.64682 16.5725 4.8711 16.3117C4.98215 16.1922 5.10924 16.0453 5.24759 15.8749C5.46594 15.6067 5.67108 15.3543 5.86684 15.1133C6.67248 14.1155 7.30961 13.3248 7.93737 12.6969C8.37688 12.2781 8.84625 11.8917 9.34165 11.5408C9.37678 11.5154 9.41319 11.4918 9.4508 11.4702C9.72537 11.3122 10.0474 11.2576 10.3587 11.3162C10.6699 11.3748 10.95 11.5428 11.1484 11.7898C11.3467 12.0369 11.4503 12.3467 11.4403 12.6634C11.4304 12.98 11.3075 13.2827 11.0941 13.5168C10.3679 14.2401 9.69398 15.014 9.07718 15.8326C8.40542 16.8422 7.79989 17.8944 7.26446 18.9825L7.25596 19.0013C6.23878 19.119 5.28181 19.5445 4.51287 20.2208C3.74393 20.8972 3.19969 21.7922 2.95291 22.7862C2.70613 23.7802 2.76851 24.8259 3.13179 25.7835C3.49508 26.741 4.14193 27.5649 4.98587 28.1449V28.1609C4.92913 29.614 5.06497 31.0682 5.38971 32.4856C5.69182 33.5974 6.18214 34.7976 6.82214 36.4827C6.91626 36.7162 6.96517 36.88 6.99999 36.9948C7.10852 37.2937 7.10649 37.6217 6.99424 37.9192C6.882 38.2167 6.66699 38.4642 6.38809 38.6169C6.10919 38.7696 5.78487 38.8173 5.4738 38.7515C5.16274 38.6857 4.88543 38.5107 4.69221 38.2581L4.6875 38.2506L4.67624 38.2346L4.66878 38.2252C4.14769 37.5106 3.66595 36.768 3.22589 36.0008C1.48955 32.9995 0.424145 29.6575 0.10309 26.2049C-0.217964 22.7523 0.213007 19.2712 1.36618 16.0011Z" fill="white"/>
<path d="M7.82716 19.7974C6.75821 19.7971 5.72928 20.2043 4.94988 20.936C4.17048 21.6677 3.69917 22.669 3.63187 23.7361C3.56458 24.8031 3.90645 25.8558 4.58775 26.6796C5.26905 27.5035 6.23861 28.0367 7.29913 28.1708C8.35965 28.3048 9.43135 28.0296 10.2961 27.4011C11.1609 26.7726 11.7537 25.8381 11.9539 24.7878C12.154 23.7375 11.9466 22.6504 11.3737 21.7478C10.8007 20.8452 9.90544 20.1949 8.87001 19.9292C8.52929 19.8418 8.17891 19.7975 7.82716 19.7974Z" fill="white"/>
<path d="M19.6052 0.385856C19.422 0.712781 19.3263 1.08149 19.3275 1.45623C19.3273 1.95976 19.5033 2.44748 19.8249 2.83486C20.1466 3.22223 20.5935 3.48484 21.0884 3.57715C21.2493 3.6148 21.4394 3.65057 21.6531 3.6854C21.9938 3.74094 22.3119 3.79178 22.6216 3.83979C23.8884 4.0403 24.8888 4.19844 25.7491 4.42625C26.3307 4.59869 26.8994 4.81231 27.4507 5.06547C27.4901 5.0829 27.5285 5.10269 27.5656 5.12476C27.8417 5.28243 28.0519 5.53399 28.1582 5.83367C28.2645 6.13335 28.2598 6.46126 28.1447 6.7577C28.0297 7.05414 27.8122 7.2994 27.5316 7.44891C27.251 7.59842 26.926 7.64227 26.6159 7.57239C25.627 7.30537 24.6206 7.10812 23.6041 6.98213C22.3943 6.90483 21.1808 6.90641 19.9712 6.98684H19.9505C19.3406 6.16431 18.4941 5.54772 17.5243 5.21957C16.5544 4.89142 15.5075 4.86735 14.5236 5.15062C13.5397 5.43388 12.6657 6.01093 12.0187 6.80458C11.3717 7.59824 10.9824 8.57062 10.903 9.59161L10.888 9.59822C9.60211 10.2759 8.41159 11.1207 7.34731 12.1108C6.53508 12.9279 5.74258 13.954 4.60376 15.351C4.44564 15.544 4.33178 15.673 4.2499 15.7605C4.0451 16.0032 3.76035 16.1647 3.44694 16.2157C3.13354 16.2668 2.81217 16.2042 2.54093 16.039C2.26969 15.8739 2.06645 15.6171 1.96786 15.3152C1.86928 15.0133 1.88187 14.6861 2.00336 14.3927V14.3852L2.01083 14.3663L2.01658 14.356C2.37462 13.5471 2.77641 12.7583 3.22027 11.9931C4.94964 8.98827 7.31014 6.39443 10.1389 4.39051C12.9676 2.3866 16.1973 1.0203 19.6052 0.385856Z" fill="white"/>
<path d="M19.5524 7.8817C19.0184 6.95347 18.1509 6.26365 17.1264 5.95268C16.1019 5.64171 14.9975 5.73297 14.0378 6.20785C13.0782 6.68274 12.3355 7.50558 11.9611 8.50884C11.5867 9.51211 11.6086 10.6204 12.0223 11.6081C12.4361 12.5958 13.2106 13.3886 14.1882 13.8252C15.1658 14.2618 16.273 14.3094 17.2845 13.9582C18.2959 13.607 19.1356 12.8834 19.6325 11.9349C20.1293 10.9863 20.2461 9.88394 19.959 8.85227C19.8639 8.51323 19.7274 8.18723 19.5524 7.8817Z" fill="white"/>
<path d="M42.2375 8.38248C41.8935 8.38574 41.5552 8.47093 41.2507 8.63104C40.9462 8.79116 40.6842 9.02159 40.4865 9.30318C40.2888 9.58477 40.161 9.90946 40.1138 10.2503C40.0666 10.5911 40.1012 10.9383 40.2149 11.2631C40.2629 11.4213 40.327 11.6039 40.4032 11.8091C40.5256 12.1311 40.6431 12.4361 40.7542 12.726C41.2144 13.9235 41.5778 14.8705 41.8102 15.729C41.9529 16.3191 42.0526 16.9188 42.1086 17.5233C42.1137 17.5664 42.1161 17.6098 42.1161 17.6532C42.1163 17.9704 42.0029 18.2772 41.7965 18.518C41.5901 18.7587 41.3043 18.9176 40.9909 18.9659C40.6774 19.0141 40.3572 18.9485 40.0879 18.7809C39.8187 18.6134 39.6183 18.3549 39.5231 18.0523C39.2599 17.0622 38.9275 16.0918 38.5283 15.1482C37.9909 14.0609 37.3829 13.0099 36.7081 12.0021L36.6958 11.9842C37.1025 11.0448 37.2128 10.0037 37.012 8.99986C36.8113 7.99607 36.3091 7.07745 35.5725 6.36677C34.8359 5.65609 33.9 5.18714 32.8898 5.02267C31.8797 4.85819 30.8434 5.00599 29.9195 5.4463L29.9072 5.43596C28.6779 4.66075 27.3517 4.05144 25.9628 3.62381C24.8485 3.32916 23.5647 3.15313 21.7868 2.87072C21.5402 2.83024 21.3708 2.79634 21.255 2.7681C20.9422 2.71242 20.6597 2.54665 20.4585 2.3008C20.2572 2.05495 20.1506 1.74522 20.1578 1.42756C20.165 1.1099 20.2854 0.805277 20.4975 0.568748C20.7097 0.332218 20.9993 0.179394 21.3143 0.137877H21.3237H21.3435H21.3548C25.2438 -0.279318 29.176 0.253614 32.8137 1.69095C36.4515 3.12828 39.6862 5.42707 42.2403 8.39001L42.2375 8.38248Z" fill="white"/>
<path d="M35.718 12.0825C36.2525 11.1563 36.414 10.0611 36.1696 9.02001C35.9253 7.97888 35.2935 7.07003 34.4028 6.47844C33.5121 5.88685 32.4295 5.65698 31.3753 5.83566C30.3212 6.01435 29.3747 6.58813 28.7286 7.44022C28.0825 8.2923 27.7854 9.35862 27.8976 10.4221C28.0099 11.4857 28.5231 12.4664 29.3328 13.1648C30.1426 13.8632 31.1879 14.2266 32.2562 14.1812C33.3244 14.1357 34.3351 13.6849 35.0827 12.9203C35.3287 12.6688 35.5422 12.3873 35.718 12.0825Z" fill="white"/>
<path d="M46.6319 31.9932C46.4402 31.6692 46.1675 31.4006 45.8407 31.214C45.5138 31.0273 45.1439 30.9289 44.7675 30.9285C44.456 30.9278 44.148 30.9948 43.8649 31.1248C43.5818 31.2548 43.3303 31.4448 43.1279 31.6816C43.0159 31.8012 42.888 31.948 42.7515 32.1184C42.5332 32.3858 42.3289 32.639 42.1341 32.88C41.3275 33.8779 40.6903 34.6686 40.0635 35.2975C39.6241 35.7164 39.1548 36.1028 38.6593 36.4534C38.6246 36.479 38.5884 36.5026 38.5511 36.5241C38.2765 36.6831 37.954 36.7385 37.6422 36.6802C37.3303 36.6219 37.0498 36.4537 36.8512 36.2063C36.6526 35.9588 36.5491 35.6484 36.5597 35.3312C36.5703 35.0141 36.6941 34.7112 36.9087 34.4775C37.6352 33.7545 38.3092 32.9806 38.9256 32.1617C39.5974 31.1522 40.203 30.1 40.7383 29.0119L40.7468 28.993C41.764 28.8753 42.721 28.4498 43.4899 27.7734C44.2589 27.0971 44.8031 26.2021 45.0499 25.2081C45.2967 24.2141 45.2343 23.1684 44.871 22.2109C44.5077 21.2533 43.8609 20.4294 43.0169 19.8494V19.8334C43.0737 18.3803 42.9378 16.9261 42.6131 15.5087C42.311 14.3969 41.8206 13.1966 41.1806 11.5116C41.0922 11.279 41.0376 11.1153 41.0028 11.0004C40.8943 10.7015 40.8963 10.3736 41.0085 10.076C41.1208 9.77851 41.3358 9.53102 41.6147 9.37834C41.8936 9.22566 42.2179 9.17792 42.529 9.24372C42.84 9.30952 43.1174 9.4845 43.3106 9.73705L43.3162 9.74458L43.3275 9.76061L43.335 9.76905C43.8551 10.4842 44.3364 11.2268 44.7769 11.9936C46.5126 14.9951 47.5773 18.3372 47.8975 21.7899C48.2178 25.2425 47.786 28.7235 46.6319 31.9932Z" fill="white"/>
<path d="M40.1716 28.1985C41.2415 28.1996 42.2717 27.7929 43.0523 27.0611C43.833 26.3293 44.3054 25.3275 44.3735 24.2595C44.4417 23.1915 44.1005 22.1377 43.4193 21.3126C42.738 20.4874 41.7679 19.953 40.7065 19.818C39.6452 19.6831 38.5723 19.9577 37.7063 20.5861C36.8403 21.2145 36.2462 22.1493 36.045 23.2004C35.8438 24.2514 36.0506 25.3397 36.6234 26.2436C37.1961 27.1475 38.0917 27.7991 39.1278 28.0658C39.4688 28.1536 39.8195 28.1982 40.1716 28.1985Z" fill="white"/>
</svg>
