<svg width="143" height="24" viewBox="0 0 143 24" fill="none" xmlns="http://www.w3.org/2000/svg">
<path d="M140.811 9.0369H131.664C131.495 9.03066 131.327 9.05306 131.166 9.10318C131.057 9.14073 130.957 9.20124 130.874 9.28059C130.787 9.36626 130.719 9.46863 130.674 9.58142C130.629 9.6942 130.608 9.815 130.611 9.93632C130.608 10.0656 130.636 10.1938 130.691 10.3107C130.746 10.4277 130.828 10.5302 130.931 10.6102C131.011 10.6749 131.104 10.7224 131.203 10.7494C131.354 10.7864 131.509 10.8025 131.664 10.7971H137.254C137.874 10.7799 138.492 10.8848 139.071 11.1057C139.541 11.2936 139.967 11.577 140.321 11.9378C140.659 12.2861 140.93 12.6923 141.122 13.1368C141.497 14.0132 141.51 15.0011 141.159 15.887C140.995 16.3029 140.764 16.6889 140.473 17.0292C140.11 17.436 139.664 17.7612 139.164 17.983C138.56 18.2357 137.909 18.3566 137.254 18.3373H127.391V15.0997H136.651C136.859 15.1081 137.066 15.0793 137.263 15.0148C137.397 14.9656 137.516 14.8857 137.612 14.7816C137.75 14.6193 137.823 14.4128 137.818 14.2007C137.823 14.0767 137.802 13.953 137.757 13.8372C137.712 13.7214 137.644 13.6158 137.557 13.5269C137.468 13.427 137.354 13.3528 137.226 13.3118C137.038 13.2617 136.844 13.2401 136.65 13.2479H131.475C130.774 13.272 130.075 13.1669 129.413 12.9379C128.928 12.7557 128.488 12.4719 128.123 12.1057C127.788 11.7617 127.52 11.3583 127.333 10.9163C127.142 10.4567 127.045 9.9632 127.051 9.46563C127.047 8.96989 127.147 8.47883 127.344 8.0235C127.534 7.57923 127.805 7.17358 128.142 6.82695C128.505 6.46171 128.941 6.17752 129.423 5.99334C130.081 5.76384 130.777 5.65887 131.474 5.68384H140.808L140.811 9.0369Z" fill="#414B4F"/>
<path d="M125.624 15.8856C125.634 16.3031 125.566 16.7188 125.424 17.1122C125.311 17.4272 125.131 17.7144 124.897 17.9543C124.682 18.1703 124.422 18.3364 124.135 18.4408C123.846 18.5473 123.54 18.6009 123.232 18.5991C122.748 18.6093 122.266 18.5301 121.811 18.3654C121.397 18.2061 121.031 17.9453 120.746 17.6072L113.762 9.57813C113.728 9.53031 113.683 9.49053 113.631 9.46155C113.58 9.43257 113.522 9.41509 113.463 9.41026C113.421 9.40999 113.379 9.41831 113.34 9.43471C113.301 9.45112 113.266 9.47526 113.237 9.50565C113.204 9.54076 113.179 9.58206 113.162 9.62712C113.146 9.67217 113.138 9.72006 113.141 9.76794V18.3397H109.793V8.36205C109.781 7.89747 109.853 7.43454 110.007 6.99574C110.131 6.65039 110.337 6.33992 110.608 6.09082C110.879 5.84172 111.206 5.66135 111.562 5.56505C111.947 5.45619 112.346 5.40271 112.747 5.40624C113.273 5.3733 113.8 5.47064 114.279 5.68961C114.759 5.90857 115.176 6.2423 115.494 6.66095L121.704 14.0528C121.743 14.1058 121.795 14.1479 121.856 14.1749C121.91 14.1938 121.968 14.203 122.025 14.2021C122.201 14.2021 122.289 14.0905 122.289 13.8654V5.68428H125.622L125.624 15.8856Z" fill="#414B4F"/>
<path d="M98.7644 18.3363C97.7454 18.3596 96.7327 18.1713 95.7909 17.7836C94.9786 17.435 94.2481 16.9223 93.6457 16.278C92.822 15.3606 92.2811 14.2271 92.0874 13.0125C91.8937 11.7979 92.0554 10.5536 92.5532 9.42783C92.9085 8.64083 93.4206 7.93368 94.0586 7.34906C94.6407 6.81554 95.3214 6.39932 96.0629 6.12344C96.9292 5.81418 97.8451 5.66485 98.7654 5.68278H101.439C102.358 5.66486 103.273 5.8142 104.138 6.12344C104.88 6.3987 105.561 6.81499 106.144 7.34906C106.781 7.93417 107.293 8.6412 107.649 9.42783C108.016 10.2392 108.202 11.1198 108.195 12.0093C108.212 13.2364 107.861 14.4407 107.188 15.469C106.514 16.4972 105.548 17.3028 104.412 17.7831C103.47 18.1707 102.458 18.3589 101.439 18.3358L98.7644 18.3363ZM98.7644 9.03392C98.278 9.01904 97.7931 9.0949 97.3348 9.25758C96.9745 9.39751 96.6426 9.60092 96.355 9.85801C96.0635 10.1344 95.8299 10.4653 95.6677 10.8318C95.4976 11.2084 95.4107 11.617 95.413 12.0298C95.4113 12.4046 95.4821 12.7762 95.6216 13.1243C95.7554 13.4608 95.9532 13.7684 96.2043 14.0304C96.4936 14.3383 96.8463 14.5805 97.2383 14.7405C97.7243 14.9283 98.2432 15.0175 98.7644 15.0028H101.438C101.958 15.0173 102.477 14.9281 102.962 14.7405C103.354 14.5804 103.707 14.3382 103.996 14.0304C104.246 13.7676 104.445 13.4602 104.581 13.1243C104.719 12.7758 104.789 12.4044 104.787 12.0298C104.79 11.6169 104.703 11.2082 104.533 10.8318C104.37 10.4655 104.136 10.1346 103.845 9.85801C103.557 9.6014 103.226 9.39803 102.866 9.25758C102.408 9.09512 101.924 9.01927 101.438 9.03392H98.7644Z" fill="#414B4F"/>
<path d="M81.579 5.6843V10.8701L87.3764 6.20936C87.571 6.05414 87.7479 5.87822 87.904 5.68476H92.665C92.6247 5.75215 92.5737 5.81256 92.5139 5.8636C92.4535 5.92035 92.3897 5.97329 92.3273 6.02241L85.3252 11.4114C85.2921 11.4351 85.2648 11.4659 85.2454 11.5016C85.226 11.5373 85.2149 11.5768 85.213 11.6174C85.2145 11.6579 85.2255 11.6975 85.2449 11.7332C85.2644 11.7688 85.2919 11.7995 85.3252 11.8229L92.8362 17.869C92.923 17.9443 93.0074 18.0188 93.0904 18.0931C93.1733 18.1697 93.2518 18.2509 93.3254 18.3364H88.2416C88.0705 18.1439 87.8812 17.9682 87.6762 17.8118L81.5781 12.74V18.3364H78.135V5.6843H81.579Z" fill="#414B4F"/>
<path d="M53.1652 18.3363C52.5007 18.3515 51.8377 18.2662 51.1989 18.0835C50.712 17.9437 50.2707 17.6793 49.9188 17.3167C49.5856 16.9492 49.3493 16.5053 49.2311 16.0247C49.0851 15.4336 49.0155 14.8264 49.0239 14.2178V5.68134H52.4487V13.9011C52.4133 14.2333 52.4967 14.5673 52.6842 14.8444C52.8093 14.9433 52.9528 15.0165 53.1064 15.06C53.2601 15.1034 53.4209 15.1162 53.5796 15.0977H62.4042V18.3363H53.1652Z" fill="#414B4F"/>
<path d="M67.5456 18.3363C66.8811 18.3513 66.2181 18.2661 65.5792 18.0835C65.0931 17.9427 64.6523 17.6784 64.3001 17.3167C63.9671 16.9493 63.7313 16.5053 63.6139 16.0247C63.466 15.4339 63.3962 14.8265 63.4062 14.2178V5.68134H66.83V13.9011C66.7941 14.2336 66.8783 14.568 67.0674 14.8444C67.192 14.9434 67.3351 15.0168 67.4884 15.0602C67.6417 15.1037 67.8022 15.1164 67.9605 15.0977H76.7875V18.3363H67.5456Z" fill="#414B4F"/>
<path d="M48.3655 17.7785C48.4121 17.8698 48.4533 17.9637 48.4887 18.0599C48.5185 18.1462 48.5468 18.2397 48.5736 18.3398H44.7334C44.7076 18.2521 44.6826 18.1738 44.6577 18.1066C44.6328 18.0394 44.6097 17.9716 44.5833 17.9092L43.9057 16.3755H36.3759L35.718 17.891C35.6921 17.9664 35.6662 18.0408 35.6427 18.1157C35.6171 18.1886 35.5985 18.2638 35.587 18.3403H31.6543C31.678 18.2456 31.7065 18.1522 31.7397 18.0603C31.7732 17.9637 31.8139 17.8696 31.8615 17.779L36.4177 7.74697C36.717 7.03782 37.2128 6.42786 37.8473 5.98818C38.5335 5.60719 39.3063 5.40717 40.0921 5.40717C40.878 5.40717 41.6508 5.60719 42.3369 5.98818C42.9751 6.42629 43.4743 7.03646 43.7757 7.74697L48.3655 17.7785ZM42.6616 13.5861L40.7053 9.05558C40.6549 8.93386 40.5693 8.82977 40.4593 8.75656C40.3578 8.69301 40.2401 8.65988 40.1202 8.66117C40.008 8.66074 39.8977 8.69007 39.8008 8.74608C39.6858 8.8179 39.5991 8.92659 39.5547 9.05415L37.6181 13.5847L42.6616 13.5861Z" fill="#414B4F"/>
<path d="M14.1968 23.8039C14.2891 23.6399 14.3372 23.4548 14.3364 23.2666C14.3357 23.0784 14.2861 22.8936 14.1926 22.7303C14.1149 22.5951 14.0088 22.4784 13.8815 22.3883C13.7543 22.2981 13.6089 22.2368 13.4556 22.2083C13.3756 22.1895 13.2801 22.1716 13.1733 22.1542C13.0034 22.1264 12.8439 22.101 12.6886 22.077C12.0552 21.9767 11.5549 21.8977 11.1248 21.7837C10.8339 21.6977 10.5496 21.591 10.274 21.4642C10.2542 21.4552 10.2354 21.4458 10.2166 21.435C10.0793 21.3557 9.97487 21.2299 9.92221 21.0804C9.86955 20.9308 9.87215 20.7673 9.92951 20.6195C9.98686 20.4717 10.0952 20.3492 10.2349 20.2743C10.3747 20.1995 10.5366 20.177 10.6914 20.2112C11.1858 20.3448 11.689 20.4434 12.1973 20.5063C12.8021 20.5456 13.4089 20.5456 14.0138 20.5063H14.0236C14.3287 20.9173 14.752 21.2254 15.2369 21.3893C15.7217 21.5532 16.245 21.5652 16.7369 21.4236C17.2287 21.282 17.6656 20.9936 17.9891 20.5969C18.3127 20.2003 18.5074 19.7143 18.5474 19.2039L18.5549 19.2006C19.1978 18.8617 19.793 18.4393 20.3252 17.9443C20.7313 17.5358 21.1281 17.0227 21.697 16.3238C21.7761 16.2273 21.833 16.1628 21.8739 16.119C21.9763 15.9976 22.1187 15.9169 22.2754 15.8914C22.4321 15.8658 22.5928 15.8972 22.7284 15.9798C22.864 16.0623 22.9657 16.1907 23.015 16.3416C23.0642 16.4926 23.058 16.6562 22.9972 16.8029V16.8067L22.9935 16.8161V16.8213C22.2015 18.6097 20.9878 20.1795 19.4565 21.3962C17.9252 22.6129 16.1219 23.4402 14.201 23.8073L14.1968 23.8039Z" fill="#414B4F"/>
<path d="M14.2244 20.0569C14.4806 20.4991 14.8892 20.8326 15.3736 20.995C15.858 21.1573 16.3851 21.1374 16.8558 20.9388C17.3266 20.7403 17.7088 20.3768 17.9308 19.9165C18.1528 19.4562 18.1993 18.9308 18.0616 18.4387C18.0142 18.2691 17.9459 18.1061 17.8583 17.9534C17.6026 17.5102 17.1939 17.1757 16.7091 17.0127C16.2242 16.8497 15.6966 16.8695 15.2252 17.0682C14.7539 17.2669 14.3713 17.631 14.1494 18.092C13.9275 18.5529 13.8816 19.0791 14.0202 19.5716C14.0672 19.7414 14.1357 19.9045 14.224 20.0569" fill="#414B4F"/>
<path d="M2.8808 19.8059C3.05273 19.8041 3.22177 19.7614 3.37391 19.6813C3.52604 19.6011 3.65687 19.4859 3.75562 19.3452C3.85438 19.2044 3.91818 19.0421 3.94174 18.8718C3.96531 18.7014 3.94796 18.5279 3.89114 18.3656C3.86714 18.2865 3.83563 18.1952 3.79704 18.0926C3.73587 17.9316 3.67702 17.7791 3.62149 17.6341C3.39137 17.0354 3.20975 16.5624 3.09352 16.1331C3.02234 15.8379 2.97248 15.5379 2.94434 15.2355C2.94197 15.2139 2.94083 15.1922 2.941 15.1706C2.94053 15.0118 2.99703 14.8582 3.10018 14.7375C3.20334 14.6169 3.34635 14.5373 3.50321 14.5131C3.66007 14.4889 3.82036 14.5218 3.95501 14.6059C4.08967 14.6899 4.18972 14.8194 4.23701 14.971C4.36883 15.4664 4.53519 15.9519 4.73488 16.424C5.00397 16.9671 5.30802 17.4923 5.64503 17.9961L5.65112 18.005C5.44781 18.4747 5.39266 18.9953 5.49303 19.4972C5.5934 19.9991 5.84451 20.4584 6.21281 20.8138C6.58112 21.1691 7.04907 21.4036 7.55414 21.4858C8.05921 21.568 8.5774 21.4941 9.03937 21.274L9.04546 21.2792C9.66038 21.6668 10.3238 21.9715 11.0186 22.1852C11.5748 22.3326 12.2172 22.4206 13.1066 22.5618C13.2294 22.582 13.3136 22.599 13.372 22.6131C13.5298 22.6396 13.6729 22.7221 13.7749 22.8455C13.8768 22.9689 13.931 23.1249 13.9274 23.2849C13.9238 23.4449 13.8626 23.5983 13.7552 23.717C13.6478 23.8356 13.5012 23.9116 13.3424 23.931H13.3377H13.3278H13.3221C11.3777 24.1397 9.41167 23.8732 7.59286 23.1545C5.77404 22.4359 4.1568 21.2864 2.87988 19.8049L2.8808 19.8059Z" fill="#414B4F"/>
<path d="M6.13873 17.9562C5.87104 18.4194 5.78991 18.9671 5.91176 19.488C6.03362 20.0089 6.34935 20.4638 6.79468 20.76C7.24002 21.0562 7.78149 21.1716 8.30886 21.0826C8.83624 20.9936 9.30986 20.7069 9.63336 20.2809C9.95686 19.8549 10.1059 19.3216 10.0501 18.7896C9.99435 18.2575 9.73795 17.7668 9.33316 17.4171C8.92836 17.0675 8.40562 16.8853 7.87125 16.9077C7.33689 16.93 6.83108 17.1551 6.45685 17.5373C6.33369 17.6631 6.2268 17.8038 6.13873 17.9562Z" fill="#414B4F"/>
<path d="M0.68309 8.00056C0.770556 8.14866 0.89202 8.27376 1.03746 8.36553C1.18291 8.45731 1.34813 8.5131 1.51942 8.52828C1.69072 8.54346 1.86315 8.5176 2.02246 8.45284C2.18178 8.38807 2.32341 8.28627 2.43555 8.15587C2.49108 8.09609 2.55462 8.02267 2.62379 7.93747C2.73297 7.80333 2.83554 7.67717 2.93342 7.55667C3.33624 7.05774 3.6548 6.66238 3.96868 6.34843C4.18844 6.13903 4.42312 5.94585 4.67083 5.77041C4.68839 5.7577 4.7066 5.74591 4.7254 5.73511C4.86269 5.65611 5.02368 5.62881 5.17933 5.65811C5.33497 5.68742 5.47502 5.77141 5.5742 5.89492C5.67337 6.01844 5.72514 6.17335 5.72017 6.33169C5.71519 6.49002 5.65377 6.64136 5.54703 6.75839C5.18396 7.12006 4.84699 7.507 4.53859 7.9163C4.20271 8.4211 3.89994 8.94719 3.63223 9.49123L3.62798 9.50063C3.11939 9.55951 2.64091 9.77225 2.25644 10.1104C1.87197 10.4486 1.59985 10.8961 1.47646 11.3931C1.35306 11.8901 1.38426 12.4129 1.5659 12.8917C1.74754 13.3705 2.07097 13.7824 2.49294 14.0725V14.0805C2.46456 14.807 2.53248 15.5341 2.69485 16.2428C2.84591 16.7987 3.09107 17.3988 3.41107 18.2414C3.45813 18.3581 3.48258 18.44 3.49999 18.4974C3.55426 18.6469 3.55325 18.8108 3.49712 18.9596C3.441 19.1084 3.3335 19.2321 3.19405 19.3084C3.05459 19.3848 2.89243 19.4087 2.7369 19.3758C2.58137 19.3429 2.44272 19.2553 2.34611 19.1291L2.34375 19.1253L2.33812 19.1173L2.33439 19.1126C2.07384 18.7553 1.83298 18.384 1.61294 18.0004C0.744777 16.4998 0.212073 14.8288 0.0515452 13.1025C-0.108982 11.3762 0.106504 9.63558 0.68309 8.00056Z" fill="#414B4F"/>
<path d="M3.91358 9.8987C3.37911 9.89855 2.86464 10.1021 2.47494 10.468C2.08524 10.8339 1.84958 11.3345 1.81594 11.868C1.78229 12.4016 1.95323 12.9279 2.29388 13.3398C2.63452 13.7518 3.11931 14.0184 3.64956 14.0854C4.17982 14.1524 4.71568 14.0148 5.14806 13.7005C5.58045 13.3863 5.87684 12.919 5.97693 12.3939C6.07702 11.8688 5.9733 11.3252 5.68683 10.8739C5.40037 10.4226 4.95272 10.0974 4.435 9.96461C4.26465 9.92088 4.08946 9.89874 3.91358 9.8987Z" fill="#414B4F"/>
<path d="M9.80246 0.192936C9.71089 0.356399 9.66305 0.540751 9.66361 0.728121C9.66352 0.979889 9.75154 1.22375 9.91235 1.41744C10.0732 1.61112 10.2966 1.74243 10.5441 1.78858C10.6245 1.80741 10.7196 1.82529 10.8264 1.84271C10.9968 1.87048 11.1558 1.8959 11.3107 1.9199C11.9441 2.02016 12.4443 2.09923 12.8744 2.21313C13.1652 2.29935 13.4496 2.40616 13.7252 2.53274C13.7449 2.54146 13.7641 2.55135 13.7827 2.56239C13.9207 2.64122 14.0258 2.767 14.079 2.91684C14.1321 3.06668 14.1298 3.23064 14.0722 3.37886C14.0147 3.52708 13.906 3.64971 13.7657 3.72446C13.6254 3.79922 13.4629 3.82114 13.3078 3.7862C12.8134 3.65269 12.3102 3.55407 11.8019 3.49107C11.197 3.45242 10.5903 3.45321 9.98547 3.49343H9.97513C9.67018 3.08216 9.24695 2.77387 8.76202 2.60979C8.2771 2.44572 7.75363 2.43368 7.26169 2.57532C6.76974 2.71695 6.33274 3.00547 6.00922 3.4023C5.68571 3.79913 5.49108 4.28532 5.45138 4.79581L5.44386 4.79912C4.80093 5.13795 4.20567 5.56037 3.67353 6.05539C3.26742 6.46395 2.87117 6.97701 2.30176 7.67552C2.2227 7.77201 2.16577 7.83649 2.12483 7.88026C2.02243 8.00162 1.88005 8.08235 1.72335 8.10788C1.56665 8.13342 1.40596 8.10208 1.27034 8.01951C1.13472 7.93694 1.0331 7.80857 0.98381 7.65762C0.934517 7.50666 0.940813 7.34307 1.00156 7.19635V7.19259L1.00529 7.18316L1.00817 7.17799C1.18719 6.77354 1.38808 6.37914 1.61001 5.99656C2.4747 4.49415 3.65495 3.19722 5.06932 2.19527C6.48369 1.19331 8.09854 0.510156 9.80246 0.192936Z" fill="#414B4F"/>
<path d="M9.77619 3.94085C9.50922 3.47674 9.07545 3.13183 8.56319 2.97634C8.05093 2.82086 7.49873 2.86648 7.01891 3.10393C6.5391 3.34137 6.16777 3.75279 5.98055 4.25442C5.79333 4.75605 5.80428 5.3102 6.01116 5.80405C6.21804 6.29789 6.60529 6.6943 7.09411 6.9126C7.58292 7.1309 8.13652 7.15468 8.64224 6.97908C9.14796 6.80348 9.56779 6.44172 9.81623 5.96743C10.0647 5.49313 10.123 4.94197 9.97949 4.42613C9.93197 4.25661 9.86368 4.09362 9.77619 3.94085Z" fill="#414B4F"/>
<path d="M21.1186 4.19125C20.9466 4.19288 20.7775 4.23547 20.6252 4.31553C20.473 4.39559 20.342 4.5108 20.2431 4.6516C20.1443 4.7924 20.0804 4.95474 20.0568 5.12516C20.0332 5.29558 20.0505 5.46918 20.1073 5.63156C20.1313 5.71064 20.1634 5.80196 20.2015 5.90457C20.2627 6.06555 20.3214 6.21805 20.377 6.36302C20.6071 6.96174 20.7888 7.43526 20.905 7.86452C20.9763 8.15957 21.0262 8.45941 21.0542 8.76166C21.0567 8.78322 21.0579 8.80491 21.0579 8.82662C21.058 8.98521 21.0013 9.13859 20.8981 9.25899C20.7949 9.37938 20.652 9.45883 20.4953 9.48295C20.3386 9.50708 20.1785 9.47426 20.0438 9.39048C19.9092 9.30669 19.809 9.17745 19.7615 9.02617C19.6298 8.5311 19.4636 8.04589 19.264 7.57411C18.9953 7.03046 18.6913 6.50496 18.3539 6.00104L18.3478 5.99211C18.5511 5.5224 18.6063 5.00183 18.5059 4.49994C18.4055 3.99804 18.1544 3.53873 17.7861 3.18339C17.4178 2.82805 16.9499 2.59358 16.4448 2.51134C15.9397 2.4291 15.4216 2.50301 14.9596 2.72316L14.9535 2.71799C14.3388 2.33038 13.6757 2.02573 12.9813 1.81191C12.4241 1.66459 11.7822 1.57657 10.8933 1.43537C10.77 1.41513 10.6853 1.39818 10.6274 1.38406C10.471 1.35622 10.3297 1.27333 10.2291 1.15041C10.1285 1.02748 10.0752 0.87262 10.0788 0.713789C10.0824 0.554958 10.1426 0.402646 10.2486 0.284382C10.3547 0.166117 10.4995 0.0897045 10.657 0.0689459H10.6617H10.6716H10.6773C12.6218 -0.139651 14.5879 0.126815 16.4068 0.845481C18.2256 1.56415 19.843 2.71354 21.12 4.19501L21.1186 4.19125Z" fill="#414B4F"/>
<path d="M17.8588 6.04126C18.1261 5.57815 18.2068 5.03058 18.0846 4.51002C17.9625 3.98946 17.6465 3.53503 17.2012 3.23924C16.7558 2.94344 16.2146 2.82851 15.6875 2.91785C15.1604 3.00719 14.6872 3.29408 14.3641 3.72012C14.0411 4.14617 13.8925 4.67933 13.9486 5.21108C14.0048 5.74284 14.2614 6.23324 14.6662 6.58242C15.0711 6.9316 15.5938 7.11331 16.1279 7.0906C16.662 7.06789 17.1674 6.84247 17.5412 6.46018C17.6642 6.33439 17.7709 6.19365 17.8588 6.04126Z" fill="#414B4F"/>
<path d="M23.3158 15.9966C23.2199 15.8346 23.0836 15.7003 22.9201 15.607C22.7567 15.5136 22.5718 15.4645 22.3836 15.4643C22.2278 15.4639 22.0738 15.4974 21.9323 15.5624C21.7907 15.6274 21.665 15.7224 21.5638 15.8408C21.5078 15.9006 21.4438 15.974 21.3756 16.0592C21.2664 16.1929 21.1643 16.3195 21.0669 16.44C20.6636 16.9389 20.345 17.3343 20.0315 17.6487C19.8119 17.8582 19.5772 18.0514 19.3295 18.2267C19.3121 18.2395 19.294 18.2513 19.2753 18.262C19.1381 18.3415 18.9768 18.3692 18.8209 18.3401C18.665 18.3109 18.5247 18.2269 18.4254 18.1031C18.3261 17.9794 18.2744 17.8242 18.2797 17.6656C18.2849 17.507 18.3469 17.3556 18.4542 17.2387C18.8174 16.8772 19.1544 16.4903 19.4626 16.0809C19.7985 15.5761 20.1013 15.05 20.369 14.5059L20.3732 14.4965C20.8818 14.4376 21.3603 14.2249 21.7448 13.8867C22.1292 13.5485 22.4014 13.101 22.5248 12.604C22.6481 12.107 22.617 11.5842 22.4353 11.1054C22.2537 10.6266 21.9302 10.2147 21.5083 9.92468V9.9167C21.5367 9.19016 21.4687 8.46307 21.3064 7.75435C21.1553 7.19846 20.9101 6.59832 20.5901 5.75578C20.5459 5.63952 20.5186 5.55764 20.5012 5.50021C20.4469 5.35076 20.448 5.18679 20.5041 5.03802C20.5602 4.88926 20.6677 4.76551 20.8072 4.68917C20.9466 4.61283 21.1088 4.58896 21.2643 4.62186C21.4198 4.65476 21.5585 4.74225 21.6551 4.86853L21.6579 4.87229L21.6635 4.8803L21.6673 4.88453C21.9274 5.24211 22.168 5.61341 22.3883 5.99679C23.2561 7.49754 23.7885 9.16862 23.9486 10.8949C24.1087 12.6212 23.8928 14.3618 23.3158 15.9966Z" fill="#414B4F"/>
<path d="M20.0857 14.0992C20.6206 14.0998 21.1357 13.8965 21.526 13.5306C21.9164 13.1647 22.1526 12.6637 22.1867 12.1297C22.2207 11.5958 22.0502 11.0689 21.7095 10.6563C21.3689 10.2437 20.8838 9.97651 20.3531 9.90902C19.8225 9.84154 19.286 9.97885 18.853 10.293C18.42 10.6072 18.123 11.0747 18.0224 11.6002C17.9218 12.1257 18.0252 12.6698 18.3116 13.1218C18.5979 13.5737 19.0457 13.8995 19.5638 14.0329C19.7343 14.0768 19.9096 14.0991 20.0857 14.0992Z" fill="#414B4F"/>
</svg>
