<svg width="167" height="28" viewBox="0 0 167 28" fill="none" xmlns="http://www.w3.org/2000/svg">
<path d="M164.28 10.543H153.608C153.411 10.5358 153.215 10.5619 153.027 10.6204C152.9 10.6642 152.783 10.7348 152.686 10.8273C152.585 10.9273 152.506 11.0467 152.453 11.1783C152.401 11.3099 152.376 11.4508 152.38 11.5924C152.376 11.7432 152.408 11.8927 152.473 12.0292C152.538 12.1656 152.633 12.2852 152.753 12.3785C152.846 12.4541 152.954 12.5095 153.07 12.541C153.246 12.5842 153.427 12.6029 153.608 12.5966H160.13C160.854 12.5766 161.574 12.6989 162.25 12.9566C162.798 13.1758 163.295 13.5065 163.708 13.9275C164.102 14.3338 164.419 14.8077 164.643 15.3262C165.08 16.3487 165.096 17.5013 164.685 18.5349C164.495 19.02 164.225 19.4704 163.886 19.8674C163.462 20.342 162.941 20.7213 162.358 20.9801C161.654 21.275 160.894 21.416 160.13 21.3935H148.623V17.6163H159.427C159.669 17.6261 159.911 17.5925 160.141 17.5172C160.296 17.4599 160.436 17.3666 160.548 17.2452C160.708 17.0558 160.794 16.8149 160.788 16.5675C160.793 16.4228 160.769 16.2785 160.717 16.1434C160.664 16.0083 160.585 15.8851 160.483 15.7813C160.379 15.6649 160.246 15.5782 160.097 15.5304C159.878 15.4719 159.652 15.4468 159.426 15.4559H153.388C152.57 15.484 151.754 15.3614 150.982 15.0942C150.416 14.8817 149.903 14.5505 149.477 14.1233C149.086 13.722 148.773 13.2514 148.556 12.7357C148.332 12.1995 148.22 11.6237 148.226 11.0432C148.222 10.4649 148.338 9.89196 148.568 9.36074C148.79 8.84243 149.105 8.36917 149.5 7.96477C149.922 7.53865 150.432 7.2071 150.993 6.99223C151.762 6.72447 152.573 6.60201 153.387 6.63114H164.276L164.28 10.543Z" fill="white"/>
<path d="M146.562 18.5332C146.573 19.0203 146.494 19.5053 146.329 19.9642C146.197 20.3317 145.987 20.6668 145.713 20.9467C145.463 21.1987 145.159 21.3925 144.825 21.5142C144.487 21.6385 144.13 21.7011 143.771 21.699C143.206 21.7108 142.644 21.6184 142.113 21.4263C141.63 21.2405 141.203 20.9361 140.871 20.5417L132.723 11.1745C132.683 11.1187 132.63 11.0723 132.57 11.0385C132.51 11.0047 132.443 10.9843 132.374 10.9786C132.325 10.9783 132.276 10.988 132.23 11.0072C132.185 11.0263 132.144 11.0545 132.11 11.0899C132.072 11.1309 132.042 11.1791 132.023 11.2316C132.004 11.2842 131.995 11.3401 131.998 11.3959V21.3963H128.092V9.75572C128.078 9.21371 128.162 8.67362 128.342 8.1617C128.487 7.75878 128.727 7.39658 129.043 7.10596C129.359 6.81534 129.74 6.60491 130.155 6.49256C130.605 6.36555 131.071 6.30316 131.538 6.30728C132.152 6.26885 132.767 6.38242 133.326 6.63787C133.886 6.89332 134.373 7.28269 134.744 7.77111L141.988 16.395C142.034 16.4568 142.095 16.5059 142.165 16.5374C142.229 16.5594 142.296 16.5702 142.363 16.5691C142.568 16.5691 142.671 16.4389 142.671 16.1763V6.63166H146.559L146.562 18.5332Z" fill="white"/>
<path d="M115.225 21.3923C114.037 21.4195 112.855 21.1999 111.756 20.7475C110.809 20.3408 109.956 19.7426 109.254 18.991C108.293 17.9207 107.662 16.5983 107.436 15.1812C107.21 13.7642 107.398 12.3125 107.979 10.9991C108.394 10.081 108.991 9.25595 109.735 8.5739C110.415 7.95146 111.209 7.46587 112.074 7.144C113.084 6.78321 114.153 6.60898 115.227 6.6299H118.345C119.418 6.60899 120.485 6.78323 121.495 7.144C122.36 7.46515 123.155 7.95081 123.834 8.5739C124.578 9.25653 125.176 10.0814 125.591 10.9991C126.019 11.9457 126.236 12.9731 126.228 14.0108C126.248 15.4424 125.839 16.8475 125.053 18.0472C124.267 19.2468 123.14 20.1866 121.815 20.7469C120.716 21.1991 119.534 21.4187 118.345 21.3917L115.225 21.3923ZM115.225 10.5396C114.658 10.5222 114.092 10.6107 113.558 10.8005C113.137 10.9638 112.75 11.2011 112.414 11.501C112.074 11.8234 111.802 12.2095 111.613 12.6371C111.414 13.0765 111.313 13.5531 111.316 14.0348C111.313 14.472 111.396 14.9055 111.559 15.3116C111.715 15.7042 111.946 16.0632 112.239 16.3687C112.576 16.728 112.988 17.0106 113.445 17.1972C114.012 17.4164 114.617 17.5204 115.225 17.5032H118.344C118.952 17.5201 119.557 17.4161 120.123 17.1972C120.58 17.0104 120.992 16.7278 121.329 16.3687C121.621 16.0622 121.853 15.7036 122.011 15.3116C122.172 14.905 122.254 14.4717 122.252 14.0348C122.256 13.553 122.154 13.0762 121.955 12.6371C121.765 12.2098 121.492 11.8237 121.153 11.501C120.817 11.2016 120.431 10.9644 120.011 10.8005C119.477 10.611 118.912 10.5225 118.344 10.5396H115.225Z" fill="white"/>
<path d="M95.1757 6.63168V12.6818L101.939 7.24426C102.166 7.06317 102.373 6.85793 102.555 6.63223H108.109C108.062 6.71085 108.003 6.78132 107.933 6.84087C107.863 6.90708 107.788 6.96884 107.715 7.02615L99.5463 13.3133C99.5076 13.3409 99.4758 13.3769 99.4532 13.4185C99.4305 13.4601 99.4175 13.5063 99.4153 13.5536C99.4172 13.6009 99.4299 13.6471 99.4526 13.6887C99.4753 13.7303 99.5074 13.7661 99.5463 13.7934L108.309 20.8472C108.41 20.9351 108.509 21.0219 108.606 21.1087C108.702 21.198 108.794 21.2928 108.88 21.3924H102.949C102.749 21.1679 102.528 20.9629 102.289 20.7804L95.1746 14.8633V21.3924H91.1577V6.63168H95.1757Z" fill="white"/>
<path d="M62.0262 21.3923C61.2509 21.41 60.4774 21.3106 59.7321 21.0974C59.1642 20.9343 58.6492 20.6258 58.2388 20.2028C57.85 19.7741 57.5743 19.2562 57.4364 18.6955C57.2661 18.0059 57.1848 17.2975 57.1946 16.5874V6.62822H61.1903V16.2179C61.1489 16.6055 61.2462 16.9951 61.465 17.3185C61.611 17.4338 61.7784 17.5192 61.9576 17.5699C62.1369 17.6207 62.3245 17.6356 62.5097 17.6139H72.8051V21.3923H62.0262Z" fill="white"/>
<path d="M78.8033 21.3923C78.028 21.4098 77.2545 21.3104 76.5092 21.0974C75.942 20.9332 75.4277 20.6248 75.0169 20.2028C74.6284 19.7742 74.3533 19.2562 74.2163 18.6955C74.0438 18.0062 73.9623 17.2976 73.974 16.5874V6.62822H77.9685V16.2179C77.9265 16.6058 78.0247 16.9959 78.2454 17.3185C78.3907 17.434 78.5576 17.5196 78.7365 17.5703C78.9154 17.621 79.1026 17.6358 79.2873 17.6139H89.5855V21.3923H78.8033Z" fill="white"/>
<path d="M56.4265 20.7416C56.4809 20.8481 56.529 20.9577 56.5704 21.0698C56.6051 21.1705 56.6381 21.2796 56.6694 21.3964H52.1892C52.159 21.2941 52.1299 21.2028 52.1008 21.1244C52.0717 21.0459 52.0448 20.9669 52.0141 20.894L51.2235 19.1047H42.4388L41.6711 20.8729C41.6409 20.9608 41.6107 21.0476 41.5833 21.1349C41.5534 21.2201 41.5317 21.3078 41.5184 21.397H36.9302C36.9578 21.2865 36.9911 21.1775 37.0298 21.0704C37.0689 20.9576 37.1164 20.8479 37.1719 20.7421L42.4875 9.03812C42.8366 8.21078 43.4151 7.49917 44.1554 6.9862C44.9559 6.54171 45.8575 6.30835 46.7743 6.30835C47.6911 6.30835 48.5927 6.54171 49.3932 6.9862C50.1378 7.49733 50.7201 8.20919 51.0718 9.03812L56.4265 20.7416ZM49.772 15.8504L47.4897 10.5648C47.4309 10.4228 47.331 10.3014 47.2026 10.216C47.0843 10.1418 46.9469 10.1032 46.807 10.1047C46.6762 10.1042 46.5475 10.1384 46.4344 10.2038C46.3003 10.2875 46.1991 10.4143 46.1474 10.5632L43.888 15.8488L49.772 15.8504Z" fill="white"/>
<path d="M16.563 27.7713C16.6706 27.5799 16.7267 27.3639 16.7259 27.1443C16.725 26.9248 16.6672 26.7092 16.558 26.5187C16.4674 26.3609 16.3436 26.2248 16.1951 26.1196C16.0467 26.0145 15.8771 25.9429 15.6983 25.9097C15.6049 25.8877 15.4935 25.8668 15.3689 25.8465C15.1707 25.8141 14.9845 25.7845 14.8034 25.7565C14.0644 25.6395 13.4808 25.5473 12.979 25.4144C12.6396 25.314 12.3079 25.1894 11.9864 25.0415C11.9633 25.0311 11.9414 25.0201 11.9194 25.0075C11.7592 24.915 11.6374 24.7682 11.576 24.5937C11.5145 24.4192 11.5176 24.2285 11.5845 24.0561C11.6514 23.8836 11.7778 23.7408 11.9408 23.6534C12.1038 23.566 12.2927 23.5399 12.4733 23.5797C13.0502 23.7355 13.6373 23.8506 14.2302 23.924C14.9359 23.9699 15.6438 23.9699 16.3494 23.924H16.3609C16.7169 24.4035 17.2107 24.7629 17.7764 24.9542C18.342 25.1454 18.9526 25.1594 19.5264 24.9942C20.1002 24.829 20.6099 24.4925 20.9874 24.0297C21.3648 23.567 21.5921 23 21.6387 22.4046L21.6474 22.4007C22.3975 22.0053 23.0919 21.5125 23.7128 20.935C24.1866 20.4584 24.6495 19.8598 25.3132 19.0444C25.4055 18.9318 25.4719 18.8566 25.5196 18.8055C25.6391 18.6639 25.8052 18.5697 25.988 18.5399C26.1708 18.5101 26.3583 18.5467 26.5165 18.643C26.6748 18.7394 26.7933 18.8891 26.8508 19.0652C26.9083 19.2413 26.901 19.4322 26.8301 19.6034V19.6078L26.8258 19.6188V19.6248C25.9017 21.7114 24.4858 23.5428 22.6993 24.9622C20.9128 26.3817 18.8089 27.3469 16.5679 27.7751L16.563 27.7713Z" fill="white"/>
<path d="M16.5953 23.3997C16.8941 23.9156 17.3708 24.3047 17.936 24.4941C18.5012 24.6836 19.116 24.6603 19.6653 24.4286C20.2145 24.197 20.6604 23.7729 20.9194 23.2359C21.1784 22.6989 21.2326 22.0859 21.072 21.5118C21.0167 21.314 20.937 21.1238 20.8348 20.9456C20.5365 20.4286 20.0597 20.0384 19.494 19.8482C18.9284 19.658 18.3128 19.681 17.7629 19.9129C17.213 20.1447 16.7666 20.5695 16.5078 21.1073C16.2489 21.6451 16.1953 22.259 16.357 22.8335C16.4119 23.0316 16.4918 23.2219 16.5948 23.3997" fill="white"/>
<path d="M3.36081 23.1069C3.56139 23.1048 3.75861 23.055 3.9361 22.9615C4.11359 22.868 4.26623 22.7336 4.38144 22.5694C4.49665 22.4051 4.57109 22.2158 4.59858 22.017C4.62607 21.8183 4.60583 21.6159 4.53954 21.4265C4.51154 21.3343 4.47478 21.2277 4.42976 21.108C4.35839 20.9202 4.28973 20.7423 4.22495 20.5731C3.95648 19.8746 3.74459 19.3228 3.60898 18.822C3.52594 18.4775 3.46777 18.1276 3.43494 17.7748C3.43217 17.7496 3.43084 17.7243 3.43105 17.699C3.4305 17.5138 3.49641 17.3345 3.61676 17.1938C3.7371 17.053 3.90396 16.9601 4.08696 16.9319C4.26996 16.9038 4.45696 16.9421 4.61406 17.0402C4.77116 17.1382 4.88789 17.2893 4.94305 17.4661C5.09685 18.0441 5.29093 18.6105 5.5239 19.1613C5.83784 19.795 6.19256 20.4077 6.58575 20.9955L6.59285 21.0059C6.35566 21.5539 6.29132 22.1612 6.40842 22.7468C6.52551 23.3323 6.81847 23.8681 7.24816 24.2827C7.67785 24.6973 8.22379 24.9708 8.81304 25.0668C9.4023 25.1627 10.0068 25.0765 10.5458 24.8196L10.5529 24.8257C11.2703 25.278 12.0444 25.6334 12.8549 25.8828C13.5039 26.0546 14.2533 26.1574 15.2909 26.3221C15.4342 26.3457 15.5325 26.3655 15.6005 26.3819C15.7847 26.4129 15.9516 26.5091 16.0705 26.6531C16.1895 26.797 16.2527 26.979 16.2485 27.1657C16.2443 27.3524 16.173 27.5314 16.0476 27.6698C15.9223 27.8082 15.7513 27.8969 15.566 27.9195H15.5605H15.5489H15.5424C13.2739 28.163 10.9802 27.8521 8.85821 27.0136C6.73626 26.1752 4.84947 24.8342 3.35974 23.1058L3.36081 23.1069Z" fill="white"/>
<path d="M7.16172 20.949C6.84942 21.4893 6.75477 22.1283 6.89693 22.736C7.0391 23.3437 7.40745 23.8744 7.92701 24.22C8.44657 24.5656 9.07828 24.7002 9.69355 24.5963C10.3088 24.4925 10.8614 24.158 11.2388 23.661C11.6162 23.164 11.7901 22.5418 11.725 21.9211C11.66 21.3004 11.3608 20.7279 10.8886 20.32C10.4163 19.9121 9.80643 19.6995 9.183 19.7256C8.55958 19.7516 7.96947 20.0143 7.53287 20.4602C7.38919 20.6069 7.26448 20.7711 7.16172 20.949Z" fill="white"/>
<path d="M0.796938 9.33398C0.898982 9.50676 1.04069 9.65271 1.21038 9.75978C1.38006 9.86685 1.57281 9.93194 1.77266 9.94965C1.97251 9.96737 2.17368 9.93719 2.35954 9.86164C2.54541 9.78608 2.71064 9.66731 2.84147 9.51517C2.90626 9.44543 2.98039 9.35977 3.06109 9.26038C3.18846 9.10388 3.30813 8.95669 3.42232 8.81612C3.89228 8.23403 4.26394 7.77278 4.63013 7.4065C4.88651 7.1622 5.16031 6.93681 5.4493 6.73214C5.46979 6.71731 5.49103 6.70355 5.51297 6.69095C5.67313 6.59879 5.86096 6.56694 6.04255 6.60113C6.22413 6.63532 6.38753 6.73331 6.50323 6.8774C6.61894 7.0215 6.67933 7.20223 6.67353 7.38696C6.66772 7.57169 6.59606 7.74824 6.47153 7.88478C6.04796 8.30673 5.65482 8.75816 5.29502 9.23568C4.90316 9.82461 4.54994 10.4384 4.2376 11.0731L4.23264 11.0841C3.63929 11.1528 3.08106 11.401 2.63251 11.7955C2.18396 12.19 1.86649 12.7121 1.72253 13.2919C1.57857 13.8718 1.61496 14.4818 1.82688 15.0403C2.03879 15.5989 2.41613 16.0795 2.90842 16.4179V16.4272C2.87532 17.2748 2.95456 18.1231 3.14399 18.9499C3.32023 19.5985 3.60625 20.2986 3.97958 21.2816C4.03448 21.4178 4.06301 21.5133 4.08333 21.5803C4.14664 21.7547 4.14545 21.946 4.07998 22.1195C4.0145 22.2931 3.88908 22.4375 3.72639 22.5265C3.56369 22.6156 3.3745 22.6434 3.19305 22.605C3.0116 22.5667 2.84983 22.4646 2.73712 22.3172L2.73438 22.3128L2.72781 22.3035L2.72345 22.298C2.41948 21.8812 2.13847 21.448 1.88177 21.0004C0.868906 19.2497 0.247418 17.3002 0.0601361 15.2862C-0.127146 13.2722 0.124254 11.2415 0.796938 9.33398Z" fill="white"/>
<path d="M4.56588 11.5485C3.94233 11.5483 3.34212 11.7858 2.88747 12.2127C2.43282 12.6395 2.15789 13.2236 2.11863 13.846C2.07938 14.4685 2.27881 15.0825 2.67623 15.5631C3.07365 16.0437 3.63923 16.3548 4.25787 16.433C4.8765 16.5111 5.50166 16.3506 6.00611 15.984C6.51056 15.6173 6.85635 15.0722 6.97312 14.4596C7.0899 13.8469 6.96889 13.2128 6.63468 12.6862C6.30047 12.1597 5.77821 11.7803 5.17421 11.6254C4.97546 11.5744 4.77107 11.5485 4.56588 11.5485Z" fill="white"/>
<path d="M11.4363 0.225087C11.3295 0.415793 11.2736 0.630871 11.2743 0.84947C11.2742 1.1432 11.3769 1.4277 11.5645 1.65367C11.7521 1.87964 12.0128 2.03283 12.3015 2.08667C12.3954 2.10864 12.5063 2.1295 12.6309 2.14982C12.8296 2.18222 13.0152 2.21187 13.1959 2.23988C13.9348 2.35685 14.5184 2.44909 15.0202 2.58199C15.3595 2.68257 15.6912 2.80718 16.0128 2.95486C16.0358 2.96503 16.0583 2.97657 16.0799 2.98945C16.2409 3.08142 16.3635 3.22816 16.4255 3.40298C16.4875 3.57779 16.4848 3.76907 16.4177 3.942C16.3506 4.11492 16.2237 4.25799 16.06 4.3452C15.8964 4.43242 15.7068 4.458 15.5259 4.41723C14.949 4.26147 14.3619 4.14641 13.769 4.07291C13.0633 4.02782 12.3554 4.02874 11.6498 4.07566H11.6377C11.282 3.59585 10.7882 3.23617 10.2224 3.04475C9.65669 2.85333 9.04599 2.83929 8.47205 3.00453C7.89811 3.16977 7.38827 3.50638 7.01084 3.96935C6.63341 4.43231 6.40634 4.99953 6.36003 5.59511L6.35125 5.59896C5.60117 5.99427 4.9067 6.4871 4.28587 7.06462C3.81207 7.54127 3.34978 8.13984 2.68547 8.95476C2.59323 9.06734 2.52681 9.14257 2.47905 9.19364C2.35958 9.33522 2.19347 9.4294 2.01066 9.45919C1.82784 9.48898 1.64037 9.45243 1.48215 9.35609C1.32393 9.25976 1.20537 9.11 1.14786 8.93388C1.09035 8.75777 1.0977 8.56691 1.16857 8.39574V8.39135L1.17292 8.38035L1.17628 8.37432C1.38514 7.90246 1.61951 7.44232 1.87843 6.99598C2.88723 5.24316 4.26419 3.73009 5.91429 2.56114C7.56438 1.39219 9.44838 0.595178 11.4363 0.225087Z" fill="white"/>
<path d="M11.4056 4.59766C11.0941 4.0562 10.588 3.6538 9.99039 3.4724C9.39276 3.291 8.74851 3.34424 8.18873 3.62125C7.62895 3.89827 7.19573 4.37826 6.9773 4.9635C6.75888 5.54874 6.77166 6.19524 7.01302 6.77139C7.25439 7.34755 7.70618 7.81002 8.27646 8.0647C8.84674 8.31939 9.4926 8.34713 10.0826 8.14226C10.6726 7.9374 11.1624 7.51535 11.4523 6.962C11.7421 6.40866 11.8102 5.76564 11.6427 5.16383C11.5873 4.96606 11.5076 4.77589 11.4056 4.59766Z" fill="white"/>
<path d="M24.6386 4.88978C24.4379 4.89168 24.2406 4.94138 24.0629 5.03478C23.8853 5.12818 23.7325 5.26259 23.6171 5.42686C23.5018 5.59112 23.4273 5.78052 23.3997 5.97935C23.3722 6.17817 23.3924 6.3807 23.4587 6.57015C23.4867 6.6624 23.5241 6.76894 23.5686 6.88866C23.6399 7.07646 23.7085 7.25438 23.7733 7.42352C24.0418 8.12202 24.2537 8.67446 24.3893 9.17527C24.4725 9.5195 24.5307 9.8693 24.5634 10.2219C24.5663 10.2471 24.5678 10.2724 24.5677 10.2977C24.5678 10.4827 24.5017 10.6617 24.3813 10.8021C24.2609 10.9426 24.0942 11.0353 23.9114 11.0634C23.7285 11.0916 23.5417 11.0533 23.3847 10.9555C23.2276 10.8578 23.1107 10.707 23.0552 10.5305C22.9016 9.95294 22.7077 9.38687 22.4749 8.83645C22.1614 8.20219 21.8067 7.58912 21.4131 7.00121L21.4059 6.99078C21.6431 6.44279 21.7075 5.83547 21.5904 5.24992C21.4733 4.66438 21.1803 4.12851 20.7506 3.71395C20.3209 3.29938 19.775 3.02584 19.1857 2.92989C18.5965 2.83395 17.992 2.92017 17.453 3.17701L17.4459 3.17098C16.7288 2.71877 15.9552 2.36334 15.145 2.11389C14.495 1.94201 13.7461 1.83933 12.709 1.67459C12.5652 1.65097 12.4663 1.6312 12.3988 1.61473C12.2163 1.58225 12.0515 1.48555 11.9341 1.34213C11.8167 1.19872 11.7546 1.01805 11.7587 0.832747C11.7629 0.647444 11.8332 0.469747 11.9569 0.331771C12.0807 0.193796 12.2496 0.104649 12.4334 0.0804291H12.4388H12.4504H12.457C14.7256 -0.162934 17.0193 0.147943 19.1414 0.986387C21.2634 1.82483 23.1503 3.16579 24.6402 4.89417L24.6386 4.88978Z" fill="white"/>
<path d="M20.8355 7.04812C21.1472 6.50783 21.2414 5.869 21.0989 5.26167C20.9564 4.65435 20.5878 4.12419 20.0682 3.77909C19.5487 3.434 18.9171 3.29991 18.3022 3.40414C17.6873 3.50837 17.1352 3.84308 16.7583 4.34013C16.3814 4.83718 16.2081 5.4592 16.2736 6.07958C16.339 6.69997 16.6384 7.2721 17.1108 7.67947C17.5831 8.08685 18.1929 8.29885 18.8161 8.27235C19.4392 8.24586 20.0288 7.98286 20.4648 7.53686C20.6083 7.39011 20.7329 7.22591 20.8355 7.04812Z" fill="white"/>
<path d="M27.2018 18.6627C27.09 18.4737 26.9309 18.317 26.7402 18.2081C26.5496 18.0993 26.3338 18.0419 26.1142 18.0416C25.9325 18.0412 25.7529 18.0803 25.5877 18.1561C25.4226 18.232 25.2759 18.3428 25.1578 18.4809C25.0925 18.5507 25.0179 18.6363 24.9383 18.7357C24.8109 18.8917 24.6917 19.0394 24.5781 19.18C24.1076 19.7621 23.7359 20.2234 23.3702 20.5902C23.1139 20.8346 22.8402 21.0599 22.5511 21.2645C22.5309 21.2794 22.5098 21.2932 22.488 21.3057C22.3278 21.3985 22.1397 21.4308 21.9578 21.3968C21.7759 21.3628 21.6122 21.2647 21.4964 21.1203C21.3805 20.976 21.3202 20.7949 21.3264 20.6099C21.3325 20.4249 21.4048 20.2482 21.53 20.1119C21.9538 19.6901 22.3469 19.2387 22.7065 18.761C23.0984 18.1721 23.4516 17.5583 23.7639 16.9236L23.7688 16.9126C24.3622 16.8439 24.9204 16.5957 25.369 16.2012C25.8175 15.8066 26.135 15.2845 26.279 14.7047C26.4229 14.1249 26.3865 13.5149 26.1746 12.9563C25.9627 12.3978 25.5854 11.9171 25.0931 11.5788V11.5695C25.1262 10.7219 25.0469 9.87358 24.8575 9.04674C24.6813 8.3982 24.3952 7.69804 24.0219 6.71508C23.9703 6.57944 23.9385 6.48391 23.9182 6.41691C23.8549 6.24255 23.856 6.05126 23.9215 5.87769C23.987 5.70413 24.1124 5.55976 24.2751 5.4707C24.4378 5.38164 24.627 5.35378 24.8084 5.39217C24.9899 5.43055 25.1517 5.53262 25.2644 5.67994L25.2677 5.68434L25.2742 5.69369L25.2786 5.69861C25.582 6.1158 25.8628 6.54898 26.1197 6.99625C27.1322 8.74713 27.7533 10.6967 27.9401 12.7108C28.1269 14.7248 27.875 16.7554 27.2018 18.6627Z" fill="white"/>
<path d="M23.4334 16.4491C24.0575 16.4498 24.6584 16.2125 25.1138 15.7856C25.5692 15.3588 25.8447 14.7743 25.8845 14.1514C25.9243 13.5284 25.7253 12.9137 25.3279 12.4323C24.9304 11.951 24.3645 11.6393 23.7454 11.5605C23.1263 11.4818 22.5005 11.642 21.9953 12.0085C21.4901 12.3751 21.1436 12.9204 21.0262 13.5336C20.9088 14.1467 21.0295 14.7815 21.3636 15.3087C21.6977 15.836 22.2201 16.2161 22.8245 16.3717C23.0234 16.4229 23.228 16.4489 23.4334 16.4491Z" fill="white"/>
</svg>
