<svg width="144" height="32" viewBox="0 0 144 32" fill="none" xmlns="http://www.w3.org/2000/svg">
<path d="M18.9292 31.7386C19.0522 31.5199 19.1163 31.273 19.1153 31.0221C19.1143 30.7712 19.0482 30.5248 18.9235 30.3071C18.8199 30.1268 18.6784 29.9712 18.5088 29.851C18.3391 29.7308 18.1453 29.649 17.9409 29.6111C17.8342 29.586 17.7069 29.5621 17.5645 29.5389C17.3379 29.5019 17.1252 29.468 16.9182 29.436C16.0736 29.3023 15.4067 29.1969 14.8332 29.045C14.4453 28.9303 14.0662 28.788 13.6988 28.6189C13.6724 28.607 13.6473 28.5944 13.6222 28.58C13.4392 28.4743 13.2999 28.3066 13.2297 28.1072C13.1595 27.9077 13.1629 27.6898 13.2394 27.4927C13.3159 27.2956 13.4603 27.1323 13.6467 27.0325C13.833 26.9326 14.0488 26.9027 14.2553 26.9482C14.9145 27.1263 15.5855 27.2578 16.2631 27.3417C17.0696 27.3942 17.8786 27.3942 18.6851 27.3417H18.6983C19.105 27.8898 19.6694 28.3005 20.3159 28.5191C20.9624 28.7376 21.6601 28.7536 22.3159 28.5648C22.9717 28.376 23.5542 27.9914 23.9856 27.4626C24.417 26.9337 24.6767 26.2857 24.7299 25.6052L24.74 25.6008C25.5971 25.1489 26.3908 24.5857 27.1004 23.9258C27.6419 23.381 28.1708 22.697 28.9294 21.765C29.0348 21.6364 29.1107 21.5504 29.1653 21.492C29.3019 21.3302 29.4917 21.2225 29.7006 21.1885C29.9096 21.1544 30.1238 21.1963 30.3046 21.3064C30.4855 21.4164 30.621 21.5876 30.6867 21.7888C30.7524 21.9901 30.744 22.2083 30.663 22.4039V22.4089L30.658 22.4215V22.4284C29.602 24.813 27.9838 26.906 25.9421 28.5283C23.9004 30.1505 21.496 31.2536 18.9348 31.743L18.9292 31.7386Z" fill="#E44218"/>
<path d="M18.9661 26.7425C19.3077 27.3321 19.8525 27.7768 20.4984 27.9933C21.1443 28.2098 21.847 28.1832 22.4747 27.9185C23.1024 27.6537 23.612 27.1691 23.908 26.5554C24.2039 25.9417 24.266 25.2411 24.0824 24.5849C24.0192 24.3588 23.9281 24.1415 23.8113 23.9378C23.4704 23.347 22.9255 22.901 22.279 22.6837C21.6325 22.4663 20.929 22.4926 20.3005 22.7576C19.6721 23.0226 19.162 23.508 18.8661 24.1226C18.5703 24.7373 18.509 25.4388 18.6939 26.0955C18.7565 26.3218 18.8478 26.5393 18.9655 26.7425" fill="#E44218"/>
<path d="M3.84095 26.4079C4.07018 26.4055 4.29557 26.3485 4.49842 26.2417C4.70126 26.1349 4.87571 25.9813 5.00738 25.7936C5.13905 25.6059 5.22411 25.3895 5.25554 25.1623C5.28696 24.9352 5.26382 24.7039 5.18806 24.4874C5.15606 24.382 5.11405 24.2602 5.0626 24.1234C4.98103 23.9088 4.90257 23.7055 4.82853 23.5122C4.52171 22.7139 4.27955 22.0832 4.12457 21.5108C4.02966 21.1172 3.96318 20.7172 3.92566 20.314C3.9225 20.2853 3.92098 20.2563 3.92122 20.2274C3.92059 20.0157 3.99592 19.8109 4.13345 19.65C4.27099 19.4892 4.46168 19.383 4.67083 19.3508C4.87997 19.3186 5.09369 19.3625 5.27323 19.4745C5.45277 19.5865 5.58617 19.7593 5.64922 19.9613C5.82498 20.6218 6.0468 21.2692 6.31305 21.8986C6.67184 22.6229 7.07723 23.323 7.52658 23.9948L7.5347 24.0067C7.26362 24.633 7.19009 25.3271 7.32392 25.9963C7.45775 26.6655 7.79255 27.2779 8.28363 27.7517C8.7747 28.2255 9.39863 28.5381 10.0721 28.6477C10.7455 28.7574 11.4364 28.6588 12.0524 28.3653L12.0605 28.3722C12.8804 28.8891 13.765 29.2953 14.6914 29.5803C15.433 29.7767 16.2895 29.8941 17.4754 30.0824C17.6391 30.1094 17.7514 30.132 17.8292 30.1508C18.0397 30.1862 18.2304 30.2962 18.3664 30.4607C18.5023 30.6252 18.5745 30.8331 18.5697 31.0465C18.5649 31.2599 18.4834 31.4644 18.3402 31.6226C18.1969 31.7809 18.0015 31.8822 17.7897 31.9081H17.7834H17.7702H17.7627C15.1701 32.1862 12.5488 31.8309 10.1237 30.8727C7.6986 29.9145 5.54227 28.3819 3.83972 26.4066L3.84095 26.4079Z" fill="#FFAB08"/>
<path d="M8.18485 23.9417C7.82793 24.5592 7.71975 25.2895 7.88223 25.984C8.0447 26.6785 8.46567 27.285 9.05946 27.68C9.65324 28.075 10.3752 28.2288 11.0784 28.1101C11.7815 27.9914 12.413 27.6092 12.8444 27.0412C13.2757 26.4732 13.4744 25.7621 13.4 25.0527C13.3257 24.3433 12.9838 23.689 12.4441 23.2228C11.9044 22.7567 11.2074 22.5137 10.4949 22.5435C9.78239 22.5733 9.10798 22.8735 8.60902 23.3831C8.4448 23.5508 8.30228 23.7384 8.18485 23.9417Z" fill="#FFAB08"/>
<path d="M0.910786 10.6674C1.02741 10.8649 1.18936 11.0317 1.38329 11.1541C1.57721 11.2764 1.7975 11.3508 2.0259 11.3711C2.25429 11.3913 2.4842 11.3568 2.69662 11.2705C2.90904 11.1841 3.09788 11.0484 3.2474 10.8745C3.32144 10.7948 3.40616 10.6969 3.49839 10.5833C3.64396 10.4045 3.78072 10.2362 3.91123 10.0756C4.44832 9.41035 4.87307 8.8832 5.29158 8.4646C5.58458 8.1854 5.8975 7.92781 6.22777 7.6939C6.25119 7.67695 6.27546 7.66123 6.30053 7.64683C6.48358 7.54151 6.69824 7.5051 6.90577 7.54417C7.1133 7.58325 7.30003 7.69523 7.43227 7.85992C7.5645 8.0246 7.63353 8.23115 7.62689 8.44227C7.62025 8.65338 7.53835 8.85516 7.39604 9.01121C6.91195 9.49343 6.46265 10.0094 6.05145 10.5551C5.60361 11.2282 5.19993 11.9296 4.84298 12.655L4.83731 12.6675C4.15919 12.746 3.52121 13.0297 3.00858 13.4806C2.49596 13.9315 2.13313 14.5282 1.96861 15.1908C1.80408 15.8535 1.84567 16.5506 2.08786 17.189C2.33005 17.8274 2.76129 18.3766 3.32391 18.7633V18.774C3.28608 19.7427 3.37664 20.7121 3.59314 21.6571C3.79455 22.3983 4.12143 23.1984 4.54809 24.3218C4.61084 24.4775 4.64344 24.5867 4.66666 24.6632C4.73902 24.8625 4.73766 25.0811 4.66283 25.2795C4.588 25.4778 4.44466 25.6428 4.25873 25.7446C4.07279 25.8464 3.85658 25.8782 3.6492 25.8344C3.44183 25.7905 3.25695 25.6738 3.12814 25.5054L3.125 25.5004L3.1175 25.4898L3.11252 25.4835C2.76512 25.0071 2.44397 24.512 2.15059 24.0005C0.993036 21.9997 0.282764 19.7717 0.068727 17.47C-0.14531 15.1682 0.142005 12.8475 0.910786 10.6674Z" fill="#ACC022"/>
<path d="M5.21819 13.1983C4.50556 13.1981 3.8196 13.4695 3.3 13.9574C2.7804 14.4452 2.46619 15.1127 2.42133 15.8241C2.37647 16.5355 2.60438 17.2372 3.05858 17.7865C3.51278 18.3357 4.15916 18.6912 4.86617 18.7806C5.57318 18.8699 6.28765 18.6864 6.86416 18.2674C7.44068 17.8484 7.83586 17.2254 7.96932 16.5252C8.10277 15.8251 7.96448 15.1003 7.58253 14.4986C7.20057 13.8968 6.60371 13.4633 5.91342 13.2862C5.68628 13.2279 5.45269 13.1984 5.21819 13.1983Z" fill="#ACC022"/>
<path d="M13.0701 0.257237C12.948 0.475188 12.8842 0.72099 12.885 0.970819C12.8849 1.30651 13.0022 1.63165 13.2166 1.8899C13.431 2.14816 13.729 2.32323 14.0589 2.38477C14.1662 2.40987 14.2929 2.43371 14.4354 2.45693C14.6625 2.49396 14.8746 2.52785 15.081 2.55986C15.9256 2.69353 16.5926 2.79896 17.166 2.95084C17.5538 3.06579 17.9329 3.2082 18.3005 3.37698C18.3268 3.3886 18.3524 3.40179 18.3771 3.41651C18.5611 3.52162 18.7013 3.68933 18.7721 3.88911C18.843 4.0889 18.8398 4.30751 18.7632 4.50513C18.6865 4.70276 18.5414 4.86626 18.3544 4.96594C18.1673 5.06562 17.9507 5.09485 17.7439 5.04826C17.0847 4.87025 16.4137 4.73875 15.7361 4.65475C14.9295 4.60322 14.1205 4.60427 13.3141 4.65789H13.3003C12.8937 4.10954 12.3294 3.69848 11.6829 3.47971C11.0363 3.26094 10.3383 3.2449 9.68241 3.43375C9.02648 3.62259 8.44381 4.00729 8.01246 4.53639C7.58111 5.06549 7.3216 5.71375 7.26867 6.39441L7.25864 6.39881C6.40141 6.85059 5.60773 7.41382 4.89821 8.07385C4.35672 8.61859 3.82838 9.30267 3.06917 10.234C2.96376 10.3627 2.88786 10.4486 2.83327 10.507C2.69674 10.6688 2.5069 10.7765 2.29796 10.8105C2.08903 10.8445 1.87478 10.8028 1.69395 10.6927C1.51313 10.5826 1.37763 10.4114 1.31191 10.2101C1.24619 10.0089 1.25458 9.79075 1.33558 9.59512V9.59011L1.34055 9.57754L1.34438 9.57065C1.58308 9.03138 1.85094 8.50551 2.14685 7.9954C3.29976 5.99218 4.87343 4.26295 6.75925 2.92701C8.64508 1.59107 10.7982 0.680198 13.0701 0.257237Z" fill="#0077C0"/>
<path d="M13.0349 5.25448C12.679 4.63566 12.1006 4.17578 11.4176 3.96847C10.7346 3.76115 9.9983 3.82199 9.35855 4.13858C8.7188 4.45517 8.22369 5.00373 7.97406 5.67257C7.72443 6.34142 7.73904 7.08028 8.01489 7.73874C8.29073 8.3972 8.80706 8.92574 9.45881 9.21681C10.1106 9.50788 10.8487 9.53958 11.523 9.30545C12.1973 9.07131 12.7571 8.58897 13.0883 7.95658C13.4195 7.32419 13.4974 6.5893 13.306 5.90152C13.2426 5.6755 13.1516 5.45816 13.0349 5.25448Z" fill="#0077C0"/>
<path d="M28.1583 5.58833C27.9289 5.5905 27.7034 5.64729 27.5004 5.75404C27.2974 5.86079 27.1227 6.0144 26.9909 6.20213C26.8591 6.38986 26.7739 6.60632 26.7424 6.83355C26.711 7.06078 26.7341 7.29224 26.8098 7.50875C26.8418 7.61418 26.8846 7.73594 26.9354 7.87276C27.017 8.08739 27.0953 8.29073 27.1694 8.48403C27.4762 9.28232 27.7184 9.91367 27.8734 10.486C27.9685 10.8794 28.035 11.2792 28.0723 11.6822C28.0757 11.711 28.0773 11.7399 28.0773 11.7688C28.0774 11.9803 28.0018 12.1848 27.8642 12.3453C27.7266 12.5058 27.5361 12.6118 27.3272 12.6439C27.1182 12.6761 26.9047 12.6324 26.7252 12.5206C26.5457 12.4089 26.4121 12.2366 26.3487 12.0349C26.1732 11.3748 25.9516 10.7279 25.6855 10.0988C25.3272 9.37394 24.9218 8.67329 24.472 8.00139L24.4638 7.98947C24.7349 7.3632 24.8084 6.66911 24.6746 5.99992C24.5408 5.33073 24.206 4.71831 23.7149 4.24452C23.2238 3.77073 22.5999 3.45811 21.9265 3.34846C21.253 3.2388 20.5622 3.33734 19.9462 3.63088L19.938 3.62398C19.1185 3.10718 18.2344 2.70097 17.3085 2.41588C16.5656 2.21945 15.7097 2.1021 14.5245 1.91382C14.3601 1.88684 14.2471 1.86424 14.1699 1.84541C13.9614 1.80829 13.7731 1.69778 13.6389 1.53388C13.5047 1.36997 13.4337 1.16349 13.4385 0.951718C13.4432 0.739944 13.5235 0.536861 13.6649 0.379175C13.8064 0.221489 13.9995 0.119606 14.2094 0.0919266H14.2157H14.2289H14.2365C16.8292 -0.186202 19.4506 0.169086 21.8758 1.12731C24.3009 2.08553 26.4574 3.61806 28.1601 5.59335L28.1583 5.58833Z" fill="#25287A"/>
<path d="M23.8118 8.05501C24.1682 7.43753 24.2758 6.70744 24.1129 6.01336C23.95 5.31927 23.5288 4.71337 22.935 4.31898C22.3412 3.92459 21.6195 3.77134 20.9167 3.89046C20.2139 4.00959 19.583 4.39211 19.1523 4.96017C18.7215 5.52822 18.5234 6.2391 18.5983 6.94811C18.6731 7.65712 19.0152 8.31099 19.5551 8.77656C20.0949 9.24213 20.7918 9.48441 21.504 9.45413C22.2161 9.42385 22.8899 9.12329 23.3883 8.61357C23.5523 8.44586 23.6946 8.2582 23.8118 8.05501Z" fill="#25287A"/>
<path d="M31.0879 21.3288C30.96 21.1128 30.7783 20.9338 30.5604 20.8093C30.3424 20.6849 30.0958 20.6193 29.8449 20.619C29.6372 20.6185 29.4319 20.6632 29.2432 20.7499C29.0545 20.8365 28.8868 20.9632 28.7519 21.1211C28.6772 21.2008 28.5919 21.2987 28.5009 21.4123C28.3554 21.5905 28.2192 21.7593 28.0893 21.92C27.5516 22.5852 27.1268 23.1124 26.7089 23.5316C26.416 23.8109 26.1031 24.0685 25.7728 24.3023C25.7496 24.3193 25.7255 24.335 25.7006 24.3494C25.5176 24.4554 25.3026 24.4923 25.0947 24.4534C24.8868 24.4146 24.6998 24.3025 24.5674 24.1375C24.435 23.9725 24.366 23.7656 24.373 23.5542C24.3801 23.3427 24.4627 23.1408 24.6057 22.985C25.0901 22.503 25.5394 21.9871 25.9503 21.4411C26.3982 20.7681 26.8019 20.0667 27.1588 19.3412L27.1645 19.3287C27.8426 19.2502 28.4806 18.9665 28.9932 18.5156C29.5058 18.0647 29.8686 17.468 30.0332 16.8054C30.1977 16.1427 30.1561 15.4456 29.9139 14.8072C29.6717 14.1689 29.2405 13.6196 28.6779 13.2329V13.2223C28.7157 12.2535 28.6251 11.2841 28.4086 10.3391C28.2072 9.59795 27.8803 8.79775 27.4537 7.67437C27.3947 7.51936 27.3583 7.41018 27.3351 7.33361C27.2628 7.13434 27.2641 6.91572 27.3389 6.71736C27.4138 6.51901 27.5571 6.35401 27.743 6.25223C27.929 6.15044 28.1452 6.11861 28.3526 6.16248C28.5599 6.20635 28.7448 6.323 28.8736 6.49137L28.8774 6.49638L28.8849 6.50707L28.8899 6.5127C29.2366 6.98948 29.5575 7.48455 29.8512 7.99571C31.0083 9.99672 31.7181 12.2248 31.9316 14.5266C32.1451 16.8283 31.8572 19.149 31.0879 21.3288Z" fill="#9E0039"/>
<path d="M26.7811 18.799C27.4943 18.7997 28.1811 18.5286 28.7016 18.0407C29.222 17.5529 29.5369 16.885 29.5824 16.173C29.6278 15.461 29.4004 14.7585 28.9462 14.2084C28.492 13.6583 27.8453 13.302 27.1377 13.212C26.4301 13.122 25.7149 13.3051 25.1375 13.724C24.5602 14.143 24.1641 14.7662 24.03 15.4669C23.8959 16.1676 24.0338 16.8931 24.4156 17.4957C24.7974 18.0983 25.3945 18.5327 26.0852 18.7105C26.3125 18.7691 26.5463 18.7988 26.7811 18.799Z" fill="#9E0039"/>
<path d="M76.5175 24.6017V26.0271H75.4425V22.2615C75.4425 22.0952 75.5316 22.0121 75.7098 22.0121H78.5607C79.0537 22.0121 79.3684 22.1606 79.5882 22.3922C79.7842 22.6001 79.9089 22.8792 79.9089 23.1821C79.9089 23.5029 79.8139 23.8058 79.5288 24.0137C79.7961 24.174 79.9149 24.3878 79.9149 24.8452V25.647C79.9149 25.8192 79.9208 25.9143 79.9327 26.0271H78.8458C78.8339 25.938 78.828 25.8489 78.828 25.7598V24.958C78.828 24.7026 78.7032 24.6017 78.3884 24.6017H76.5175ZM76.5175 23.687H78.4181C78.5666 23.687 78.6557 23.6335 78.7211 23.5563C78.7686 23.4969 78.7983 23.4257 78.7983 23.3484C78.7983 23.2653 78.7686 23.1821 78.7092 23.1228C78.6498 23.0574 78.5547 23.0158 78.4181 23.0158H76.6066C76.5472 23.0158 76.5175 23.0515 76.5175 23.1049V23.687Z" fill="url(#paint0_linear_40011653_8337)"/>
<path d="M71.2854 22.0121H74.9381V23.0752H71.8853C71.8199 23.0752 71.7902 23.1109 71.7902 23.1762V23.6335H74.9203V24.4057H71.7902V24.8927C71.7902 24.964 71.8199 24.9996 71.8853 24.9996H74.9381V26.0271H71.2795C70.9053 26.0271 70.7152 25.843 70.7152 25.4688V22.5526C70.7152 22.1903 70.9053 22.0121 71.2854 22.0121Z" fill="url(#paint1_linear_40011653_8337)"/>
<path d="M70.3034 26.0271H67.3871C66.4012 26.0271 66.0804 25.5935 66.0804 24.7204V22.0121H67.1614V24.6195C67.1614 24.9105 67.2386 24.9996 67.5178 24.9996H70.3034V26.0271Z" fill="url(#paint2_linear_40011653_8337)"/>
<path d="M65.7617 26.0271H62.8455C61.8595 26.0271 61.5388 25.5935 61.5388 24.7204V22.0121H62.6198V24.6195C62.6198 24.9105 62.697 24.9996 62.9762 24.9996H65.7617V26.0271Z" fill="url(#paint3_linear_40011653_8337)"/>
<path d="M57.4055 22.0121H61.0582V23.0752H58.0054C57.9401 23.0752 57.9104 23.1109 57.9104 23.1762V23.6335H61.0404V24.4057H57.9104V24.8927C57.9104 24.964 57.9401 24.9996 58.0054 24.9996H61.0582V26.0271H57.3996C57.0254 26.0271 56.8353 25.843 56.8353 25.4688V22.5526C56.8353 22.1903 57.0254 22.0121 57.4055 22.0121Z" fill="url(#paint4_linear_40011653_8337)"/>
<path d="M56.2205 22.0121V23.0752H53.3339C53.2033 23.0752 53.132 23.1049 53.0845 23.1524C53.031 23.2059 53.0013 23.2771 53.0013 23.3603C53.0013 23.4494 53.0429 23.5266 53.1023 23.5741C53.1498 23.6157 53.2092 23.6335 53.3339 23.6335H55.0979C55.5493 23.6335 55.8522 23.7761 56.0661 23.9958C56.2799 24.2156 56.4105 24.5125 56.4105 24.8273C56.4105 25.1184 56.2977 25.3975 56.1136 25.6113C55.8938 25.8667 55.5731 26.0271 55.0979 26.0271H51.9857V24.9996H54.9079C55.0742 24.9996 55.1573 24.9639 55.2108 24.8986C55.2524 24.8511 55.2761 24.7858 55.2761 24.7145C55.2761 24.6313 55.2464 24.5541 55.193 24.5007C55.1395 24.4413 55.0623 24.4116 54.9079 24.4116H53.2745C52.74 24.4116 52.4311 24.269 52.2173 24.0493C52.0035 23.8295 51.8788 23.5385 51.8788 23.2118C51.8788 22.8911 52.0095 22.5941 52.2233 22.3744C52.4371 22.1546 52.74 22.0121 53.2745 22.0121H56.2205Z" fill="url(#paint5_linear_40011653_8337)"/>
<path d="M40 21.5878C40 20.4163 40.9497 19.4666 42.1212 19.4666H48.0606C49.2321 19.4666 50.1818 20.4163 50.1818 21.5878V26.6787C50.1818 27.8502 49.2321 28.7999 48.0606 28.7999H42.1212C40.9497 28.7999 40 27.8502 40 26.6787V21.5878Z" fill="#9E0039"/>
<path d="M40 21.5878C40 20.4163 40.9497 19.4666 42.1212 19.4666H48.0606C49.2321 19.4666 50.1818 20.4163 50.1818 21.5878V26.6787C50.1818 27.8502 49.2321 28.7999 48.0606 28.7999H42.1212C40.9497 28.7999 40 27.8502 40 26.6787V21.5878Z" fill="url(#paint6_linear_40011653_8337)"/>
<path d="M45.0908 26.2545C44.7788 26.2545 44.4862 26.1402 44.3496 25.8814L43.0168 23.3239C43.0038 23.2938 42.9648 23.2758 42.9322 23.2758C42.8802 23.2758 42.8282 23.3119 42.8282 23.3841V26.1703H41.6969V23.1915C41.6969 22.7342 41.8464 22.4514 42.1065 22.2588C42.3016 22.1144 42.5616 22.0121 42.8737 22.0121C43.4329 22.0121 43.758 22.319 43.9855 22.7703L44.9803 24.7682C45.0063 24.8283 45.0388 24.8464 45.0908 24.8464C45.1429 24.8464 45.1754 24.8283 45.2014 24.7682L46.1961 22.7703C46.4237 22.319 46.7488 22.0121 47.308 22.0121C47.62 22.0121 47.8801 22.1144 48.0752 22.2588C48.3352 22.4514 48.4848 22.7342 48.4848 23.1915V26.1703H47.3535V23.3841C47.3535 23.3119 47.3015 23.2758 47.2494 23.2758C47.2169 23.2758 47.1779 23.2938 47.1649 23.3239L45.832 25.8814C45.6955 26.1402 45.4029 26.2545 45.0908 26.2545Z" fill="#FFFBFC"/>
<path d="M143.089 4.26663V7.44844H134.45C134.059 7.44844 133.846 7.53732 133.704 7.67952C133.544 7.8395 133.455 8.0528 133.455 8.30166C133.455 8.56829 133.579 8.79937 133.757 8.94158C133.899 9.06601 134.077 9.11933 134.45 9.11933H139.73C141.081 9.11933 141.987 9.54594 142.627 10.2036C143.267 10.8613 143.658 11.7501 143.658 12.6922C143.658 13.5632 143.32 14.3986 142.769 15.0386C142.112 15.8029 141.152 16.2828 139.73 16.2828H130.415V13.2077H139.161C139.659 13.2077 139.907 13.101 140.067 12.9055C140.192 12.7633 140.263 12.5678 140.263 12.3545C140.263 12.1056 140.174 11.8745 140.014 11.7145C139.854 11.5368 139.623 11.4479 139.161 11.4479H134.273C132.673 11.4479 131.748 11.0213 131.109 10.3636C130.469 9.70592 130.095 8.83492 130.095 7.85727C130.095 6.8974 130.486 6.00863 131.126 5.35094C131.766 4.69324 132.673 4.26663 134.273 4.26663H143.089Z" fill="#414B4F"/>
<path d="M128.736 4.26657V13.9542C128.736 15.7673 127.652 16.5316 126.479 16.5316C125.466 16.5316 124.701 16.2472 124.133 15.5895L117.538 7.96387C117.449 7.85721 117.36 7.80389 117.253 7.80389C117.093 7.80389 116.951 7.92831 116.951 8.14162V16.2828H113.787V6.80846C113.787 4.76428 114.96 3.99994 116.578 3.99994C117.716 3.99994 118.427 4.30212 119.173 5.19089L125.039 12.2122C125.128 12.3366 125.235 12.3544 125.341 12.3544C125.483 12.3544 125.59 12.2478 125.59 12.0344V4.26657H128.736Z" fill="#414B4F"/>
<path d="M105.901 16.2828H103.377C101.226 16.2828 99.6441 15.5363 98.5421 14.3275C97.5822 13.2788 96.9956 11.8568 96.9956 10.2747C96.9956 8.53274 97.7422 6.95073 98.9331 5.84865C99.9997 4.871 101.439 4.26663 103.377 4.26663H105.901C107.839 4.26663 109.278 4.871 110.345 5.84865C111.536 6.95073 112.282 8.53274 112.282 10.2747C112.282 11.8568 111.696 13.2788 110.736 14.3275C109.634 15.5363 108.052 16.2828 105.901 16.2828ZM105.901 7.44844H103.377C102.293 7.44844 101.617 7.75062 101.102 8.23056C100.551 8.74605 100.213 9.49262 100.213 10.2925C100.213 11.0213 100.497 11.6968 100.96 12.1945C101.475 12.7633 102.239 13.1188 103.377 13.1188H105.901C107.039 13.1188 107.803 12.7633 108.319 12.1945C108.781 11.6968 109.065 11.0213 109.065 10.2925C109.065 9.49262 108.727 8.74605 108.176 8.23056C107.661 7.75062 106.985 7.44844 105.901 7.44844Z" fill="#414B4F"/>
<path d="M83.8961 4.26663H87.149V9.19043L92.6239 4.76435C92.8016 4.62214 92.9972 4.42661 93.1216 4.26663H97.6188C97.5477 4.37329 97.4055 4.49771 97.2988 4.58659L90.6863 9.70592C90.6152 9.75925 90.5797 9.81257 90.5797 9.90145C90.5797 9.99033 90.5975 10.0259 90.6863 10.097L97.7788 15.8385C97.9387 15.9807 98.0987 16.1229 98.2409 16.2828H93.4415C93.2993 16.1229 93.1216 15.9629 92.9083 15.7851L87.149 10.968V16.2828H83.8961V4.26663Z" fill="#414B4F"/>
<path d="M82.6457 16.2828H73.9179C70.9672 16.2828 70.0073 14.9852 70.0073 12.3722V4.26663H73.2425V12.0701C73.2425 12.9411 73.4735 13.2077 74.309 13.2077H82.6457V16.2828Z" fill="#414B4F"/>
<path d="M69.0538 16.2828H60.326C57.3753 16.2828 56.4154 14.9852 56.4154 12.3722V4.26663H59.6505V12.0701C59.6505 12.9411 59.8816 13.2077 60.7171 13.2077H69.0538V16.2828Z" fill="#414B4F"/>
<path d="M51.4474 6.22187L55.7846 15.7495C55.8735 15.945 55.9268 16.105 55.9801 16.2828H52.3539C52.3184 16.1228 52.2651 15.9984 52.2117 15.8739L51.5718 14.4164H44.4616L43.8395 15.8562C43.7862 15.9984 43.7328 16.1406 43.7151 16.2828H40C40.0533 16.105 40.1067 15.945 40.1955 15.7495L44.4972 6.22187C45.1727 4.72873 46.257 3.99994 47.9812 3.99994C49.6521 3.99994 50.7719 4.72873 51.4474 6.22187ZM45.6348 11.7678H50.3986L48.55 7.46615C48.4433 7.19952 48.23 7.09287 47.999 7.09287C47.7856 7.09287 47.5901 7.18175 47.4657 7.46615L45.6348 11.7678Z" fill="#414B4F"/>
<defs>
<linearGradient id="paint0_linear_40011653_8337" x1="65.9365" y1="20.512" x2="65.9365" y2="27.7241" gradientUnits="userSpaceOnUse">
<stop stop-color="#9E0039"/>
<stop offset="1" stop-color="#BB4D74"/>
</linearGradient>
<linearGradient id="paint1_linear_40011653_8337" x1="65.9365" y1="20.512" x2="65.9365" y2="27.7241" gradientUnits="userSpaceOnUse">
<stop stop-color="#9E0039"/>
<stop offset="1" stop-color="#BB4D74"/>
</linearGradient>
<linearGradient id="paint2_linear_40011653_8337" x1="65.9365" y1="20.512" x2="65.9365" y2="27.7241" gradientUnits="userSpaceOnUse">
<stop stop-color="#9E0039"/>
<stop offset="1" stop-color="#BB4D74"/>
</linearGradient>
<linearGradient id="paint3_linear_40011653_8337" x1="65.9364" y1="20.512" x2="65.9364" y2="27.7241" gradientUnits="userSpaceOnUse">
<stop stop-color="#9E0039"/>
<stop offset="1" stop-color="#BB4D74"/>
</linearGradient>
<linearGradient id="paint4_linear_40011653_8337" x1="65.9364" y1="20.512" x2="65.9364" y2="27.7241" gradientUnits="userSpaceOnUse">
<stop stop-color="#9E0039"/>
<stop offset="1" stop-color="#BB4D74"/>
</linearGradient>
<linearGradient id="paint5_linear_40011653_8337" x1="65.9365" y1="20.5119" x2="65.9365" y2="27.724" gradientUnits="userSpaceOnUse">
<stop stop-color="#9E0039"/>
<stop offset="1" stop-color="#BB4D74"/>
</linearGradient>
<linearGradient id="paint6_linear_40011653_8337" x1="45.0909" y1="19.4666" x2="45.0909" y2="28.7999" gradientUnits="userSpaceOnUse">
<stop stop-color="#9E0039"/>
<stop offset="1" stop-color="#BB4D74"/>
</linearGradient>
</defs>
</svg>
