<svg width="126" height="28" viewBox="0 0 126 28" fill="none" xmlns="http://www.w3.org/2000/svg">
<path d="M66.9529 21.5265V22.7738H66.0122V19.4789C66.0122 19.3334 66.0902 19.2606 66.2461 19.2606H68.7406C69.172 19.2606 69.4474 19.3905 69.6397 19.5932C69.8112 19.7751 69.9203 20.0194 69.9203 20.2844C69.9203 20.5651 69.8372 20.8301 69.5877 21.012C69.8216 21.1523 69.9255 21.3394 69.9255 21.7396V22.4412C69.9255 22.5919 69.9307 22.675 69.9411 22.7738H68.9901C68.9797 22.6958 68.9745 22.6179 68.9745 22.5399V21.8383C68.9745 21.6148 68.8653 21.5265 68.5899 21.5265H66.9529ZM66.9529 20.7262H68.6159C68.7458 20.7262 68.8238 20.6794 68.8809 20.6118C68.9225 20.5599 68.9485 20.4975 68.9485 20.4299C68.9485 20.3572 68.9225 20.2844 68.8705 20.2325C68.8186 20.1753 68.7354 20.1389 68.6159 20.1389H67.0308C66.9788 20.1389 66.9529 20.1701 66.9529 20.2169V20.7262Z" fill="#414B4F"/>
<path d="M62.3746 19.2606H65.5708V20.1909H62.8995C62.8424 20.1909 62.8164 20.2221 62.8164 20.2792V20.6794H65.5552V21.355H62.8164V21.7812C62.8164 21.8435 62.8424 21.8747 62.8995 21.8747H65.5708V22.7738H62.3694C62.042 22.7738 61.8757 22.6127 61.8757 22.2853V19.7335C61.8757 19.4165 62.042 19.2606 62.3746 19.2606Z" fill="#414B4F"/>
<path d="M61.5154 22.7738H58.9636C58.1009 22.7738 57.8203 22.3944 57.8203 21.6304V19.2606H58.7662V21.5421C58.7662 21.7967 58.8337 21.8747 59.078 21.8747H61.5154V22.7738Z" fill="#414B4F"/>
<path d="M57.5416 22.7738H54.9899C54.1272 22.7738 53.8466 22.3944 53.8466 21.6304V19.2606H54.7924V21.5421C54.7924 21.7967 54.86 21.8747 55.1042 21.8747H57.5416V22.7738Z" fill="#414B4F"/>
<path d="M50.2299 19.2606H53.426V20.1909H50.7548C50.6976 20.1909 50.6716 20.2221 50.6716 20.2792V20.6794H53.4104V21.355H50.6716V21.7812C50.6716 21.8435 50.6976 21.8747 50.7548 21.8747H53.426V22.7738H50.2247C49.8973 22.7738 49.731 22.6127 49.731 22.2853V19.7335C49.731 19.4165 49.8973 19.2606 50.2299 19.2606Z" fill="#414B4F"/>
<path d="M49.1929 19.2606V20.1908H46.6672C46.5528 20.1908 46.4905 20.2168 46.4489 20.2584C46.4021 20.3052 46.3761 20.3675 46.3761 20.4403C46.3761 20.5183 46.4125 20.5858 46.4645 20.6274C46.5061 20.6638 46.558 20.6794 46.6672 20.6794H48.2107C48.6057 20.6794 48.8707 20.8041 49.0578 20.9964C49.2449 21.1887 49.3592 21.4485 49.3592 21.724C49.3592 21.9786 49.2605 22.2229 49.0994 22.41C48.9071 22.6334 48.6264 22.7737 48.2107 22.7737H45.4875V21.8747H48.0444C48.1899 21.8747 48.2627 21.8435 48.3094 21.7863C48.3458 21.7447 48.3666 21.6876 48.3666 21.6252C48.3666 21.5525 48.3406 21.4849 48.2938 21.4381C48.2471 21.3862 48.1795 21.3602 48.0444 21.3602H46.6152C46.1475 21.3602 45.8772 21.2354 45.6901 21.0432C45.5031 20.8509 45.3939 20.5962 45.3939 20.3104C45.3939 20.0297 45.5083 19.7699 45.6953 19.5776C45.8824 19.3853 46.1475 19.2606 46.6152 19.2606H49.1929Z" fill="#414B4F"/>
<path d="M42.0527 17.0336C43.0777 17.0336 43.909 17.8642 43.9092 18.8891V23.3442C43.909 24.3691 43.0777 25.1996 42.0527 25.1996H36.8564C35.8315 25.1996 35.0001 24.3691 35 23.3442V18.8891C35.0002 17.8642 35.8315 17.0336 36.8564 17.0336H42.0527ZM41.3945 19.2602C40.9053 19.2602 40.621 19.5293 40.4219 19.9243L39.5508 21.6723C39.528 21.7247 39.4995 21.7407 39.4541 21.7407C39.4088 21.7406 39.3801 21.7248 39.3574 21.6723L38.4873 19.9243C38.2882 19.5294 38.0038 19.2602 37.5146 19.2602C37.2416 19.2602 37.0134 19.3496 36.8428 19.476C36.6153 19.6445 36.4844 19.8924 36.4844 20.2924V22.8989H37.4746V20.4614C37.4746 20.3983 37.52 20.3668 37.5654 20.3666C37.5939 20.3666 37.6283 20.3823 37.6396 20.4086L38.8057 22.6459C38.9251 22.8722 39.1812 22.973 39.4541 22.9731C39.7272 22.9731 39.984 22.8723 40.1035 22.6459L41.2695 20.4086C41.2809 20.3823 41.3153 20.3666 41.3438 20.3666C41.3891 20.3668 41.4346 20.3984 41.4346 20.4614V22.8989H42.4238V20.2924C42.4238 19.8924 42.293 19.6445 42.0654 19.476C41.8948 19.3498 41.6673 19.2602 41.3945 19.2602Z" fill="#414B4F"/>
<path d="M125.203 3.73334V6.51742H117.644C117.302 6.51742 117.115 6.59519 116.991 6.71961C116.851 6.8596 116.773 7.04624 116.773 7.26399C116.773 7.49729 116.882 7.69949 117.038 7.82392C117.162 7.93279 117.317 7.97945 117.644 7.97945H122.264C123.446 7.97945 124.239 8.35273 124.799 8.92822C125.359 9.5037 125.701 10.2814 125.701 11.1057C125.701 11.8678 125.405 12.5988 124.923 13.1588C124.348 13.8276 123.508 14.2475 122.264 14.2475H114.113V11.5568H121.766C122.201 11.5568 122.419 11.4634 122.559 11.2924C122.668 11.1679 122.73 10.9968 122.73 10.8102C122.73 10.5924 122.652 10.3902 122.512 10.2503C122.372 10.0947 122.17 10.017 121.766 10.017H117.489C116.089 10.017 115.28 9.64368 114.72 9.0682C114.16 8.49272 113.833 7.73059 113.833 6.87515C113.833 6.03526 114.176 5.25758 114.736 4.6821C115.296 4.10662 116.089 3.73334 117.489 3.73334H125.203Z" fill="#414B4F"/>
<path d="M112.644 3.7333V12.21C112.644 13.7964 111.695 14.4652 110.669 14.4652C109.782 14.4652 109.114 14.2164 108.616 13.6409L102.846 6.96844C102.768 6.87511 102.69 6.82845 102.597 6.82845C102.457 6.82845 102.332 6.93733 102.332 7.12397V14.2475H99.5637V5.95746C99.5637 4.1688 100.59 3.5 102.006 3.5C103.001 3.5 103.623 3.76441 104.276 4.54209L109.409 10.6857C109.487 10.7946 109.58 10.8102 109.674 10.8102C109.798 10.8102 109.891 10.7168 109.891 10.5302V3.7333H112.644Z" fill="#414B4F"/>
<path d="M92.6635 14.2475H90.4549C88.573 14.2475 87.1887 13.5943 86.2244 12.5366C85.3845 11.619 84.8712 10.3747 84.8712 8.99043C84.8712 7.46618 85.5245 6.08192 86.5666 5.1176C87.4998 4.26216 88.7596 3.73334 90.4549 3.73334H92.6635C94.3589 3.73334 95.6187 4.26216 96.5519 5.1176C97.594 6.08192 98.2472 7.46618 98.2472 8.99043C98.2472 10.3747 97.734 11.619 96.8941 12.5366C95.9298 13.5943 94.5455 14.2475 92.6635 14.2475ZM92.6635 6.51742H90.4549C89.5062 6.51742 88.9151 6.78183 88.4641 7.20177C87.9819 7.65283 87.6864 8.30607 87.6864 9.00598C87.6864 9.64368 87.9353 10.2347 88.3397 10.6702C88.7907 11.1679 89.4595 11.479 90.4549 11.479H92.6635C93.659 11.479 94.3278 11.1679 94.7788 10.6702C95.1832 10.2347 95.4321 9.64368 95.4321 9.00598C95.4321 8.30607 95.1365 7.65283 94.6544 7.20177C94.2033 6.78183 93.6123 6.51742 92.6635 6.51742Z" fill="#414B4F"/>
<path d="M73.4091 3.73334H76.2554V8.04166L81.0458 4.16884C81.2014 4.04441 81.3725 3.87332 81.4813 3.73334H85.4164C85.3542 3.82666 85.2297 3.93553 85.1364 4.0133L79.3505 8.49272C79.2883 8.53938 79.2572 8.58604 79.2572 8.66381C79.2572 8.74157 79.2727 8.77268 79.3505 8.83489L85.5564 13.8587C85.6963 13.9831 85.8363 14.1075 85.9608 14.2475H81.7613C81.6369 14.1075 81.4813 13.9676 81.2947 13.812L76.2554 9.59702V14.2475H73.4091V3.73334Z" fill="#414B4F"/>
<path d="M72.315 14.2475H64.6782C62.0964 14.2475 61.2565 13.1121 61.2565 10.8257V3.73334H64.0872V10.5613C64.0872 11.3235 64.2894 11.5568 65.0204 11.5568H72.315V14.2475Z" fill="#414B4F"/>
<path d="M60.422 14.2475H52.7852C50.2033 14.2475 49.3634 13.1121 49.3634 10.8257V3.73334H52.1941V10.5613C52.1941 11.3235 52.3963 11.5568 53.1274 11.5568H60.422V14.2475Z" fill="#414B4F"/>
<path d="M45.0165 5.44419L48.8115 13.7809C48.8893 13.952 48.936 14.092 48.9826 14.2475H45.8097C45.7786 14.1075 45.7319 13.9986 45.6853 13.8898L45.1253 12.6144H38.9039L38.3596 13.8742C38.3129 13.9986 38.2662 14.1231 38.2507 14.2475H35C35.0467 14.092 35.0933 13.952 35.1711 13.7809L38.935 5.44419C39.5261 4.13769 40.4748 3.5 41.9835 3.5C43.4456 3.5 44.4254 4.13769 45.0165 5.44419ZM39.9305 10.2969H44.0988L42.4812 6.53294C42.3879 6.29963 42.2013 6.20631 41.9991 6.20631C41.8124 6.20631 41.6414 6.28408 41.5325 6.53294L39.9305 10.2969Z" fill="#414B4F"/>
<path d="M16.563 27.7713C16.6706 27.5799 16.7267 27.3639 16.7259 27.1443C16.725 26.9248 16.6672 26.7092 16.558 26.5187C16.4674 26.3609 16.3436 26.2248 16.1951 26.1196C16.0467 26.0145 15.8771 25.9429 15.6983 25.9097C15.6049 25.8877 15.4935 25.8668 15.3689 25.8465C15.1707 25.8141 14.9845 25.7845 14.8034 25.7565C14.0644 25.6395 13.4808 25.5473 12.979 25.4144C12.6396 25.314 12.3079 25.1894 11.9864 25.0415C11.9633 25.0311 11.9414 25.0201 11.9194 25.0075C11.7592 24.915 11.6374 24.7682 11.576 24.5937C11.5145 24.4192 11.5176 24.2285 11.5845 24.0561C11.6514 23.8836 11.7778 23.7408 11.9408 23.6534C12.1038 23.566 12.2927 23.5399 12.4733 23.5797C13.0502 23.7355 13.6373 23.8506 14.2302 23.924C14.9359 23.9699 15.6438 23.9699 16.3494 23.924H16.3609C16.7169 24.4035 17.2107 24.7629 17.7764 24.9542C18.342 25.1454 18.9526 25.1594 19.5264 24.9942C20.1002 24.829 20.6099 24.4925 20.9874 24.0297C21.3648 23.567 21.5921 23 21.6387 22.4046L21.6474 22.4007C22.3975 22.0053 23.0919 21.5125 23.7128 20.935C24.1866 20.4584 24.6495 19.8598 25.3132 19.0444C25.4055 18.9318 25.4719 18.8566 25.5196 18.8055C25.6391 18.6639 25.8052 18.5697 25.988 18.5399C26.1708 18.5101 26.3583 18.5467 26.5165 18.643C26.6748 18.7394 26.7933 18.8891 26.8508 19.0652C26.9083 19.2413 26.901 19.4322 26.8301 19.6034V19.6078L26.8258 19.6188V19.6248C25.9017 21.7114 24.4858 23.5428 22.6993 24.9622C20.9128 26.3817 18.8089 27.3469 16.5679 27.7751L16.563 27.7713Z" fill="#414B4F"/>
<path d="M16.5953 23.3997C16.8941 23.9156 17.3708 24.3047 17.936 24.4941C18.5012 24.6836 19.116 24.6603 19.6653 24.4286C20.2145 24.197 20.6604 23.7729 20.9194 23.2359C21.1784 22.6989 21.2326 22.0859 21.072 21.5118C21.0167 21.314 20.937 21.1238 20.8348 20.9456C20.5365 20.4286 20.0597 20.0384 19.494 19.8482C18.9284 19.658 18.3128 19.681 17.7629 19.9129C17.213 20.1447 16.7666 20.5695 16.5078 21.1073C16.2489 21.6451 16.1953 22.259 16.357 22.8335C16.4119 23.0316 16.4918 23.2219 16.5948 23.3997" fill="#414B4F"/>
<path d="M3.36081 23.1069C3.56139 23.1048 3.75861 23.055 3.9361 22.9615C4.11359 22.868 4.26623 22.7336 4.38144 22.5694C4.49665 22.4051 4.57109 22.2158 4.59858 22.017C4.62607 21.8183 4.60583 21.6159 4.53954 21.4265C4.51154 21.3343 4.47478 21.2277 4.42976 21.108C4.35839 20.9202 4.28973 20.7423 4.22495 20.5731C3.95648 19.8746 3.74459 19.3228 3.60898 18.822C3.52594 18.4775 3.46777 18.1276 3.43494 17.7748C3.43217 17.7496 3.43084 17.7243 3.43105 17.699C3.4305 17.5138 3.49641 17.3345 3.61676 17.1938C3.7371 17.053 3.90396 16.9601 4.08696 16.9319C4.26996 16.9038 4.45696 16.9422 4.61406 17.0402C4.77116 17.1382 4.88789 17.2893 4.94305 17.4661C5.09685 18.0441 5.29093 18.6105 5.5239 19.1613C5.83784 19.795 6.19256 20.4077 6.58575 20.9955L6.59285 21.0059C6.35566 21.5539 6.29132 22.1612 6.40842 22.7468C6.52551 23.3323 6.81847 23.8681 7.24816 24.2827C7.67785 24.6973 8.22379 24.9708 8.81304 25.0668C9.4023 25.1627 10.0068 25.0765 10.5458 24.8196L10.5529 24.8257C11.2703 25.278 12.0444 25.6334 12.8549 25.8828C13.5039 26.0546 14.2533 26.1574 15.2909 26.3221C15.4342 26.3457 15.5325 26.3655 15.6005 26.3819C15.7847 26.4129 15.9516 26.5091 16.0705 26.6531C16.1895 26.797 16.2527 26.979 16.2485 27.1657C16.2443 27.3524 16.173 27.5314 16.0476 27.6698C15.9223 27.8082 15.7513 27.8969 15.566 27.9195H15.5605H15.5489H15.5424C13.2739 28.163 10.9802 27.8521 8.85821 27.0136C6.73626 26.1752 4.84947 24.8342 3.35974 23.1058L3.36081 23.1069Z" fill="#414B4F"/>
<path d="M7.16172 20.949C6.84942 21.4893 6.75477 22.1283 6.89693 22.736C7.0391 23.3437 7.40745 23.8744 7.92701 24.22C8.44657 24.5656 9.07828 24.7002 9.69355 24.5963C10.3088 24.4925 10.8614 24.158 11.2388 23.661C11.6162 23.164 11.7901 22.5418 11.725 21.9211C11.66 21.3004 11.3608 20.7279 10.8886 20.32C10.4163 19.9121 9.80643 19.6995 9.183 19.7256C8.55958 19.7516 7.96947 20.0143 7.53287 20.4602C7.38919 20.6069 7.26448 20.7711 7.16172 20.949Z" fill="#414B4F"/>
<path d="M0.796938 9.33398C0.898982 9.50676 1.04069 9.65271 1.21038 9.75978C1.38006 9.86685 1.57281 9.93194 1.77266 9.94965C1.97251 9.96737 2.17368 9.93719 2.35954 9.86164C2.54541 9.78608 2.71064 9.66731 2.84147 9.51517C2.90626 9.44543 2.98039 9.35977 3.06109 9.26038C3.18846 9.10388 3.30813 8.95669 3.42232 8.81612C3.89228 8.23403 4.26394 7.77278 4.63013 7.4065C4.88651 7.1622 5.16031 6.93681 5.4493 6.73214C5.46979 6.71731 5.49103 6.70355 5.51297 6.69095C5.67313 6.59879 5.86096 6.56694 6.04255 6.60113C6.22413 6.63532 6.38753 6.73331 6.50323 6.8774C6.61894 7.0215 6.67934 7.20223 6.67353 7.38696C6.66772 7.57169 6.59606 7.74824 6.47153 7.88478C6.04796 8.30673 5.65482 8.75816 5.29502 9.23568C4.90316 9.82461 4.54994 10.4384 4.2376 11.0731L4.23264 11.0841C3.63929 11.1528 3.08106 11.401 2.63251 11.7955C2.18396 12.19 1.86649 12.7121 1.72253 13.2919C1.57857 13.8718 1.61496 14.4818 1.82688 15.0403C2.03879 15.5989 2.41613 16.0795 2.90842 16.4179V16.4272C2.87532 17.2748 2.95456 18.1231 3.14399 18.9499C3.32023 19.5985 3.60625 20.2986 3.97958 21.2816C4.03448 21.4178 4.06301 21.5133 4.08333 21.5803C4.14664 21.7547 4.14545 21.946 4.07998 22.1195C4.0145 22.2931 3.88908 22.4375 3.72639 22.5265C3.56369 22.6156 3.37451 22.6434 3.19305 22.605C3.0116 22.5667 2.84983 22.4646 2.73713 22.3172L2.73438 22.3128L2.72781 22.3035L2.72345 22.298C2.41948 21.8812 2.13847 21.448 1.88177 21.0004C0.868906 19.2497 0.247418 17.3002 0.0601361 15.2862C-0.127146 13.2722 0.124254 11.2415 0.796938 9.33398Z" fill="#414B4F"/>
<path d="M4.56588 11.5485C3.94233 11.5483 3.34212 11.7858 2.88747 12.2127C2.43282 12.6395 2.15789 13.2236 2.11863 13.846C2.07938 14.4685 2.27881 15.0825 2.67623 15.5631C3.07365 16.0437 3.63923 16.3548 4.25787 16.433C4.8765 16.5111 5.50166 16.3506 6.00611 15.984C6.51056 15.6173 6.85635 15.0722 6.97312 14.4596C7.0899 13.8469 6.96889 13.2128 6.63468 12.6862C6.30047 12.1597 5.77821 11.7803 5.17421 11.6254C4.97546 11.5744 4.77107 11.5485 4.56588 11.5485Z" fill="#414B4F"/>
<path d="M11.4363 0.225087C11.3295 0.415793 11.2736 0.630871 11.2743 0.84947C11.2742 1.1432 11.3769 1.4277 11.5645 1.65367C11.7521 1.87964 12.0128 2.03283 12.3015 2.08667C12.3954 2.10864 12.5063 2.1295 12.6309 2.14982C12.8296 2.18222 13.0152 2.21187 13.1959 2.23988C13.9348 2.35685 14.5184 2.44909 15.0202 2.58199C15.3595 2.68257 15.6912 2.80718 16.0128 2.95486C16.0358 2.96503 16.0583 2.97657 16.0799 2.98945C16.2409 3.08142 16.3635 3.22816 16.4255 3.40298C16.4875 3.57779 16.4848 3.76907 16.4177 3.942C16.3506 4.11492 16.2237 4.25799 16.06 4.3452C15.8964 4.43242 15.7068 4.458 15.5259 4.41723C14.949 4.26147 14.3619 4.14641 13.769 4.07291C13.0633 4.02782 12.3554 4.02874 11.6498 4.07566H11.6377C11.282 3.59585 10.7882 3.23617 10.2224 3.04475C9.65669 2.85333 9.04599 2.83929 8.47205 3.00453C7.89811 3.16977 7.38827 3.50638 7.01084 3.96935C6.63341 4.43231 6.40634 4.99953 6.36003 5.59511L6.35125 5.59896C5.60117 5.99427 4.9067 6.4871 4.28587 7.06462C3.81207 7.54127 3.34978 8.13984 2.68547 8.95476C2.59323 9.06734 2.52681 9.14257 2.47905 9.19364C2.35958 9.33522 2.19347 9.4294 2.01066 9.45919C1.82784 9.48898 1.64037 9.45243 1.48215 9.35609C1.32393 9.25976 1.20537 9.11 1.14786 8.93388C1.09035 8.75777 1.0977 8.56691 1.16857 8.39574V8.39135L1.17292 8.38035L1.17628 8.37432C1.38514 7.90246 1.61951 7.44232 1.87843 6.99598C2.88723 5.24316 4.26419 3.73009 5.91429 2.56114C7.56438 1.39219 9.44838 0.595178 11.4363 0.225087Z" fill="#414B4F"/>
<path d="M11.4056 4.59766C11.0941 4.0562 10.588 3.6538 9.99039 3.4724C9.39275 3.291 8.74851 3.34424 8.18873 3.62125C7.62895 3.89827 7.19573 4.37826 6.9773 4.9635C6.75888 5.54874 6.77166 6.19524 7.01302 6.77139C7.25439 7.34755 7.70618 7.81002 8.27646 8.0647C8.84674 8.31939 9.4926 8.34713 10.0826 8.14226C10.6726 7.9374 11.1624 7.51535 11.4523 6.962C11.7421 6.40866 11.8102 5.76564 11.6427 5.16383C11.5873 4.96606 11.5076 4.77589 11.4056 4.59766Z" fill="#414B4F"/>
<path d="M24.6386 4.88978C24.4379 4.89168 24.2406 4.94138 24.0629 5.03478C23.8853 5.12818 23.7325 5.26259 23.6171 5.42686C23.5018 5.59112 23.4273 5.78052 23.3997 5.97935C23.3722 6.17817 23.3924 6.3807 23.4587 6.57015C23.4867 6.6624 23.5241 6.76894 23.5686 6.88866C23.6399 7.07646 23.7085 7.25438 23.7733 7.42352C24.0418 8.12202 24.2537 8.67446 24.3893 9.17527C24.4725 9.5195 24.5307 9.8693 24.5634 10.2219C24.5663 10.2471 24.5678 10.2724 24.5677 10.2977C24.5678 10.4827 24.5017 10.6617 24.3813 10.8021C24.2609 10.9426 24.0942 11.0353 23.9114 11.0634C23.7285 11.0916 23.5417 11.0533 23.3847 10.9555C23.2276 10.8578 23.1107 10.707 23.0552 10.5305C22.9016 9.95294 22.7077 9.38687 22.4749 8.83645C22.1614 8.20219 21.8067 7.58912 21.4131 7.00121L21.4059 6.99078C21.6431 6.44279 21.7075 5.83547 21.5904 5.24992C21.4733 4.66438 21.1803 4.12851 20.7506 3.71395C20.3209 3.29938 19.775 3.02584 19.1857 2.92989C18.5965 2.83395 17.992 2.92017 17.453 3.17701L17.4459 3.17098C16.7288 2.71877 15.9552 2.36334 15.145 2.11389C14.495 1.94201 13.7461 1.83933 12.709 1.67459C12.5652 1.65097 12.4663 1.6312 12.3988 1.61473C12.2163 1.58225 12.0515 1.48555 11.9341 1.34213C11.8167 1.19872 11.7546 1.01805 11.7587 0.832747C11.7629 0.647444 11.8332 0.469747 11.9569 0.331771C12.0807 0.193796 12.2496 0.104649 12.4334 0.0804291H12.4388H12.4504H12.457C14.7256 -0.162934 17.0193 0.147943 19.1414 0.986387C21.2634 1.82483 23.1503 3.16579 24.6402 4.89417L24.6386 4.88978Z" fill="#414B4F"/>
<path d="M20.8355 7.04812C21.1472 6.50783 21.2414 5.869 21.0989 5.26167C20.9564 4.65435 20.5878 4.12419 20.0682 3.77909C19.5487 3.434 18.9171 3.29991 18.3022 3.40414C17.6873 3.50837 17.1352 3.84308 16.7583 4.34013C16.3814 4.83718 16.2081 5.4592 16.2736 6.07958C16.339 6.69997 16.6384 7.2721 17.1108 7.67947C17.5831 8.08685 18.1929 8.29885 18.816 8.27235C19.4392 8.24586 20.0288 7.98286 20.4648 7.53686C20.6083 7.39011 20.7329 7.22591 20.8355 7.04812Z" fill="#414B4F"/>
<path d="M27.2018 18.6627C27.09 18.4737 26.9309 18.317 26.7402 18.2081C26.5496 18.0993 26.3338 18.0419 26.1142 18.0416C25.9325 18.0412 25.7529 18.0803 25.5877 18.1561C25.4226 18.232 25.2759 18.3428 25.1578 18.4809C25.0925 18.5507 25.0179 18.6363 24.9383 18.7357C24.8109 18.8917 24.6917 19.0394 24.5781 19.18C24.1076 19.7621 23.7359 20.2234 23.3702 20.5902C23.1139 20.8346 22.8402 21.0599 22.5511 21.2645C22.5309 21.2794 22.5098 21.2932 22.488 21.3057C22.3278 21.3985 22.1397 21.4308 21.9578 21.3968C21.7759 21.3628 21.6122 21.2647 21.4964 21.1203C21.3805 20.976 21.3202 20.7949 21.3264 20.6099C21.3325 20.4249 21.4048 20.2482 21.53 20.1119C21.9538 19.6901 22.3469 19.2387 22.7065 18.761C23.0984 18.1721 23.4516 17.5583 23.7639 16.9236L23.7688 16.9126C24.3622 16.8439 24.9204 16.5957 25.369 16.2012C25.8175 15.8066 26.135 15.2845 26.279 14.7047C26.4229 14.1249 26.3865 13.5149 26.1746 12.9563C25.9627 12.3978 25.5854 11.9171 25.0931 11.5788V11.5695C25.1262 10.7219 25.0469 9.87358 24.8575 9.04674C24.6813 8.3982 24.3952 7.69804 24.0219 6.71508C23.9703 6.57944 23.9385 6.48391 23.9182 6.41691C23.8549 6.24255 23.856 6.05126 23.9215 5.87769C23.987 5.70413 24.1124 5.55976 24.2751 5.4707C24.4378 5.38164 24.627 5.35378 24.8084 5.39217C24.9899 5.43055 25.1517 5.53262 25.2644 5.67994L25.2677 5.68434L25.2742 5.69369L25.2786 5.69861C25.582 6.1158 25.8628 6.54898 26.1197 6.99625C27.1322 8.74713 27.7533 10.6967 27.9401 12.7108C28.1269 14.7248 27.875 16.7554 27.2018 18.6627Z" fill="#414B4F"/>
<path d="M23.4334 16.4491C24.0575 16.4498 24.6584 16.2125 25.1138 15.7856C25.5692 15.3588 25.8447 14.7743 25.8845 14.1514C25.9243 13.5284 25.7253 12.9136 25.3279 12.4323C24.9304 11.951 24.3645 11.6392 23.7454 11.5605C23.1263 11.4818 22.5005 11.642 21.9953 12.0085C21.4901 12.3751 21.1436 12.9204 21.0262 13.5335C20.9088 14.1467 21.0295 14.7814 21.3636 15.3087C21.6977 15.836 22.2201 16.2161 22.8245 16.3717C23.0234 16.4229 23.228 16.4489 23.4334 16.4491Z" fill="#414B4F"/>
</svg>
