<svg width="238" height="40" viewBox="0 0 238 40" fill="none" xmlns="http://www.w3.org/2000/svg">
<path d="M234.685 15.0615H219.44C219.159 15.0511 218.878 15.0884 218.61 15.1719C218.428 15.2345 218.262 15.3354 218.123 15.4676C217.979 15.6104 217.866 15.781 217.791 15.969C217.715 16.157 217.68 16.3583 217.686 16.5605C217.681 16.776 217.726 16.9896 217.819 17.1845C217.911 17.3795 218.048 17.5503 218.218 17.6836C218.352 17.7915 218.506 17.8706 218.672 17.9157C218.923 17.9774 219.182 18.0041 219.44 17.9952H228.757C229.791 17.9665 230.82 18.1413 231.785 18.5094C232.569 18.8226 233.279 19.295 233.869 19.8964C234.432 20.4768 234.884 21.1539 235.204 21.8946C235.829 23.3552 235.851 25.0018 235.265 26.4783C234.993 27.1715 234.607 27.8148 234.122 28.382C233.517 29.06 232.773 29.6019 231.94 29.9716C230.934 30.3929 229.848 30.5942 228.757 30.5622H212.319V25.1661H227.753C228.098 25.1801 228.444 25.1322 228.773 25.0246C228.995 24.9427 229.194 24.8095 229.354 24.6359C229.583 24.3654 229.705 24.0213 229.697 23.6679C229.705 23.4611 229.67 23.255 229.595 23.062C229.52 22.8689 229.407 22.693 229.262 22.5448C229.113 22.3784 228.923 22.2546 228.71 22.1863C228.398 22.1027 228.074 22.0668 227.751 22.0798H219.125C217.957 22.1199 216.792 21.9448 215.688 21.5632C214.88 21.2595 214.147 20.7865 213.539 20.1762C212.98 19.6029 212.533 18.9305 212.222 18.1939C211.903 17.4278 211.743 16.6053 211.752 15.776C211.746 14.9498 211.912 14.1314 212.241 13.3725C212.557 12.632 213.008 11.9559 213.571 11.3782C214.175 10.7695 214.902 10.2958 215.705 9.98888C216.802 9.60637 217.962 9.43143 219.124 9.47305H234.68L234.685 15.0615Z" fill="white"/>
<path d="M209.374 26.4759C209.389 27.1719 209.277 27.8647 209.041 28.5202C208.852 29.0453 208.552 29.524 208.162 29.9239C207.804 30.2838 207.37 30.5606 206.892 30.7346C206.41 30.9121 205.9 31.0016 205.386 30.9985C204.579 31.0155 203.776 30.8834 203.018 30.609C202.329 30.3436 201.719 29.9087 201.244 29.3452L189.604 15.9635C189.546 15.8838 189.472 15.8175 189.386 15.7692C189.3 15.7209 189.204 15.6918 189.106 15.6838C189.035 15.6833 188.965 15.6972 188.9 15.7245C188.836 15.7519 188.777 15.7921 188.728 15.8427C188.674 15.9013 188.631 15.9701 188.604 16.0452C188.576 16.1203 188.564 16.2001 188.568 16.2799V30.5661H182.988V13.9367C182.968 13.1624 183.089 12.3909 183.346 11.6596C183.552 11.084 183.896 10.5665 184.347 10.1514C184.798 9.73619 185.343 9.43558 185.936 9.27508C186.579 9.09364 187.244 9.0045 187.911 9.0104C188.789 8.95549 189.667 9.11773 190.466 9.48266C191.265 9.8476 191.961 10.4038 192.491 11.1016L202.841 23.4214C202.906 23.5097 202.993 23.5798 203.093 23.6249C203.184 23.6563 203.28 23.6716 203.376 23.6702C203.668 23.6702 203.815 23.4842 203.815 23.109V9.47379H209.37L209.374 26.4759Z" fill="white"/>
<path d="M164.608 30.5605C162.909 30.5992 161.222 30.2855 159.652 29.6393C158.298 29.0583 157.08 28.2038 156.076 27.13C154.704 25.601 153.802 23.7118 153.479 21.6875C153.156 19.6632 153.426 17.5893 154.256 15.713C154.848 14.4014 155.701 13.2228 156.765 12.2484C157.735 11.3592 158.869 10.6655 160.105 10.2057C161.549 9.6903 163.076 9.4414 164.609 9.47129H169.065C170.597 9.44142 172.122 9.69033 173.564 10.2057C174.801 10.6645 175.936 11.3583 176.906 12.2484C177.969 13.2236 178.822 14.402 179.416 15.713C180.027 17.0654 180.337 18.533 180.325 20.0155C180.354 22.0606 179.769 24.0679 178.647 25.7817C177.524 27.4954 175.914 28.838 174.021 29.6384C172.451 30.2844 170.763 30.5982 169.065 30.5596L164.608 30.5605ZM164.608 15.0565C163.797 15.0317 162.989 15.1582 162.225 15.4293C161.625 15.6625 161.071 16.0015 160.592 16.43C160.106 16.8906 159.717 17.4422 159.446 18.053C159.163 18.6807 159.018 19.3616 159.022 20.0497C159.019 20.6743 159.137 21.2936 159.37 21.8738C159.593 22.4346 159.922 22.9474 160.341 23.3839C160.823 23.8971 161.411 24.3008 162.064 24.5674C162.874 24.8805 163.739 25.0291 164.608 25.0046H169.063C169.931 25.0288 170.795 24.8801 171.604 24.5674C172.257 24.3006 172.845 23.8969 173.327 23.3839C173.744 22.946 174.075 22.4337 174.301 21.8738C174.531 21.2929 174.648 20.6739 174.646 20.0497C174.651 19.3615 174.506 18.6803 174.221 18.053C173.95 17.4425 173.56 16.8911 173.075 16.43C172.596 16.0023 172.044 15.6634 171.444 15.4293C170.681 15.1585 169.873 15.0321 169.063 15.0565H164.608Z" fill="white"/>
<path d="M135.965 9.47382V18.1168L145.628 10.3489C145.952 10.0902 146.247 9.79702 146.507 9.47459H154.442C154.375 9.58691 154.29 9.68759 154.19 9.77265C154.089 9.86724 153.983 9.95547 153.879 10.0373L142.209 19.0189C142.154 19.0585 142.108 19.1099 142.076 19.1693C142.044 19.2288 142.025 19.2947 142.022 19.3622C142.025 19.4298 142.043 19.4959 142.075 19.5553C142.108 19.6147 142.153 19.6658 142.209 19.7048L154.727 29.7816C154.872 29.9072 155.013 30.0312 155.151 30.1552C155.289 30.2829 155.42 30.4182 155.543 30.5606H147.07C146.784 30.2398 146.469 29.947 146.127 29.6863L135.964 21.2333V30.5606H130.225V9.47382H135.965Z" fill="white"/>
<path d="M88.6087 30.5604C87.5011 30.5858 86.3961 30.4437 85.3315 30.1392C84.5201 29.9062 83.7844 29.4655 83.1981 28.8611C82.6427 28.2487 82.2488 27.5089 82.0518 26.7079C81.8085 25.7227 81.6924 24.7106 81.7065 23.6963V9.46889H87.4145V23.1685C87.3554 23.7221 87.4944 24.2788 87.807 24.7407C88.0155 24.9054 88.2546 25.0275 88.5107 25.0999C88.7669 25.1724 89.0349 25.1937 89.2993 25.1627H104.007V30.5604H88.6087Z" fill="white"/>
<path d="M112.576 30.5604C111.469 30.5855 110.364 30.4434 109.299 30.1392C108.489 29.9045 107.754 29.464 107.167 28.8611C106.612 28.2489 106.219 27.5089 106.023 26.7079C105.777 25.7232 105.66 24.7108 105.677 23.6963V9.46889H111.383V23.1685C111.324 23.7226 111.464 24.2799 111.779 24.7407C111.987 24.9057 112.225 25.028 112.481 25.1004C112.736 25.1729 113.004 25.1941 113.268 25.1627H127.979V30.5604H112.576Z" fill="white"/>
<path d="M80.6093 29.6308C80.6869 29.783 80.7556 29.9396 80.8147 30.0997C80.8643 30.2436 80.9115 30.3994 80.9562 30.5663H74.5559C74.5127 30.4201 74.4712 30.2897 74.4296 30.1777C74.3881 30.0656 74.3497 29.9527 74.3057 29.8486L73.1763 27.2924H60.6267L59.5301 29.8184C59.4869 29.944 59.4438 30.068 59.4046 30.1927C59.362 30.3144 59.331 30.4397 59.3119 30.5671H52.7573C52.7968 30.4093 52.8443 30.2536 52.8996 30.1006C52.9554 29.9394 53.0233 29.7827 53.1026 29.6316L60.6963 12.9116C61.1951 11.7297 62.0215 10.7131 63.0791 9.98029C64.2226 9.34531 65.5106 9.01193 66.8204 9.01193C68.1301 9.01193 69.4181 9.34531 70.5617 9.98029C71.6254 10.7105 72.4573 11.7274 72.9597 12.9116L80.6093 29.6308ZM71.1028 22.6435L67.8424 15.0926C67.7584 14.8898 67.6156 14.7163 67.4323 14.5943C67.2632 14.4883 67.0669 14.4331 66.8671 14.4353C66.6802 14.4346 66.4964 14.4834 66.3348 14.5768C66.1432 14.6965 65.9986 14.8776 65.9247 15.0902L62.6971 22.6411L71.1028 22.6435Z" fill="white"/>
<path d="M23.6615 39.6732C23.8153 39.3999 23.8954 39.0913 23.8942 38.7776C23.893 38.464 23.8104 38.156 23.6545 37.8838C23.525 37.6585 23.3481 37.464 23.136 37.3138C22.924 37.1635 22.6817 37.0612 22.4262 37.0139C22.2929 36.9825 22.1337 36.9526 21.9556 36.9236C21.6725 36.8773 21.4066 36.835 21.1478 36.795C20.0921 36.6279 19.2584 36.4961 18.5415 36.3062C18.0567 36.1629 17.5828 35.9849 17.1235 35.7736C17.0906 35.7587 17.0592 35.743 17.0279 35.725C16.799 35.5929 16.6249 35.3832 16.5372 35.1339C16.4494 34.8846 16.4537 34.6122 16.5493 34.3658C16.6449 34.1194 16.8255 33.9154 17.0584 33.7906C17.2913 33.6658 17.5611 33.6284 17.8192 33.6853C18.6432 33.9079 19.4819 34.0723 20.329 34.1772C21.3371 34.2427 22.3483 34.2427 23.3564 34.1772H23.3729C23.8814 34.8622 24.5868 35.3756 25.3949 35.6488C26.203 35.922 27.0752 35.942 27.8949 35.706C28.7146 35.47 29.4428 34.9893 29.9821 34.3282C30.5213 33.6671 30.8459 32.8571 30.9125 32.0065L30.925 32.001C31.9965 31.4362 32.9886 30.7321 33.8756 29.9072C34.5524 29.2263 35.2136 28.3712 36.1618 27.2062C36.2936 27.0454 36.3885 26.938 36.4567 26.865C36.6274 26.6627 36.8647 26.5281 37.1259 26.4856C37.387 26.443 37.6548 26.4953 37.8809 26.6329C38.1069 26.7705 38.2763 26.9844 38.3584 27.236C38.4406 27.4876 38.4301 27.7603 38.3288 28.0049V28.0111L38.3226 28.0268V28.0354C37.0026 31.0162 34.9798 33.6325 32.4277 35.6603C29.8755 37.6881 26.87 39.067 23.6685 39.6787L23.6615 39.6732Z" fill="white"/>
<path d="M23.7077 33.4281C24.1346 34.1651 24.8156 34.721 25.623 34.9916C26.4304 35.2622 27.3088 35.2289 28.0934 34.898C28.8781 34.5671 29.5151 33.9613 29.885 33.1942C30.255 32.427 30.3325 31.5513 30.103 30.7311C30.024 30.4485 29.9102 30.1768 29.7642 29.9223C29.3381 29.1837 28.6569 28.6262 27.8488 28.3546C27.0407 28.0829 26.1613 28.1157 25.3757 28.447C24.5902 28.7782 23.9525 29.3849 23.5827 30.1533C23.2129 30.9216 23.1363 31.7985 23.3674 32.6193C23.4457 32.9023 23.5598 33.1741 23.707 33.4281" fill="white"/>
<path d="M4.80121 33.0098C5.08775 33.0069 5.3695 32.9356 5.62305 32.8021C5.87661 32.6686 6.09467 32.4766 6.25925 32.242C6.42384 32.0073 6.53017 31.7368 6.56945 31.4529C6.60873 31.169 6.57981 30.8798 6.4851 30.6093C6.4451 30.4775 6.39259 30.3253 6.32828 30.1543C6.22632 29.886 6.12824 29.6318 6.0357 29.3902C5.65217 28.3923 5.34947 27.604 5.15574 26.8885C5.03711 26.3964 4.954 25.8965 4.9071 25.3925C4.90315 25.3566 4.90126 25.3204 4.90155 25.2843C4.90076 25.0197 4.99493 24.7636 5.16685 24.5625C5.33877 24.3615 5.57713 24.2288 5.83857 24.1885C6.1 24.1482 6.36714 24.2031 6.59157 24.3431C6.81599 24.4831 6.98275 24.6991 7.06156 24.9516C7.28126 25.7773 7.55853 26.5865 7.89134 27.3733C8.33983 28.2786 8.84657 29.1538 9.40826 29.9935L9.41841 30.0084C9.07956 30.7912 8.98765 31.6589 9.15493 32.4954C9.32222 33.3319 9.74072 34.0973 10.3546 34.6896C10.9684 35.2818 11.7483 35.6726 12.5901 35.8097C13.4319 35.9467 14.2955 35.8236 15.0655 35.4566L15.0756 35.4653C16.1005 36.1114 17.2063 36.6192 18.3642 36.9754C19.2913 37.2209 20.3619 37.3677 21.8442 37.603C22.0489 37.6367 22.1893 37.6649 22.2865 37.6885C22.5496 37.7327 22.788 37.8702 22.958 38.0758C23.128 38.2814 23.2182 38.5414 23.2122 38.8082C23.2062 39.0749 23.1043 39.3305 22.9252 39.5283C22.7462 39.7261 22.5019 39.8527 22.2371 39.8851H22.2293H22.2128H22.2034C18.9627 40.2328 15.686 39.7887 12.6546 38.5909C9.62328 37.3931 6.92787 35.4774 4.79968 33.0082L4.80121 33.0098Z" fill="white"/>
<path d="M10.2311 29.9271C9.78494 30.6989 9.64972 31.6118 9.85282 32.48C10.0559 33.3481 10.5821 34.1062 11.3244 34.6C12.0666 35.0937 12.969 35.286 13.848 35.1376C14.7269 34.9893 15.5163 34.5115 16.0555 33.8015C16.5946 33.0915 16.843 32.2026 16.7501 31.3159C16.6571 30.4292 16.2298 29.6112 15.5551 29.0285C14.8805 28.4458 14.0092 28.1422 13.1186 28.1794C12.228 28.2166 11.385 28.5919 10.7613 29.2289C10.556 29.4385 10.3779 29.673 10.2311 29.9271Z" fill="white"/>
<path d="M1.13848 13.3343C1.28426 13.5811 1.4867 13.7896 1.72911 13.9426C1.97152 14.0955 2.24688 14.1885 2.53237 14.2138C2.81787 14.2391 3.10525 14.196 3.37077 14.0881C3.6363 13.9801 3.87235 13.8105 4.05925 13.5931C4.1518 13.4935 4.2577 13.3711 4.37299 13.2291C4.55495 13.0056 4.7259 12.7953 4.88903 12.5945C5.5604 11.7629 6.09134 11.104 6.61447 10.5807C6.98073 10.2317 7.37187 9.90975 7.78471 9.61737C7.81399 9.59617 7.84433 9.57652 7.87567 9.55852C8.10448 9.42687 8.3728 9.38136 8.63221 9.4302C8.89162 9.47904 9.12504 9.61903 9.29033 9.82488C9.45562 10.0307 9.54191 10.2889 9.53361 10.5528C9.52531 10.8167 9.42294 11.0689 9.24505 11.264C8.63994 11.8668 8.07832 12.5117 7.56432 13.1938C7.00452 14.0352 6.49991 14.912 6.05372 15.8187L6.04663 15.8344C5.19899 15.9325 4.40151 16.2871 3.76073 16.8507C3.11995 17.4143 2.66641 18.1602 2.46076 18.9885C2.25511 19.8168 2.30709 20.6883 2.60983 21.4862C2.91256 22.2842 3.45161 22.9707 4.15489 23.4541V23.4675C4.10761 24.6783 4.2208 25.8902 4.49142 27.0714C4.74318 27.9978 5.15179 28.998 5.68512 30.4023C5.76355 30.5968 5.8043 30.7333 5.83332 30.829C5.92377 31.0781 5.92208 31.3514 5.82854 31.5993C5.735 31.8473 5.55583 32.0535 5.32341 32.1808C5.09099 32.308 4.82072 32.3478 4.5615 32.2929C4.30229 32.2381 4.07119 32.0923 3.91018 31.8818L3.90625 31.8755L3.89687 31.8622L3.89065 31.8544C3.4564 31.2588 3.05496 30.64 2.68824 30.0006C1.24129 27.4996 0.353454 24.7146 0.0859087 21.8374C-0.181637 18.9603 0.177506 16.0593 1.13848 13.3343Z" fill="white"/>
<path d="M6.52267 16.4978C5.63188 16.4976 4.77444 16.8369 4.12494 17.4467C3.47544 18.0564 3.08268 18.8908 3.0266 19.78C2.97053 20.6693 3.25542 21.5465 3.82317 22.233C4.39091 22.9196 5.19889 23.364 6.08265 23.4757C6.96641 23.5873 7.8595 23.358 8.58014 22.8342C9.30078 22.3105 9.79477 21.5317 9.96159 20.6565C10.1284 19.7813 9.95554 18.8754 9.4781 18.1232C9.00065 17.371 8.25457 16.8291 7.39171 16.6077C7.10778 16.5348 6.8158 16.4979 6.52267 16.4978Z" fill="white"/>
<path d="M16.3376 0.321539C16.185 0.593977 16.1053 0.901231 16.1062 1.21352C16.1061 1.63313 16.2528 2.03956 16.5208 2.36237C16.7888 2.68519 17.1612 2.90402 17.5736 2.98095C17.7078 3.01233 17.8662 3.04213 18.0442 3.07116C18.3281 3.11744 18.5933 3.15981 18.8513 3.19981C19.907 3.36691 20.7407 3.49869 21.4576 3.68854C21.9423 3.83223 22.4161 4.01025 22.8756 4.22121C22.9084 4.23574 22.9405 4.25224 22.9713 4.27063C23.2014 4.40201 23.3766 4.61165 23.4651 4.86138C23.5537 5.11112 23.5498 5.38437 23.4539 5.63141C23.3581 5.87844 23.1768 6.08282 22.943 6.20742C22.7092 6.33201 22.4384 6.36855 22.1799 6.31031C21.3559 6.0878 20.5172 5.92343 19.6701 5.81843C18.6619 5.75402 17.6507 5.75533 16.6427 5.82236H16.6254C16.1172 5.13692 15.4118 4.62309 14.6036 4.34963C13.7954 4.07617 12.9229 4.05612 12.103 4.29217C11.2831 4.52823 10.5548 5.0091 10.0156 5.67048C9.47639 6.33186 9.152 7.14218 9.08584 7.993L9.0733 7.99851C8.00176 8.56323 7.00966 9.26727 6.12276 10.0923C5.4459 10.7732 4.78548 11.6283 3.83647 12.7925C3.7047 12.9533 3.60982 13.0608 3.54159 13.1338C3.37092 13.336 3.13362 13.4706 2.87245 13.5131C2.61128 13.5557 2.34347 13.5035 2.11744 13.3658C1.89141 13.2282 1.72204 13.0143 1.63989 12.7627C1.55773 12.5111 1.56823 12.2384 1.66947 11.9939V11.9876L1.67569 11.9719L1.68048 11.9633C1.97885 11.2892 2.31367 10.6319 2.68356 9.99424C4.1247 7.49022 6.09178 5.32868 8.44907 3.65876C10.8064 1.98883 13.4978 0.85024 16.3376 0.321539Z" fill="white"/>
<path d="M16.2936 6.56807C15.8487 5.79455 15.1258 5.2197 14.272 4.96056C13.4182 4.70142 12.4979 4.77746 11.6982 5.1732C10.8985 5.56894 10.2796 6.25464 9.96758 7.09069C9.65554 7.92675 9.67381 8.85032 10.0186 9.6734C10.3634 10.4965 11.0088 11.1571 11.8235 11.521C12.6382 11.8848 13.5609 11.9245 14.4037 11.6318C15.2466 11.3391 15.9463 10.7362 16.3604 9.9457C16.7744 9.15521 16.8717 8.23661 16.6325 7.37688C16.5533 7.09435 16.4395 6.82268 16.2936 6.56807Z" fill="white"/>
<path d="M35.1979 6.9854C34.9112 6.98812 34.6293 7.0591 34.3756 7.19253C34.1218 7.32597 33.9035 7.51799 33.7387 7.75265C33.5739 7.98731 33.4675 8.25788 33.4281 8.54192C33.3888 8.82595 33.4176 9.11528 33.5124 9.38592C33.5524 9.51771 33.6058 9.66992 33.6693 9.84093C33.7712 10.1092 33.8692 10.3634 33.9618 10.605C34.3453 11.6029 34.6481 12.3921 34.8418 13.1075C34.9607 13.5993 35.0438 14.099 35.0905 14.6028C35.0947 14.6387 35.0967 14.6748 35.0967 14.711C35.0968 14.9753 35.0023 15.231 34.8303 15.4316C34.6583 15.6323 34.4202 15.7647 34.159 15.8049C33.8978 15.8451 33.6309 15.7904 33.4066 15.6508C33.1822 15.5111 33.0152 15.2957 32.9359 15.0436C32.7165 14.2185 32.4395 13.4098 32.1069 12.6235C31.659 11.7174 31.1523 10.8416 30.5901 10.0017L30.5798 9.98683C30.9187 9.20398 31.0106 8.33637 30.8433 7.49988C30.676 6.66339 30.2575 5.89787 29.6437 5.30564C29.0298 4.7134 28.2499 4.32262 27.4081 4.18555C26.5663 4.04849 25.7028 4.17166 24.9328 4.53858L24.9226 4.52996C23.8982 3.88396 22.793 3.37619 21.6356 3.01984C20.707 2.7743 19.6372 2.62761 18.1556 2.39226C17.9502 2.35853 17.8089 2.33028 17.7125 2.30675C17.4518 2.26035 17.2164 2.12221 17.0487 1.91733C16.881 1.71245 16.7922 1.45435 16.7981 1.18963C16.8041 0.924915 16.9045 0.671062 17.0812 0.473954C17.258 0.276846 17.4994 0.149493 17.7619 0.114894H17.7697H17.7862H17.7957C21.0365 -0.232767 24.3133 0.211344 27.3447 1.40912C30.3762 2.6069 33.0718 4.52256 35.2002 6.99167L35.1979 6.9854Z" fill="white"/>
<path d="M29.765 10.0687C30.2104 9.29689 30.345 8.38427 30.1413 7.51667C29.9377 6.64906 29.4112 5.89169 28.6689 5.39869C27.9267 4.9057 27.0245 4.71415 26.1461 4.86305C25.2676 5.01195 24.4789 5.49011 23.9405 6.20018C23.4021 6.91025 23.1545 7.79885 23.248 8.68511C23.3415 9.57138 23.7692 10.3887 24.444 10.9707C25.1188 11.5526 25.9899 11.8555 26.8801 11.8176C27.7703 11.7798 28.6126 11.4041 29.2355 10.7669C29.4405 10.5573 29.6184 10.3227 29.765 10.0687Z" fill="white"/>
<path d="M38.8599 26.661C38.7002 26.391 38.473 26.1672 38.2006 26.0116C37.9282 25.8561 37.6199 25.7741 37.3063 25.7738C37.0467 25.7732 36.79 25.829 36.5541 25.9373C36.3182 26.0457 36.1086 26.204 35.9399 26.4013C35.8466 26.501 35.74 26.6233 35.6263 26.7653C35.4443 26.9881 35.2741 27.1992 35.1118 27.4C34.4396 28.2315 33.9086 28.8905 33.3862 29.4145C33.0201 29.7637 32.6291 30.0856 32.2161 30.3779C32.1872 30.3992 32.1571 30.4188 32.1259 30.4367C31.8971 30.5692 31.6284 30.6154 31.3685 30.5668C31.1086 30.5182 30.8748 30.3781 30.7093 30.1719C30.5438 29.9657 30.4576 29.707 30.4664 29.4427C30.4752 29.1784 30.5785 28.926 30.7573 28.7312C31.3627 28.1287 31.9243 27.4839 32.438 26.8014C32.9979 25.9601 33.5025 25.0833 33.9486 24.1765L33.9557 24.1608C34.8034 24.0627 35.6008 23.7081 36.2416 23.1445C36.8824 22.5809 37.3359 21.8351 37.5416 21.0067C37.7472 20.1784 37.6952 19.307 37.3925 18.5091C37.0898 17.7111 36.5507 17.0245 35.8474 16.5411V16.5278C35.8947 15.3169 35.7815 14.1051 35.5109 12.9239C35.2592 11.9974 34.8506 10.9972 34.3172 9.59297C34.2435 9.3992 34.198 9.26272 34.169 9.16702C34.0786 8.91792 34.0803 8.64465 34.1738 8.39671C34.2673 8.14876 34.4465 7.94252 34.6789 7.81528C34.9114 7.68805 35.1816 7.64826 35.4408 7.7031C35.7001 7.75793 35.9311 7.90375 36.0922 8.11421L36.0969 8.12048L36.1062 8.13384L36.1126 8.14088C36.5459 8.73685 36.947 9.35568 37.3141 9.99464C38.7606 12.4959 39.6477 15.281 39.9146 18.1582C40.1815 21.0354 39.8217 23.9363 38.8599 26.661Z" fill="white"/>
<path d="M33.4763 23.4987C34.3679 23.4997 35.2264 23.1607 35.8769 22.5509C36.5275 21.9411 36.9211 21.1062 36.978 20.2162C37.0348 19.3263 36.7505 18.4481 36.1827 17.7605C35.615 17.0728 34.8066 16.6275 33.9221 16.515C33.0376 16.4025 32.1436 16.6314 31.4219 17.155C30.7002 17.6787 30.2052 18.4578 30.0375 19.3336C29.8699 20.2095 30.0422 21.1164 30.5195 21.8696C30.9968 22.6229 31.7431 23.1659 32.6065 23.3881C32.8907 23.4613 33.1829 23.4985 33.4763 23.4987Z" fill="white"/>
</svg>
