<svg width="180" height="40" viewBox="0 0 180 40" fill="none" xmlns="http://www.w3.org/2000/svg">
<path d="M95.6469 30.7521V32.5339H94.3031V27.827C94.3031 27.6191 94.4145 27.5151 94.6372 27.5151H98.2008C98.817 27.5151 99.2105 27.7007 99.4852 27.9903C99.7302 28.2501 99.8861 28.5991 99.8861 28.9777C99.8861 29.3786 99.7673 29.7573 99.411 30.0171C99.7451 30.2176 99.8936 30.4848 99.8936 31.0565V32.0588C99.8936 32.2741 99.901 32.3929 99.9158 32.5339H98.5572C98.5423 32.4226 98.5349 32.3112 98.5349 32.1998V31.1976C98.5349 30.8783 98.379 30.7521 97.9855 30.7521H95.6469ZM95.6469 29.6088H98.0227C98.2083 29.6088 98.3196 29.542 98.4013 29.4454C98.4607 29.3712 98.4978 29.2821 98.4978 29.1856C98.4978 29.0817 98.4607 28.9777 98.3864 28.9035C98.3122 28.8218 98.1934 28.7698 98.0227 28.7698H95.7583C95.684 28.7698 95.6469 28.8144 95.6469 28.8812V29.6088Z" fill="white"/>
<path d="M89.1066 27.5151H93.6726V28.8441H89.8565C89.7748 28.8441 89.7377 28.8886 89.7377 28.9703V29.542H93.6503V30.5071H89.7377V31.1159C89.7377 31.205 89.7748 31.2495 89.8565 31.2495H93.6726V32.5339H89.0992C88.6315 32.5339 88.3939 32.3038 88.3939 31.836V28.1907C88.3939 27.7379 88.6315 27.5151 89.1066 27.5151Z" fill="white"/>
<path d="M87.8791 32.5339H84.2338C83.0014 32.5339 82.6005 31.992 82.6005 30.9006V27.5151H83.9517V30.7744C83.9517 31.1382 84.0482 31.2495 84.3971 31.2495H87.8791V32.5339Z" fill="white"/>
<path d="M82.2022 32.5339H78.5569C77.3245 32.5339 76.9236 31.992 76.9236 30.9006V27.5151H78.2748V30.7744C78.2748 31.1382 78.3713 31.2495 78.7203 31.2495H82.2022V32.5339Z" fill="white"/>
<path d="M71.7569 27.5151H76.3228V28.8441H72.5068C72.4251 28.8441 72.388 28.8886 72.388 28.9703V29.542H76.3006V30.5071H72.388V31.1159C72.388 31.205 72.4251 31.2495 72.5068 31.2495H76.3228V32.5339H71.7495C71.2818 32.5339 71.0442 32.3038 71.0442 31.836V28.1907C71.0442 27.7379 71.2818 27.5151 71.7569 27.5151Z" fill="white"/>
<path d="M70.2755 27.5151V28.8441H66.6673C66.504 28.8441 66.4149 28.8812 66.3555 28.9406C66.2887 29.0074 66.2516 29.0965 66.2516 29.2004C66.2516 29.3118 66.3035 29.4083 66.3778 29.4677C66.4372 29.5197 66.5114 29.542 66.6673 29.542H68.8723C69.4366 29.542 69.8152 29.7201 70.0825 29.9948C70.3498 30.2695 70.5131 30.6407 70.5131 31.0342C70.5131 31.398 70.372 31.747 70.1419 32.0142C69.8672 32.3335 69.4663 32.5339 68.8723 32.5339H64.982V31.2495H68.6348C68.8426 31.2495 68.9466 31.205 69.0134 31.1233C69.0654 31.0639 69.0951 30.9823 69.0951 30.8932C69.0951 30.7892 69.0579 30.6927 68.9911 30.6259C68.9243 30.5517 68.8278 30.5145 68.6348 30.5145H66.5931C65.9249 30.5145 65.5388 30.3363 65.2716 30.0617C65.0043 29.787 64.8484 29.4232 64.8484 29.0148C64.8484 28.6139 65.0117 28.2427 65.279 27.968C65.5463 27.6933 65.9249 27.5151 66.5931 27.5151H70.2755Z" fill="white"/>
<path d="M60.0762 24.3334C61.5404 24.3337 62.7275 25.5206 62.7275 26.9848V33.3481C62.7275 34.8123 61.5404 36.0002 60.0762 36.0004H52.6514C51.187 36.0003 50 34.8124 50 33.3481V26.9848C50 25.5205 51.1871 24.3335 52.6514 24.3334H60.0762ZM59.1348 27.5151C58.436 27.5152 58.0295 27.8992 57.7451 28.4633L56.502 30.9604C56.4694 31.0355 56.4283 31.058 56.3633 31.058C56.2985 31.058 56.258 31.0353 56.2256 30.9604L54.9824 28.4633C54.698 27.8992 54.2907 27.5151 53.5918 27.5151C53.2019 27.5152 52.8765 27.6432 52.6328 27.8237C52.3079 28.0644 52.1211 28.4182 52.1211 28.9897V32.7133H53.5352V29.2299C53.5353 29.14 53.6002 29.0953 53.665 29.0952C53.7057 29.0952 53.7552 29.1171 53.7715 29.1547L55.4375 32.352C55.6082 32.6751 55.9734 32.8177 56.3633 32.8178C56.7533 32.8178 57.1193 32.6753 57.29 32.352L58.9561 29.1547C58.9723 29.1173 59.021 29.0953 59.0615 29.0952C59.1265 29.0952 59.1913 29.1398 59.1914 29.2299V32.7133H60.6064V28.9897C60.6064 28.418 60.4188 28.0644 60.0938 27.8237C59.8499 27.6432 59.5248 27.5151 59.1348 27.5151Z" fill="white"/>
<path d="M178.862 5.33337V9.31063H168.063C167.574 9.31063 167.308 9.42173 167.13 9.59948C166.93 9.79946 166.819 10.0661 166.819 10.3772C166.819 10.7104 166.974 10.9993 167.196 11.1771C167.374 11.3326 167.596 11.3992 168.063 11.3992H174.662C176.351 11.3992 177.484 11.9325 178.284 12.7546C179.084 13.5767 179.573 14.6877 179.573 15.8653C179.573 16.9541 179.15 17.9984 178.462 18.7983C177.64 19.7537 176.44 20.3536 174.662 20.3536H163.019V16.5097H173.951C174.573 16.5097 174.884 16.3764 175.084 16.132C175.24 15.9542 175.329 15.7098 175.329 15.4432C175.329 15.1321 175.218 14.8432 175.018 14.6433C174.818 14.4211 174.529 14.31 173.951 14.31H167.841C165.841 14.31 164.686 13.7767 163.886 12.9546C163.086 12.1325 162.619 11.0437 162.619 9.82168C162.619 8.62183 163.108 7.51087 163.908 6.68875C164.708 5.86664 165.841 5.33337 167.841 5.33337H178.862Z" fill="white"/>
<path d="M160.92 5.33329V17.4428C160.92 19.7092 159.565 20.6646 158.099 20.6646C156.832 20.6646 155.877 20.3091 155.166 19.487L146.922 9.95491C146.811 9.82159 146.7 9.75493 146.567 9.75493C146.367 9.75493 146.189 9.91047 146.189 10.1771V20.3535H142.234V8.51065C142.234 5.95543 143.7 5 145.722 5C147.144 5 148.033 5.37773 148.966 6.48869L156.299 15.2653C156.41 15.4209 156.543 15.4431 156.677 15.4431C156.854 15.4431 156.988 15.3098 156.988 15.0431V5.33329H160.92Z" fill="white"/>
<path d="M132.376 20.3536H129.221C126.533 20.3536 124.555 19.4204 123.178 17.9095C121.978 16.5986 121.245 14.821 121.245 12.8435C121.245 10.666 122.178 8.68849 123.666 7.31089C125 6.08883 126.799 5.33337 129.221 5.33337H132.376C134.798 5.33337 136.598 6.08883 137.931 7.31089C139.42 8.68849 140.353 10.666 140.353 12.8435C140.353 14.821 139.62 16.5986 138.42 17.9095C137.042 19.4204 135.065 20.3536 132.376 20.3536ZM132.376 9.31063H129.221C127.866 9.31063 127.022 9.68836 126.377 10.2883C125.688 10.9326 125.266 11.8659 125.266 12.8657C125.266 13.7767 125.622 14.621 126.199 15.2432C126.844 15.9542 127.799 16.3986 129.221 16.3986H132.376C133.798 16.3986 134.754 15.9542 135.398 15.2432C135.976 14.621 136.331 13.7767 136.331 12.8657C136.331 11.8659 135.909 10.9326 135.22 10.2883C134.576 9.68836 133.732 9.31063 132.376 9.31063Z" fill="white"/>
<path d="M104.87 5.33337H108.936V11.4881L115.78 5.95552C116.002 5.77776 116.246 5.53335 116.402 5.33337H122.023C121.935 5.46669 121.757 5.62223 121.623 5.73332L113.358 12.1325C113.269 12.1991 113.225 12.2658 113.225 12.3769C113.225 12.488 113.247 12.5324 113.358 12.6213L122.223 19.7982C122.423 19.9759 122.623 20.1537 122.801 20.3536H116.802C116.624 20.1537 116.402 19.9537 116.135 19.7315L108.936 13.7101V20.3536H104.87V5.33337Z" fill="white"/>
<path d="M103.307 20.3536H92.3974C88.709 20.3536 87.5092 18.7316 87.5092 15.4654V5.33337H91.5531V15.0877C91.5531 16.1764 91.8419 16.5097 92.8862 16.5097H103.307V20.3536Z" fill="white"/>
<path d="M86.3171 20.3536H75.4074C71.719 20.3536 70.5192 18.7316 70.5192 15.4654V5.33337H74.5631V15.0877C74.5631 16.1764 74.8519 16.5097 75.8962 16.5097H86.3171V20.3536Z" fill="white"/>
<path d="M64.3092 7.77741L69.7308 19.687C69.8419 19.9314 69.9085 20.1314 69.9752 20.3535H65.4424C65.398 20.1536 65.3313 19.998 65.2647 19.8425L64.4648 18.0205H55.577L54.7994 19.8203C54.7327 19.998 54.6661 20.1758 54.6438 20.3535H50C50.0667 20.1314 50.1333 19.9314 50.2444 19.687L55.6215 7.77741C56.4658 5.91099 57.8212 5 59.9765 5C62.0651 5 63.4649 5.91099 64.3092 7.77741ZM57.0435 14.7098H62.9983L60.6875 9.33277C60.5542 8.99948 60.2875 8.86616 59.9987 8.86616C59.7321 8.86616 59.4876 8.97726 59.3321 9.33277L57.0435 14.7098Z" fill="white"/>
<path d="M23.6615 39.6733C23.8153 39.3999 23.8954 39.0913 23.8942 38.7776C23.893 38.464 23.8104 38.156 23.6545 37.8839C23.525 37.6585 23.3481 37.464 23.136 37.3138C22.924 37.1636 22.6817 37.0613 22.4262 37.0139C22.2929 36.9825 22.1337 36.9527 21.9556 36.9236C21.6725 36.8774 21.4066 36.835 21.1478 36.795C20.0921 36.6279 19.2584 36.4961 18.5415 36.3063C18.0567 36.1629 17.5828 35.9849 17.1235 35.7736C17.0906 35.7587 17.0592 35.743 17.0279 35.725C16.799 35.5929 16.6249 35.3832 16.5372 35.1339C16.4494 34.8847 16.4537 34.6122 16.5493 34.3658C16.6449 34.1195 16.8255 33.9154 17.0584 33.7906C17.2913 33.6658 17.5611 33.6284 17.8192 33.6853C18.6432 33.9079 19.4819 34.0723 20.329 34.1772C21.3371 34.2428 22.3483 34.2428 23.3564 34.1772H23.3729C23.8814 34.8622 24.5868 35.3757 25.3949 35.6489C26.203 35.9221 27.0752 35.942 27.8949 35.706C28.7146 35.47 29.4428 34.9893 29.9821 34.3282C30.5213 33.6671 30.8459 32.8571 30.9125 32.0065L30.925 32.001C31.9965 31.4362 32.9886 30.7322 33.8756 29.9072C34.5524 29.2263 35.2136 28.3712 36.1618 27.2063C36.2936 27.0455 36.3885 26.938 36.4567 26.865C36.6274 26.6628 36.8647 26.5282 37.1259 26.4856C37.387 26.4431 37.6548 26.4953 37.8809 26.6329C38.1069 26.7706 38.2763 26.9845 38.3584 27.2361C38.4406 27.4876 38.4301 27.7603 38.3288 28.0049V28.0112L38.3226 28.0269V28.0355C37.0026 31.0163 34.9798 33.6326 32.4277 35.6604C29.8755 37.6881 26.87 39.067 23.6685 39.6788L23.6615 39.6733Z" fill="white"/>
<path d="M23.7077 33.4282C24.1346 34.1651 24.8156 34.721 25.623 34.9916C26.4304 35.2622 27.3088 35.229 28.0934 34.8981C28.8781 34.5672 29.5151 33.9613 29.885 33.1942C30.255 32.4271 30.3325 31.5513 30.103 30.7311C30.024 30.4485 29.9102 30.1768 29.7642 29.9223C29.3381 29.1837 28.6569 28.6262 27.8488 28.3546C27.0407 28.0829 26.1613 28.1158 25.3757 28.447C24.5902 28.7782 23.9525 29.385 23.5827 30.1533C23.2129 30.9216 23.1363 31.7986 23.3674 32.6194C23.4457 32.9023 23.5598 33.1741 23.707 33.4282" fill="white"/>
<path d="M4.80121 33.0098C5.08775 33.0069 5.3695 32.9356 5.62305 32.8021C5.87661 32.6686 6.09467 32.4766 6.25925 32.242C6.42384 32.0073 6.53017 31.7368 6.56945 31.4529C6.60873 31.169 6.57981 30.8798 6.4851 30.6093C6.4451 30.4775 6.39259 30.3253 6.32828 30.1543C6.22632 29.886 6.12824 29.6318 6.0357 29.3902C5.65217 28.3923 5.34947 27.604 5.15574 26.8885C5.03711 26.3964 4.954 25.8965 4.9071 25.3925C4.90315 25.3566 4.90126 25.3204 4.90155 25.2843C4.90076 25.0197 4.99493 24.7636 5.16685 24.5625C5.33877 24.3615 5.57713 24.2288 5.83857 24.1885C6.1 24.1482 6.36714 24.2031 6.59157 24.3431C6.81599 24.4831 6.98275 24.6991 7.06156 24.9516C7.28126 25.7773 7.55853 26.5865 7.89134 27.3733C8.33983 28.2786 8.84657 29.1538 9.40826 29.9935L9.41841 30.0084C9.07956 30.7912 8.98765 31.6589 9.15493 32.4954C9.32222 33.3319 9.74072 34.0973 10.3546 34.6896C10.9684 35.2818 11.7483 35.6726 12.5901 35.8097C13.4319 35.9467 14.2955 35.8236 15.0655 35.4566L15.0756 35.4653C16.1005 36.1114 17.2063 36.6192 18.3642 36.9754C19.2913 37.2209 20.3619 37.3677 21.8442 37.603C22.0489 37.6367 22.1893 37.6649 22.2865 37.6885C22.5496 37.7327 22.788 37.8702 22.958 38.0758C23.128 38.2814 23.2182 38.5414 23.2122 38.8082C23.2062 39.0749 23.1043 39.3305 22.9252 39.5283C22.7462 39.7261 22.5019 39.8527 22.2371 39.8851H22.2293H22.2128H22.2034C18.9627 40.2328 15.686 39.7887 12.6546 38.5909C9.62328 37.3931 6.92787 35.4774 4.79968 33.0082L4.80121 33.0098Z" fill="white"/>
<path d="M10.2311 29.9271C9.78494 30.699 9.64972 31.6119 9.85282 32.48C10.0559 33.3481 10.5821 34.1063 11.3244 34.6C12.0666 35.0937 12.969 35.286 13.848 35.1377C14.7269 34.9893 15.5163 34.5115 16.0555 33.8015C16.5946 33.0915 16.843 32.2027 16.7501 31.3159C16.6571 30.4292 16.2298 29.6113 15.5551 29.0286C14.8805 28.4458 14.0092 28.1422 13.1186 28.1794C12.228 28.2167 11.385 28.5919 10.7613 29.2289C10.556 29.4385 10.3779 29.6731 10.2311 29.9271Z" fill="white"/>
<path d="M1.13848 13.3343C1.28426 13.5811 1.4867 13.7896 1.72911 13.9426C1.97152 14.0955 2.24688 14.1885 2.53237 14.2138C2.81787 14.2391 3.10525 14.196 3.37077 14.0881C3.6363 13.9801 3.87235 13.8105 4.05925 13.5931C4.1518 13.4935 4.2577 13.3711 4.37299 13.2291C4.55495 13.0056 4.7259 12.7953 4.88903 12.5945C5.5604 11.7629 6.09134 11.104 6.61447 10.5807C6.98073 10.2317 7.37187 9.90975 7.78471 9.61737C7.81399 9.59617 7.84433 9.57652 7.87567 9.55852C8.10448 9.42687 8.3728 9.38136 8.63221 9.4302C8.89162 9.47904 9.12504 9.61903 9.29033 9.82488C9.45562 10.0307 9.54191 10.2889 9.53361 10.5528C9.52531 10.8167 9.42294 11.0689 9.24505 11.264C8.63994 11.8668 8.07832 12.5117 7.56432 13.1938C7.00452 14.0352 6.49991 14.912 6.05372 15.8187L6.04663 15.8344C5.19899 15.9325 4.40151 16.2871 3.76073 16.8507C3.11995 17.4143 2.66641 18.1602 2.46076 18.9885C2.25511 19.8168 2.30709 20.6883 2.60983 21.4862C2.91256 22.2842 3.45161 22.9707 4.15489 23.4541V23.4675C4.10761 24.6783 4.2208 25.8902 4.49142 27.0714C4.74318 27.9978 5.15179 28.998 5.68512 30.4023C5.76355 30.5968 5.8043 30.7333 5.83332 30.829C5.92377 31.0781 5.92208 31.3514 5.82854 31.5993C5.735 31.8473 5.55583 32.0535 5.32341 32.1808C5.09099 32.308 4.82072 32.3478 4.5615 32.2929C4.30229 32.2381 4.07119 32.0923 3.91018 31.8818L3.90625 31.8755L3.89687 31.8622L3.89065 31.8544C3.4564 31.2588 3.05496 30.64 2.68824 30.0006C1.24129 27.4996 0.353454 24.7146 0.0859087 21.8374C-0.181637 18.9603 0.177506 16.0593 1.13848 13.3343Z" fill="white"/>
<path d="M6.52267 16.4978C5.63188 16.4976 4.77444 16.8369 4.12494 17.4467C3.47544 18.0564 3.08268 18.8908 3.0266 19.78C2.97053 20.6693 3.25542 21.5465 3.82317 22.233C4.39091 22.9196 5.19889 23.364 6.08265 23.4757C6.96641 23.5873 7.8595 23.358 8.58014 22.8342C9.30078 22.3105 9.79477 21.5317 9.96159 20.6565C10.1284 19.7813 9.95554 18.8754 9.4781 18.1232C9.00065 17.371 8.25457 16.8291 7.39171 16.6077C7.10778 16.5348 6.8158 16.4979 6.52267 16.4978Z" fill="white"/>
<path d="M16.3376 0.321569C16.185 0.594007 16.1053 0.901261 16.1062 1.21355C16.1061 1.63316 16.2528 2.03959 16.5208 2.3624C16.7888 2.68522 17.1612 2.90405 17.5736 2.98098C17.7078 3.01236 17.8662 3.04216 18.0442 3.07119C18.3281 3.11747 18.5933 3.15984 18.8513 3.19985C19.907 3.36694 20.7407 3.49872 21.4576 3.68857C21.9423 3.83226 22.4161 4.01028 22.8756 4.22124C22.9084 4.23577 22.9405 4.25227 22.9713 4.27066C23.2014 4.40204 23.3766 4.61168 23.4651 4.86141C23.5537 5.11115 23.5498 5.3844 23.4539 5.63144C23.3581 5.87847 23.1768 6.08285 22.943 6.20745C22.7092 6.33204 22.4384 6.36858 22.1799 6.31035C21.3559 6.08783 20.5172 5.92346 19.6701 5.81846C18.6619 5.75405 17.6507 5.75536 16.6427 5.82239H16.6254C16.1172 5.13695 15.4118 4.62312 14.6036 4.34966C13.7954 4.0762 12.9229 4.05615 12.103 4.2922C11.2831 4.52826 10.5548 5.00913 10.0156 5.67051C9.47639 6.33189 9.152 7.14221 9.08584 7.99303L9.0733 7.99854C8.00176 8.56326 7.00966 9.2673 6.12276 10.0923C5.4459 10.7733 4.78548 11.6284 3.83647 12.7925C3.7047 12.9534 3.60982 13.0608 3.54159 13.1338C3.37092 13.3361 3.13362 13.4706 2.87245 13.5131C2.61128 13.5557 2.34347 13.5035 2.11744 13.3659C1.89141 13.2282 1.72204 13.0143 1.63989 12.7627C1.55773 12.5111 1.56823 12.2385 1.66947 11.9939V11.9877L1.67569 11.9719L1.68048 11.9633C1.97885 11.2892 2.31367 10.6319 2.68356 9.99427C4.1247 7.49025 6.09178 5.32871 8.44907 3.65879C10.8064 1.98886 13.4978 0.85027 16.3376 0.321569Z" fill="white"/>
<path d="M16.2936 6.56807C15.8487 5.79455 15.1258 5.2197 14.272 4.96056C13.4182 4.70142 12.4979 4.77746 11.6982 5.1732C10.8985 5.56894 10.2796 6.25464 9.96758 7.09069C9.65554 7.92675 9.67381 8.85032 10.0186 9.6734C10.3634 10.4965 11.0088 11.1571 11.8235 11.521C12.6382 11.8848 13.5609 11.9245 14.4037 11.6318C15.2466 11.3391 15.9463 10.7362 16.3604 9.9457C16.7744 9.15521 16.8717 8.23661 16.6325 7.37688C16.5533 7.09435 16.4395 6.82268 16.2936 6.56807Z" fill="white"/>
<path d="M35.1979 6.98543C34.9112 6.98815 34.6293 7.05913 34.3756 7.19257C34.1218 7.326 33.9035 7.51802 33.7387 7.75268C33.5739 7.98734 33.4675 8.25792 33.4281 8.54195C33.3888 8.82599 33.4176 9.11531 33.5124 9.38595C33.5524 9.51774 33.6058 9.66995 33.6693 9.84096C33.7713 10.1093 33.8692 10.3634 33.9618 10.6051C34.3453 11.6029 34.6481 12.3921 34.8418 13.1076C34.9607 13.5993 35.0438 14.099 35.0905 14.6028C35.0947 14.6387 35.0967 14.6749 35.0967 14.711C35.0968 14.9754 35.0023 15.231 34.8303 15.4317C34.6583 15.6323 34.4202 15.7647 34.159 15.8049C33.8978 15.8451 33.6309 15.7905 33.4066 15.6508C33.1822 15.5112 33.0152 15.2958 32.9359 15.0436C32.7165 14.2185 32.4395 13.4098 32.1069 12.6235C31.659 11.7174 31.1523 10.8416 30.5901 10.0017L30.5798 9.98686C30.9187 9.20401 31.0106 8.33641 30.8433 7.49991C30.676 6.66342 30.2575 5.8979 29.6437 5.30567C29.0298 4.71343 28.2499 4.32265 27.4081 4.18559C26.5663 4.04852 25.7028 4.17169 24.9328 4.53861L24.9226 4.52999C23.8982 3.88399 22.793 3.37623 21.6356 3.01987C20.707 2.77433 19.6372 2.62764 18.1556 2.39229C17.9502 2.35856 17.8089 2.33031 17.7125 2.30678C17.4518 2.26038 17.2164 2.12224 17.0487 1.91736C16.881 1.71248 16.7922 1.45438 16.7981 1.18966C16.8041 0.924948 16.9045 0.671093 17.0812 0.473986C17.258 0.276878 17.4994 0.149525 17.7619 0.114925H17.7697H17.7862H17.7957C21.0365 -0.232737 24.3133 0.211375 27.3447 1.40915C30.3762 2.60693 33.0718 4.52259 35.2002 6.9917L35.1979 6.98543Z" fill="white"/>
<path d="M29.765 10.0688C30.2104 9.29695 30.345 8.38434 30.1413 7.51673C29.9377 6.64912 29.4112 5.89175 28.6689 5.39876C27.9267 4.90577 27.0245 4.71421 26.1461 4.86311C25.2676 5.01201 24.4789 5.49017 23.9405 6.20024C23.4021 6.91031 23.1545 7.79891 23.248 8.68517C23.3415 9.57144 23.7692 10.3888 24.444 10.9707C25.1188 11.5527 25.9899 11.8555 26.8801 11.8177C27.7703 11.7798 28.6126 11.4041 29.2355 10.767C29.4405 10.5574 29.6184 10.3228 29.765 10.0688Z" fill="white"/>
<path d="M38.8599 26.661C38.7002 26.391 38.473 26.1672 38.2006 26.0116C37.9282 25.8561 37.6199 25.7741 37.3063 25.7738C37.0467 25.7732 36.79 25.829 36.5541 25.9373C36.3182 26.0457 36.1086 26.204 35.9399 26.4013C35.8466 26.501 35.74 26.6233 35.6263 26.7653C35.4443 26.9881 35.2741 27.1992 35.1118 27.4C34.4396 28.2315 33.9086 28.8905 33.3862 29.4145C33.0201 29.7637 32.6291 30.0856 32.2161 30.3779C32.1872 30.3992 32.1571 30.4188 32.1259 30.4367C31.8971 30.5692 31.6284 30.6154 31.3685 30.5668C31.1086 30.5182 30.8748 30.3781 30.7093 30.1719C30.5438 29.9657 30.4576 29.707 30.4664 29.4427C30.4752 29.1784 30.5785 28.926 30.7573 28.7312C31.3627 28.1287 31.9243 27.4839 32.438 26.8014C32.9979 25.9601 33.5025 25.0833 33.9486 24.1765L33.9557 24.1608C34.8034 24.0627 35.6008 23.7081 36.2416 23.1445C36.8824 22.5809 37.3359 21.8351 37.5416 21.0067C37.7472 20.1784 37.6952 19.307 37.3925 18.5091C37.0898 17.7111 36.5507 17.0245 35.8474 16.5411V16.5278C35.8947 15.3169 35.7815 14.1051 35.5109 12.9239C35.2592 11.9974 34.8506 10.9972 34.3172 9.59297C34.2435 9.3992 34.198 9.26272 34.169 9.16702C34.0786 8.91792 34.0803 8.64465 34.1738 8.39671C34.2673 8.14876 34.4465 7.94252 34.6789 7.81528C34.9114 7.68805 35.1816 7.64826 35.4408 7.7031C35.7001 7.75793 35.9311 7.90375 36.0922 8.11421L36.0969 8.12048L36.1062 8.13384L36.1126 8.14088C36.5459 8.73685 36.947 9.35568 37.3141 9.99464C38.7606 12.4959 39.6477 15.281 39.9146 18.1582C40.1815 21.0354 39.8217 23.9363 38.8599 26.661Z" fill="white"/>
<path d="M33.4763 23.4987C34.3679 23.4997 35.2264 23.1607 35.8769 22.5509C36.5275 21.9411 36.9211 21.1062 36.978 20.2162C37.0348 19.3263 36.7505 18.4481 36.1827 17.7605C35.615 17.0728 34.8066 16.6275 33.9221 16.515C33.0376 16.4025 32.1436 16.6314 31.4219 17.155C30.7002 17.6787 30.2052 18.4578 30.0375 19.3336C29.8699 20.2095 30.0422 21.1164 30.5195 21.8696C30.9968 22.6229 31.7431 23.1659 32.6065 23.3881C32.8907 23.4613 33.1829 23.4985 33.4763 23.4987Z" fill="white"/>
</svg>
